<svg width="457" height="421" viewBox="0 0 457 421" fill="none" xmlns="http://www.w3.org/2000/svg">
<path fill-rule="evenodd" clip-rule="evenodd" d="M328.961 28.9229C361.592 43.3937 388.458 65.7006 412.777 91.3643C424.321 103.549 432.13 118.214 439.68 132.992C460.44 173.641 460.357 216.194 450.058 259.304C445.119 279.949 435.884 299.288 424.361 316.901C409.809 339.144 392.663 359.723 370.967 375.566C340.067 398.139 305.895 413.18 267.594 418.09C242.517 421.304 217.495 422.132 192.525 417.559C168.291 413.12 144.567 407.078 122.803 394.922C116.215 391.243 109.371 388.015 102.643 384.586C80.4476 373.294 61.9184 357.437 45.3034 339.047C36.16 328.928 27.577 318.368 21.4596 306.244C14.733 292.914 7.72524 279.819 5.26526 264.427C3.19543 251.51 0.564842 238.816 0.735417 225.65C1.03963 202.185 5.63779 179.817 16.9743 159.063C18.1807 156.852 19.4094 154.635 20.3825 152.317C30.0744 129.191 46.2606 110.669 62.9866 92.6051C82.9051 71.0949 105.434 52.4342 130.069 36.7674C148.199 25.2305 166.781 14.2771 187.39 6.91872C211.593 -1.72216 235.697 -1.37017 260.152 3.76935C272.876 6.44254 285.758 9.05805 297.935 13.4527C308.734 17.3513 318.659 23.6735 328.961 28.9229Z" fill="#EAD3B5" fill-opacity="0.35"/>
</svg>
