<svg width="347" height="62" viewBox="0 0 347 62" fill="none" xmlns="http://www.w3.org/2000/svg">
<path d="M14.0799 56.4431C14.6552 56.4431 15.1401 56.247 15.5323 55.8543C15.925 55.4617 16.1216 54.9781 16.1216 54.4014V28.9626L23.1878 41.3681C23.4493 41.7878 23.7887 42.2061 24.2085 42.6244C24.6268 43.044 25.2021 43.2522 25.9357 43.2522H30.7253C31.5106 43.2522 32.1115 43.044 32.5312 42.6244C32.9495 42.2061 33.2896 41.7878 33.5518 41.3681L40.6186 28.9626V54.4014C40.6186 54.9781 40.8147 55.4617 41.2074 55.8543C41.6 56.247 42.0831 56.4431 42.6598 56.4431H54.4373C55.0126 56.4431 55.497 56.247 55.8897 55.8543C56.2824 55.4617 56.4785 54.9781 56.4785 54.4014V3.52335C56.4785 2.94806 56.2824 2.46318 55.8897 2.07096C55.497 1.67828 55.0126 1.48172 54.4373 1.48172H43.9948C43.0525 1.48172 42.3458 1.7444 41.8744 2.26707C41.4035 2.79108 41.0895 3.15767 40.9325 3.36637L28.37 25.1938L15.8071 3.36637C15.6502 3.15767 15.3362 2.79108 14.8653 2.26707C14.3939 1.7444 13.6872 1.48172 12.7453 1.48172H2.30241C1.72577 1.48172 1.22923 1.67828 0.810877 2.07096C0.391124 2.46318 0.182373 2.94806 0.182373 3.52335V54.4014C0.182373 54.9781 0.391124 55.4617 0.810877 55.8543C1.22923 56.247 1.72577 56.4431 2.30241 56.4431H14.0799ZM81.6821 56.4431C82.2574 56.4431 82.7418 56.247 83.1345 55.8543C83.5272 55.4617 83.7233 54.9781 83.7233 54.4014V3.52335C83.7233 2.94806 83.5272 2.46318 83.1345 2.07096C82.7418 1.67828 82.2574 1.48172 81.6821 1.48172H68.3343C67.8103 1.48172 67.3393 1.67828 66.921 2.07096C66.5014 2.46318 66.2927 2.94806 66.2927 3.52335V54.4014C66.2927 54.9781 66.5014 55.4617 66.921 55.8543C67.3393 56.247 67.8103 56.4431 68.3343 56.4431H81.6821Z" fill="#09090A"/>
<mask id="mask0_7429_5626" style="mask-type:luminance" maskUnits="userSpaceOnUse" x="91" y="0" width="52" height="62">
<path d="M104.058 3.17072C100.34 4.81969 97.4355 7.24186 95.3426 10.4336C93.2484 13.6268 92.0964 17.5531 91.8882 22.2112C91.8355 24.515 91.8094 26.8315 91.8094 29.1597C91.8094 31.4897 91.8355 33.7531 91.8882 35.9516C92.0964 40.6624 93.2484 44.6017 95.3426 47.7683C97.4355 50.9357 100.34 53.3032 104.058 54.8734C107.774 56.444 112.118 57.2294 117.092 57.2294C119.185 57.2294 121.096 57.0193 122.824 56.6009L125.257 59.742C125.519 60.0554 125.885 60.4351 126.356 60.8803C126.828 61.3243 127.507 61.5479 128.398 61.5479H141.275C141.693 61.5479 142.072 61.3771 142.413 61.0374C142.753 60.696 142.896 60.2912 142.845 59.8201C142.845 59.7149 142.818 59.5851 142.766 59.428C142.713 59.2706 142.661 59.1648 142.609 59.1136L136.564 50.5552C140.07 46.9965 141.981 42.1283 142.295 35.9516C142.4 33.7531 142.452 31.4897 142.452 29.1597C142.452 26.8315 142.4 24.515 142.295 22.2112C142.138 17.5531 140.986 13.6268 138.84 10.4336C136.694 7.24186 133.763 4.81969 130.046 3.17072C126.33 1.52221 122.011 0.697727 117.092 0.697727C112.118 0.697727 107.774 1.52221 104.058 3.17072Z" fill="white"/>
</mask>
<g mask="url(#mask0_7429_5626)">
<path d="M79.0278 5.77441H184.57V0.697532H79.0278V5.77441Z" fill="#ED2123"/>
<path d="M79.0275 10.7793H184.57V5.70241H79.0275V10.7793Z" fill="#F57C14"/>
<path d="M79.0275 15.8564H184.57V10.7796H79.0275V15.8564Z" fill="#F7F11C"/>
<path d="M79.0275 20.9336H184.57V15.8567H79.0275V20.9336Z" fill="#27842F"/>
<path d="M79.0275 26.0098H184.57V20.9329H79.0275V26.0098Z" fill="#3B42A1"/>
<path d="M79.0275 31.0872H184.57V26.0102H79.0275V31.0872Z" fill="#6C2190"/>
<path d="M184.57 36.164H79.0275V41.241H184.57V36.164Z" fill="#E9E5F5"/>
<path d="M184.57 41.2414H79.0275V46.3184H184.57V41.2414Z" fill="#F794BD"/>
<path d="M184.57 46.3168H79.0275V51.3936H184.57V46.3168Z" fill="#7CD4DF"/>
<path d="M184.57 51.3948H79.0275V56.4717H184.57V51.3948Z" fill="#522C16"/>
<path d="M184.57 56.4711H79.0276V61.5479H184.57V56.4711Z" fill="#09090A"/>
<path d="M79.0275 36.1641H184.57V31.0873H79.0275V36.1641Z" fill="#F7F11C"/>
</g>
<path d="M165.669 56.5342L164.509 55.1772C165.152 54.4274 165.491 53.3914 165.491 52.1775V48.1063C165.491 45.2852 163.723 43.535 160.491 43.535C157.259 43.535 155.492 45.2852 155.492 48.1063V52.1775C155.492 54.9986 157.259 56.7484 160.491 56.7484C161.58 56.7484 162.509 56.5342 163.205 56.1415L164.437 57.5877C164.651 57.8556 164.83 57.8556 165.098 57.6411L165.616 57.2126C165.883 56.9805 165.883 56.8018 165.669 56.5342ZM157.223 52.1775V48.1063C157.223 46.2136 158.384 45.1422 160.491 45.1422C162.598 45.1422 163.759 46.2136 163.759 48.1063V52.1775C163.759 54.0701 162.598 55.1416 160.491 55.1416C158.384 55.1416 157.223 54.0701 157.223 52.1775ZM175.151 47.2669H174.418C174.097 47.2669 173.99 47.3741 173.99 47.6956V54.57C173.99 54.7485 173.954 54.8736 173.722 54.9806C173.204 55.1416 172.579 55.2842 171.704 55.2842C170.169 55.2842 169.454 54.57 169.454 53.1593V47.6956C169.454 47.3741 169.347 47.2669 169.044 47.2669H168.294C167.972 47.2669 167.865 47.3741 167.865 47.6956V53.2129C167.865 55.4273 168.99 56.7484 171.49 56.7484C173.151 56.7484 174.186 56.4091 174.901 56.1415C175.454 55.9094 175.579 55.6949 175.579 55.1416V47.6956C175.579 47.3741 175.472 47.2669 175.151 47.2669ZM177.698 50.8203V53.0344C177.698 55.2127 178.877 56.7484 181.662 56.7484C183.716 56.7484 184.876 55.9985 185.501 54.9095C185.698 54.6059 185.662 54.3738 185.341 54.2128L184.859 53.9631C184.537 53.7846 184.376 53.8201 184.162 54.1238C183.716 54.8736 182.948 55.3558 181.68 55.3558C180.109 55.3558 179.287 54.57 179.287 53.2129V52.356H185.108C185.608 52.356 185.769 52.106 185.769 51.7308V50.6954C185.769 48.5886 184.483 46.9993 181.734 46.9993C179.091 46.9993 177.698 48.4099 177.698 50.8203ZM184.18 50.6063V51.124H179.287V50.6063C179.287 49.2134 180.127 48.3565 181.734 48.3565C183.359 48.3565 184.18 49.2134 184.18 50.6063ZM187.624 50.8203V53.0344C187.624 55.2127 188.803 56.7484 191.588 56.7484C193.642 56.7484 194.802 55.9985 195.427 54.9095C195.624 54.6059 195.588 54.3738 195.267 54.2128L194.784 53.9631C194.463 53.7846 194.302 53.8201 194.088 54.1238C193.642 54.8736 192.874 55.3558 191.606 55.3558C190.035 55.3558 189.214 54.57 189.214 53.2129V52.356H195.034C195.534 52.356 195.695 52.106 195.695 51.7308V50.6954C195.695 48.5886 194.41 46.9993 191.66 46.9993C189.017 46.9993 187.624 48.4099 187.624 50.8203ZM194.106 50.6063V51.124H189.214V50.6063C189.214 49.2134 190.052 48.3565 191.66 48.3565C193.285 48.3565 194.106 49.2134 194.106 50.6063ZM201.646 46.9993C200.075 47.0348 199.039 47.303 198.379 47.5526C197.825 47.7847 197.7 47.9992 197.7 48.5525V56.0521C197.7 56.3736 197.807 56.4806 198.111 56.4806H198.861C199.182 56.4806 199.29 56.3736 199.29 56.0521V49.1243C199.29 48.9632 199.307 48.8562 199.539 48.7671C200.057 48.6062 200.718 48.4635 201.593 48.4635H202.218C202.539 48.4635 202.646 48.3565 202.646 48.0347V47.4275C202.646 47.1065 202.539 46.9993 202.218 46.9993H201.646ZM209.608 43.2674H209.447C206.823 43.3029 205.698 44.4279 205.698 46.9459V47.2669H204.341C204.037 47.2669 203.93 47.3741 203.93 47.6956V48.3204C203.93 48.642 204.037 48.7492 204.341 48.7492H205.698V56.0521C205.698 56.3736 205.805 56.4806 206.144 56.4806H206.858C207.197 56.4806 207.305 56.3736 207.305 56.0521V48.7492H209.644C209.948 48.7492 210.055 48.642 210.055 48.3204V47.6956C210.055 47.3741 209.948 47.2669 209.644 47.2669H207.305V46.9459C207.305 45.2852 207.876 44.7494 209.608 44.7494C209.93 44.7494 210.037 44.6424 210.037 44.3207V43.6961C210.037 43.3744 209.93 43.2674 209.608 43.2674ZM211.42 50.8203V53.0344C211.42 55.2127 212.599 56.7484 215.384 56.7484C217.438 56.7484 218.599 55.9985 219.223 54.9095C219.42 54.6059 219.384 54.3738 219.063 54.2128L218.581 53.9631C218.259 53.7846 218.098 53.8201 217.884 54.1238C217.438 54.8736 216.67 55.3558 215.402 55.3558C213.831 55.3558 213.009 54.57 213.009 53.2129V52.356H218.831C219.33 52.356 219.491 52.106 219.491 51.7308V50.6954C219.491 48.5886 218.205 46.9993 215.456 46.9993C212.813 46.9993 211.42 48.4099 211.42 50.8203ZM217.902 50.6063V51.124H213.009V50.6063C213.009 49.2134 213.849 48.3565 215.456 48.3565C217.08 48.3565 217.902 49.2134 217.902 50.6063ZM222.362 43.8922H222.255C221.612 43.8922 221.398 44.1067 221.398 44.7494V44.8921C221.398 45.5528 221.612 45.7494 222.255 45.7494H222.362C223.023 45.7494 223.219 45.5352 223.219 44.8921V44.7494C223.219 44.1067 223.023 43.8922 222.362 43.8922ZM222.684 47.2669H221.934C221.612 47.2669 221.505 47.3741 221.505 47.6956V56.0521C221.505 56.3736 221.612 56.4806 221.934 56.4806H222.684C223.005 56.4806 223.112 56.3736 223.112 56.0521V47.6956C223.112 47.3741 223.005 47.2669 222.684 47.2669ZM226.137 47.6062C225.583 47.8387 225.458 48.0529 225.458 48.6062V56.0521C225.458 56.3736 225.565 56.4806 225.869 56.4806H226.619C226.94 56.4806 227.048 56.3736 227.048 56.0521V49.1062C227.048 48.9632 227.083 48.8562 227.262 48.7846C227.761 48.6241 228.458 48.4635 229.333 48.4635C230.869 48.4635 231.565 49.1777 231.565 50.5884V56.0521C231.565 56.3736 231.672 56.4806 231.994 56.4806H232.743C233.065 56.4806 233.172 56.3736 233.172 56.0521V50.5348C233.172 48.3204 232.047 46.9993 229.547 46.9993C227.886 46.9993 226.833 47.3205 226.137 47.6062ZM235.263 50.6418V53.1593C235.263 55.4449 236.459 56.7484 239.084 56.7484C240.601 56.7484 241.584 56.4627 242.28 56.1951C242.851 55.963 242.976 55.8019 242.976 55.2127V43.6961C242.976 43.3744 242.869 43.2674 242.566 43.2674H241.816C241.494 43.2674 241.387 43.3744 241.387 43.6961V47.392C240.923 47.2669 239.995 46.9993 238.888 46.9993C236.459 46.9993 235.263 48.3204 235.263 50.6418ZM241.387 48.8562V54.6595C241.387 54.8555 241.369 54.9095 241.137 54.9986C240.673 55.1591 240.012 55.2842 239.227 55.2842C237.655 55.2842 236.87 54.5343 236.87 53.1059V50.6954C236.87 49.2313 237.584 48.4635 239.191 48.4635C240.191 48.4635 240.976 48.7311 241.387 48.8562ZM246.969 56.0521V43.6961C246.969 43.3744 246.862 43.2674 246.54 43.2674H245.808C245.487 43.2674 245.38 43.3744 245.38 43.6961V56.0521C245.38 56.3736 245.487 56.4806 245.808 56.4806H246.54C246.862 56.4806 246.969 56.3736 246.969 56.0521ZM250.217 43.8922H250.109C249.466 43.8922 249.252 44.1067 249.252 44.7494V44.8921C249.252 45.5528 249.466 45.7494 250.109 45.7494H250.217C250.877 45.7494 251.074 45.5352 251.074 44.8921V44.7494C251.074 44.1067 250.877 43.8922 250.217 43.8922ZM250.538 47.2669H249.788C249.466 47.2669 249.359 47.3741 249.359 47.6956V56.0521C249.359 56.3736 249.466 56.4806 249.788 56.4806H250.538C250.859 56.4806 250.967 56.3736 250.967 56.0521V47.6956C250.967 47.3741 250.859 47.2669 250.538 47.2669ZM253.054 50.5884V53.1419C253.054 55.3737 254.304 56.7484 256.946 56.7484C259.071 56.7484 260.285 55.8736 260.857 54.2843C260.981 53.9452 260.874 53.8022 260.553 53.6771L259.928 53.4986C259.589 53.3914 259.464 53.445 259.321 53.7846C258.999 54.7846 258.268 55.3379 256.982 55.3379C255.446 55.3379 254.661 54.5343 254.661 53.2129V50.5167C254.661 49.1953 255.429 48.4099 256.982 48.4099C258.303 48.4099 258.981 48.9277 259.303 49.9095C259.428 50.2312 259.589 50.3382 259.91 50.1957L260.535 49.9991C260.839 49.8921 260.946 49.731 260.821 49.3919C260.374 47.9813 259.214 46.9993 257.053 46.9993C254.339 46.9993 253.054 48.374 253.054 50.5884ZM264.051 43.2674H263.301C262.979 43.2674 262.872 43.3744 262.872 43.6961V56.0521C262.872 56.3736 262.979 56.4806 263.301 56.4806H264.051C264.354 56.4806 264.461 56.3736 264.461 56.0521V48.8741C264.854 48.6776 265.747 48.4635 266.747 48.4635C268.247 48.4635 268.997 49.2134 268.997 50.5884V56.0521C268.997 56.3736 269.104 56.4806 269.425 56.4806H270.157C270.479 56.4806 270.586 56.3736 270.586 56.0521V50.5348C270.586 48.3029 269.461 46.9993 266.961 46.9993C265.8 46.9993 264.837 47.2135 264.461 47.392V43.6961C264.461 43.3744 264.354 43.2674 264.051 43.2674ZM280.548 55.9806L278.976 52.8023C278.601 52.0524 278.173 51.5702 277.548 51.3382L280.404 47.7671C280.655 47.4456 280.566 47.2669 280.137 47.2669H279.458C278.976 47.2669 278.851 47.2669 278.619 47.5886L275.959 51.0345H275.816H274.512V43.6961C274.512 43.3744 274.405 43.2674 274.066 43.2674H273.37C273.03 43.2674 272.923 43.3744 272.923 43.6961V56.034C272.923 56.3736 273.03 56.4806 273.37 56.4806H274.066C274.405 56.4806 274.512 56.3736 274.512 56.034V52.5166H276.012C276.852 52.5166 277.28 52.8023 277.619 53.4986L278.851 56.0881C279.012 56.4272 279.101 56.4806 279.583 56.4806H280.279C280.691 56.4806 280.744 56.3376 280.548 55.9806ZM281.899 50.8203V53.0344C281.899 55.2127 283.078 56.7484 285.863 56.7484C287.917 56.7484 289.077 55.9985 289.702 54.9095C289.898 54.6059 289.863 54.3738 289.541 54.2128L289.059 53.9631C288.738 53.7846 288.577 53.8201 288.363 54.1238C287.917 54.8736 287.149 55.3558 285.881 55.3558C284.31 55.3558 283.488 54.57 283.488 53.2129V52.356H289.309C289.809 52.356 289.97 52.106 289.97 51.7308V50.6954C289.97 48.5886 288.684 46.9993 285.934 46.9993C283.292 46.9993 281.899 48.4099 281.899 50.8203ZM288.381 50.6063V51.124H283.488V50.6063C283.488 49.2134 284.328 48.3565 285.934 48.3565C287.559 48.3565 288.381 49.2134 288.381 50.6063ZM292.841 43.8922H292.734C292.091 43.8922 291.877 44.1067 291.877 44.7494V44.8921C291.877 45.5528 292.091 45.7494 292.734 45.7494H292.841C293.502 45.7494 293.698 45.5352 293.698 44.8921V44.7494C293.698 44.1067 293.502 43.8922 292.841 43.8922ZM293.162 47.2669H292.412C292.091 47.2669 291.984 47.3741 291.984 47.6956V56.0521C291.984 56.3736 292.091 56.4806 292.412 56.4806H293.162C293.484 56.4806 293.591 56.3736 293.591 56.0521V47.6956C293.591 47.3741 293.484 47.2669 293.162 47.2669ZM298.387 45.1246H297.637C297.316 45.1246 297.226 45.2316 297.226 45.5528V47.2669H295.744C295.423 47.2669 295.315 47.3741 295.315 47.6956V48.3204C295.315 48.642 295.423 48.7492 295.744 48.7492H297.226V52.9453C297.226 55.927 298.28 56.8018 301.119 56.7308C301.458 56.7127 301.565 56.6233 301.565 56.3021V55.6594C301.565 55.3203 301.458 55.2307 301.119 55.2307C299.387 55.2307 298.815 54.8555 298.815 52.9093V48.7492H301.154C301.458 48.7492 301.565 48.642 301.565 48.3204V47.6956C301.565 47.3741 301.458 47.2669 301.154 47.2669H298.815V45.5528C298.815 45.2316 298.708 45.1246 298.387 45.1246ZM317.207 43.8031H316.474C316.117 43.8031 316.01 43.9283 316.01 44.2674V50.7309C316.01 52.32 316.296 53.7846 316.296 54.1773H316.207C315.992 53.8737 315.492 52.5347 314.671 51.3202L309.654 44.0352C309.564 43.8922 309.439 43.8031 309.189 43.8031H308.404C308.064 43.8031 307.939 43.9283 307.939 44.2674V56.0166C307.939 56.3557 308.064 56.4806 308.404 56.4806H309.136C309.493 56.4806 309.618 56.3557 309.618 56.0166V49.4098C309.618 47.9278 309.314 46.4278 309.314 46.0885H309.403C309.582 46.3387 310.118 47.7311 310.85 48.8386L315.939 56.2487C316.064 56.4272 316.189 56.4806 316.421 56.4806H317.207C317.546 56.4806 317.671 56.3557 317.671 56.0166V44.2674C317.671 43.9283 317.546 43.8031 317.207 43.8031ZM325.915 43.8031H320.897C320.558 43.8031 320.433 43.9283 320.433 44.2674V56.0166C320.433 56.3557 320.558 56.4806 320.897 56.4806H321.683C322.04 56.4806 322.165 56.3557 322.165 56.0166V51.3917H324.075C325.397 51.3917 325.915 51.7488 326.432 52.8023L328.057 56.07C328.218 56.4091 328.397 56.4806 328.986 56.4806H329.771C330.128 56.4806 330.164 56.2666 330.021 55.9985L328.04 52.1596C327.789 51.7133 327.539 51.3742 327.147 51.1596C328.789 50.7849 329.771 49.5349 329.771 47.6062C329.771 45.1957 328.307 43.8031 325.915 43.8031ZM327.968 47.6062C327.968 48.9992 327.165 49.7846 325.754 49.7846H322.165V45.4103H325.754C327.165 45.4103 327.968 46.1957 327.968 47.6062ZM346.129 43.8031H345.307C344.915 43.8031 344.754 43.8746 344.683 44.2137L342.843 51.9809C342.701 52.6062 342.558 53.7665 342.522 54.0877H342.433C342.397 53.7131 342.236 52.6417 342.058 51.9633L339.969 44.3568C339.879 44.0171 339.701 43.9462 339.344 43.9462H338.594C338.255 43.9462 338.076 44.0171 337.969 44.3568L335.862 51.9633C335.683 52.5881 335.54 53.695 335.487 54.0877H335.397C335.362 53.731 335.219 52.5347 335.094 51.9454L333.237 44.2137C333.165 43.8746 333.005 43.8031 332.612 43.8031H331.666C331.327 43.8031 331.273 43.9462 331.362 44.2674L334.433 56.1055C334.505 56.4272 334.701 56.4806 335.023 56.4806H335.773C336.094 56.4806 336.273 56.4272 336.362 56.0881L338.522 48.1599C338.683 47.5886 338.808 46.9278 338.862 46.303H338.969C339.022 46.9278 339.147 47.6242 339.29 48.1599L341.433 56.1055C341.504 56.4091 341.7 56.4806 342.022 56.4806H342.772C343.111 56.4806 343.29 56.4272 343.361 56.0881L346.45 44.2674C346.522 43.9462 346.468 43.8031 346.129 43.8031Z" fill="#161717"/>
<path d="M155.867 23.3919V35.141C155.867 35.4803 155.992 35.6053 156.331 35.6053H157.117C157.474 35.6053 157.599 35.4803 157.599 35.141V23.3919C157.599 23.0528 157.474 22.9277 157.117 22.9277H156.331C155.992 22.9277 155.867 23.0528 155.867 23.3919ZM160.817 26.7308C160.263 26.9629 160.138 27.1774 160.138 27.7307V35.1767C160.138 35.4983 160.245 35.6053 160.548 35.6053H161.299C161.62 35.6053 161.727 35.4983 161.727 35.1767V28.2309C161.727 28.0878 161.763 27.9808 161.941 27.9093C162.441 27.7487 163.138 27.5881 164.013 27.5881C165.548 27.5881 166.245 28.3024 166.245 29.713V35.1767C166.245 35.4983 166.352 35.6053 166.673 35.6053H167.423C167.744 35.6053 167.852 35.4983 167.852 35.1767V29.6595C167.852 27.4451 166.727 26.124 164.227 26.124C162.566 26.124 161.513 26.4452 160.817 26.7308ZM175.117 22.392H174.956C172.331 22.4276 171.206 23.5525 171.206 26.0705V26.3916H169.849C169.546 26.3916 169.439 26.4987 169.439 26.8203V27.4451C169.439 27.7667 169.546 27.8737 169.849 27.8737H171.206V35.1767C171.206 35.4983 171.314 35.6053 171.653 35.6053H172.367C172.707 35.6053 172.814 35.4983 172.814 35.1767V27.8737H175.153C175.456 27.8737 175.563 27.7667 175.563 27.4451V26.8203C175.563 26.4987 175.456 26.3916 175.153 26.3916H172.814V26.0705C172.814 24.4098 173.385 23.8741 175.117 23.8741C175.439 23.8741 175.546 23.7671 175.546 23.4455V22.8207C175.546 22.4991 175.439 22.392 175.117 22.392ZM176.981 29.5524V32.4626C176.981 34.5695 178.463 35.873 180.981 35.873C183.552 35.873 184.998 34.5695 184.998 32.4626V29.5524C184.998 27.4275 183.552 26.124 180.981 26.124C178.463 26.124 176.981 27.4275 176.981 29.5524ZM183.409 29.5344V32.4626C183.409 33.6945 182.499 34.4268 180.981 34.4268C179.481 34.4268 178.57 33.6945 178.57 32.4626V29.5344C178.57 28.3024 179.481 27.5701 180.981 27.5701C182.499 27.5701 183.409 28.3024 183.409 29.5344ZM191.099 26.124C189.528 26.1595 188.492 26.4276 187.831 26.6773C187.278 26.9094 187.153 27.1239 187.153 27.6772V35.1767C187.153 35.4983 187.26 35.6053 187.564 35.6053H188.314C188.635 35.6053 188.742 35.4983 188.742 35.1767V28.2489C188.742 28.0878 188.76 27.9808 188.992 27.8917C189.51 27.7307 190.171 27.5881 191.046 27.5881H191.671C191.992 27.5881 192.099 27.4811 192.099 27.1595V26.5522C192.099 26.2311 191.992 26.124 191.671 26.124H191.099ZM199.813 26.8023C199.277 26.3561 198.527 26.124 197.527 26.124C196.099 26.124 195.17 26.4276 194.51 26.7132C193.956 26.9453 193.831 27.1774 193.831 27.7307V35.1767C193.831 35.4983 193.938 35.6053 194.242 35.6053H194.992C195.313 35.6053 195.42 35.4983 195.42 35.1767V28.2489C195.42 28.0878 195.438 27.9808 195.635 27.8737C196.134 27.6952 196.634 27.5881 197.313 27.5881C198.67 27.5881 199.349 28.2664 199.349 29.6416V35.1767C199.349 35.4983 199.456 35.6053 199.777 35.6053H200.527C200.831 35.6053 200.938 35.4983 200.938 35.1767V29.5879C200.938 28.9987 200.866 28.481 200.67 28.0703C201.045 27.9093 201.795 27.5881 202.777 27.5881C204.134 27.5881 204.777 28.2664 204.777 29.6416V35.1767C204.777 35.4983 204.884 35.6053 205.205 35.6053H205.955C206.259 35.6053 206.366 35.4983 206.366 35.1767V29.5879C206.366 27.3736 205.33 26.124 202.991 26.124C201.366 26.124 200.295 26.6057 199.813 26.8023ZM208.648 27.9988C208.487 28.3199 208.576 28.481 208.88 28.606L209.433 28.8556C209.755 28.9807 209.826 28.9272 210.022 28.6415C210.451 27.9273 211.165 27.5521 212.237 27.5521C213.915 27.5521 214.362 28.4094 214.362 29.6771V30.3558C214.058 30.3198 213.201 30.2307 212.326 30.2307C209.487 30.2307 208.344 30.9449 208.344 33.0339C208.344 34.8556 209.112 35.873 212.254 35.873C213.647 35.873 214.665 35.6943 215.325 35.4088C215.826 35.1947 215.968 35.0161 215.968 34.3908V29.7305C215.968 27.7132 215.165 26.124 212.272 26.124C210.451 26.124 209.254 26.8203 208.648 27.9988ZM214.362 31.6767V33.9266C214.362 34.1768 214.308 34.2302 214.093 34.3198C213.683 34.4623 213.076 34.5338 212.112 34.5338C210.326 34.5338 209.951 33.9626 209.951 33.0339C209.951 32.0164 210.469 31.5342 212.147 31.5342C213.022 31.5342 214.004 31.6412 214.362 31.6767ZM220.566 24.2488H219.816C219.495 24.2488 219.406 24.3563 219.406 24.6775V26.3916H217.923C217.602 26.3916 217.495 26.4987 217.495 26.8203V27.4451C217.495 27.7667 217.602 27.8737 217.923 27.8737H219.406V32.0699C219.406 35.0516 220.459 35.9264 223.298 35.8555C223.637 35.8374 223.744 35.7479 223.744 35.4268V34.784C223.744 34.4449 223.637 34.3553 223.298 34.3553C221.566 34.3553 220.995 33.9802 220.995 32.0339V27.8737H223.334C223.637 27.8737 223.744 27.7667 223.744 27.4451V26.8203C223.744 26.4987 223.637 26.3916 223.334 26.3916H220.995V24.6775C220.995 24.3563 220.888 24.2488 220.566 24.2488ZM226.405 23.0168H226.298C225.655 23.0168 225.441 23.2314 225.441 23.8741V24.0167C225.441 24.6775 225.655 24.874 226.298 24.874H226.405C227.066 24.874 227.262 24.6595 227.262 24.0167V23.8741C227.262 23.2314 227.066 23.0168 226.405 23.0168ZM226.726 26.3916H225.976C225.655 26.3916 225.548 26.4987 225.548 26.8203V35.1767C225.548 35.4983 225.655 35.6053 225.976 35.6053H226.726C227.048 35.6053 227.155 35.4983 227.155 35.1767V26.8203C227.155 26.4987 227.048 26.3916 226.726 26.3916ZM229.249 29.5524V32.4626C229.249 34.5695 230.731 35.873 233.249 35.873C235.82 35.873 237.266 34.5695 237.266 32.4626V29.5524C237.266 27.4275 235.82 26.124 233.249 26.124C230.731 26.124 229.249 27.4275 229.249 29.5524ZM235.677 29.5344V32.4626C235.677 33.6945 234.767 34.4268 233.249 34.4268C231.749 34.4268 230.838 33.6945 230.838 32.4626V29.5344C230.838 28.3024 231.749 27.5701 233.249 27.5701C234.767 27.5701 235.677 28.3024 235.677 29.5344ZM240.099 26.7308C239.546 26.9629 239.421 27.1774 239.421 27.7307V35.1767C239.421 35.4983 239.528 35.6053 239.832 35.6053H240.582C240.903 35.6053 241.01 35.4983 241.01 35.1767V28.2309C241.01 28.0878 241.046 27.9808 241.224 27.9093C241.725 27.7487 242.421 27.5881 243.296 27.5881C244.831 27.5881 245.528 28.3024 245.528 29.713V35.1767C245.528 35.4983 245.635 35.6053 245.956 35.6053H246.706C247.028 35.6053 247.135 35.4983 247.135 35.1767V29.6595C247.135 27.4451 246.01 26.124 243.51 26.124C241.85 26.124 240.796 26.4452 240.099 26.7308ZM249.222 28.8916C249.222 31.1951 251.061 31.4982 252.847 31.6767C254.347 31.8197 255.222 32.0164 255.222 33.0878C255.222 33.9626 254.507 34.4449 252.99 34.4449C251.74 34.4449 250.936 34.0877 250.579 33.159C250.436 32.8378 250.293 32.8017 250.008 32.8912L249.4 33.1053C249.079 33.2123 249.008 33.3909 249.133 33.6771C249.687 35.141 251.008 35.873 253.043 35.873C255.543 35.873 256.775 34.7125 256.775 33.0163C256.775 30.9089 255.275 30.4628 253.239 30.2662C251.757 30.1416 250.811 29.9986 250.811 28.8556C250.811 27.9988 251.472 27.5701 252.847 27.5701C254.222 27.5701 254.793 28.0343 255.132 28.7306C255.311 29.0167 255.4 29.0702 255.721 28.9272L256.329 28.6771C256.614 28.552 256.704 28.3739 256.543 28.0523C256.007 26.8918 254.882 26.124 252.811 26.124C250.436 26.124 249.222 27.231 249.222 28.8916ZM258.659 28.8916C258.659 31.1951 260.498 31.4982 262.284 31.6767C263.783 31.8197 264.659 32.0164 264.659 33.0878C264.659 33.9626 263.944 34.4449 262.427 34.4449C261.177 34.4449 260.373 34.0877 260.016 33.159C259.873 32.8378 259.73 32.8017 259.444 32.8912L258.837 33.1053C258.516 33.2123 258.445 33.3909 258.57 33.6771C259.123 35.141 260.444 35.873 262.48 35.873C264.98 35.873 266.212 34.7125 266.212 33.0163C266.212 30.9089 264.712 30.4628 262.676 30.2662C261.194 30.1416 260.248 29.9986 260.248 28.8556C260.248 27.9988 260.909 27.5701 262.284 27.5701C263.659 27.5701 264.23 28.0343 264.569 28.7306C264.748 29.0167 264.837 29.0702 265.158 28.9272L265.765 28.6771C266.051 28.552 266.141 28.3739 265.98 28.0523C265.444 26.8918 264.319 26.124 262.248 26.124C259.873 26.124 258.659 27.231 258.659 28.8916ZM270.651 24.2488H269.901C269.579 24.2488 269.49 24.3563 269.49 24.6775V26.3916H268.008C267.687 26.3916 267.58 26.4987 267.58 26.8203V27.4451C267.58 27.7667 267.687 27.8737 268.008 27.8737H269.49V32.0699C269.49 35.0516 270.544 35.9264 273.383 35.8555C273.722 35.8374 273.829 35.7479 273.829 35.4268V34.784C273.829 34.4449 273.722 34.3553 273.383 34.3553C271.651 34.3553 271.079 33.9802 271.079 32.0339V27.8737H273.418C273.722 27.8737 273.829 27.7667 273.829 27.4451V26.8203C273.829 26.4987 273.722 26.3916 273.418 26.3916H271.079V24.6775C271.079 24.3563 270.972 24.2488 270.651 24.2488ZM275.256 29.9452V32.159C275.256 34.3374 276.434 35.873 279.219 35.873C281.273 35.873 282.434 35.1231 283.058 34.0338C283.255 33.7305 283.219 33.4984 282.898 33.3375L282.416 33.0878C282.095 32.9093 281.933 32.9448 281.719 33.2484C281.273 33.9981 280.505 34.4804 279.237 34.4804C277.666 34.4804 276.845 33.6945 276.845 32.3375V31.4806H282.666C283.165 31.4806 283.327 31.2306 283.327 30.8555V29.8201C283.327 27.7132 282.041 26.124 279.291 26.124C276.648 26.124 275.256 27.5346 275.256 29.9452ZM281.737 29.7305V30.2488H276.845V29.7305C276.845 28.3379 277.684 27.4811 279.291 27.4811C280.916 27.4811 281.737 28.3379 281.737 29.7305ZM286.964 35.1767V22.8207C286.964 22.4991 286.857 22.392 286.535 22.392H285.803C285.482 22.392 285.374 22.4991 285.374 22.8207V35.1767C285.374 35.4983 285.482 35.6053 285.803 35.6053H286.535C286.857 35.6053 286.964 35.4983 286.964 35.1767ZM290.983 35.1767V22.8207C290.983 22.4991 290.875 22.392 290.554 22.392H289.822C289.501 22.392 289.393 22.4991 289.393 22.8207V35.1767C289.393 35.4983 289.501 35.6053 289.822 35.6053H290.554C290.875 35.6053 290.983 35.4983 290.983 35.1767ZM293.129 29.9452V32.159C293.129 34.3374 294.307 35.873 297.093 35.873C299.146 35.873 300.307 35.1231 300.932 34.0338C301.128 33.7305 301.093 33.4984 300.771 33.3375L300.289 33.0878C299.968 32.9093 299.807 32.9448 299.593 33.2484C299.146 33.9981 298.379 34.4804 297.111 34.4804C295.539 34.4804 294.718 33.6945 294.718 32.3375V31.4806H300.539C301.039 31.4806 301.2 31.2306 301.2 30.8555V29.8201C301.2 27.7132 299.914 26.124 297.164 26.124C294.522 26.124 293.129 27.5346 293.129 29.9452ZM299.611 29.7305V30.2488H294.718V29.7305C294.718 28.3379 295.557 27.4811 297.164 27.4811C298.789 27.4811 299.611 28.3379 299.611 29.7305Z" fill="#161717"/>
<path d="M167.134 2.05185H166.455C166.081 2.05185 165.973 2.12337 165.812 2.42698L161.724 9.71193L157.617 2.40899C157.456 2.12337 157.349 2.05185 156.956 2.05185H156.331C155.992 2.05185 155.867 2.1769 155.867 2.51605V14.2652C155.867 14.6044 155.992 14.7294 156.331 14.7294H157.01C157.367 14.7294 157.474 14.6044 157.474 14.2652V7.81917C157.474 6.76574 157.403 5.73031 157.188 4.46232H157.296C157.724 5.71231 158.081 6.48012 158.635 7.4265L160.938 11.4976C161.099 11.7653 161.206 11.8368 161.492 11.8368H161.938C162.224 11.8368 162.349 11.7477 162.492 11.4976L164.759 7.46204C165.295 6.51566 165.741 5.65879 166.188 4.46232H166.277C166.063 5.71231 165.955 6.81927 165.955 7.81917V14.2652C165.955 14.6044 166.063 14.7294 166.42 14.7294H167.134C167.473 14.7294 167.598 14.6044 167.598 14.2652V2.51605C167.598 2.1769 167.473 2.05185 167.134 2.05185ZM169.932 9.06917V11.2831C169.932 13.4615 171.11 14.9971 173.896 14.9971C175.949 14.9971 177.11 14.2473 177.735 13.1583C177.931 12.8547 177.895 12.6226 177.574 12.4616L177.092 12.2119C176.77 12.0333 176.61 12.0689 176.396 12.3725C175.949 13.1223 175.181 13.6045 173.914 13.6045C172.342 13.6045 171.521 12.8187 171.521 11.4617V10.6048H177.342C177.842 10.6048 178.002 10.3547 178.002 9.98001V8.94412C178.002 6.83726 176.717 5.24813 173.967 5.24813C171.325 5.24813 169.932 6.65869 169.932 9.06917ZM176.413 8.85506V9.37278H171.521V8.85506C171.521 7.46203 172.36 6.60517 173.967 6.60517C175.592 6.60517 176.413 7.46203 176.413 8.85506ZM181.64 14.3008V1.9448C181.64 1.62319 181.532 1.51614 181.211 1.51614H180.479C180.158 1.51614 180.05 1.62319 180.05 1.9448V14.3008C180.05 14.6224 180.158 14.7294 180.479 14.7294H181.211C181.532 14.7294 181.64 14.6224 181.64 14.3008ZM183.822 8.8906V11.4081C183.822 13.694 185.018 14.9971 187.643 14.9971C189.161 14.9971 190.143 14.7114 190.839 14.4438C191.41 14.2117 191.535 14.0507 191.535 13.4615V1.9448C191.535 1.62319 191.428 1.51614 191.124 1.51614H190.375C190.053 1.51614 189.946 1.62319 189.946 1.9448V5.6408C189.482 5.51576 188.553 5.24813 187.446 5.24813C185.018 5.24813 183.822 6.56919 183.822 8.8906ZM189.946 7.10489V12.9082C189.946 13.1048 189.928 13.1583 189.696 13.2474C189.232 13.4079 188.571 13.533 187.786 13.533C186.214 13.533 185.429 12.7832 185.429 11.3546V8.94412C185.429 7.48003 186.143 6.71222 187.75 6.71222C188.75 6.71222 189.535 6.97985 189.946 7.10489ZM193.655 9.06917V11.2831C193.655 13.4615 194.833 14.9971 197.619 14.9971C199.672 14.9971 200.832 14.2473 201.457 13.1583C201.654 12.8547 201.618 12.6226 201.297 12.4616L200.814 12.2119C200.493 12.0333 200.333 12.0689 200.118 12.3725C199.672 13.1223 198.904 13.6045 197.636 13.6045C196.065 13.6045 195.244 12.8187 195.244 11.4617V10.6048H201.065C201.565 10.6048 201.725 10.3547 201.725 9.98001V8.94412C201.725 6.83726 200.44 5.24813 197.69 5.24813C195.047 5.24813 193.655 6.65869 193.655 9.06917ZM200.136 8.85506V9.37278H195.244V8.85506C195.244 7.46203 196.083 6.60517 197.69 6.60517C199.315 6.60517 200.136 7.46203 200.136 8.85506ZM208.618 9.22975H204.243C203.886 9.22975 203.779 9.3368 203.779 9.69394V10.3012C203.779 10.6583 203.886 10.7654 204.243 10.7654H208.618C208.975 10.7654 209.1 10.6583 209.1 10.3012V9.69394C209.1 9.3368 208.975 9.22975 208.618 9.22975ZM223.259 5.51575H222.527C222.206 5.51575 222.099 5.62281 222.099 5.94441V12.8187C222.099 12.9973 222.063 13.1223 221.83 13.2294C221.313 13.3904 220.688 13.533 219.813 13.533C218.277 13.533 217.563 12.8187 217.563 11.4081V5.94441C217.563 5.62281 217.456 5.51575 217.153 5.51575H216.402C216.081 5.51575 215.974 5.62281 215.974 5.94441V11.4617C215.974 13.676 217.099 14.9971 219.599 14.9971C221.259 14.9971 222.295 14.6579 223.009 14.3903C223.563 14.1582 223.688 13.9436 223.688 13.3904V5.94441C223.688 5.62281 223.581 5.51575 223.259 5.51575ZM226.723 5.85491C226.17 6.08745 226.045 6.30155 226.045 6.85526V14.3008C226.045 14.6224 226.152 14.7294 226.455 14.7294H227.205C227.526 14.7294 227.634 14.6224 227.634 14.3008V7.35498C227.634 7.21195 227.669 7.10489 227.848 7.03383C228.348 6.8728 229.044 6.71222 229.919 6.71222C231.455 6.71222 232.151 7.4265 232.151 8.83707V14.3008C232.151 14.6224 232.258 14.7294 232.58 14.7294H233.33C233.651 14.7294 233.758 14.6224 233.758 14.3008V8.78355C233.758 6.56919 232.633 5.24813 230.133 5.24813C228.473 5.24813 227.419 5.56928 226.723 5.85491ZM235.849 8.8906V11.4081C235.849 13.694 237.045 14.9971 239.67 14.9971C241.188 14.9971 242.17 14.7114 242.866 14.4438C243.437 14.2117 243.562 14.0507 243.562 13.4615V1.9448C243.562 1.62319 243.455 1.51614 243.152 1.51614H242.402C242.08 1.51614 241.973 1.62319 241.973 1.9448V5.6408C241.509 5.51576 240.581 5.24813 239.474 5.24813C237.045 5.24813 235.849 6.56919 235.849 8.8906ZM241.973 7.10489V12.9082C241.973 13.1048 241.955 13.1583 241.723 13.2474C241.259 13.4079 240.598 13.533 239.813 13.533C238.241 13.533 237.456 12.7832 237.456 11.3546V8.94412C237.456 7.48003 238.17 6.71222 239.777 6.71222C240.777 6.71222 241.563 6.97985 241.973 7.10489Z" fill="#161717"/>
</svg>
