<svg width="644" height="823" viewBox="0 0 644 823" fill="none" xmlns="http://www.w3.org/2000/svg">
<path fill-rule="evenodd" clip-rule="evenodd" d="M217.297 390.218C237.256 383.933 254.372 372.704 270.225 359.353C277.75 353.014 283.263 344.984 288.632 336.872C303.397 314.557 306.145 289.764 302.978 263.975C301.458 251.624 297.35 239.752 291.795 228.735C284.78 214.821 276.144 201.707 264.547 191.052C248.031 175.873 229.114 164.865 207.125 159.488C192.729 155.968 178.207 153.841 163.361 154.864C148.953 155.857 134.736 157.817 121.259 163.468C117.18 165.178 112.981 166.609 108.836 168.164C95.1651 173.283 83.3294 181.303 72.4423 190.923C66.4511 196.217 60.7574 201.804 56.3972 208.465C51.6028 215.787 46.66 222.955 44.2155 231.76C42.1609 239.148 39.7943 246.37 39.0284 254.05C37.6636 267.739 38.8721 281.071 44.1119 293.906C44.6693 295.273 45.2394 296.645 45.6539 298.059C49.7798 312.167 57.9913 324.021 66.5474 335.642C76.7367 349.481 88.6337 361.832 101.954 372.577C111.757 380.489 121.862 388.091 133.384 393.732C146.914 400.356 160.978 401.735 175.561 400.348C183.149 399.627 190.825 398.95 198.207 397.19C204.754 395.629 210.951 392.598 217.297 390.218Z" fill="#EAD3B5" fill-opacity="0.6"/>
<path fill-rule="evenodd" clip-rule="evenodd" d="M452.857 564.932C451.921 565.147 450.788 565.1 450.084 565.629C448.517 566.802 447.058 568.168 445.742 569.623C435.04 581.487 421.702 589.864 408.171 597.964C389.229 609.303 369.197 618.437 348.474 625.879C328.04 633.214 307.036 638.593 285.435 641.4C272.396 643.098 264.132 642.065 250.966 641.645C223.636 640.769 204.446 632.104 178.116 624.123C150.872 615.867 138.452 605.688 108.563 594.216C64.7378 569.27 66.7651 569.257 51.0216 559.513C34.3681 549.207 31.9248 547.466 31.9248 547.466C30.485 545.966 30.2959 546.306 27.0381 543.985C26.1531 542.62 24.1561 541.322 23.0023 540.171C6.76399 522.463 -5.78331 503.718 -18.5179 483.833C-28.8324 467.727 -37.1142 450.568 -43.4149 432.579C-50.0469 413.671 -55.0812 394.35 -56.8276 374.172C-57.9137 361.643 -57.798 349.262 -56.7151 336.826C-55.2644 320.164 -50.1944 304.619 -40.6708 290.828C-29.2954 274.356 -6.21131 267.582 9.96445 273.564C19.7077 277.167 28.4561 282.101 35.9093 289.109C43.3013 296.06 51.0156 302.768 56.644 311.434C58.2272 313.87 60.7301 315.693 62.7447 317.86C66.751 322.185 70.6188 326.606 74.3587 331.186C80.3437 338.512 86.9715 345.393 95.0714 350.695C100.003 353.923 104.691 357.427 110.056 360.031C123.285 366.443 137.052 367.63 151.379 365.424C164.192 363.451 176.125 358.907 187.718 353.347C201.931 346.537 216.137 339.713 230.271 332.742C256.059 320.025 282.95 310.663 311.271 305.505C338.651 300.521 366.162 299.303 393.599 304.186C422.689 309.362 449.558 320.377 474.268 336.772C487.04 345.246 497.584 356.11 507.495 367.405C519.482 381.07 525.618 397.604 526.189 416.048C526.931 440.172 521.73 463.007 511.812 484.888C505.696 498.376 498.347 511.193 489.915 523.325C486.383 528.409 481.617 532.63 477.452 537.283C475.75 539.186 473.262 540.659 473.594 543.783C466.683 550.831 459.77 557.882 452.857 564.932Z" fill="#2F804A" fill-opacity="0.25"/>
</svg>
