<svg width="290" height="58" viewBox="0 0 290 58" fill="none" xmlns="http://www.w3.org/2000/svg">
<path d="M72.9776 36.3968C72.473 36.3968 72.0404 35.9651 72.0404 35.4614V20.7523L70.3102 20.4645C69.7644 20.3925 69.373 19.9197 69.373 19.3852V19.2824C69.373 18.7788 69.8056 18.3471 70.3102 18.3471H74.2135C74.7181 18.3471 75.1507 18.7788 75.1507 19.2824V35.4614C75.1507 35.9651 74.7181 36.3968 74.2135 36.3968H72.9776ZM73.5132 14.9859C72.2876 14.9859 71.3813 14.0094 71.3813 12.7862C71.3813 11.5219 72.3185 10.5557 73.5441 10.5557C74.8108 10.5557 75.748 11.491 75.748 12.7862C75.7583 14.0196 74.8108 14.9859 73.5132 14.9859Z" fill="#464646"/>
<path d="M81.8345 36.3968C81.3299 36.3968 80.8973 35.9651 80.8973 35.4614V19.2824C80.8973 18.7788 81.3299 18.3471 81.8345 18.3471H82.3804C82.9262 18.3471 83.3896 18.7479 83.5029 19.2516L83.7913 20.5879C85.3773 19.0049 87.1899 17.8845 89.3217 17.8845C91.917 17.8845 93.6884 19.2208 93.6884 22.2839V35.4717C93.6884 35.9753 93.2559 36.4071 92.7512 36.4071H91.5257C91.021 36.4071 90.5885 35.9753 90.5885 35.4717V23.2398C90.5885 21.184 90.0118 20.6084 88.3846 20.6084C86.9427 20.6084 85.3155 21.6158 84.0179 22.767V35.4511C84.0179 35.9548 83.5853 36.3865 83.0807 36.3865H81.8345V36.3968Z" fill="#464646"/>
<path d="M99.1057 20.866C98.601 20.866 98.1685 20.4343 98.1685 19.9307V19.2831C98.1685 18.7794 98.601 18.3477 99.1057 18.3477H100.228V14.637C100.228 14.0923 100.63 13.6297 101.135 13.4858L102.432 13.2288C102.906 13.1261 103.338 13.4858 103.338 13.9484V18.3477H106.119C106.624 18.3477 107.056 18.7794 107.056 19.2831V19.9307C107.056 20.4343 106.624 20.866 106.119 20.866H103.338V32.7279C103.338 33.8791 103.812 34.3828 104.821 34.3828C105.254 34.3828 105.614 34.3108 105.944 34.208C106.418 34.0641 106.922 34.3519 107.067 34.8248L107.211 35.3695C107.314 35.8732 107.067 36.3769 106.562 36.5619C105.985 36.7366 105.336 36.8908 104.574 36.8908C102.123 36.8908 100.239 35.9143 100.239 33.0362V20.866H99.1057Z" fill="#464646"/>
<path d="M117.067 36.8694C112.34 36.8694 109.662 34.1249 109.662 27.3511C109.662 20.5054 112.473 17.874 116.737 17.874C121.032 17.874 123.493 20.3204 123.493 26.8475V27.4951C123.493 27.824 123.236 28.0707 122.916 28.0707H112.988C113.06 33.0045 114.142 34.238 117.139 34.238C118.694 34.238 119.703 33.7652 120.64 33.1176C121.073 32.7887 121.691 32.9017 121.979 33.2923L122.556 34.053C122.844 34.4539 122.772 35.0603 122.34 35.3481C120.857 36.3966 119.343 36.8694 117.067 36.8694ZM116.665 20.3204C114.574 20.3204 113.266 21.3997 113.019 25.7271H120.208C120.208 21.5847 119.271 20.3204 116.665 20.3204Z" fill="#464646"/>
<path d="M129.6 36.3967C129.096 36.3967 128.663 35.965 128.663 35.4613V19.2823C128.663 18.7787 129.096 18.347 129.6 18.347H130.146C130.692 18.347 131.155 18.7478 131.269 19.2823L131.598 20.9064C132.937 19.2515 134.595 18.0283 136.686 18.0283C136.789 18.0283 136.943 18.0283 137.046 18.0694C137.19 18.1106 137.335 18.2442 137.304 18.3984L137.046 20.9167C137.005 21.1737 136.758 21.3895 136.47 21.3484C136.284 21.3073 136.068 21.3073 135.893 21.3073C134.235 21.3073 133.112 21.924 131.773 23.1472V35.4716C131.773 35.9752 131.341 36.407 130.836 36.407H129.6V36.3967Z" fill="#464646"/>
<path d="M142.886 36.3973C142.381 36.3973 141.949 35.9655 141.949 35.4619V12.4989C141.949 11.9952 142.381 11.5635 142.886 11.5635H144.328C144.832 11.5635 145.265 11.9952 145.265 12.4989V35.4619C145.265 35.9655 144.832 36.3973 144.328 36.3973H142.886ZM154.554 36.3973C153.978 36.3973 153.432 36.0683 153.143 35.6058L145.924 23.7131C145.636 23.2403 145.666 22.5927 145.996 22.161L152.855 12.3241C153.185 11.8513 153.761 11.5635 154.338 11.5635H156.109C156.511 11.5635 156.727 11.9952 156.511 12.3241L149.178 22.7366L156.872 35.6058C157.088 35.9655 156.83 36.3973 156.398 36.3973H154.554Z" fill="#464646"/>
<path d="M164.935 36.8702C162.34 36.8702 160.311 35.39 160.311 32.255V19.283C160.311 18.7794 160.744 18.3477 161.248 18.3477H162.474C162.979 18.3477 163.411 18.7794 163.411 19.283V31.2888C163.411 33.4165 164.132 34.136 165.759 34.136C167.201 34.136 168.756 33.1595 170.095 31.9774V19.283C170.095 18.7794 170.528 18.3477 171.032 18.3477H172.258C172.763 18.3477 173.195 18.7794 173.195 19.283V35.462C173.195 35.9657 172.763 36.3974 172.258 36.3974H171.712C171.166 36.3974 170.703 35.9965 170.589 35.4928L170.301 34.1566C168.797 35.7087 167.067 36.8702 164.935 36.8702Z" fill="#464646"/>
<path d="M182.948 36.7567C180.641 36.7567 179.663 35.5335 179.663 32.3573V11.2342C179.663 10.7305 180.095 10.2988 180.6 10.2988H181.825C182.33 10.2988 182.763 10.7305 182.763 11.2342V32.9329C182.763 33.8375 183.164 34.1972 184.029 34.1972C184.174 34.1972 184.318 34.1972 184.431 34.1561C184.616 34.1561 184.792 34.2692 184.833 34.4439L185.018 35.4924C185.131 35.996 184.802 36.4997 184.297 36.6128C183.854 36.6847 183.391 36.7567 182.948 36.7567Z" fill="#464646"/>
<path d="M188.808 20.866C188.303 20.866 187.871 20.4343 187.871 19.9307V19.2831C187.871 18.7794 188.303 18.3477 188.808 18.3477H189.931V14.637C189.931 14.0923 190.332 13.6297 190.837 13.4858L192.135 13.2288C192.608 13.1261 193.041 13.4858 193.041 13.9484V18.3477H195.822C196.326 18.3477 196.759 18.7794 196.759 19.2831V19.9307C196.759 20.4343 196.326 20.866 195.822 20.866H193.041V32.7279C193.041 33.8791 193.515 34.3828 194.524 34.3828C194.956 34.3828 195.317 34.3108 195.646 34.208C196.12 34.0641 196.625 34.3519 196.769 34.8248L196.913 35.3695C197.016 35.8732 196.769 36.3769 196.264 36.5619C195.688 36.7366 195.039 36.8908 194.277 36.8908C191.826 36.8908 189.941 35.9143 189.941 33.0362V20.866H188.808Z" fill="#464646"/>
<path d="M206.1 36.8702C203.504 36.8702 201.476 35.39 201.476 32.255V19.283C201.476 18.7794 201.908 18.3477 202.413 18.3477H203.638C204.143 18.3477 204.576 18.7794 204.576 19.283V31.2888C204.576 33.4165 205.296 34.136 206.924 34.136C208.365 34.136 209.921 33.1595 211.259 31.9774V19.283C211.259 18.7794 211.692 18.3477 212.197 18.3477H213.422C213.927 18.3477 214.359 18.7794 214.359 19.283V35.462C214.359 35.9657 213.927 36.3974 213.422 36.3974H212.876C212.331 36.3974 211.867 35.9965 211.754 35.4928L211.465 34.1566C209.962 35.7087 208.232 36.8702 206.1 36.8702Z" fill="#464646"/>
<path d="M221.702 36.3967C221.198 36.3967 220.765 35.965 220.765 35.4613V19.2823C220.765 18.7787 221.198 18.347 221.702 18.347H222.248C222.794 18.347 223.257 18.7478 223.371 19.2823L223.7 20.9064C225.039 19.2515 226.697 18.0283 228.788 18.0283C228.901 18.0283 229.045 18.0283 229.148 18.0694C229.293 18.1106 229.437 18.2442 229.406 18.3984L229.148 20.9167C229.107 21.1737 228.86 21.3895 228.572 21.3484C228.386 21.3073 228.17 21.3073 227.995 21.3073C226.337 21.3073 225.214 21.924 223.875 23.1472V35.4716C223.875 35.9752 223.443 36.407 222.938 36.407H221.702V36.3967Z" fill="#464646"/>
<path d="M248.603 36.8694C243.876 36.8694 241.198 34.1249 241.198 27.3511C241.198 20.5054 244.02 17.874 248.273 17.874C252.568 17.874 255.029 20.3204 255.029 26.8475V27.4951C255.029 27.824 254.772 28.0707 254.453 28.0707H244.525C244.597 33.0045 245.678 34.238 248.675 34.238C250.23 34.238 251.239 33.7652 252.177 33.1176C252.609 32.7887 253.227 32.9017 253.515 33.2923L254.092 34.053C254.38 34.4539 254.308 35.0603 253.876 35.3481C252.393 36.3966 250.879 36.8694 248.603 36.8694ZM248.211 20.3204C246.121 20.3204 244.813 21.3997 244.566 25.7271H251.754C251.744 21.5847 250.807 20.3204 248.211 20.3204Z" fill="#464646"/>
<path d="M260.199 36.7257C258.83 36.7257 257.748 35.6464 257.748 34.2382C257.748 32.83 258.83 31.7507 260.199 31.7507C261.61 31.7507 262.65 32.83 262.65 34.2382C262.65 35.6361 261.61 36.7257 260.199 36.7257Z" fill="#464646"/>
<path d="M274.422 36.3964C273.897 36.3964 273.402 36.0469 273.268 35.5227L266.585 13.1969C266.482 12.7447 266.791 12.3232 267.254 12.3232H268.974C269.499 12.3232 269.993 12.6727 270.127 13.1969L273.876 26.4773C274.545 28.8928 274.896 30.4243 275.205 31.997H275.277C275.699 30.3935 275.977 29.0264 276.708 26.4361L280.385 13.1969C280.529 12.6727 281.013 12.3232 281.538 12.3232H283.011C283.464 12.3232 283.784 12.7447 283.681 13.1969L276.997 35.5227C276.852 36.0469 276.368 36.3964 275.843 36.3964H274.422Z" fill="#464646"/>
<path d="M287.398 36.7257C286.029 36.7257 284.947 35.6464 284.947 34.2382C284.947 32.83 286.029 31.7507 287.398 31.7507C288.809 31.7507 289.849 32.83 289.849 34.2382C289.849 35.6361 288.799 36.7257 287.398 36.7257Z" fill="#464646"/>
<path d="M154.41 57.7866C154.214 57.7866 154.049 57.6221 154.049 57.4268V48.515C154.049 48.3197 154.214 48.1553 154.41 48.1553H156.892C158.921 48.1553 159.662 49.214 159.662 50.725C159.662 51.7323 159.405 52.2771 158.488 52.6677C159.425 52.935 160.105 53.6648 160.105 55.0832C160.105 56.9951 158.838 57.7866 157.046 57.7866H154.41ZM155.326 52.236H156.923C158.055 52.236 158.313 51.7632 158.313 50.7558C158.313 49.7485 157.994 49.2346 156.85 49.2346H155.326V52.236ZM155.337 56.7176H156.902C158.251 56.7176 158.725 56.2036 158.725 55.0216C158.725 53.86 158.292 53.3255 156.964 53.3255H155.337V56.7176Z" fill="#F7934A"/>
<path d="M162.947 57.7876C162.752 57.7876 162.597 57.6334 162.597 57.4381V57.4073C162.597 57.2223 162.752 57.0578 162.937 57.027L163.586 56.955V48.9683L162.937 48.8861C162.741 48.8553 162.597 48.7011 162.597 48.5058V48.4749C162.597 48.2899 162.752 48.1357 162.937 48.1357H165.512C165.697 48.1357 165.852 48.2899 165.852 48.4749V48.5058C165.852 48.7011 165.707 48.8553 165.512 48.8861L164.863 48.9683V56.955L165.512 57.027C165.697 57.0578 165.852 57.2223 165.852 57.4073V57.4381C165.852 57.6334 165.697 57.7876 165.512 57.7876H162.947Z" fill="#F7934A"/>
<path d="M169.333 57.7866C169.137 57.7866 168.972 57.6221 168.972 57.4268V48.515C168.972 48.3197 169.137 48.1553 169.333 48.1553H169.889C170.084 48.1553 170.249 48.3197 170.249 48.515V56.6765H173.174C173.37 56.6765 173.535 56.8409 173.535 57.0362V57.4268C173.535 57.6221 173.37 57.7866 173.174 57.7866H169.333Z" fill="#F7934A"/>
<path d="M176.665 57.7866C176.47 57.7866 176.305 57.6221 176.305 57.4268V48.515C176.305 48.3197 176.47 48.1553 176.665 48.1553H178.766C181.392 48.1553 182.608 49.3579 182.608 53.0377C182.608 56.7587 181.413 57.7969 178.838 57.7969H176.665V57.7866ZM177.582 56.6867H178.859C180.723 56.6867 181.217 55.7616 181.217 52.9761C181.217 50.1905 180.785 49.2243 178.89 49.2243H177.582V56.6867Z" fill="#F7934A"/>
<path d="M188.323 57.9716C186.974 57.9716 185.687 57.2624 185.687 55.0216V48.515C185.687 48.3197 185.852 48.1553 186.047 48.1553H186.604C186.799 48.1553 186.964 48.3197 186.964 48.515V54.7954C186.964 56.2139 187.232 56.8512 188.447 56.8512C189.456 56.8512 190.157 56.3475 190.569 55.9569V48.515C190.569 48.3197 190.733 48.1553 190.929 48.1553H191.485C191.681 48.1553 191.846 48.3197 191.846 48.515V57.4268C191.846 57.6221 191.681 57.7866 191.485 57.7866H191.259C191.053 57.7866 190.857 57.6324 190.806 57.4371L190.661 56.8923C190.146 57.4474 189.364 57.9716 188.323 57.9716Z" fill="#F7934A"/>
<path d="M195.842 57.7871C195.646 57.7871 195.481 57.6226 195.481 57.4273V48.5155C195.481 48.3202 195.646 48.1558 195.842 48.1558H196.418C196.645 48.1558 196.83 48.2586 196.933 48.4744L199.467 53.6344C199.735 54.1689 200.198 55.351 200.404 56.0089H200.435C200.363 55.3613 200.28 54.3026 200.28 53.2644V48.5053C200.28 48.31 200.445 48.1455 200.641 48.1455H201.104C201.3 48.1455 201.465 48.31 201.465 48.5053V57.4171C201.465 57.6124 201.3 57.7768 201.104 57.7768H200.486C200.28 57.7768 200.085 57.674 199.971 57.4582L197.654 52.7402C197.036 51.4656 196.872 50.9619 196.563 50.0677H196.532C196.604 50.7563 196.655 51.8356 196.655 52.9457V57.4068C196.655 57.6021 196.49 57.7665 196.295 57.7665H195.842V57.7871Z" fill="#F7934A"/>
<path d="M210.62 57.7873C210.414 57.7873 210.219 57.6331 210.167 57.4378L210.085 57.0883C209.58 57.5611 208.839 57.9723 208.035 57.9723C205.811 57.9723 204.606 56.266 204.606 53.0076C204.606 49.8725 205.739 47.9709 208.283 47.9709C209.189 47.9709 209.92 48.1765 210.579 48.6699C210.734 48.783 210.775 49.0194 210.662 49.1839L210.435 49.5231C210.322 49.6772 210.095 49.7286 209.93 49.6053C209.395 49.2455 208.952 49.0913 208.303 49.0913C206.522 49.0913 206.017 50.2837 206.017 52.9562C206.017 55.6595 206.532 56.9341 208.138 56.9341C208.808 56.9341 209.446 56.636 209.951 56.1735V53.7682H208.509C208.314 53.7682 208.149 53.6038 208.149 53.4085V53.0282C208.149 52.8329 208.314 52.6684 208.509 52.6684H210.847C211.043 52.6684 211.207 52.8329 211.207 53.0282V57.4378C211.207 57.6331 211.043 57.7976 210.847 57.7976H210.62V57.7873Z" fill="#F7934A"/>
<path d="M72.1227 57.7866C71.927 57.7866 71.7622 57.6221 71.7622 57.4268V48.515C71.7622 48.3197 71.927 48.1553 72.1227 48.1553H76.3452C76.5408 48.1553 76.7056 48.3197 76.7056 48.515V48.8954C76.7056 49.0907 76.5408 49.2551 76.3452 49.2551H73.0496V52.1949H75.6448C75.8405 52.1949 76.0053 52.3593 76.0053 52.5546V52.935C76.0053 53.1303 75.8405 53.2947 75.6448 53.2947H73.0496V56.6662H76.5305C76.7262 56.6662 76.891 56.8306 76.891 57.0259V57.4165C76.891 57.6118 76.7262 57.7763 76.5305 57.7763H72.1227V57.7866Z" fill="#81D889"/>
<path d="M80.2793 57.7866C80.0836 57.7866 79.9188 57.6221 79.9188 57.4268V48.515C79.9188 48.3197 80.0836 48.1553 80.2793 48.1553H82.6068C84.44 48.1553 85.5935 49.0187 85.5935 50.8381C85.5935 52.3079 84.9858 53.0583 83.7603 53.3975C84.2546 53.5825 84.6254 54.0245 84.9755 55.0216L85.8406 57.4577C85.9127 57.6221 85.7891 57.7969 85.6038 57.7969H84.9137C84.7078 57.7969 84.4915 57.653 84.4194 57.4577L83.5749 55.0832C83.1526 53.9114 82.751 53.6648 82.1022 53.6648H81.1959V57.4268C81.1959 57.6221 81.0311 57.7866 80.8354 57.7866H80.2793ZM81.2062 52.6163H82.5553C83.8427 52.6163 84.2546 52.0612 84.2546 50.8586C84.2546 49.7382 83.8324 49.2654 82.5553 49.2654H81.2062V52.6163Z" fill="#81D889"/>
<path d="M88.3432 57.7866C88.1476 57.7866 87.9828 57.6221 87.9828 57.4268V57.1699C87.9828 56.9437 88.0549 56.6765 88.1476 56.4812L92.0714 49.2654H88.6213C88.4256 49.2654 88.2609 49.1009 88.2609 48.9056V48.515C88.2609 48.3197 88.4256 48.1553 88.6213 48.1553H93.2146C93.4102 48.1553 93.575 48.3197 93.575 48.515V48.8131C93.575 49.0393 93.5029 49.3065 93.4102 49.5018L89.5173 56.6765H93.2043C93.3999 56.6765 93.5647 56.8409 93.5647 57.0362V57.4268C93.5647 57.6221 93.3999 57.7866 93.2043 57.7866H88.3432Z" fill="#81D889"/>
<path d="M96.3969 57.7876C96.2012 57.7876 96.0468 57.6334 96.0468 57.4381V57.4073C96.0468 57.2223 96.2012 57.0578 96.3866 57.027L97.0354 56.955V48.9683L96.3866 48.8861C96.1909 48.8553 96.0468 48.7011 96.0468 48.5058V48.4749C96.0468 48.2899 96.2012 48.1357 96.3866 48.1357H98.9613C99.1467 48.1357 99.3012 48.2899 99.3012 48.4749V48.5058C99.3012 48.7011 99.157 48.8553 98.9613 48.8861L98.3125 48.9683V56.955L98.9613 57.027C99.1467 57.0578 99.3012 57.2223 99.3012 57.4073V57.4381C99.3012 57.6334 99.1467 57.7876 98.9613 57.7876H96.3969Z" fill="#81D889"/>
<path d="M102.782 57.7866C102.586 57.7866 102.422 57.6221 102.422 57.4268V48.515C102.422 48.3197 102.586 48.1553 102.782 48.1553H107.005C107.2 48.1553 107.365 48.3197 107.365 48.515V48.8954C107.365 49.0907 107.2 49.2551 107.005 49.2551H103.709V52.1949H106.304C106.5 52.1949 106.665 52.3593 106.665 52.5546V52.935C106.665 53.1303 106.5 53.2947 106.304 53.2947H103.709V56.6662H107.19C107.386 56.6662 107.55 56.8306 107.55 57.0259V57.4165C107.55 57.6118 107.386 57.7763 107.19 57.7763H102.782V57.7866Z" fill="#81D889"/>
<path d="M110.949 57.7866C110.753 57.7866 110.589 57.6221 110.589 57.4268V48.515C110.589 48.3197 110.753 48.1553 110.949 48.1553H111.505C111.701 48.1553 111.866 48.3197 111.866 48.515V52.0921H115.347V48.515C115.347 48.3197 115.511 48.1553 115.707 48.1553H116.263C116.459 48.1553 116.624 48.3197 116.624 48.515V57.4268C116.624 57.6221 116.459 57.7866 116.263 57.7866H115.707C115.511 57.7866 115.347 57.6221 115.347 57.4268V53.233H111.866V57.4268C111.866 57.6221 111.701 57.7866 111.505 57.7866H110.949Z" fill="#81D889"/>
<path d="M122.803 57.9716C121.454 57.9716 120.167 57.2624 120.167 55.0216V48.515C120.167 48.3197 120.331 48.1553 120.527 48.1553H121.083C121.279 48.1553 121.444 48.3197 121.444 48.515V54.7954C121.444 56.2139 121.711 56.8512 122.927 56.8512C123.936 56.8512 124.636 56.3475 125.048 55.9569V48.515C125.048 48.3197 125.213 48.1553 125.409 48.1553H125.965C126.16 48.1553 126.325 48.3197 126.325 48.515V57.4268C126.325 57.6221 126.16 57.7866 125.965 57.7866H125.738C125.532 57.7866 125.336 57.6324 125.285 57.4371L125.141 56.8923C124.626 57.4474 123.843 57.9716 122.803 57.9716Z" fill="#81D889"/>
<path d="M130.321 57.7871C130.125 57.7871 129.961 57.6226 129.961 57.4273V48.5155C129.961 48.3202 130.125 48.1558 130.321 48.1558H130.898C131.124 48.1558 131.31 48.2586 131.413 48.4744L133.946 53.6344C134.214 54.1689 134.678 55.351 134.884 56.0089H134.914C134.842 55.3613 134.76 54.3026 134.76 53.2644V48.5053C134.76 48.31 134.925 48.1455 135.12 48.1455H135.584C135.78 48.1455 135.944 48.31 135.944 48.5053V57.4171C135.944 57.6124 135.78 57.7768 135.584 57.7768H134.966C134.76 57.7768 134.564 57.674 134.451 57.4582L132.134 52.7402C131.516 51.4656 131.351 50.9619 131.042 50.0677H131.011C131.083 50.7563 131.135 51.8356 131.135 52.9457V57.4068C131.135 57.6021 130.97 57.7665 130.774 57.7665H130.321V57.7871Z" fill="#81D889"/>
<path d="M145.1 57.7873C144.894 57.7873 144.698 57.6331 144.647 57.4378L144.564 57.0883C144.06 57.5611 143.318 57.9723 142.515 57.9723C140.29 57.9723 139.085 56.266 139.085 53.0076C139.085 49.8725 140.218 47.9709 142.762 47.9709C143.668 47.9709 144.4 48.1765 145.059 48.6699C145.213 48.783 145.254 49.0194 145.141 49.1839L144.914 49.5231C144.801 49.6772 144.575 49.7286 144.41 49.6053C143.874 49.2455 143.431 49.0913 142.783 49.0913C141.001 49.0913 140.496 50.2837 140.496 52.9562C140.496 55.6595 141.011 56.9341 142.618 56.9341C143.287 56.9341 143.926 56.636 144.43 56.1735V53.7682H142.989C142.793 53.7682 142.628 53.6038 142.628 53.4085V53.0282C142.628 52.8329 142.793 52.6684 142.989 52.6684H145.326C145.522 52.6684 145.687 52.8329 145.687 53.0282V57.4378C145.687 57.6331 145.522 57.7976 145.326 57.7976H145.1V57.7873Z" fill="#81D889"/>
<path d="M217.912 57.7876C217.717 57.7876 217.562 57.6334 217.562 57.4381V57.4073C217.562 57.2223 217.717 57.0578 217.902 57.027L218.551 56.955V48.9683L217.902 48.8861C217.706 48.8553 217.562 48.7011 217.562 48.5058V48.4749C217.562 48.2899 217.717 48.1357 217.902 48.1357H220.477C220.662 48.1357 220.817 48.2899 220.817 48.4749V48.5058C220.817 48.7011 220.672 48.8553 220.477 48.8861L219.828 48.9683V56.955L220.477 57.027C220.662 57.0578 220.817 57.2223 220.817 57.4073V57.4381C220.817 57.6334 220.662 57.7876 220.477 57.7876H217.912Z" fill="#47C4DF"/>
<path d="M224.298 57.7871C224.102 57.7871 223.937 57.6226 223.937 57.4273V48.5155C223.937 48.3202 224.102 48.1558 224.298 48.1558H224.874C225.101 48.1558 225.286 48.2586 225.389 48.4744L227.923 53.6344C228.191 54.1689 228.654 55.351 228.86 56.0089H228.891C228.819 55.3613 228.736 54.3026 228.736 53.2644V48.5053C228.736 48.31 228.901 48.1455 229.097 48.1455H229.56C229.756 48.1455 229.921 48.31 229.921 48.5053V57.4171C229.921 57.6124 229.756 57.7768 229.56 57.7768H228.942C228.736 57.7768 228.541 57.674 228.427 57.4582L226.11 52.7402C225.492 51.4656 225.327 50.9619 225.019 50.0677H224.988C225.06 50.7563 225.111 51.8356 225.111 52.9457V57.4068C225.111 57.6021 224.946 57.7665 224.751 57.7665H224.298V57.7871Z" fill="#47C4DF"/>
<path d="M233.886 57.7871C233.69 57.7871 233.525 57.6226 233.525 57.4273V48.5155C233.525 48.3202 233.69 48.1558 233.886 48.1558H234.442C234.638 48.1558 234.802 48.3202 234.802 48.5155V57.4273C234.802 57.6226 234.638 57.7871 234.442 57.7871H233.886ZM238.417 57.7871C238.191 57.7871 237.985 57.6638 237.871 57.4787L235.07 52.8635C234.957 52.6785 234.967 52.4318 235.101 52.2673L237.768 48.4436C237.892 48.2586 238.119 48.1455 238.345 48.1455H239.035C239.19 48.1455 239.272 48.31 239.19 48.4436L236.347 52.4832L239.334 57.4787C239.416 57.6226 239.323 57.7871 239.148 57.7871H238.417Z" fill="#47C4DF"/>
<path d="M242.454 57.7866C242.259 57.7866 242.094 57.6221 242.094 57.4268V48.515C242.094 48.3197 242.259 48.1553 242.454 48.1553H243.01C243.206 48.1553 243.371 48.3197 243.371 48.515V56.6765H246.296C246.491 56.6765 246.656 56.8409 246.656 57.0362V57.4268C246.656 57.6221 246.491 57.7866 246.296 57.7866H242.454Z" fill="#47C4DF"/>
<path d="M252.125 57.9716C250.776 57.9716 249.488 57.2624 249.488 55.0216V48.515C249.488 48.3197 249.653 48.1553 249.849 48.1553H250.405C250.601 48.1553 250.765 48.3197 250.765 48.515V54.7954C250.765 56.2139 251.033 56.8512 252.248 56.8512C253.258 56.8512 253.958 56.3475 254.37 55.9569V48.515C254.37 48.3197 254.535 48.1553 254.73 48.1553H255.287C255.482 48.1553 255.647 48.3197 255.647 48.515V57.4268C255.647 57.6221 255.482 57.7866 255.287 57.7866H255.06C254.854 57.7866 254.658 57.6324 254.607 57.4371L254.463 56.8923C253.948 57.4474 253.165 57.9716 252.125 57.9716Z" fill="#47C4DF"/>
<path d="M261.435 57.9723C260.436 57.9723 259.499 57.6742 258.829 57.2219C258.665 57.1089 258.603 56.8725 258.716 56.708L258.902 56.3893C259.015 56.2249 259.241 56.1632 259.396 56.2763C260.024 56.6977 260.529 56.8725 261.342 56.8725C262.63 56.8725 263.114 56.2866 263.114 55.2895C263.114 54.1177 262.455 53.7785 261.281 53.3262C259.684 52.7095 258.953 52.0722 258.953 50.4584C258.953 48.8035 259.993 47.9709 261.672 47.9709C262.558 47.9709 263.155 48.1354 263.69 48.4438C263.855 48.5363 263.927 48.7624 263.835 48.9474L263.649 49.3072C263.546 49.4717 263.33 49.5436 263.155 49.4511C262.722 49.1941 262.3 49.0708 261.744 49.0708C260.817 49.0708 260.23 49.4511 260.23 50.4173C260.23 51.3938 260.611 51.6713 261.775 52.1236C263.278 52.6992 264.453 53.2851 264.453 55.2176C264.432 56.6463 263.721 57.9723 261.435 57.9723Z" fill="#47C4DF"/>
<path d="M267.419 57.7876C267.223 57.7876 267.068 57.6334 267.068 57.4381V57.4073C267.068 57.2223 267.223 57.0578 267.408 57.027L268.057 56.955V48.9683L267.408 48.8861C267.213 48.8553 267.068 48.7011 267.068 48.5058V48.4749C267.068 48.2899 267.223 48.1357 267.408 48.1357H269.983C270.168 48.1357 270.323 48.2899 270.323 48.4749V48.5058C270.323 48.7011 270.179 48.8553 269.983 48.8861L269.334 48.9683V56.955L269.983 57.027C270.168 57.0578 270.323 57.2223 270.323 57.4073V57.4381C270.323 57.6334 270.168 57.7876 269.983 57.7876H267.419Z" fill="#47C4DF"/>
<path d="M276.585 57.9723C274.185 57.9723 272.98 56.338 272.98 53.0076C272.98 49.7492 274.226 47.9709 276.554 47.9709C278.881 47.9709 280.138 49.7081 280.138 52.9356C280.148 56.2866 278.984 57.9723 276.585 57.9723ZM276.574 56.9547C278.171 56.9547 278.758 55.6904 278.758 53.0179C278.758 50.3145 278.171 49.0194 276.574 49.0194C274.978 49.0194 274.37 50.2837 274.37 52.9562C274.37 55.6493 274.978 56.9547 276.574 56.9547Z" fill="#47C4DF"/>
<path d="M283.639 57.7871C283.443 57.7871 283.279 57.6226 283.279 57.4273V48.5155C283.279 48.3202 283.443 48.1558 283.639 48.1558H284.216C284.442 48.1558 284.618 48.2586 284.731 48.4744L287.264 53.6344C287.532 54.1689 287.996 55.351 288.202 56.0089H288.232C288.16 55.3613 288.078 54.3026 288.078 53.2644V48.5053C288.078 48.31 288.243 48.1455 288.438 48.1455H288.902C289.098 48.1455 289.262 48.31 289.262 48.5053V57.4171C289.262 57.6124 289.098 57.7768 288.902 57.7768H288.284C288.078 57.7768 287.882 57.674 287.769 57.4582L285.452 52.7402C284.834 51.4656 284.669 50.9619 284.36 50.0677H284.329C284.401 50.7563 284.453 51.8356 284.453 52.9457V57.4068C284.453 57.6021 284.288 57.7665 284.092 57.7665H283.639V57.7871Z" fill="#47C4DF"/>
<path d="M22.06 50.6954V20.2802C22.06 18.5842 23.4812 17.1966 25.2217 17.1966H28.8366C30.5771 17.1966 31.9983 18.5739 31.9983 20.2802V29.4284L37.3846 19.5196C38.2291 18.1011 39.7945 17.2068 41.4011 17.2068H45.5412C46.3857 17.2068 47.1375 17.6283 47.5392 18.3478C47.9408 19.0468 47.9305 19.8896 47.5186 20.5989L39.5576 34.0745L44.2951 42.8013C48.5073 38.258 51.0923 32.1729 51.0923 25.4916C51.0923 11.4096 39.6606 0 25.5513 0C23.0281 0 20.5873 0.37004 18.2803 1.04845C19.4235 2.49777 20.1032 4.31713 20.1032 6.31123C20.1032 11.0395 16.2721 14.8633 11.5346 14.8633C8.52739 14.8633 5.9424 13.3831 4.42848 11.1526C1.63751 15.2436 0 20.1774 0 25.5019C0 32.7896 2.79097 38.7514 6.99287 43.0788V24.7001L5.63343 24.3404C3.98563 23.9806 2.84246 22.4799 2.84246 20.8456V19.9924C2.84246 18.4198 4.12981 17.1349 5.70553 17.1349H14.2947C15.8704 17.1349 17.1578 18.4198 17.1578 19.9924V49.5236C18.7747 50.0787 20.4122 50.459 22.06 50.6954Z" fill="url(#paint0_linear_7429_5575)"/>
<path d="M32.0087 50.1503C33.5638 49.7494 35.0571 49.2046 36.4783 48.5262L32.0087 39.45V50.1503Z" fill="url(#paint1_linear_7429_5575)"/>
<defs>
<linearGradient id="paint0_linear_7429_5575" x1="0.0114317" y1="25.3432" x2="51.0974" y2="25.3432" gradientUnits="userSpaceOnUse">
<stop offset="0.1589" stop-color="#F7934A"/>
<stop offset="0.4034" stop-color="#A8C174"/>
<stop offset="0.5391" stop-color="#81D889"/>
<stop offset="0.6349" stop-color="#69D0AC"/>
<stop offset="0.7308" stop-color="#57C9C8"/>
<stop offset="0.8148" stop-color="#4BC5D9"/>
<stop offset="0.8776" stop-color="#47C4DF"/>
</linearGradient>
<linearGradient id="paint1_linear_7429_5575" x1="32.0057" y1="44.803" x2="36.4716" y2="44.803" gradientUnits="userSpaceOnUse">
<stop offset="0.0882" stop-color="#81D889"/>
<stop offset="0.3041" stop-color="#77D498"/>
<stop offset="0.72" stop-color="#5CCBC0"/>
<stop offset="1" stop-color="#47C4DF"/>
</linearGradient>
</defs>
</svg>
