<svg width="247" height="252" viewBox="0 0 247 252" fill="none" xmlns="http://www.w3.org/2000/svg">
<path fill-rule="evenodd" clip-rule="evenodd" d="M57.5118 57.8383C67.6904 50.2128 79.1167 45.4772 91.6166 43.2251C99.1342 41.8702 106.69 41.5443 114.301 41.9565C122.938 42.4259 131.339 44.0744 139.59 46.6304C149.135 49.5876 158.165 53.7298 166.779 58.7113C174.42 63.1293 181.483 68.3802 187.717 74.7036C190.532 77.5593 193.29 80.4459 195.908 83.4928C197.504 85.3516 199.143 87.1682 200.585 89.1516C203.011 92.4909 204.888 96.1615 206.97 99.7109C209.933 104.761 211.831 110.209 213.595 115.74C216.135 123.703 217.001 131.839 216.666 140.178C216.429 146.046 215.293 151.702 213.394 157.212C211.481 162.759 208.544 167.735 204.514 172.036C198.336 178.63 190.679 182.38 181.856 184.01C176.455 185.007 171.163 184.858 166.03 182.888C162.026 181.352 158.613 178.99 155.755 175.654C151.488 170.672 147.017 165.856 142.165 161.413C136.82 156.519 131.365 151.769 125.455 147.553C115.781 140.653 105.063 137.092 93.1433 137.333C88.6803 137.425 84.2185 137.607 79.7569 137.778C75.6159 137.938 71.5098 137.738 67.4058 137.082C59.3965 135.803 52.4324 132.276 46.9602 126.469C39.1957 118.228 34.8444 108.415 35.0638 96.8012C35.2803 85.3392 39.2682 75.4682 46.9595 67.0319C48.3101 65.5506 49.5346 63.9204 51.0483 62.6295C53.0856 60.8951 55.3464 59.423 57.5118 57.8383Z" fill="#D8B192" fill-opacity="0.75"/>
<path fill-rule="evenodd" clip-rule="evenodd" d="M163.122 152.311C163.188 152.401 163.25 152.494 163.32 152.58C167.063 157.213 169.671 162.48 171.872 167.967C174.213 173.806 175.744 179.842 175.606 186.17C175.487 191.658 174.64 196.985 172.155 202.034C169.327 207.775 165.403 212.526 160.17 216.096C154.897 219.694 149.084 222.18 142.783 223.463C136.145 224.816 129.525 224.7 122.843 223.754C116.307 222.829 109.938 221.242 103.698 219.2C99.3695 217.783 95.2332 215.843 91.2943 213.455C87.9602 211.434 84.5652 209.531 81.4198 207.209C77.5506 204.353 74.0294 201.165 71.2486 197.207C70.0283 195.471 68.7492 193.778 67.4946 192.067C62.9679 185.892 59.886 179.01 57.9025 171.667C55.7384 163.658 55.8419 155.544 57.7239 147.486C59.1917 141.192 62.2366 135.648 66.2556 130.624C66.5988 130.194 67.0215 129.81 67.4653 129.481C69.9795 127.62 72.448 125.687 75.0571 123.969C76.5265 123.001 78.1853 122.268 79.8415 121.649C86.171 119.279 92.7091 118.066 99.492 118.358C102.158 118.475 104.825 118.527 107.487 118.688C110.736 118.885 113.841 119.907 116.949 120.718C123.095 122.324 129.011 124.648 134.626 127.653C140.931 131.028 146.884 134.99 152.092 139.864C156.131 143.645 160.237 147.464 163.122 152.311Z" fill="#E7E5D9" fill-opacity="0.9"/>
</svg>
