<svg width="42" height="34" viewBox="0 0 42 34" fill="none" xmlns="http://www.w3.org/2000/svg">
<path d="M4.00408 27.986V33.1302C4.00408 33.5126 4.32184 33.8254 4.72159 33.8254H15.9711C16.3658 33.8254 16.6887 33.5176 16.6887 33.1302V27.4149L21.7369 28.0753C22.5723 28.1846 23.4128 27.9413 24.0432 27.405C24.6735 26.8687 25.0374 26.0941 25.0374 25.2798V19.0728H28.4866C28.748 19.0728 28.9837 18.9388 29.1119 18.7153C29.24 18.4968 29.2297 18.2287 29.0965 18.0152L25.0374 11.6841C24.981 8.37214 23.4948 5.22399 20.9425 3.01433C18.3389 0.759986 14.8385 -0.302637 11.3432 0.074743C5.66461 0.695434 1.02128 5.3382 0.54465 10.8648C0.360147 12.9702 0.749653 15.0806 1.67217 16.9625C3.21482 20.1255 4.00408 23.8397 4.00408 27.986ZM1.95917 10.9741C2.37943 6.09296 6.4795 1.9964 11.4918 1.44523C14.6284 1.10261 17.6419 2.02123 19.979 4.0422C22.2801 6.03337 23.6024 8.88855 23.6024 11.8778C23.6024 12.0069 23.6383 12.131 23.71 12.2452L27.1951 17.6825H24.3148C23.9202 17.6825 23.5973 17.9904 23.5973 18.3777V25.2798C23.5973 25.6969 23.4128 26.0891 23.0899 26.3622C22.767 26.6353 22.3416 26.7644 21.9162 26.7049L16.0583 25.9402C15.8584 25.9104 15.6483 25.9749 15.4945 26.104C15.3408 26.2331 15.2485 26.4268 15.2485 26.6254V32.44H5.43398V27.9909C5.43398 23.6362 4.59859 19.7283 2.95856 16.3716C2.14368 14.7032 1.80029 12.8361 1.95917 10.9741Z" fill="#2F804A"/>
<path d="M36.6915 12.8564C36.4147 13.1245 36.4147 13.5664 36.6915 13.8346C41.1913 18.1943 41.1913 25.2901 36.6915 29.6498C36.4147 29.9179 36.4147 30.3599 36.6915 30.628C36.8298 30.7621 37.0143 30.8316 37.1988 30.8316C37.3833 30.8316 37.5627 30.7621 37.7062 30.628C42.7647 25.727 42.7647 17.7524 37.7062 12.8564C37.4192 12.5882 36.9682 12.5882 36.6915 12.8564Z" fill="#2F804A"/>
<path d="M33.6576 27.6923C33.7959 27.8263 33.9804 27.8958 34.1649 27.8958C34.3494 27.8958 34.5288 27.8263 34.6723 27.6923C36.3123 26.1083 37.2092 23.9929 37.2092 21.7436C37.2092 19.4942 36.3072 17.3838 34.6723 15.7949C34.3956 15.5267 33.9394 15.5267 33.6627 15.7949C33.3859 16.063 33.3859 16.5049 33.6627 16.7731C35.0311 18.0989 35.7845 19.8616 35.7845 21.7436C35.7845 23.6255 35.0311 25.3883 33.6627 26.714C33.3757 26.9822 33.3757 27.4192 33.6576 27.6923Z" fill="#2F804A"/>
<path d="M30.6236 24.7525C30.762 24.8866 30.9465 24.9561 31.131 24.9561C31.3155 24.9561 31.4949 24.8866 31.6384 24.7525C33.3502 23.094 33.3502 20.3928 31.6384 18.7343C31.3616 18.4662 30.9055 18.4662 30.6287 18.7343C30.352 19.0024 30.352 19.4444 30.6287 19.7125C31.7819 20.8298 31.7819 22.6521 30.6287 23.7693C30.3417 24.0425 30.3417 24.4794 30.6236 24.7525Z" fill="#2F804A"/>
</svg>
