<svg width="73" height="74" viewBox="0 0 73 74" fill="none" xmlns="http://www.w3.org/2000/svg">
<path d="M36.5053 70.1786C29.3233 70.1786 24.155 70.1751 20.1255 69.7843C16.1421 69.3981 13.594 68.6562 11.5605 67.3783C9.2363 65.9181 7.271 63.953 5.81059 61.6289C4.53322 59.5954 3.79076 57.0472 3.40507 53.0639C3.01429 49.0344 3.01074 43.8661 3.01074 36.6841C3.01074 29.502 3.01429 24.3337 3.40507 20.3042C3.79076 16.3209 4.53322 13.7727 5.81059 11.7392C7.27094 9.41496 9.23625 7.44965 11.5605 5.9893C13.594 4.71193 16.1421 3.96947 20.1255 3.58378C24.1545 3.19301 29.3228 3.18945 36.5053 3.18945C43.6874 3.18945 48.8557 3.19301 52.8852 3.58378C56.8685 3.96947 59.4167 4.71193 61.4502 5.9893C63.7743 7.44971 65.7394 9.41501 67.1996 11.7392C68.4775 13.7727 69.2194 16.3209 69.6056 20.3042C69.9964 24.3337 69.9999 29.502 69.9999 36.6841C69.9999 43.8661 69.9964 49.0344 69.6056 53.0639C69.2194 57.0472 68.4775 59.5954 67.1996 61.6289C65.7393 63.9529 63.7742 65.918 61.4502 67.3783C59.4167 68.6562 56.8685 69.3981 52.8852 69.7843C48.8557 70.1751 43.6874 70.1786 36.5053 70.1786Z" stroke="white" stroke-width="6"/>
<path d="M36.5053 51.9086C44.9137 51.9086 51.7301 45.0922 51.7301 36.6838C51.7301 28.2754 44.9137 21.459 36.5053 21.459C28.0968 21.459 21.2805 28.2754 21.2805 36.6838C21.2805 45.0922 28.0968 51.9086 36.5053 51.9086Z" stroke="white" stroke-width="6"/>
<path d="M56.2977 21.4591C58.8202 21.4591 60.8651 19.4142 60.8651 16.8917C60.8651 14.3691 58.8202 12.3242 56.2977 12.3242C53.7751 12.3242 51.7302 14.3691 51.7302 16.8917C51.7302 19.4142 53.7751 21.4591 56.2977 21.4591Z" fill="white"/>
</svg>
