<svg width="235" height="92" viewBox="0 0 235 92" fill="none" xmlns="http://www.w3.org/2000/svg">
<path d="M15.4451 3.27148V21.5085L29.8479 40.7877H37.001L52.0937 21.5085V3.27148L33.5273 27.4544L15.4451 3.27148Z" fill="#112445"/>
<path d="M13.1213 0.941406H0.872803V10.684H13.1213V0.941406Z" fill="#112445"/>
<path d="M66.4481 1.2373H54.1996V10.684H66.4481V1.2373Z" fill="#112445"/>
<path d="M13.1213 13.7473H0.872803V64.0694H13.1213V13.7473Z" fill="#FD5001"/>
<path d="M54.3448 13.1299L54.2479 64.0825H66.3875V13.1299H54.3448Z" fill="#FD5001"/>
<path d="M129.591 40.1564C136.853 37.4151 142.105 29.9247 142.105 21.173C142.105 10.0403 133.56 0.954102 122.97 0.954102H100.833V64.5839H111.847V12.5371H122.97C127.46 12.5371 131.091 16.5012 131.091 21.173C131.091 25.8448 127.884 29.3584 123.829 29.8089H117.415V41.5206H117.524L130.244 64.4679H142.965L129.603 40.1693L129.591 40.1564Z" fill="#FD5001"/>
<path d="M90.4001 14.6609H78.2485V48.9082H90.4001V14.6609Z" fill="#112445"/>
<path d="M71.8824 1.2373V10.684H96.7787V1.2373H71.8824Z" fill="#FD5001"/>
<path d="M96.7787 54.623H71.8824V64.0696H96.7787V54.623Z" fill="#FD5001"/>
<path d="M111.847 27.7881H100.846V64.5965H111.847V27.7881Z" fill="#112445"/>
<path d="M142.964 64.4678H130.244L117.523 41.5205H117.475H117.415V29.8086H123.829L142.964 64.4678Z" fill="#112445"/>
<path d="M147.031 41.0969C147.031 27.4932 154.559 17.3516 166.263 17.3516C173.294 17.3516 177.64 20.286 180.23 24.9064V18.2397H190.433V53.3621H193.689V63.3235H186.67C181.32 63.3235 180.23 61.7277 180.23 56.837V56.0391C177.047 61.4703 173.282 64.4047 166.263 64.2245C154.559 63.8642 147.031 54.0828 147.031 41.0969ZM168.696 54.2631C175.716 54.2631 180.242 48.3942 180.242 41.0969C180.242 33.1818 175.728 27.4032 168.696 27.3131C161.749 27.223 157.234 33.1818 157.234 41.0969C157.234 48.3942 161.749 54.2631 168.696 54.2631Z" fill="#112445"/>
<path d="M166.582 66.9297H170.15L181.351 82.9884V66.9297H185.848L185.783 91.999H182.215L171.079 76.0518V91.999H166.582V66.9297Z" fill="#587D71"/>
<path d="M189.783 66.9297H195.664C202.368 66.9297 204.098 70.4537 204.098 74.7137C204.098 77.9701 202.433 79.955 200.421 80.2895C203.319 81.4271 204.098 83.5904 204.098 86.6015V91.999H199.601V86.6015C199.601 83.8581 199.125 82.2746 194.929 82.2746H191.643V91.999H187.144V69.6954C187.144 67.7549 187.989 66.9297 189.762 66.9297H189.783ZM194.929 78.0146C198.389 78.0146 199.601 77.5908 199.601 74.7137C199.601 71.9703 198.648 71.1896 195.297 71.1896H191.643V78.0369H194.929V78.0146Z" fill="#587D71"/>
<path d="M208.812 66.9297L213.872 82.6091L217.547 66.9297H221.007L224.662 82.6091L229.699 66.9297H234.565L226.023 91.999H222.304L219.277 79.1966L216.271 91.999H212.509L203.967 66.9297H208.833H208.812Z" fill="#587D71"/>
</svg>
