<svg width="404" height="429" viewBox="0 0 404 429" fill="none" xmlns="http://www.w3.org/2000/svg">
<path fill-rule="evenodd" clip-rule="evenodd" d="M-157.918 198.877C-157.28 199.595 -156.33 200.215 -156.064 201.054C-155.468 202.919 -155.073 204.878 -154.845 206.826C-153.012 222.699 -147.01 237.26 -140.69 251.709C-131.842 271.935 -120.827 290.997 -108.267 309.083C-95.8815 326.913 -81.8955 343.481 -65.9315 358.301C-56.2969 367.25 -48.9674 371.204 -38.0005 378.501C-15.2333 393.645 5.42316 397.724 31.4995 406.501C58.4777 415.585 74.4995 414.501 105.5 422.501C155.667 427.612 154.024 426.425 172.5 427.625C192.043 428.894 195.043 428.894 195.043 428.894C197.086 428.507 197.043 428.894 201.043 428.894C202.556 428.296 204.935 428.398 206.543 428.13C230.043 423.13 251.139 415.143 273.048 406.338C290.795 399.204 307.496 390.035 323.065 379.039C339.438 367.488 354.749 354.674 367.879 339.253C376.033 329.679 383.124 319.528 389.457 308.771C397.944 294.359 402.834 278.757 403.08 261.999C403.373 241.983 388.503 223.071 371.857 218.558C361.831 215.839 351.843 214.781 341.707 216.165C331.654 217.536 321.478 218.523 311.866 222.316C309.163 223.381 306.066 223.414 303.168 224.009C297.396 225.207 291.681 226.564 285.977 228.124C276.852 230.618 267.461 232.376 257.788 231.994C251.899 231.762 246.047 231.896 240.167 230.904C225.672 228.45 213.771 221.428 203.382 211.318C194.091 202.277 187.009 191.652 180.793 180.397C173.169 166.603 165.558 152.803 158.092 138.924C144.468 113.604 127.999 90.3755 107.926 69.742C88.519 49.7961 66.8195 32.8408 41.6399 20.8982C14.9443 8.23413 -13.3304 1.61425 -42.9683 0.629655C-58.2877 0.120847 -73.1788 2.85036 -87.8038 6.29915C-105.496 10.4729 -120.088 20.3787 -131.254 35.0699C-145.857 54.2864 -154.87 75.9025 -159.488 99.4779C-162.334 114.012 -163.786 128.715 -163.957 143.488C-164.03 149.678 -162.598 155.882 -161.906 162.088C-161.624 164.625 -160.452 167.269 -162.535 169.62C-160.997 179.371 -159.457 189.124 -157.918 198.877Z" fill="#EAD3B5" fill-opacity="0.35"/>
</svg>
