<svg width="204" height="248" viewBox="0 0 204 248" fill="none" xmlns="http://www.w3.org/2000/svg">
<path fill-rule="evenodd" clip-rule="evenodd" d="M205.589 223.307C223.589 212.636 237.693 197.801 250.084 181.186C255.965 173.298 259.502 164.223 262.88 155.1C272.166 130.007 269.189 105.24 260.225 80.8525C255.928 69.1734 249.221 58.5514 241.3 49.0911C231.297 37.1437 219.898 26.3444 206.177 18.6146C186.635 7.60123 165.706 1.19742 143.07 0.976083C128.25 0.831377 113.627 2.07211 99.4049 6.45328C85.6028 10.7059 72.2077 15.8567 60.3745 24.432C56.7924 27.0272 53.0302 29.3779 49.3495 31.8368C37.206 39.9386 27.5108 50.4457 19.1044 62.2954C14.4782 68.8159 10.2085 75.5541 7.48198 83.0335C4.48376 91.2565 1.30573 99.3628 0.933326 108.493C0.617626 116.155 -0.0398384 123.726 0.965916 131.379C2.7585 145.018 6.97533 157.723 15.0038 169.025C15.8583 170.229 16.7262 171.435 17.4523 172.717C24.6866 185.513 35.3848 195.182 46.3656 204.546C59.4422 215.697 73.8421 225.009 89.2621 232.434C100.611 237.902 112.183 242.999 124.687 245.864C139.372 249.228 153.38 247.364 167.263 242.688C174.486 240.256 181.806 237.846 188.592 234.449C194.61 231.436 199.953 227.072 205.589 223.307Z" fill="#2B8049" fill-opacity="0.15"/>
</svg>
