<svg width="563" height="428" viewBox="0 0 563 428" fill="none" xmlns="http://www.w3.org/2000/svg">
<mask id="mask0_6971_997" style="mask-type:luminance" maskUnits="userSpaceOnUse" x="0" y="0" width="563" height="428">
<path d="M562.362 235.052C562.362 341.478 436.472 427.754 281.181 427.754C125.89 427.754 0 341.478 0 235.052C0 128.626 118.171 0 273.465 0C428.756 0 562.362 128.626 562.362 235.052Z" fill="white"/>
</mask>
<g mask="url(#mask0_6971_997)">
<path d="M145.058 249.603C145.058 249.603 161.123 243.918 154.658 223.304L145.295 191.369C144.408 188.555 141.275 187.156 138.613 188.386C136.804 189.221 135.68 191.079 135.769 193.082L136.246 210.298L109.93 175.874C108.052 173.193 104.24 172.842 101.912 175.138C100.109 176.918 99.8035 179.731 101.18 181.861L117.416 206.21L116.549 207.417L96.2079 184.682C93.8563 182.477 90.0939 182.99 88.405 185.743C87.1293 187.825 87.4855 190.524 89.2589 192.196L108.335 215.881L107.421 217.478L87.1516 199.425C81.8757 194.89 78.6627 196.854 77.3741 198.843C76.0402 201.534 80.6813 206.031 82.4471 207.357L102.611 226.798L101.823 228.3L82.0489 211.995C79.9484 210.955 77.432 212.135 76.8661 214.425C76.4627 216.063 77.208 217.771 78.6809 218.575L100.883 238.276C100.883 238.276 119.16 262.371 132.856 256.77L145.058 249.603Z" fill="#FDC3AB"/>
<path d="M136.246 210.299C136.246 210.299 124.393 221.243 129.586 236.225" stroke="#FE9575" stroke-width="0.9824" stroke-miterlimit="10" stroke-linecap="round" stroke-linejoin="round"/>
<path d="M166.854 288.661L152.092 237.761L122.675 249.02L136.108 299.605L166.854 288.661Z" fill="#FDC3AB"/>
<path d="M165.597 275.2L158.11 255.839L125.77 264.128L131.636 287.436L165.597 275.2Z" fill="white"/>
<path d="M205.119 369.209L176.008 279.783C173.213 271.597 164.659 266.944 156.341 269.078L131.843 275.367C123.267 277.568 117.939 286.203 119.771 294.935L137.206 387.034C140.572 403.084 155.674 413.775 171.785 411.516C190.237 408.926 209.943 387.354 205.119 369.209Z" fill="#FD404E"/>
<path d="M195.256 240.37C195.256 240.37 162.024 305.297 200.564 430.278L249.746 386.209L195.256 240.37Z" fill="#FD404E"/>
<path d="M349.119 443.15C349.119 443.15 288.434 492.293 230.58 449.759L227.282 328.743L219.121 246.566L230.469 227.341L264.281 218.557L304.745 222.587L310.091 294.805L349.119 443.15Z" fill="#FDAC52"/>
<path d="M283.486 230.172C283.486 230.172 254.711 262.561 227.305 236.243L240.649 198.684L285.261 202.251L283.486 230.172Z" fill="#FDC3AB"/>
<path d="M232.881 280.866C235.945 328.774 240.35 416.729 235.987 474.542C235.719 478.077 231.129 479.191 229.303 476.161L229.142 475.894C224.595 468.34 221.975 459.825 221.487 451.057L214.32 321.961L194.624 253.79C192.427 246.187 194.72 238.008 200.507 232.653C206.656 226.964 223.56 213.277 237.717 206.94L236.918 211.344C232.76 234.268 231.395 257.609 232.881 280.866Z" fill="#FD404E"/>
<path d="M182.498 299.581C182.498 299.581 181.177 331.386 192.59 401.234" stroke="#B7152C" stroke-width="1.0712" stroke-miterlimit="10" stroke-linecap="round" stroke-linejoin="round"/>
<path d="M264.302 259.352C264.302 259.352 266.298 373.04 312.407 472.417C314.797 477.568 320.491 480.27 325.945 478.824C338.074 475.612 361.057 466.124 382.351 429.842L371.498 245.23C371.061 237.986 367.157 231.418 361.024 227.623C350.523 221.125 307.539 208.48 285.258 202.252C285.258 202.252 271.096 220.154 264.302 259.352Z" fill="#FD404E"/>
<path d="M361.14 227.691C361.14 227.691 312.259 273.926 348.821 368.602L354.971 402.073C358.531 421.451 377.488 433.844 396.482 429.21C413.662 425.019 424.841 408.285 422.158 390.665C414.347 339.386 395.194 241.665 361.14 227.691Z" fill="#FD404E"/>
<path d="M351.536 240.293C351.536 240.293 325.623 264.74 339.648 338.976C353.673 413.211 363.579 455.272 363.579 455.272" stroke="#B7152C" stroke-width="1.0712" stroke-miterlimit="10" stroke-linecap="round" stroke-linejoin="round"/>
<path d="M281.679 72.3353C281.679 72.3353 277.343 45.37 243.917 47.13C222.516 48.2569 223.866 58.8233 202.39 60.5349C182.849 62.0907 166.178 77.9497 174.172 100.452C180.873 119.318 211.907 125.931 211.907 125.931L281.679 72.3353Z" fill="#380C1D"/>
<path d="M216.448 142.656C215.867 150.502 209.089 156.391 201.309 155.804C193.527 155.22 187.69 148.382 188.272 140.536C188.853 132.69 195.631 126.801 203.411 127.388C211.191 127.972 217.03 134.808 216.448 142.656Z" fill="#FE9575"/>
<path d="M227.834 169.287L237.092 227.752L285.259 202.249L265.121 129.992L227.834 169.287Z" fill="#FDC3AB"/>
<path d="M232.032 195.748C232.032 195.748 266.257 189.83 264.89 155.364L228.608 174.513L232.032 195.748Z" fill="#FE9575"/>
<path d="M198.861 82.6836C196.523 85.9814 192.527 92.051 192.825 101.991C193.23 115.528 194.509 148.614 202.467 162.119C212.593 179.301 229.946 187.662 252.835 177.563C252.835 177.563 274.291 171.909 278.029 126.875C283.726 58.2803 222.691 49.0721 198.861 82.6836Z" fill="#FDC3AB"/>
<path d="M208.195 133.3C208.082 135.097 206.547 136.461 204.765 136.347C202.983 136.234 201.631 134.685 201.743 132.888C201.856 131.091 203.391 129.727 205.173 129.839C206.955 129.954 208.307 131.503 208.195 133.3Z" fill="#171717"/>
<path d="M236.416 128.364C236.303 130.161 234.767 131.525 232.986 131.412C231.204 131.298 229.851 129.749 229.962 127.953C230.075 126.156 231.61 124.792 233.392 124.903C235.176 125.019 236.528 126.568 236.416 128.364Z" fill="#171717"/>
<path d="M214.365 136.826L213.159 145.849L217.931 145.633" stroke="#FE9575" stroke-width="1.0226" stroke-miterlimit="10" stroke-linecap="round" stroke-linejoin="round"/>
<path d="M223.656 111.185C223.718 113.847 226.031 115.867 228.65 115.543C232.605 115.054 238.414 114.716 243.97 115.797C246.037 116.2 248.058 114.952 248.538 112.886C248.996 110.904 247.792 109.121 245.953 108.288C242.186 106.584 236.265 104.14 227.137 106.683C225.087 107.256 223.606 109.043 223.656 111.185Z" fill="#380C1D"/>
<path d="M208.858 113.454C209.042 116.045 207.686 118.476 205.932 118.696C203.285 119.03 199.426 119.886 195.854 122.068C194.525 122.879 193.089 122.084 192.599 120.179C192.13 118.353 192.773 116.378 193.918 115.195C196.258 112.775 199.955 109.2 206.185 109.802C207.585 109.936 208.71 111.367 208.858 113.454Z" fill="#380C1D"/>
<path d="M200.424 157.897L208.275 158.071L209.68 153.934C210.255 152.242 211.747 151.035 213.51 150.836L231.194 148.842C232.861 148.655 234.498 149.4 235.461 150.785L239.882 154.068C239.882 154.068 261.169 155.864 260.999 126.068L266.692 123.65C266.692 123.65 262.538 137.614 273.066 151.07C273.066 151.07 268.488 182.03 232.991 181.917C232.991 181.917 211.033 182.784 200.424 157.897Z" fill="#380C1D"/>
<path d="M217.096 157.46C217.096 157.46 223.225 159.713 228.554 155.917" stroke="white" stroke-width="1.0185" stroke-miterlimit="10" stroke-linecap="round" stroke-linejoin="round"/>
<path d="M279.93 127.436L260.999 126.068L260.78 101.984C260.757 99.3642 258.873 97.1495 256.398 96.8814C252.169 96.4242 246.208 94.372 245.061 86.5948C243.242 74.2669 248.954 66.1634 248.954 66.1634C248.954 66.1634 285.524 54.8973 294.561 81.827C300.872 100.635 295.211 138.914 271.276 157.343L279.93 127.436Z" fill="#380C1D"/>
<path d="M297.369 129.94C296.72 138.709 289.147 145.285 280.452 144.631C271.76 143.977 265.237 136.339 265.885 127.572C266.534 118.805 274.107 112.226 282.8 112.881C291.496 113.535 298.018 121.173 297.369 129.94Z" fill="#FDC3AB"/>
<path d="M287.572 122.65C287.572 122.65 275.554 121.923 275.326 135.134" stroke="#FE9575" stroke-width="1.0226" stroke-miterlimit="10" stroke-linecap="round" stroke-linejoin="round"/>
<path d="M252.664 70.5068C252.664 70.5068 242.968 82.3332 224.03 83.5916C205.093 84.8482 200.847 80.3379 194.956 89.0779C194.956 89.0779 193.185 62.5504 226.995 56.7076C260.807 50.8629 261.252 73.4468 261.252 73.4468L252.664 70.5068Z" fill="#380C1D"/>
</g>
</svg>
