<svg width="613" height="813" viewBox="0 0 613 813" fill="none" xmlns="http://www.w3.org/2000/svg">
<path fill-rule="evenodd" clip-rule="evenodd" d="M190.504 385.589C210.35 378.956 227.267 367.43 242.884 353.804C250.297 347.334 255.669 339.21 260.896 331.005C275.268 308.436 277.583 283.598 273.966 257.869C272.23 245.546 267.915 233.748 262.168 222.829C254.911 209.04 246.048 196.079 234.267 185.628C217.487 170.74 198.381 160.064 176.302 155.072C161.846 151.804 147.29 149.931 132.463 151.213C118.075 152.458 103.895 154.667 90.5184 160.552C86.4694 162.333 82.2959 163.837 78.1792 165.464C64.5997 170.822 52.906 179.047 42.1886 188.856C36.2908 194.254 30.6956 199.939 26.4524 206.675C21.7867 214.08 16.9699 221.334 14.6796 230.18C12.7544 237.602 10.5143 244.864 9.88278 252.557C8.7573 266.268 10.1986 279.577 15.6618 292.318C16.2431 293.675 16.837 295.037 17.2762 296.444C21.648 310.478 30.0653 322.186 38.8232 333.656C49.2527 347.315 61.3637 359.456 74.8701 369.967C84.8097 377.706 95.0456 385.13 106.664 390.569C120.309 396.955 134.395 398.088 148.951 396.447C156.525 395.594 164.188 394.783 171.538 392.894C178.057 391.219 184.2 388.08 190.504 385.589Z" fill="#EAD3B5" fill-opacity="0.6"/>
<path fill-rule="evenodd" clip-rule="evenodd" d="M429.08 556.161C428.148 556.392 427.014 556.366 426.319 556.907C424.773 558.106 423.338 559.498 422.048 560.976C411.554 573.025 398.365 581.633 384.977 589.969C366.236 601.637 346.368 611.12 325.777 618.923C305.475 626.614 284.568 632.359 263.02 635.542C250.012 637.468 241.731 636.58 228.56 636.39C201.219 635.991 181.88 627.664 155.414 620.143C128.031 612.365 115.435 602.404 85.3495 591.456C41.0954 567.28 43.1221 567.231 27.2108 557.764C10.3798 547.751 7.90646 546.053 7.90646 546.053C6.44065 544.577 6.25754 544.921 2.9597 542.657C2.05094 541.308 0.0315423 540.045 -1.14219 538.914C-17.6874 521.493 -30.5603 502.97 -43.6404 483.311C-54.2347 467.387 -62.815 450.375 -69.4291 432.499C-76.3905 413.71 -81.7616 394.48 -83.8603 374.336C-85.1651 361.828 -85.2658 349.446 -84.4003 336.993C-83.2409 320.309 -78.4433 304.677 -69.1622 290.722C-58.0763 274.054 -35.1141 266.877 -18.8363 272.576C-9.03158 276.009 -0.198299 280.789 7.37627 287.666C14.8886 294.486 22.7188 301.058 28.4979 309.625C30.1233 312.033 32.6578 313.812 34.7099 315.943C38.7911 320.197 42.7356 324.55 46.555 329.064C52.667 336.284 59.414 343.049 67.6054 348.208C72.5925 351.35 77.3413 354.772 82.7505 357.281C96.0898 363.461 109.875 364.407 124.162 361.951C136.938 359.754 148.79 355.003 160.285 349.241C174.376 342.184 188.461 335.113 202.471 327.896C228.033 314.73 254.756 304.899 282.982 299.248C310.271 293.786 337.756 292.087 365.275 296.491C394.451 301.157 421.508 311.701 446.501 327.662C459.419 335.912 470.151 346.589 480.257 357.709C492.482 371.163 498.906 387.587 499.799 406.019C500.963 430.126 496.161 453.049 486.627 475.099C480.747 488.692 473.624 501.636 465.405 513.913C461.962 519.058 457.27 523.362 453.188 528.087C451.519 530.019 449.057 531.535 449.444 534.653C442.657 541.821 435.868 548.991 429.08 556.161Z" fill="#2F804A" fill-opacity="0.25"/>
</svg>
