<svg width="230" height="215" viewBox="0 0 230 215" fill="none" xmlns="http://www.w3.org/2000/svg">
<path fill-rule="evenodd" clip-rule="evenodd" d="M142.073 209.635C159.924 206.327 175.849 198.462 190.909 188.636C198.059 183.97 203.653 177.637 209.133 171.217C224.201 153.556 229.182 132.494 229.175 109.95C229.168 99.1529 226.882 88.4957 223.26 78.4218C218.686 65.6994 212.632 53.4948 203.768 43.0957C191.145 28.2811 176.014 16.8063 157.645 9.85659C145.618 5.3066 133.336 1.94377 120.443 1.25878C107.929 0.594678 95.4791 0.783857 83.2767 4.22932C79.583 5.27172 75.8159 6.06115 72.0827 6.96308C59.7692 9.93007 48.7305 15.5883 38.3399 22.7254C32.6219 26.6526 27.1293 30.8638 22.6718 36.14C17.7706 41.9408 12.7579 47.5927 9.72411 54.9174C7.17555 61.0634 4.37582 67.0332 2.90623 73.5671C0.287212 85.212 -0.0779792 96.8211 3.08105 108.427C3.41692 109.663 3.76316 110.905 3.97101 112.166C6.03644 124.752 11.8582 135.826 18.0012 146.737C25.3168 159.73 34.2601 171.621 44.5988 182.279C52.2067 190.127 60.1072 197.739 69.4349 203.812C80.3892 210.944 92.3558 213.615 105.061 213.958C111.672 214.138 118.354 214.364 124.897 213.627C130.7 212.973 136.356 211.016 142.073 209.635Z" fill="#EAD3B5" fill-opacity="0.6"/>
</svg>
