<svg width="175" height="205" viewBox="0 0 175 205" fill="none" xmlns="http://www.w3.org/2000/svg">
<path fill-rule="evenodd" clip-rule="evenodd" d="M171.358 184.733C186.313 175.868 198.031 163.542 208.326 149.738C213.212 143.184 216.15 135.644 218.957 128.065C226.673 107.216 224.199 86.6395 216.751 66.3777C213.181 56.6743 207.609 47.8493 201.028 39.9894C192.717 30.0631 183.247 21.0907 171.847 14.6686C155.61 5.51836 138.222 0.1979 119.416 0.0140019C107.103 -0.106229 94.9535 0.924622 83.1374 4.56462C71.6702 8.09783 60.5412 12.3772 50.7098 19.5019C47.7337 21.658 44.608 23.6111 41.5499 25.654C31.4607 32.3852 23.4057 41.1148 16.4214 50.9599C12.5778 56.3773 9.03044 61.9756 6.76513 68.1897C4.27412 75.0216 1.63372 81.7566 1.32432 89.342C1.06202 95.7078 0.515792 101.998 1.3514 108.356C2.84074 119.688 6.3442 130.244 13.0145 139.634C13.7245 140.634 14.4455 141.636 15.0488 142.702C21.0593 153.333 29.9476 161.366 39.0708 169.146C49.9352 178.41 61.8991 186.147 74.7104 192.316C84.1393 196.859 93.7535 201.094 104.143 203.474C116.343 206.269 127.981 204.72 139.515 200.835C145.517 198.814 151.598 196.813 157.236 193.99C162.237 191.487 166.675 187.861 171.358 184.733Z" fill="#2B8049" fill-opacity="0.15"/>
</svg>
