<svg width="194" height="136" viewBox="0 0 194 136" fill="none" xmlns="http://www.w3.org/2000/svg">
<path fill-rule="evenodd" clip-rule="evenodd" d="M162.509 116.505C162.189 116.538 161.815 116.477 161.56 116.624C160.992 116.949 160.452 117.344 159.956 117.773C155.919 121.278 151.15 123.517 146.327 125.657C139.576 128.651 132.553 130.87 125.369 132.499C118.285 134.104 111.092 135.035 103.805 135.089C99.4056 135.123 96.7035 134.444 92.3486 133.769C83.3089 132.367 77.2889 128.709 68.8699 124.988C60.1591 121.139 56.4488 117.254 46.9899 112.229C33.4516 102.163 34.1253 102.241 29.2936 98.3656C24.1827 94.266 23.4421 93.5887 23.4421 93.5887C23.025 93.0318 22.9484 93.1371 21.961 92.2339C21.7226 91.7447 21.1122 91.2324 20.7759 90.8033C16.1038 84.2628 12.6995 77.5279 9.27934 70.4073C6.50922 64.6393 4.45687 58.6047 3.09611 52.3749C1.66269 45.8267 0.776639 39.2061 1.01719 32.4348C1.16599 28.2302 1.7079 24.1233 2.57317 20.0379C3.73244 14.564 6.04814 9.60827 9.77136 5.41593C14.2185 0.408748 22.1594 -0.902046 27.2876 1.74222C30.3764 3.33501 33.0809 5.32903 35.2708 7.95934C37.4428 10.5678 39.7317 13.109 41.2483 16.2157C41.675 17.0889 42.432 17.7962 43.0129 18.5976C44.1673 20.1965 45.2719 21.822 46.3276 23.495C48.0171 26.171 49.9381 28.7256 52.4123 30.8154C53.9186 32.0879 55.3329 33.4423 57.0084 34.525C61.1406 37.1922 65.6638 38.146 70.5113 37.9962C74.8462 37.8619 78.9936 36.8383 83.0693 35.4635C88.0659 33.7799 93.0606 32.0917 98.0375 30.3516C107.118 27.1771 116.428 25.1618 126.042 24.6007C135.337 24.0591 144.522 24.7732 153.434 27.5106C162.883 30.4121 171.358 35.1623 178.897 41.6113C182.793 44.9448 185.853 48.9809 188.684 53.1345C192.109 58.1597 193.475 63.8997 192.914 70.0476C192.18 78.0885 189.524 85.4598 185.341 92.3222C182.761 96.5524 179.8 100.51 176.506 104.195C175.127 105.74 173.373 106.948 171.8 108.324C171.158 108.886 170.272 109.274 170.255 110.325C167.673 112.385 165.091 114.445 162.509 116.505Z" fill="#CEB698" fill-opacity="0.95"/>
</svg>
