<svg width="28" height="28" viewBox="0 0 28 28" fill="none" xmlns="http://www.w3.org/2000/svg">
<path d="M13.6548 0C21.1842 0 27.3096 6.11881 27.3096 13.6401C27.3096 21.0224 21.4036 27.0441 14.0657 27.2643C13.9291 27.278 13.7952 27.28 13.6548 27.28C13.5145 27.28 13.3805 27.28 13.2439 27.2643C5.90606 27.0441 0 21.0224 0 13.6401C0 6.11881 6.1254 0 13.6548 0ZM14.6663 2.30492V6.56744H17.6059C17.4308 6.06469 17.2437 5.57696 17.0369 5.1466C16.3229 3.66058 15.4879 2.7326 14.6663 2.30492ZM12.6434 2.30492C11.8217 2.7326 10.9868 3.66058 10.2727 5.1466C10.0659 5.57696 9.87881 6.06469 9.70378 6.56744H12.6434V2.30492ZM18.0642 2.88904C18.3469 3.31946 18.6175 3.76957 18.8544 4.26252C19.1911 4.96313 19.4865 5.74493 19.7394 6.56744H22.8845C21.6414 4.95167 19.9816 3.67165 18.0642 2.88904ZM9.24543 2.88904C7.32809 3.67165 5.66827 4.95167 4.42517 6.56744H7.57023C7.82315 5.74493 8.11855 4.96313 8.45527 4.26252C8.6921 3.76957 8.96277 3.31946 9.24543 2.88904ZM24.133 8.58819H20.261C20.515 9.85596 20.6519 11.2111 20.7035 12.6297H25.2393C25.1152 11.1888 24.7334 9.82919 24.133 8.58819ZM18.1748 8.58819H14.6663V12.6297H18.6806C18.6223 11.1898 18.4492 9.82868 18.1748 8.58819ZM12.6434 8.58819H9.13482C8.86041 9.82868 8.68735 11.1898 8.62909 12.6297H12.6434V8.58819ZM7.04867 8.58819H3.17662C2.57626 9.82919 2.19448 11.1888 2.07037 12.6297H6.60615C6.65774 11.2111 6.79464 9.85596 7.04867 8.58819ZM25.2393 14.6505H20.7035C20.652 16.0677 20.515 17.4276 20.261 18.692H24.1488C24.7455 17.4529 25.1168 16.088 25.2393 14.6505ZM18.6806 14.6505H14.6663V18.692H18.1748C18.4482 17.4518 18.6231 16.0892 18.6806 14.6505ZM12.6434 14.6505H8.62909C8.68659 16.0892 8.86147 17.4518 9.13482 18.692H12.6434V14.6505ZM6.60615 14.6505H2.07037C2.19286 16.088 2.56417 17.4529 3.16084 18.692H7.04867C6.79469 17.4276 6.65769 16.0677 6.60615 14.6505ZM22.8845 20.7127H19.7394C19.4862 21.5349 19.1916 22.3001 18.8544 23.0018C18.6155 23.499 18.3497 23.9724 18.0642 24.4069C19.9854 23.6227 21.6406 22.3331 22.8845 20.7127ZM17.6217 20.7127H14.6663V24.991C15.4879 24.5633 16.3229 23.6196 17.0369 22.1336C17.2463 21.6978 17.4448 21.2227 17.6217 20.7127ZM12.6434 20.7127H9.68795C9.8648 21.2227 10.0633 21.6978 10.2727 22.1336C10.9868 23.6196 11.8217 24.5633 12.6434 24.991V20.7127ZM7.57023 20.7127H4.42517C5.66908 22.3331 7.32425 23.6227 9.24543 24.4069C8.95994 23.9724 8.69413 23.499 8.45527 23.0018C8.11804 22.3001 7.8234 21.5349 7.57023 20.7127Z" fill="#2B8049"/>
</svg>
