<svg width="91" height="91" viewBox="0 0 91 91" fill="none" xmlns="http://www.w3.org/2000/svg">
<path d="M55.5486 45.488L88.8921 12.1445C91.6707 9.36589 91.6707 4.8626 88.8921 2.08397C86.1134 -0.694656 81.6102 -0.694656 78.8315 2.08397L45.488 35.4275L12.1445 2.08397C9.36589 -0.694656 4.8626 -0.694656 2.08397 2.08397C-0.694656 4.8626 -0.694656 9.36589 2.08397 12.1445L35.4275 45.488L2.08397 78.8315C-0.694656 81.6102 -0.694656 86.1134 2.08397 88.8921C3.42538 90.2335 5.24585 91 7.06633 91C8.88681 91 10.7073 90.3293 12.0487 88.8921L45.488 55.5486L78.8315 88.8921C80.1729 90.2335 81.9934 91 83.8139 91C85.6344 91 87.4548 90.3293 88.7963 88.8921C91.5749 86.1134 91.5749 81.6102 88.7963 78.8315L55.5486 45.488Z" fill="#2B8049"/>
</svg>
