<svg width="40" height="39" viewBox="0 0 40 39" fill="none" xmlns="http://www.w3.org/2000/svg">
<path d="M38.7474 34.5448L38.7475 34.5447L38.7395 34.5368L31.9962 27.9186C37.2288 21.2656 36.6402 11.5896 30.5071 5.61591C27.2607 2.42985 22.9162 0.65 18.2883 0.65C13.6588 0.65 9.36244 2.43091 6.07107 5.61443L6.07106 5.61442L6.06924 5.61621C2.82256 8.80267 1.00645 13.0697 1.00645 17.6179C1.00645 22.1675 2.82355 26.3872 6.06741 29.6177L6.06924 29.6195C9.3157 32.8058 13.6603 34.5857 18.2883 34.5857C22.0979 34.5857 25.8174 33.343 28.8309 31.072L35.5831 37.6989C36.0213 38.129 36.5765 38.35 37.1379 38.35C37.7345 38.35 38.3013 38.1362 38.7045 37.6868C39.5731 36.7765 39.582 35.4186 38.7474 34.5448ZM31.1283 17.572C31.1283 20.9213 29.8095 24.0905 27.3978 26.4574C24.9859 28.8246 21.7537 30.1215 18.3351 30.1215C14.9165 30.1215 11.6843 28.8246 9.2724 26.4574C6.86074 24.0905 5.54184 20.9213 5.54184 17.572C5.54184 14.2226 6.86074 11.0535 9.2724 8.68652C11.6843 6.31933 14.9165 5.02246 18.3351 5.02246C21.7537 5.02246 24.9859 6.31933 27.3978 8.68652C29.8095 11.0535 31.1283 14.2226 31.1283 17.572Z" fill="white" stroke="white" stroke-width="0.7"/>
</svg>
