<svg width="27" height="29" viewBox="0 0 27 29" fill="none" xmlns="http://www.w3.org/2000/svg">
<path d="M9.25729 7.28724L9.25729 7.28725C9.23142 7.38561 9.24272 7.44082 9.2536 7.46879C9.26412 7.49582 9.28915 7.53616 9.36033 7.57997L9.25729 7.28724ZM9.25729 7.28724C9.71762 5.53725 10.6274 4.08667 12.0202 2.96963L11.7074 2.57957M9.25729 7.28724L11.7074 2.57957M11.7074 2.57957L12.0202 2.96963C15.0385 0.548991 19.0372 0.406833 22.2124 2.62338C23.8262 3.74989 24.8932 5.30507 25.4713 7.22199L25.95 7.07764L25.4713 7.222L25.4847 7.26643C25.5774 7.57375 25.6484 7.809 25.6651 7.92069L25.6664 7.9294M11.7074 2.57957L25.6664 7.9294M25.6664 7.9294L25.668 7.93806M25.6664 7.9294L25.668 7.93806M25.668 7.93806C26.1343 10.4452 25.6696 12.6264 24.4867 14.7065C23.8791 15.7749 23.2115 16.8067 22.5314 17.8488C21.5329 19.379 21.0424 21.0836 20.667 22.7698C20.4386 23.7958 20.2118 24.7257 19.703 25.5461C18.3388 27.7456 15.7103 28.5178 13.4603 27.3811C12.1166 26.7022 11.3025 25.6057 10.9852 24.1052C10.9611 23.991 10.9828 23.9114 11.0103 23.8643C11.0368 23.8189 11.08 23.7827 11.1479 23.7664L11.1479 23.7664M25.668 7.93806L11.1479 23.7664M11.1479 23.7664C11.2142 23.7503 11.2647 23.7636 11.305 23.7916C11.3477 23.8213 11.4035 23.8862 11.4297 24.0098L11.9189 23.906M11.1479 23.7664L11.9189 23.906M11.9189 23.906L11.4297 24.0098C11.8598 26.0367 13.4598 27.2279 15.1436 27.3969M11.9189 23.906L15.1436 27.3969M13.3278 22.7058L13.4927 22.2337C14.7975 22.6895 16.1013 21.8365 16.1924 20.3345C16.2301 19.7137 16.3691 19.1407 16.6824 18.652C16.9999 18.1566 17.4696 17.7896 18.0946 17.5398C18.9535 17.1964 19.6442 16.6387 20.0741 15.8285L20.5157 16.0628L20.0741 15.8285C20.9087 14.2554 20.9161 12.6741 20.134 11.0784C19.2356 9.24565 17.1352 8.21246 15.1369 8.58294C14.7614 8.65256 14.3943 8.76991 14.0234 8.921L13.5125 9.12903L13.3555 8.6003C13.262 8.28571 13.4038 8.01481 13.4187 7.98651C13.4194 7.98517 13.4198 7.98437 13.4199 7.98414L13.6857 8.09181L13.6462 7.99485C13.7715 7.94383 13.8983 7.89542 14.027 7.85036C14.5889 6.70845 15.5157 6.02595 16.8185 5.87169M13.3278 22.7058L16.8185 5.87169M13.3278 22.7058C11.9096 22.2104 11.2262 20.5187 11.8961 19.1619C12.0985 18.752 12.4704 18.5905 12.8473 18.7488L12.6536 19.2098C12.6536 19.2098 12.6536 19.2098 12.6536 19.2098C12.7292 19.2416 12.7641 19.2865 12.78 19.3278C12.7966 19.3707 12.8064 19.4466 12.7619 19.5564L13.2253 19.7442M13.3278 22.7058L13.2253 19.7442M16.8185 5.87169L16.7597 5.37516C15.1441 5.56645 14.0238 6.49282 13.4198 7.98421L13.6857 8.09186M16.8185 5.87169L16.7597 5.37516C18.328 5.18949 19.5909 5.8186 20.5193 7.04652C20.8466 7.47946 21.0198 7.98223 21.1637 8.39967C21.1834 8.45681 21.2025 8.51235 21.2214 8.56589L13.6857 8.09186M16.1628 8.98717C16.1628 8.98717 16.1628 8.98717 16.1628 8.98717L16.1347 9.48639L16.1628 8.98717ZM16.1628 8.98717C18.5666 9.12206 20.3374 11.1482 20.2282 13.5852C20.1661 14.972 19.6387 16.1992 18.2831 16.9262C18.0245 17.0649 17.7571 17.198 17.4817 17.3175M16.1628 8.98717L15.8043 19.6942C15.8627 19.1065 16.0299 18.6278 16.2976 18.2443C16.564 17.8625 16.948 17.5491 17.4817 17.3175M13.6857 8.09186L13.8348 8.45793L14.2702 8.32859L14.2702 8.32857L14.3141 8.31555C14.3169 8.32523 14.3194 8.33653 14.3209 8.34906C14.3209 8.34909 14.3209 8.34911 14.3209 8.34914C14.322 8.35833 14.3226 8.36818 14.3225 8.37852C14.3222 8.4024 14.3184 8.42084 14.3157 8.43091C14.3146 8.43499 14.3137 8.43748 14.3137 8.43748C14.3137 8.43748 14.3147 8.43473 14.3175 8.42816L14.3286 8.40252C14.3332 8.39177 14.3399 8.37636 14.3467 8.35961L14.3467 8.35954C14.3608 8.32472 14.3752 8.29036 14.3899 8.25644C14.6048 8.18872 14.8229 8.13264 15.0458 8.09132L13.6857 8.09186ZM12.4449 7.88745L12.9167 8.05285C12.3261 9.73777 12.8617 11.6971 14.2326 12.9315L13.8981 13.3031L14.2326 12.9315C14.3529 13.0398 14.4315 13.1021 14.4893 13.1387C14.5218 13.1594 14.5395 13.1664 14.5461 13.1685C14.5526 13.1678 14.5691 13.1649 14.6 13.1538C14.6602 13.1322 14.746 13.0904 14.8823 13.0121L15.1313 13.4457L14.8823 13.0121C15.3767 12.7283 16.034 12.8824 16.2808 13.4499C16.5166 13.9923 16.2584 14.5735 15.7218 14.7874C15.6582 14.8128 15.6206 14.8262 15.594 14.8357L12.4449 7.88745ZM12.4449 7.88745L12.9167 8.05284C13.2596 7.07474 13.7677 6.33605 14.4215 5.81698C15.0749 5.29829 15.9026 4.97598 16.9222 4.87632C18.7913 4.69364 20.6931 5.90621 21.4169 7.72725C21.5096 7.96065 21.5808 8.19221 21.6253 8.42648C21.655 8.58245 21.5805 8.67226 21.4744 8.70061C21.4057 8.71896 21.354 8.70837 21.3193 8.69037M12.4449 7.88745L21.3193 8.69037M13.2253 19.7442L12.7619 19.5564C12.6042 19.9457 12.5054 20.422 12.7338 20.9281C13.0287 21.5816 13.6797 21.9716 14.3892 21.8685C15.0978 21.7655 15.6091 21.2275 15.7188 20.5118C15.7495 20.3113 15.7681 20.099 15.7848 19.9073C15.7914 19.8325 15.7977 19.7608 15.8043 19.6942L13.2253 19.7442ZM3.82365 21.1357L3.82361 21.1356C2.53279 19.7794 1.75611 18.1523 1.56213 16.279L2.05947 16.2275L1.56212 16.279C1.29868 13.7347 2.04692 11.4902 3.77365 9.60835M3.82365 21.1357L3.97153 9.35881C3.97034 9.36713 3.96733 9.38294 3.94006 9.42062C3.92513 9.44126 3.90514 9.46538 3.87627 9.4974C3.85671 9.51908 3.84196 9.53486 3.82487 9.55313C3.81074 9.56825 3.79501 9.58507 3.77365 9.60835M3.82365 21.1357C3.89098 21.2064 3.92648 21.2466 3.95054 21.2827C3.96988 21.3117 3.97282 21.3255 3.97398 21.3342C3.98859 21.4435 3.94006 21.5136 3.87446 21.5454C3.82713 21.5683 3.8018 21.5659 3.78558 21.5623C3.7642 21.5574 3.71249 21.5381 3.63782 21.4604C2.00167 19.7578 1.19543 17.7219 1.15336 15.4657C1.16336 14.2244 1.36104 13.1412 1.7718 12.1048C2.20582 11.0096 2.83557 10.0456 3.65744 9.20661L3.30026 8.85672L3.65744 9.20661C3.71105 9.15189 3.7545 9.13526 3.7798 9.13034C3.80365 9.12569 3.83494 9.12653 3.87804 9.14762L3.87808 9.14764C3.93911 9.17749 3.98808 9.24258 3.97153 9.35881L3.82365 21.1357ZM3.77365 9.60835L4.14206 9.9464L3.77364 9.60836C3.77364 9.60835 3.77365 9.60835 3.77365 9.60835ZM15.1436 27.3969C17.0391 27.5871 18.721 26.5923 19.5605 24.8418M15.1436 27.3969L19.5605 24.8418M19.5605 24.8418C19.9006 24.1326 20.0669 23.3705 20.2187 22.6753M19.5605 24.8418L20.2187 22.6753M20.2187 22.6753C20.2464 22.5482 20.2737 22.4233 20.3014 22.3014M20.2187 22.6753L20.3014 22.3014M20.3014 22.3014C20.7377 20.3841 21.4077 18.6041 22.5189 17.0091M20.3014 22.3014L22.5189 17.0091M22.5189 17.0091C23.3861 15.7643 24.2271 14.4481 24.8056 12.9754M22.5189 17.0091L24.8056 12.9754M24.8056 12.9754C26.2663 9.25693 24.9828 5.0228 21.7224 2.84409M24.8056 12.9754L21.7224 2.84409M21.7224 2.84409C17.2973 -0.112834 11.222 2.12836 9.73858 7.25423M21.7224 2.84409L9.73858 7.25423M9.73858 7.25423C9.67041 7.4898 9.57007 7.58091 9.52284 7.60673M9.73858 7.25423L9.52284 7.60673M9.52284 7.60673C9.50148 7.61841 9.4847 7.62133 9.468 7.62047M9.52284 7.60673L9.468 7.62047M9.468 7.62047C9.44998 7.61955 9.41404 7.61302 9.36034 7.57997L9.468 7.62047ZM21.3193 8.69037C21.2858 8.67301 21.2468 8.63787 21.2214 8.56591L21.3193 8.69037ZM17.4817 17.3175L17.2827 16.8588L17.4817 17.3175C17.4817 17.3175 17.4817 17.3175 17.4817 17.3175ZM14.5427 13.1687C14.5427 13.1687 14.5433 13.1686 14.5445 13.1687C14.5433 13.1688 14.5428 13.1687 14.5427 13.1687ZM14.5476 13.169C14.5485 13.1692 14.549 13.1693 14.5491 13.1693L14.5476 13.169ZM7.50248 13.3816L7.11826 13.0616L7.50249 13.3816C7.6005 13.2639 7.67829 13.1997 7.73214 13.1674C7.75788 13.152 7.77514 13.1457 7.78418 13.1432C7.78868 13.1419 7.79147 13.1415 7.79276 13.1413L7.79407 13.1412L7.79436 13.1412L7.79452 13.1412L7.79538 13.1414C7.79628 13.1416 7.79851 13.1421 7.80223 13.1436C7.80966 13.1465 7.82474 13.1537 7.84718 13.1707C7.87761 13.1936 7.91665 13.2306 7.96254 13.2877V13.2881V13.289V13.2899V13.2908V13.2917V13.2925V13.2934V13.2943V13.2952V13.2961V13.297V13.2979V13.2988V13.2997V13.3005V13.3014V13.3023V13.3032V13.3041V13.305V13.3059V13.3068V13.3077V13.3085V13.3094V13.3103V13.3112V13.3121V13.313V13.3139V13.3148V13.3156V13.3165V13.3174V13.3183V13.3192V13.3201V13.321V13.3219V13.3228V13.3236V13.3245V13.3254V13.3263V13.3272V13.3281V13.329V13.3299V13.3308V13.3316V13.3325V13.3334V13.3343V13.3352V13.3361V13.337V13.3379V13.3388V13.3396V13.3405V13.3414V13.3423V13.3432V13.3441V13.345V13.3459V13.3468V13.3476V13.3485V13.3494V13.3503V13.3512V13.3521V13.353V13.3539V13.3548V13.3556V13.3565V13.3574V13.3583V13.3592V13.3601V13.361V13.3619V13.3628V13.3636V13.3645V13.3654V13.3663V13.3672V13.3681V13.369V13.3699V13.3707V13.3716V13.3725V13.3734V13.3743V13.3752V13.3761V13.377V13.3779V13.3787V13.3796V13.3805V13.3814V13.3823V13.3832V13.3841V13.385V13.3859V13.3867V13.3876V13.3885V13.3893C7.59686 13.8038 7.24048 14.3154 7.16183 15.0061L7.16182 15.0061C7.08358 15.6934 7.23404 16.338 7.64759 16.9086L8.05242 16.6152L7.64759 16.9086C7.74423 17.0419 7.8622 17.1784 7.96254 17.2939V17.2943V17.2952V17.2961V17.297V17.2979V17.2987V17.2996V17.3005V17.3014V17.3023V17.3032V17.3041V17.305V17.3058V17.3067V17.3076V17.3085V17.3094V17.3103V17.3112V17.3121V17.313V17.3138V17.3147V17.3156V17.3165V17.3174V17.3183V17.3192V17.3201V17.321V17.3218V17.3227V17.3236V17.3245V17.3254V17.3263V17.3272V17.3281V17.329V17.3298V17.3307V17.3316V17.3325V17.3334V17.3343V17.3352V17.3361V17.337V17.3378V17.3387V17.3396V17.3405V17.3414V17.3423V17.3432V17.3441V17.345V17.3458V17.3467V17.3476V17.3485V17.3494V17.3503V17.3512V17.3521V17.3529V17.3538V17.3547V17.3556V17.3565V17.3574V17.3583V17.3592V17.3601V17.3609V17.3618V17.3627V17.3636V17.3645V17.3654V17.3663V17.3672V17.3681V17.3689V17.3698V17.3707V17.3716V17.3725V17.3734V17.3743V17.3752V17.3761V17.3769V17.3778V17.3787V17.3796V17.3805V17.3814V17.3823V17.3832V17.3841V17.3849V17.3858V17.3867V17.3876V17.3885V17.3894V17.3903V17.3912V17.3921V17.3929V17.3938V17.3947V17.3956V17.3965V17.3974V17.3983V17.3992V17.4V17.4009V17.4018V17.4027V17.4031C7.86502 17.5248 7.80644 17.5463 7.79462 17.5496C7.78015 17.5472 7.68344 17.5247 7.50218 17.3072C6.54743 16.1618 6.54727 14.5287 7.50248 13.3816ZM5.86043 11.5153L5.86042 11.5153C4.96295 12.4612 4.45188 13.5947 4.34871 14.9014C4.21962 16.5363 4.7432 17.9542 5.83236 19.144C5.94984 19.2723 5.97169 19.3607 5.9738 19.3955C5.97502 19.4157 5.97399 19.4466 5.92037 19.4978C5.85609 19.559 5.82254 19.5551 5.80944 19.5535L5.80935 19.5535C5.78115 19.5502 5.69636 19.526 5.57319 19.3932C4.51372 18.2512 3.99244 16.9016 3.96978 15.3685C3.99811 13.7544 4.53063 12.4017 5.60584 11.264C5.70497 11.1591 5.77799 11.1399 5.80555 11.1374C5.82391 11.1357 5.85916 11.1363 5.91567 11.1901C5.97 11.2418 5.97577 11.28 5.97494 11.3051C5.97387 11.3377 5.95723 11.4133 5.86043 11.5153Z" fill="#2B8049" stroke="#3E3E3E"/>
</svg>
