<svg width="86" height="44" viewBox="0 0 86 44" fill="none" xmlns="http://www.w3.org/2000/svg">
<path d="M76.3989 24.8925L60.4326 38.5223C59.8053 39.0578 59.4337 39.8027 59.4337 40.5998C59.4337 41.3968 59.8053 42.1417 60.4326 42.6773C61.0576 43.2108 61.8904 43.5 62.7454 43.5C63.6004 43.5 64.4333 43.2108 65.0582 42.6773L65.0585 42.677L82.868 27.4499C82.8681 27.4499 82.8681 27.4498 82.8681 27.4498C84.5412 26.0198 85.5 24.0627 85.5 22.002C85.5 19.9413 84.5412 17.9843 82.868 16.5542L65.0598 1.32813C65.0594 1.32777 65.0589 1.32742 65.0585 1.32706C64.7492 1.06113 64.3855 0.853451 63.9899 0.712753C63.5937 0.571865 63.171 0.5 62.7454 0.5C62.3199 0.5 61.8971 0.571865 61.501 0.712753C61.1054 0.853428 60.7417 1.06107 60.4325 1.32694C60.1212 1.59087 59.869 1.90904 59.695 2.2657C59.5204 2.62339 59.4289 3.01064 59.4289 3.40431C59.4289 3.79799 59.5204 4.18524 59.695 4.54292C59.8692 4.89995 60.1217 5.21841 60.4334 5.4825C60.4337 5.48271 60.4339 5.48292 60.4342 5.48313L76.3989 19.1116L3.80025 19.1116C2.94828 19.1116 2.11832 19.3998 1.49554 19.9315C0.870316 20.4652 0.5 21.2076 0.5 22.002C0.5 22.7965 0.870323 23.5389 1.49554 24.0726C2.11832 24.6043 2.94828 24.8925 3.80025 24.8925L76.3989 24.8925Z" fill="#2B8049" stroke="#2B8049"/>
</svg>
