<svg width="499" height="351" viewBox="0 0 499 351" fill="none" xmlns="http://www.w3.org/2000/svg">
<path fill-rule="evenodd" clip-rule="evenodd" d="M419.512 301.942C418.684 302.028 417.713 301.869 417.051 302.25C415.577 303.095 414.177 304.118 412.89 305.232C402.422 314.321 390.052 320.128 377.545 325.678C360.036 333.445 341.821 339.198 323.189 343.422C304.818 347.585 286.162 350.001 267.263 350.141C255.855 350.228 248.847 348.467 237.552 346.717C214.108 343.08 198.495 333.595 176.661 323.944C154.069 313.961 144.447 303.885 119.915 290.853C84.8037 264.747 86.551 264.95 74.0201 254.899C60.765 244.266 58.8443 242.51 58.8443 242.51C57.7626 241.065 57.5639 241.338 55.0031 238.996C54.3848 237.727 52.8018 236.399 51.9296 235.286C39.8125 218.323 30.9836 200.856 22.1134 182.389C14.9291 167.43 9.60636 151.779 6.07725 135.622C2.35968 118.639 0.0617289 101.469 0.68559 83.908C1.07151 73.0033 2.47697 62.3522 4.721 51.7568C7.72754 37.5603 13.7333 24.7076 23.3894 13.8349C34.9231 0.848811 55.5177 -2.5507 68.8175 4.30715C76.8284 8.43803 83.8423 13.6095 89.522 20.4311C95.155 27.1963 101.091 33.7868 105.024 41.844C106.131 44.1087 108.094 45.9429 109.601 48.0213C112.595 52.1682 115.46 56.3839 118.197 60.7227C122.579 67.663 127.561 74.2881 133.978 79.7081C137.885 83.0082 141.553 86.5208 145.898 89.3287C156.615 96.2462 168.346 98.7199 180.917 98.3313C192.16 97.983 202.916 95.3284 213.486 91.7629C226.445 87.3965 239.399 83.0181 252.306 78.5051C275.856 70.2723 300.002 65.0455 324.936 63.5904C349.041 62.1857 372.863 64.0377 395.977 71.1371C420.483 78.6622 442.462 90.9817 462.013 107.707C472.119 116.352 480.054 126.82 487.397 137.592C496.28 150.625 499.821 165.512 498.367 181.456C496.463 202.31 489.575 221.427 478.726 239.225C472.036 250.196 464.356 260.46 455.814 270.018C452.236 274.024 447.687 277.157 443.609 280.725C441.943 282.184 439.644 283.19 439.601 285.916C432.906 291.257 426.209 296.6 419.512 301.942Z" fill="#2F804A" fill-opacity="0.55"/>
</svg>
