<svg width="53" height="42" viewBox="0 0 53 42" fill="none" xmlns="http://www.w3.org/2000/svg">
<path d="M43.2814 2.12844L43.2814 2.12841C37.8823 7.53919 33.2217 12.4251 28.583 17.2881C25.352 20.6753 22.1316 24.0514 18.6797 27.586L18.3545 27.919L17.9991 27.6183L9.47121 20.4048L9.46541 20.3999L9.45976 20.3948C8.92541 19.9142 8.30001 19.5458 7.62063 19.3114C6.94125 19.0769 6.22171 18.9813 5.50469 19.0301C4.78766 19.0788 4.08773 19.2711 3.44637 19.5954C2.805 19.9197 2.23528 20.3695 1.77097 20.918C1.30665 21.4666 0.957192 22.1028 0.743301 22.7889C0.529409 23.475 0.455439 24.1971 0.525777 24.9124C0.596115 25.6276 0.80933 26.3215 1.15278 26.9528C1.49623 27.5841 1.96293 28.14 2.52521 28.5876L2.53107 28.5923L2.53678 28.5971L15.2521 39.3563C16.2813 40.227 17.6003 40.6788 18.9472 40.6219C20.2941 40.5649 21.5703 40.0033 22.5222 39.0487L22.5223 39.0486C27.7946 33.7651 32.3039 29.017 36.7871 24.2949L36.8673 24.2104C41.3229 19.5174 45.7572 14.8467 50.8874 9.70546L50.8911 9.70171L50.8912 9.70173C51.6616 8.94575 52.1864 7.97511 52.3969 6.91641C52.6074 5.85772 52.4939 4.76017 52.0713 3.76694C51.6486 2.77369 50.9364 1.93087 50.0276 1.3485C49.1188 0.766161 48.0556 0.471232 46.9767 0.502212L43.2814 2.12844ZM43.2814 2.12844L43.2857 2.124M43.2814 2.12844L43.2857 2.124M43.2857 2.124C44.2586 1.12454 45.5823 0.542902 46.9765 0.502218L43.2857 2.124Z" fill="white" stroke="#2F804A"/>
</svg>
