<svg width="182" height="144" viewBox="0 0 182 144" fill="none" xmlns="http://www.w3.org/2000/svg">
<path fill-rule="evenodd" clip-rule="evenodd" d="M22.5118 16.8383C32.6904 9.21279 44.1167 4.4772 56.6166 2.22514C64.1342 0.870205 71.6899 0.544257 79.3015 0.956532C87.9378 1.42588 96.3391 3.0744 104.59 5.63039C114.135 8.58761 123.165 12.7298 131.779 17.7113C139.42 22.1293 146.483 27.3802 152.717 33.7036C155.532 36.5593 158.29 39.4459 160.908 42.4928C162.504 44.3516 164.143 46.1682 165.585 48.1516C168.011 51.4909 169.888 55.1615 171.97 58.7109C174.933 63.7605 176.831 69.209 178.595 74.7404C181.135 82.7035 182.001 90.8393 181.666 99.1778C181.429 105.046 180.293 110.702 178.394 116.212C176.481 121.759 173.544 126.735 169.514 131.036C163.336 137.63 155.679 141.38 146.856 143.01C141.455 144.007 136.163 143.858 131.03 141.888C127.026 140.352 123.613 137.99 120.755 134.654C116.488 129.672 112.017 124.856 107.165 120.413C101.82 115.519 96.3654 110.769 90.4554 106.553C80.7813 99.6529 70.0633 96.0918 58.1433 96.3334C53.6803 96.4246 49.2185 96.6072 44.7569 96.7779C40.6159 96.938 36.5098 96.7383 32.4058 96.0821C24.3965 94.8025 17.4324 91.2758 11.9602 85.4688C4.19566 77.2283 -0.155575 67.4146 0.0638428 55.8012C0.280294 44.3392 4.26824 34.4682 11.9595 26.0319C13.3101 24.5506 14.5346 22.9204 16.0483 21.6295C18.0856 19.8951 20.3464 18.423 22.5118 16.8383Z" fill="#D8B192" fill-opacity="0.75"/>
</svg>
