<svg width="69" height="69" viewBox="0 0 69 69" fill="none" xmlns="http://www.w3.org/2000/svg">
<path fill-rule="evenodd" clip-rule="evenodd" d="M0 13.8C0 6.17847 6.17847 0 13.8 0H55.2C62.8214 0 69 6.17847 69 13.8V55.2C69 62.8214 62.8214 69 55.2 69H13.8C6.17847 69 0 62.8214 0 55.2V13.8ZM13.8 6.9C9.98923 6.9 6.9 9.98923 6.9 13.8V55.2C6.9 59.0109 9.98923 62.1 13.8 62.1H34.5V37.95H31.05C29.1446 37.95 27.6 36.4054 27.6 34.5C27.6 32.5946 29.1446 31.05 31.05 31.05H34.5V25.875C34.5 19.2062 39.9062 13.8 46.575 13.8H48.645C50.5504 13.8 52.095 15.3446 52.095 17.25C52.095 19.1554 50.5504 20.7 48.645 20.7H46.575C43.717 20.7 41.4 23.0169 41.4 25.875V31.05H48.645C50.5504 31.05 52.095 32.5946 52.095 34.5C52.095 36.4054 50.5504 37.95 48.645 37.95H41.4V62.1H55.2C59.0109 62.1 62.1 59.0109 62.1 55.2V13.8C62.1 9.98923 59.0109 6.9 55.2 6.9H13.8Z" fill="white"/>
</svg>
