<svg width="47" height="35" viewBox="0 0 47 35" fill="none" xmlns="http://www.w3.org/2000/svg">
<path d="M0.240128 17.3768C0.240128 16.8522 0.40155 16.3491 0.688881 15.9782C0.976212 15.6073 1.36592 15.399 1.77227 15.399L42.236 15.399L32.9359 3.39367C32.7923 3.2098 32.6783 2.99106 32.6006 2.75004C32.5228 2.50903 32.4827 2.25051 32.4827 1.98942C32.4827 1.72833 32.5228 1.46982 32.6006 1.22881C32.6783 0.987789 32.7923 0.769043 32.9359 0.585182C33.0784 0.399803 33.2478 0.252666 33.4345 0.152256C33.6212 0.0518456 33.8215 0.000148773 34.0238 0.000148773C34.226 0.000148773 34.4263 0.0518456 34.613 0.152256C34.7997 0.252666 34.9691 0.399803 35.1116 0.585182L44.856 13.1838C45.7167 14.2963 46.2002 15.8044 46.2002 17.3768C46.2002 18.9491 45.7167 20.4572 44.856 21.5697L35.1116 34.1683C34.8231 34.5408 34.4318 34.75 34.0238 34.75C33.6157 34.75 33.2244 34.5408 32.9359 34.1683C32.6474 33.7959 32.4853 33.2908 32.4853 32.7641C32.4853 32.2374 32.6474 31.7323 32.9359 31.3599L42.236 19.3546L1.77227 19.3546C1.36592 19.3546 0.976212 19.1462 0.688881 18.7753C0.40155 18.4044 0.240128 17.9013 0.240128 17.3768Z" fill="#4F4949"/>
</svg>
