<svg width="120" height="107" viewBox="0 0 120 107" fill="none" xmlns="http://www.w3.org/2000/svg">
<path fill-rule="evenodd" clip-rule="evenodd" d="M107.122 34.3109C107.188 34.4012 107.25 34.494 107.32 34.5804C111.063 39.2128 113.671 44.4801 115.872 49.9667C118.213 55.806 119.744 61.8418 119.606 68.1702C119.487 73.6576 118.64 78.9852 116.155 84.0337C113.327 89.7749 109.403 94.526 104.17 98.0962C98.8969 101.694 93.084 104.18 86.7831 105.463C80.1453 106.816 73.525 106.7 66.8425 105.754C60.3073 104.829 53.9378 103.242 47.6984 101.2C43.3695 99.7829 39.2332 97.8433 35.2943 95.4548C31.9602 93.4336 28.5652 91.5309 25.4198 89.2093C21.5506 86.3532 18.0294 83.1649 15.2486 79.2072C14.0283 77.4709 12.7492 75.7782 11.4946 74.067C6.9679 67.8921 3.88596 61.0101 1.90249 53.6672C-0.261627 45.6578 -0.158116 37.5442 1.7239 29.4857C3.19171 23.1925 6.23665 17.6481 10.2556 12.6239C10.5988 12.1938 11.0215 11.8098 11.4653 11.4814C13.9795 9.62011 16.448 7.68741 19.0571 5.96875C20.5265 5.00127 22.1853 4.26837 23.8415 3.64937C30.171 1.2793 36.7091 0.0659001 43.492 0.358306C46.1583 0.474735 48.8253 0.527282 51.4867 0.68813C54.7357 0.884688 57.8412 1.90666 60.9492 2.71824C67.0954 4.32444 73.0105 6.64777 78.6258 9.65324C84.9311 13.0282 90.8842 16.9902 96.0922 21.8637C100.131 25.6446 104.237 29.4639 107.122 34.3109Z" fill="#E7E5D9" fill-opacity="0.9"/>
</svg>
