<svg width="60" height="31" viewBox="0 0 60 31" fill="none" xmlns="http://www.w3.org/2000/svg">
<path d="M52.6415 17.652L41.9363 26.7905C41.4722 27.1868 41.1923 27.7427 41.1923 28.3427C41.1923 28.9427 41.4722 29.4986 41.9363 29.8949C42.3981 30.289 43.0096 30.5 43.6338 30.5C44.2579 30.5 44.8694 30.289 45.3312 29.8949L45.3315 29.8946L57.6285 19.3807C57.6285 19.3806 57.6285 19.3806 57.6285 19.3806C58.8147 18.3667 59.5 16.9739 59.5 15.5014C59.5 14.0289 58.8147 12.636 57.6285 11.6222L45.3327 1.10927C45.3325 1.10913 45.3324 1.10899 45.3322 1.10884C45.1033 0.911955 44.8352 0.759094 44.5449 0.655848L44.3773 1.12694L44.5449 0.655846C44.2544 0.552523 43.9449 0.5 43.6338 0.5C43.3226 0.5 43.0131 0.552523 42.7226 0.655846C42.4328 0.758938 42.165 0.911489 41.9363 1.10794C41.7062 1.30312 41.5185 1.53951 41.3884 1.80606C41.2578 2.07358 41.189 2.36413 41.189 2.66012C41.189 2.95612 41.2578 3.24666 41.3884 3.51418C41.5187 3.78112 41.7068 4.01781 41.9373 4.21315C41.9375 4.2133 41.9377 4.21345 41.9379 4.21361L52.6415 13.3509L2.9335 13.3509C2.31141 13.3509 1.70192 13.5611 1.24168 13.954C0.779003 14.349 0.5 14.9032 0.5 15.5014C0.5 16.0996 0.779003 16.6538 1.24168 17.0488C1.70192 17.4417 2.31141 17.652 2.9335 17.652L52.6415 17.652Z" fill="#2B8049" stroke="#2B8049"/>
</svg>
