<svg width="14" height="11" viewBox="0 0 14 11" fill="none" xmlns="http://www.w3.org/2000/svg">
<path d="M0 5.61563C0 5.46588 0.0491705 5.32226 0.136695 5.21636C0.224219 5.11047 0.342929 5.05098 0.466707 5.05098L12.7925 5.05098L9.95954 1.62356C9.9158 1.57107 9.88108 1.50862 9.85738 1.43981C9.83369 1.371 9.82149 1.2972 9.82149 1.22266C9.82149 1.14812 9.83369 1.07432 9.85738 1.00551C9.88108 0.936702 9.9158 0.874251 9.95954 0.82176C10.0029 0.768836 10.0545 0.72683 10.1114 0.698163C10.1683 0.669497 10.2293 0.654737 10.2909 0.654737C10.3525 0.654737 10.4135 0.669497 10.4704 0.698163C10.5273 0.72683 10.5789 0.768836 10.6223 0.82176L13.5905 4.41857C13.8527 4.73619 14 5.16673 14 5.61563C14 6.06453 13.8527 6.49507 13.5905 6.81269L10.6223 10.4095C10.5344 10.5158 10.4152 10.5756 10.2909 10.5756C10.1666 10.5756 10.0474 10.5158 9.95954 10.4095C9.87166 10.3032 9.82229 10.159 9.82229 10.0086C9.82229 9.85823 9.87166 9.71403 9.95954 9.6077L12.7925 6.18028L0.466707 6.18028C0.342929 6.18028 0.224219 6.12079 0.136695 6.0149C0.0491705 5.90901 0 5.76539 0 5.61563Z" fill="#2B8049"/>
</svg>
