<svg width="10" height="9" viewBox="0 0 10 9" fill="none" xmlns="http://www.w3.org/2000/svg">
<path d="M0 4.09137C0 3.96787 0.0351219 3.84942 0.0976391 3.76209C0.160157 3.67476 0.244949 3.6257 0.333363 3.6257L9.13747 3.6257L7.11396 0.799067C7.08271 0.755777 7.05791 0.704273 7.04099 0.647526C7.02406 0.59078 7.01535 0.529914 7.01535 0.46844C7.01535 0.406965 7.02406 0.346099 7.04099 0.289352C7.05791 0.232606 7.08271 0.181103 7.11396 0.137813C7.14495 0.0941658 7.18182 0.0595226 7.22244 0.035881C7.26307 0.0122395 7.30664 6.67572e-05 7.35065 6.67572e-05C7.39465 6.67572e-05 7.43823 0.0122395 7.47885 0.035881C7.51947 0.0595226 7.55634 0.0941658 7.58733 0.137813L9.70752 3.10415C9.8948 3.36609 10 3.72116 10 4.09137C10 4.46158 9.8948 4.81666 9.70752 5.0786L7.58733 8.04493C7.52456 8.13262 7.43942 8.18188 7.35065 8.18188C7.26187 8.18188 7.17673 8.13262 7.11396 8.04493C7.05119 7.95725 7.01592 7.83832 7.01592 7.71431C7.01592 7.5903 7.05119 7.47137 7.11396 7.38368L9.13747 4.55705L0.333363 4.55705C0.244949 4.55705 0.160157 4.50798 0.0976391 4.42065C0.0351219 4.33332 0 4.21488 0 4.09137Z" fill="#757171"/>
<path d="M0 4.09137C0 3.96787 0.0351219 3.84942 0.0976391 3.76209C0.160157 3.67476 0.244949 3.6257 0.333363 3.6257L9.13747 3.6257L7.11396 0.799067C7.08271 0.755777 7.05791 0.704273 7.04099 0.647526C7.02406 0.59078 7.01535 0.529914 7.01535 0.46844C7.01535 0.406965 7.02406 0.346099 7.04099 0.289352C7.05791 0.232606 7.08271 0.181103 7.11396 0.137813C7.14495 0.0941658 7.18182 0.0595226 7.22244 0.035881C7.26307 0.0122395 7.30664 6.67572e-05 7.35065 6.67572e-05C7.39465 6.67572e-05 7.43823 0.0122395 7.47885 0.035881C7.51947 0.0595226 7.55634 0.0941658 7.58733 0.137813L9.70752 3.10415C9.8948 3.36609 10 3.72116 10 4.09137C10 4.46158 9.8948 4.81666 9.70752 5.0786L7.58733 8.04493C7.52456 8.13262 7.43942 8.18188 7.35065 8.18188C7.26187 8.18188 7.17673 8.13262 7.11396 8.04493C7.05119 7.95725 7.01592 7.83832 7.01592 7.71431C7.01592 7.5903 7.05119 7.47137 7.11396 7.38368L9.13747 4.55705L0.333363 4.55705C0.244949 4.55705 0.160157 4.50798 0.0976391 4.42065C0.0351219 4.33332 0 4.21488 0 4.09137Z" stroke="#757171"/>
</svg>
