<svg width="128" height="61" viewBox="0 0 128 61" fill="none" xmlns="http://www.w3.org/2000/svg">
<path d="M127.4 30.4968C127.4 31.3843 126.957 32.2356 126.17 32.8632C125.382 33.4908 124.314 33.8434 123.2 33.8434H12.2678L37.764 54.1575C38.1577 54.4686 38.4702 54.8387 38.6834 55.2465C38.8967 55.6543 39.0065 56.0918 39.0065 56.5336C39.0065 56.9754 38.8967 57.4128 38.6834 57.8206C38.4702 58.2284 38.1577 58.5986 37.764 58.9097C37.3735 59.2234 36.909 59.4723 36.3971 59.6422C35.8853 59.8121 35.3363 59.8996 34.7818 59.8996C34.2273 59.8996 33.6782 59.8121 33.1664 59.6422C32.6545 59.4723 32.19 59.2234 31.7995 58.9097L5.08514 37.5916C2.72536 35.7091 1.3999 33.1573 1.3999 30.4968C1.3999 27.8362 2.72536 25.2844 5.08514 23.4019L31.7995 2.08383C32.5904 1.45364 33.6632 1.09961 34.7818 1.09961C35.9003 1.09961 36.9731 1.45364 37.764 2.08383C38.555 2.71401 38.9993 3.56872 38.9993 4.45994C38.9993 5.35115 38.555 6.20586 37.764 6.83605L12.2678 27.1501H123.2C124.314 27.1501 125.382 27.5027 126.17 28.1303C126.957 28.7579 127.4 29.6092 127.4 30.4968Z" fill="white"/>
<path d="M31.6436 1.88842L31.6437 1.8883C32.4837 1.21907 33.613 0.849609 34.7818 0.849609C35.9505 0.849609 37.0799 1.21907 37.9198 1.8883C38.7612 2.55869 39.2493 3.48171 39.2493 4.45994C39.2493 5.43817 38.7612 6.36119 37.9198 7.03157L12.9827 26.9001H123.2C124.364 26.9001 125.489 27.2681 126.325 27.9348C127.164 28.6026 127.65 29.5222 127.65 30.4968C127.65 31.4713 127.164 32.3909 126.325 33.0587C125.489 33.7254 124.364 34.0934 123.2 34.0934H12.9827L37.919 53.9613C37.9191 53.9614 37.9192 53.9614 37.9192 53.9615C38.3379 54.2924 38.6741 54.6891 38.905 55.1307C39.1361 55.5727 39.2565 56.0497 39.2565 56.5336C39.2565 57.0174 39.1361 57.4944 38.905 57.9365C38.6742 58.3779 38.3381 58.7745 37.9197 59.1053C37.5045 59.4386 37.0134 59.7011 36.4759 59.8795C35.9379 60.0581 35.3623 60.1496 34.7818 60.1496C34.2013 60.1496 33.6256 60.0581 33.0876 59.8795C32.55 59.701 32.0588 59.4385 31.6436 59.1051V1.88842ZM31.6436 1.88842L4.92923 23.2065C4.92922 23.2065 4.92921 23.2065 4.9292 23.2065C2.51904 25.1292 1.1499 27.7492 1.1499 30.4968C1.1499 33.2443 2.51904 35.8643 4.9292 37.787C4.92921 37.787 4.92923 37.787 4.92924 37.787L31.6429 59.1046L31.6436 1.88842Z" stroke="#2F804A" stroke-opacity="0.65" stroke-width="0.5"/>
</svg>
