<svg width="240" height="220" viewBox="0 0 240 220" fill="none" xmlns="http://www.w3.org/2000/svg">
<path d="M207.171 210.431C218.437 216.375 215.363 220.754 203.115 219.891C167.664 217.391 165.952 179.623 133.365 182.018C132.813 182.058 123.605 182.291 119.269 182.291C11.0533 182.291 0 169.01 0 88.4107C0 32.4856 12.744 0 122.197 0C228.323 0 240 25.083 240 88.4107C240 118.43 231.163 139.21 209.744 158.741C209.28 159.161 206.061 161.687 204.941 162.584C189.133 175.28 187.267 199.932 207.171 210.431ZM167.112 165.349C176.285 162.837 193.312 153.342 201.237 147.813C221.421 133.732 226.667 114.388 226.667 88.4107C226.667 55.5476 222.939 40.6346 212.419 31.4126C198.832 19.5027 171.008 14.192 122.197 14.192C74.1867 14.192 43.584 20.7005 28.64 34.0921C17.4853 44.089 13.3333 58.8089 13.3333 88.4107C13.3333 129.69 16.704 145.71 27.2053 154.344C41.1333 165.797 72.7733 169.433 119.269 168.099C131.243 167.755 155.509 168.525 167.112 165.349Z" fill="#2B8049" fill-opacity="0.55"/>
<path fill-rule="evenodd" clip-rule="evenodd" d="M202.731 159.465L202.727 159.468C193.992 166.484 188.938 176.939 188.991 187.352C189.044 197.935 194.38 208.043 205.538 213.929C206.961 214.68 208.044 215.356 208.847 215.937C207.488 216.111 205.66 216.157 203.358 215.995C187.24 214.858 178.821 205.945 169.944 196.549L169.758 196.351C160.818 186.888 151.187 176.796 133.118 178.122C133.125 178.121 133.002 178.127 132.667 178.138C132.362 178.148 131.947 178.16 131.446 178.174C130.444 178.201 129.113 178.234 127.661 178.265C124.75 178.328 121.396 178.386 119.269 178.386C92.2406 178.386 71.4827 177.553 55.5068 175.092C39.5063 172.626 28.7137 168.582 21.3011 162.486C14.0096 156.491 9.59346 148.179 6.99757 136.205C4.37326 124.1 3.67346 108.553 3.67346 88.4107C3.67346 60.5314 6.92453 40.1032 22.4209 26.2197C38.1978 12.085 67.5306 3.90533 122.197 3.90533C148.626 3.90533 168.985 5.46996 184.668 8.74098C200.354 12.0126 211.109 16.941 218.559 23.4707C233.277 36.3716 236.327 56.6355 236.327 88.4107C236.327 103.003 234.181 115.123 229.562 125.888C224.946 136.646 217.759 146.284 207.365 155.765C207.364 155.765 207.362 155.767 207.358 155.771C207.341 155.785 207.293 155.826 207.198 155.904C207.079 156.003 206.923 156.129 206.736 156.28C206.362 156.581 205.89 156.958 205.39 157.355C205.007 157.659 204.604 157.978 204.222 158.281C203.624 158.754 203.077 159.188 202.731 159.465ZM133.118 178.122C133.116 178.122 133.114 178.122 133.112 178.122L133.365 182.015L133.117 178.122C133.118 178.122 133.118 178.122 133.118 178.122ZM203.115 219.891C215.363 220.754 218.437 216.375 207.171 210.431C187.267 199.932 189.133 175.28 204.941 162.584C205.281 162.312 205.813 161.891 206.402 161.424C207.759 160.35 209.421 159.034 209.744 158.741C231.163 139.21 240 118.43 240 88.4107C240 25.083 228.323 0 122.197 0C12.744 0 0 32.4856 0 88.4107C0 169.01 11.0533 182.291 119.269 182.291C123.605 182.291 132.813 182.058 133.365 182.018C149.87 180.805 158.454 189.895 167.513 199.487C176.341 208.833 185.619 218.657 203.115 219.891ZM211.128 215.336C211.128 215.336 211.123 215.339 211.116 215.345C211.124 215.339 211.128 215.336 211.128 215.336ZM168.028 169.13L168.028 169.13C173.009 167.766 179.847 164.608 186.278 161.209C192.762 157.783 199.135 153.951 203.253 151.078C213.921 143.635 220.781 134.679 224.915 124.067C229.012 113.548 230.34 101.636 230.34 88.4107C230.34 55.6163 226.729 38.8955 214.756 28.3995L214.756 28.3995C207.256 21.8251 196.182 17.3583 181.166 14.4922C166.101 11.6168 146.696 10.2867 122.197 10.2867C98.0624 10.2867 78.1446 11.9202 62.298 15.2908C46.5021 18.6505 34.4221 23.803 26.2724 31.1061L26.2723 31.1062C13.7888 42.294 9.65985 58.61 9.65985 88.4107C9.65985 109.078 10.496 123.775 12.7465 134.471C15.0275 145.313 18.8367 152.4 24.958 157.433C32.7195 163.815 44.9243 167.692 60.5428 169.888C76.2838 172.101 96.0377 172.672 119.368 172.003C122.056 171.926 125.384 171.905 129.108 171.883C129.464 171.881 129.823 171.878 130.186 171.876C134.326 171.85 138.877 171.815 143.425 171.69C152.402 171.443 161.767 170.844 168.028 169.13ZM27.2053 154.344C16.704 145.71 13.3333 129.69 13.3333 88.4107C13.3333 58.8089 17.4853 44.089 28.64 34.0921C43.584 20.7005 74.1867 14.192 122.197 14.192C171.008 14.192 198.832 19.5027 212.419 31.4126C222.939 40.6346 226.667 55.5476 226.667 88.4107C226.667 114.388 221.421 133.731 201.237 147.813C193.312 153.342 176.285 162.837 167.112 165.348C158.154 167.801 141.646 167.901 129.076 167.978C125.366 168 121.998 168.021 119.269 168.099C72.7733 169.433 41.1333 165.797 27.2053 154.344Z" fill="white"/>
</svg>
