<svg width="258" height="311" viewBox="0 0 258 311" fill="none" xmlns="http://www.w3.org/2000/svg">
<path fill-rule="evenodd" clip-rule="evenodd" d="M60.0483 107.836C70.6759 99.8737 82.6062 94.9292 95.6575 92.5778C103.507 91.1631 111.396 90.8228 119.343 91.2533C128.36 91.7433 137.132 93.4646 145.747 96.1333C155.713 99.221 165.141 103.546 174.136 108.747C182.113 113.36 189.488 118.842 195.997 125.445C198.937 128.427 201.816 131.44 204.549 134.622C206.216 136.563 207.927 138.459 209.432 140.53C211.965 144.017 213.925 147.849 216.099 151.555C219.193 156.828 221.175 162.516 223.017 168.292C225.669 176.606 226.573 185.101 226.223 193.807C225.976 199.934 224.79 205.84 222.806 211.593C220.81 217.384 217.743 222.58 213.535 227.07C207.084 233.955 199.09 237.871 189.877 239.573C184.238 240.614 178.713 240.458 173.353 238.402C169.173 236.798 165.609 234.331 162.625 230.848C158.17 225.647 153.502 220.619 148.435 215.979C142.855 210.869 137.16 205.909 130.989 201.508C120.888 194.303 109.697 190.585 97.2515 190.837C92.5917 190.933 87.9331 191.123 83.2747 191.301C78.951 191.469 74.6638 191.26 70.3787 190.575C62.0162 189.239 54.7448 185.557 49.0313 179.493C40.9242 170.889 36.381 160.643 36.6101 148.517C36.8361 136.55 41 126.243 49.0305 117.435C50.4407 115.888 51.7192 114.186 53.2997 112.838C55.4269 111.027 57.7874 109.49 60.0483 107.836Z" fill="#D8B192" fill-opacity="0.75"/>
<path fill-rule="evenodd" clip-rule="evenodd" d="M170.317 206.476C170.386 206.57 170.451 206.667 170.524 206.757C174.433 211.594 177.156 217.094 179.453 222.822C181.898 228.919 183.496 235.221 183.353 241.829C183.228 247.558 182.344 253.121 179.749 258.392C176.797 264.386 172.699 269.347 167.235 273.075C161.73 276.831 155.66 279.427 149.081 280.767C142.151 282.179 135.238 282.059 128.261 281.07C121.438 280.104 114.787 278.448 108.273 276.315C103.753 274.836 99.434 272.811 95.3213 270.317C91.8401 268.207 88.2954 266.22 85.0112 263.796C80.9714 260.814 77.2948 257.485 74.3914 253.353C73.1173 251.54 71.7818 249.772 70.4718 247.986C65.7454 241.538 62.5275 234.353 60.4566 226.686C58.197 218.323 58.3051 209.852 60.2701 201.438C61.8027 194.867 64.9819 189.078 69.1781 183.832C69.5365 183.383 69.9778 182.982 70.4412 182.639C73.0663 180.696 75.6437 178.678 78.3679 176.884C79.9021 175.873 81.6341 175.108 83.3634 174.462C89.972 171.987 96.7986 170.72 103.881 171.026C106.665 171.147 109.449 171.202 112.228 171.37C115.62 171.575 118.863 172.642 122.108 173.49C128.525 175.167 134.701 177.592 140.564 180.731C147.148 184.254 153.363 188.391 158.801 193.48C163.018 197.427 167.305 201.415 170.317 206.476Z" fill="#E7E5D9" fill-opacity="0.9"/>
<mask id="mask0_6603_188" style="mask-type:luminance" maskUnits="userSpaceOnUse" x="18" y="0" width="188" height="143">
<path d="M206 78.5788C206 114.157 163.914 143 112 143C60.0856 143 18 114.157 18 78.5788C18 43.0002 57.505 0 109.42 0C161.335 0 206 43.0002 206 78.5788Z" fill="white"/>
</mask>
<g mask="url(#mask0_6603_188)">
<path d="M66.4931 83.4426C66.4931 83.4426 71.8637 81.5422 69.7022 74.6507L66.572 63.9749C66.2756 63.0339 65.2285 62.5663 64.3383 62.9775C63.7336 63.2566 63.3579 63.8778 63.3876 64.5476L63.547 70.3028L54.7495 58.7947C54.1216 57.8983 52.8472 57.7812 52.0691 58.5488C51.4665 59.1436 51.3642 60.0842 51.8244 60.7963L57.252 68.9362L56.9623 69.3397L50.1622 61.7394C49.376 61.0022 48.1182 61.1737 47.5536 62.0941C47.1272 62.79 47.2462 63.6922 47.8391 64.2513L54.2162 72.1694L53.9107 72.703L47.1346 66.668C45.3709 65.1517 44.2968 65.8085 43.866 66.4735C43.42 67.3729 44.9716 68.8763 45.5619 69.3195L52.3028 75.8189L52.0395 76.321L45.4288 70.87C44.7266 70.5225 43.8853 70.917 43.6961 71.6825C43.5613 72.2302 43.8104 72.8012 44.3028 73.0698L51.725 79.6558C51.725 79.6558 57.835 87.711 62.4137 85.8387L66.4931 83.4426Z" fill="#FDC3AB"/>
<path d="M63.547 70.3027C63.547 70.3027 59.5844 73.9613 61.3206 78.9701" stroke="#FE9575" stroke-width="0.9824" stroke-miterlimit="10" stroke-linecap="round" stroke-linejoin="round"/>
<path d="M73.779 96.5001L68.8441 79.484L59.0098 83.2479L63.5007 100.159L73.779 96.5001Z" fill="#FDC3AB"/>
<path d="M73.359 91.9998L70.8559 85.5273L60.0445 88.2981L62.0058 96.0901L73.359 91.9998Z" fill="white"/>
<path d="M86.5714 123.427L76.8395 93.5317C75.905 90.7952 73.0454 89.2394 70.2646 89.9531L62.075 92.0553C59.208 92.7912 57.4269 95.6778 58.0393 98.5971L63.8677 129.386C64.9931 134.752 70.0417 138.326 75.4276 137.571C81.5961 136.705 88.184 129.493 86.5714 123.427Z" fill="#FD404E"/>
<path d="M83.274 80.356C83.274 80.356 72.1645 102.061 85.0486 143.843L101.49 129.11L83.274 80.356Z" fill="#FD404E"/>
<path d="M134.711 148.146C134.711 148.146 114.424 164.575 95.0829 150.356L93.9802 109.899L91.252 82.4273L95.0457 76.0003L106.349 73.064L119.877 74.4109L121.664 98.5537L134.711 148.146Z" fill="#FDAC52"/>
<path d="M112.77 76.9468C112.77 76.9468 103.15 87.7746 93.9882 78.9766L98.449 66.4202L113.363 67.6129L112.77 76.9468Z" fill="#FDC3AB"/>
<path d="M95.8523 93.8945C96.8766 109.91 98.3492 139.314 96.8906 158.641C96.8013 159.823 95.2666 160.196 94.6564 159.183L94.6026 159.093C93.0823 156.568 92.2064 153.721 92.0435 150.79L89.6474 107.633L83.0628 84.843C82.3284 82.3012 83.0951 79.5669 85.0296 77.7768C87.0852 75.875 92.7363 71.2991 97.469 69.1808L97.2019 70.653C95.8121 78.3166 95.3555 86.1196 95.8523 93.8945Z" fill="#FD404E"/>
<path d="M79.0091 100.151C79.0091 100.151 78.5674 110.784 82.3827 134.134" stroke="#B7152C" stroke-width="1.0712" stroke-miterlimit="10" stroke-linecap="round" stroke-linejoin="round"/>
<path d="M106.356 86.7017C106.356 86.7017 107.024 124.708 122.438 157.93C123.237 159.652 125.14 160.555 126.964 160.072C131.019 158.998 138.702 155.826 145.821 143.697L142.192 81.9806C142.046 79.5588 140.741 77.3633 138.691 76.0945C135.18 73.9222 120.811 69.695 113.362 67.6129C113.362 67.6129 108.628 73.5976 106.356 86.7017Z" fill="#FD404E"/>
<path d="M138.73 76.1172C138.73 76.1172 122.389 91.5738 134.612 123.224L136.668 134.414C137.858 140.892 144.195 145.035 150.545 143.486C156.288 142.085 160.025 136.49 159.128 130.6C156.517 113.457 150.114 80.7888 138.73 76.1172Z" fill="#FD404E"/>
<path d="M135.519 80.33C135.519 80.33 126.856 88.5028 131.545 113.32C136.233 138.137 139.545 152.198 139.545 152.198" stroke="#B7152C" stroke-width="1.0712" stroke-miterlimit="10" stroke-linecap="round" stroke-linejoin="round"/>
<path d="M112.166 24.1816C112.166 24.1816 110.717 15.167 99.5421 15.7554C92.3876 16.1321 92.8389 19.6645 85.6594 20.2367C79.1268 20.7568 73.5537 26.0586 76.2261 33.5813C78.4662 39.8881 88.841 42.0988 88.841 42.0988L112.166 24.1816Z" fill="#380C1D"/>
<path d="M90.3593 47.6901C90.1649 50.3132 87.899 52.2817 85.2982 52.0856C82.6967 51.8902 80.7454 49.6043 80.9398 46.9813C81.1342 44.3582 83.4001 42.3898 86.0009 42.5858C88.6018 42.7812 90.5537 45.0665 90.3593 47.6901Z" fill="#FE9575"/>
<path d="M94.165 56.5932L97.2599 76.1382L113.362 67.6125L106.63 43.4568L94.165 56.5932Z" fill="#FDC3AB"/>
<path d="M95.5685 65.4388C95.5685 65.4388 107.01 63.4601 106.553 51.938L94.4239 58.3396L95.5685 65.4388Z" fill="#FE9575"/>
<path d="M84.4795 27.641C83.6979 28.7435 82.3622 30.7726 82.4617 34.0954C82.5972 38.6209 83.0247 49.6817 85.6852 54.1967C89.0704 59.9404 94.8714 62.7356 102.523 59.3595C102.523 59.3595 109.696 57.4694 110.946 42.4144C112.85 19.4829 92.4462 16.4045 84.4795 27.641Z" fill="#FDC3AB"/>
<path d="M87.6004 44.5623C87.5628 45.163 87.0493 45.619 86.4537 45.5811C85.8581 45.5431 85.4059 45.0253 85.4435 44.4246C85.4811 43.8239 85.9946 43.3678 86.5902 43.4052C87.1858 43.4437 87.638 43.9616 87.6004 44.5623Z" fill="#171717"/>
<path d="M97.0348 42.9126C96.9972 43.5133 96.4837 43.9693 95.8881 43.9314C95.2925 43.8934 94.8403 43.3756 94.8773 42.7749C94.9149 42.1742 95.4283 41.7182 96.024 41.7555C96.6202 41.7941 97.0724 42.3119 97.0348 42.9126Z" fill="#171717"/>
<path d="M89.663 45.7409L89.2597 48.7575L90.8551 48.6852" stroke="#FE9575" stroke-width="1.0226" stroke-miterlimit="10" stroke-linecap="round" stroke-linejoin="round"/>
<path d="M92.7689 37.1687C92.7895 38.0586 93.5628 38.7342 94.4385 38.6258C95.7605 38.4623 97.7026 38.3491 99.5599 38.7108C100.251 38.8456 100.927 38.4283 101.087 37.7375C101.24 37.0751 100.837 36.4789 100.223 36.2004C98.9634 35.6306 96.9841 34.8138 93.9325 35.6639C93.2471 35.8555 92.752 36.4527 92.7689 37.1687Z" fill="#380C1D"/>
<path d="M87.8221 37.9278C87.8837 38.7943 87.4304 39.6068 86.844 39.6804C85.9592 39.7919 84.669 40.0781 83.4751 40.8077C83.0307 41.0786 82.5505 40.8131 82.3869 40.1761C82.23 39.5656 82.445 38.9056 82.8276 38.5101C83.6099 37.7011 84.8458 36.5059 86.9287 36.7072C87.3965 36.752 87.7728 37.2303 87.8221 37.9278Z" fill="#380C1D"/>
<path d="M85.0023 52.785L87.6269 52.8429L88.0965 51.46C88.2889 50.8943 88.7876 50.4907 89.3771 50.4244L95.2889 49.7579C95.8459 49.6953 96.3934 49.9442 96.7153 50.4072L98.1932 51.5049C98.1932 51.5049 105.31 52.1051 105.253 42.1443L107.156 41.3361C107.156 41.3361 105.767 46.0042 109.287 50.5027C109.287 50.5027 107.756 60.8527 95.8894 60.8149C95.8894 60.8149 88.549 61.1047 85.0023 52.785Z" fill="#380C1D"/>
<path d="M90.5759 52.6386C90.5759 52.6386 92.6249 53.3918 94.4062 52.123" stroke="white" stroke-width="1.0185" stroke-miterlimit="10" stroke-linecap="round" stroke-linejoin="round"/>
<path d="M111.582 42.602L105.253 42.1444L105.18 34.0931C105.172 33.2173 104.542 32.4769 103.715 32.3873C102.301 32.2345 100.308 31.5484 99.9248 28.9485C99.3167 24.8272 101.226 22.1182 101.226 22.1182C101.226 22.1182 113.452 18.3519 116.473 27.3546C118.583 33.6423 116.69 46.4391 108.689 52.5999L111.582 42.602Z" fill="#380C1D"/>
<path d="M117.411 43.4389C117.194 46.3703 114.663 48.569 111.756 48.3503C108.85 48.1316 106.669 45.5782 106.886 42.6474C107.103 39.7166 109.635 37.5173 112.541 37.736C115.448 37.9547 117.628 40.5081 117.411 43.4389Z" fill="#FDC3AB"/>
<path d="M114.136 41.0019C114.136 41.0019 110.118 40.759 110.042 45.1755" stroke="#FE9575" stroke-width="1.0226" stroke-miterlimit="10" stroke-linecap="round" stroke-linejoin="round"/>
<path d="M102.466 23.5704C102.466 23.5704 99.2248 27.524 92.8941 27.9447C86.5633 28.3648 85.1438 26.857 83.1744 29.7788C83.1744 29.7788 82.5823 20.9105 93.8851 18.9572C105.189 17.0033 105.337 24.5532 105.337 24.5532L102.466 23.5704Z" fill="#380C1D"/>
</g>
</svg>
