<svg width="28" height="28" viewBox="0 0 28 28" fill="none" xmlns="http://www.w3.org/2000/svg">
<path d="M17.0919 13.9963L27.3514 3.73677C28.2064 2.88181 28.2064 1.49618 27.3514 0.641221C26.4964 -0.21374 25.1108 -0.21374 24.2559 0.641221L13.9963 10.9008L3.73677 0.641221C2.88181 -0.21374 1.49618 -0.21374 0.641221 0.641221C-0.21374 1.49618 -0.21374 2.88181 0.641221 3.73677L10.9008 13.9963L0.641221 24.2559C-0.21374 25.1108 -0.21374 26.4964 0.641221 27.3514C1.05396 27.7642 1.61411 28 2.17426 28C2.7344 28 3.29455 27.7936 3.70729 27.3514L13.9963 17.0919L24.2559 27.3514C24.6686 27.7642 25.2287 28 25.7889 28C26.349 28 26.9092 27.7936 27.3219 27.3514C28.1769 26.4964 28.1769 25.1108 27.3219 24.2559L17.0919 13.9963Z" fill="#4F4949"/>
</svg>
