<svg width="34" height="26" viewBox="0 0 34 26" fill="none" xmlns="http://www.w3.org/2000/svg">
<path d="M29.6891 0.00153276C28.7256 0.0296141 27.8108 0.431567 27.1384 1.1223C21.3496 6.92367 16.8868 11.7881 11.583 17.2188L6.19178 12.6585C5.82251 12.3263 5.39032 12.0717 4.92082 11.9097C4.45133 11.7477 3.95408 11.6816 3.45857 11.7153C2.96305 11.749 2.47935 11.8819 2.03613 12.106C1.59291 12.3301 1.1992 12.6409 0.878324 13.02C0.557451 13.3991 0.31595 13.8388 0.168137 14.3129C0.0203232 14.7871 -0.0307948 15.2861 0.0178135 15.7804C0.0664217 16.2746 0.213767 16.7541 0.451114 17.1904C0.688462 17.6267 1.01098 18.0109 1.39956 18.3202L9.43813 25.1221C10.1493 25.7238 11.0609 26.0361 11.9917 25.9967C12.9225 25.9573 13.8044 25.5692 14.4622 24.9095C21.1346 18.2228 25.8753 12.8922 32.3944 6.359C32.9269 5.83656 33.2895 5.16579 33.435 4.43416C33.5805 3.70253 33.5021 2.94405 33.21 2.25766C32.9179 1.57127 32.4257 0.988827 31.7976 0.58637C31.1696 0.183913 30.4348 -0.0199026 29.6891 0.00153276Z" fill="#D4D4D4"/>
</svg>
