<svg width="13" height="13" viewBox="0 0 13 13" fill="none" xmlns="http://www.w3.org/2000/svg">
<path d="M3.02326 13H9.97674C11.6395 13 13 11.6395 13 9.97674V8.01163C13 7.7345 12.7733 7.50775 12.4961 7.50775C12.219 7.50775 11.9922 7.7345 11.9922 8.01163V9.97674C11.9922 11.0853 11.0853 11.9922 9.97674 11.9922H3.02326C1.91473 11.9922 1.00775 11.0853 1.00775 9.97674V3.02326C1.00775 1.91473 1.91473 1.00775 3.02326 1.00775H4.98837C5.2655 1.00775 5.49225 0.781008 5.49225 0.503876C5.49225 0.226744 5.2655 0 4.98837 0H3.02326C1.36047 0 0 1.36047 0 3.02326V9.97674C0 11.6395 1.36047 13 3.02326 13Z" fill="#2F804A"/>
<path d="M9.89737 0.531202L4.7517 5.69145C4.70125 5.74204 4.65081 5.81793 4.62558 5.91911L3.91932 8.44865C3.84364 8.72689 3.99499 9.00514 4.27245 9.08103C4.34812 9.10632 4.44902 9.10632 4.54991 9.08103L7.0723 8.37276C7.14797 8.34746 7.22364 8.29687 7.29931 8.24628L12.4702 3.08603C13.1765 2.37776 13.1765 1.23947 12.4702 0.531202C11.7639 -0.177067 10.5784 -0.177067 9.89737 0.531202ZM5.10484 7.86685L5.35708 7.00681L5.98767 7.6392L5.10484 7.86685ZM11.7135 2.35247L6.94618 7.13329L5.83633 6.02029L10.6036 1.23947C10.9315 0.961223 11.436 0.986519 11.7135 1.31536C11.9657 1.6189 11.9657 2.04892 11.7135 2.35247Z" fill="#2F804A"/>
</svg>
