<svg width="165" height="160" viewBox="0 0 165 160" fill="none" xmlns="http://www.w3.org/2000/svg">
<path fill-rule="evenodd" clip-rule="evenodd" d="M58.0054 155.755C44.8478 152.992 33.2071 146.858 22.2448 139.275C17.0409 135.675 13.0216 130.855 9.08876 125.972C-1.72564 112.541 -5.00208 96.738 -4.55431 79.9112C-4.33739 71.8521 -2.43495 63.9351 0.445473 56.4756C4.08309 47.0549 8.80689 38.045 15.576 30.4293C25.2167 19.5797 36.649 11.2645 50.3914 6.3803C59.3891 3.18261 68.5517 0.875241 78.1153 0.576758C87.3967 0.287587 96.6148 0.634263 105.585 3.40742C108.301 4.24644 111.075 4.89785 113.823 5.63269C122.885 8.05053 130.95 12.4561 138.506 17.9549C142.665 20.9806 146.65 24.2145 149.848 28.2263C153.365 32.637 156.967 36.9384 159.07 42.4557C160.837 47.0853 162.794 51.5874 163.754 56.4887C165.465 65.2239 165.508 73.8951 162.941 82.5058C162.668 83.423 162.387 84.3441 162.208 85.2823C160.431 94.642 155.902 102.812 151.138 110.855C145.464 120.432 138.607 129.16 130.74 136.945C124.951 142.677 118.95 148.229 111.921 152.608C103.668 157.75 94.7519 159.546 85.3346 159.593C80.4345 159.618 75.4807 159.676 70.649 159.018C66.3636 158.434 62.2125 156.881 58.0054 155.755Z" fill="white" fill-opacity="0.35"/>
</svg>
