<svg width="144" height="75" viewBox="0 0 144 75" fill="none" xmlns="http://www.w3.org/2000/svg">
<path fill-rule="evenodd" clip-rule="evenodd" d="M7.39456 55.2916C7.59148 55.3964 7.85498 55.4553 7.97306 55.6158C8.23653 55.972 8.45908 56.3647 8.64184 56.7683C10.1254 60.0578 12.4979 62.7333 14.937 65.3593C18.3518 69.035 20.6971 74 25.5 74C32.5 74 29.5 74 36.5 74C40.5 74 45 74 48.5 74C56.5 74 63 74 69.5 74C76.4179 73.8288 74.5 74 83 74C95.5 74 90.5 74 97.5 74C107.5 74 99 74 102.5 74C105 74 102.5 74 105.5 74C106 74 108.142 74.1853 108.5 74C113.738 71.3054 117.505 69.6884 122.048 66.0476C125.728 63.0983 129.028 59.7913 131.941 56.1788C135.006 52.3824 137.738 48.3966 139.787 44.0198C141.059 41.3022 142.044 38.5439 142.812 35.7147C143.841 31.9239 143.949 28.1603 142.893 24.5145C141.631 20.1601 136.894 17.2457 132.699 17.5875C130.171 17.7934 127.763 18.3555 125.483 19.4578C123.221 20.5509 120.905 21.5704 118.907 23.1525C118.345 23.5971 117.623 23.8494 116.984 24.2079C115.712 24.9242 114.465 25.6705 113.234 26.4599C111.263 27.7223 109.182 28.8467 106.893 29.5303C105.499 29.9465 104.138 30.439 102.696 30.69C99.1404 31.3072 95.8884 30.7304 92.7851 29.3657C90.0099 28.145 87.6463 26.4069 85.4436 24.4639C82.7427 22.0829 80.0445 19.6995 77.3748 17.2877C72.5038 12.8876 67.1059 9.16582 61.0367 6.29091C55.1691 3.51207 48.9637 1.56189 42.2768 0.972099C35.1872 0.346233 28.1295 1.15337 21.1272 3.28789C17.5078 4.39122 14.2038 6.16136 11.0099 8.06607C7.14631 10.3706 4.38918 13.6699 2.7517 17.7334C0.610664 23.0483 -0.062797 28.4398 0.422697 33.907C0.722426 37.2774 1.35946 40.574 2.30087 43.7844C2.69505 45.1297 3.44242 46.3586 4.01667 47.6467C4.2513 48.1734 4.70132 48.6525 4.36988 49.3265C5.37792 51.3145 6.38624 53.3031 7.39456 55.2916Z" fill="#2B8049" fill-opacity="0.35"/>
</svg>
