<svg width="144" height="133" viewBox="0 0 144 133" fill="none" xmlns="http://www.w3.org/2000/svg">
<path fill-rule="evenodd" clip-rule="evenodd" d="M103.494 9.45421C113.766 14.0094 122.223 21.0313 129.878 29.1098C133.512 32.9452 135.97 37.5615 138.347 42.2134C144.882 55.0093 144.856 68.4042 141.614 81.9744C140.059 88.4734 137.152 94.5607 133.525 100.105C128.944 107.107 123.546 113.585 116.717 118.572C106.99 125.678 96.2334 130.412 84.1768 131.958C76.283 132.97 68.4066 133.23 60.5462 131.791C52.9178 130.393 45.4499 128.492 38.5989 124.665C36.525 123.507 34.3706 122.491 32.2527 121.411C25.2661 117.857 19.4334 112.865 14.2033 107.076C11.3251 103.891 8.62329 100.567 6.69762 96.7505C4.5802 92.5546 2.37426 88.4322 1.59989 83.5871C0.948338 79.5211 0.120275 75.5252 0.173961 71.3807C0.269729 63.9943 1.71717 56.9532 5.28572 50.4201C5.66547 49.7241 6.05223 49.0264 6.35855 48.2967C9.4094 41.0171 14.5046 35.1865 19.7697 29.5004C26.0397 22.7293 33.1314 16.8552 40.886 11.9236C46.5931 8.2919 52.4424 4.84395 58.9299 2.52766C66.5487 -0.192353 74.1362 -0.0815508 81.8341 1.53629C85.8396 2.37777 89.8947 3.20109 93.7276 4.58444C97.1271 5.81167 100.251 7.80181 103.494 9.45421Z" fill="#EAD3B5" fill-opacity="0.35"/>
</svg>
