<svg width="740" height="765" viewBox="0 0 740 765" fill="none" xmlns="http://www.w3.org/2000/svg">
<path fill-rule="evenodd" clip-rule="evenodd" d="M348.073 363.635C365.924 360.327 381.849 352.462 396.909 342.636C404.059 337.97 409.653 331.637 415.133 325.217C430.201 307.556 435.182 286.494 435.175 263.95C435.168 253.153 432.882 242.496 429.26 232.422C424.686 219.699 418.632 207.495 409.768 197.096C397.145 182.281 382.014 170.806 363.645 163.857C351.618 159.307 339.336 155.944 326.443 155.259C313.929 154.595 301.479 154.784 289.277 158.229C285.583 159.272 281.816 160.061 278.083 160.963C265.769 163.93 254.73 169.588 244.34 176.725C238.622 180.653 233.129 184.864 228.672 190.14C223.771 195.941 218.758 201.593 215.724 208.917C213.176 215.063 210.376 221.033 208.906 227.567C206.287 239.212 205.922 250.821 209.081 262.427C209.417 263.663 209.763 264.905 209.971 266.166C212.036 278.752 217.858 289.826 224.001 300.737C231.317 313.73 240.26 325.621 250.599 336.279C258.207 344.127 266.107 351.739 275.435 357.812C286.389 364.944 298.356 367.615 311.061 367.958C317.672 368.138 324.354 368.364 330.897 367.627C336.7 366.973 342.356 365.016 348.073 363.635Z" fill="#EAD3B5" fill-opacity="0.6"/>
<path fill-rule="evenodd" clip-rule="evenodd" d="M532.512 538.942C531.684 539.028 530.713 538.869 530.051 539.25C528.577 540.095 527.177 541.118 525.89 542.232C515.422 551.321 503.052 557.128 490.545 562.678C473.036 570.445 454.821 576.198 436.189 580.422C417.818 584.585 399.162 587.001 380.263 587.141C368.855 587.228 361.847 585.467 350.552 583.717C327.108 580.08 311.495 570.595 289.661 560.944C267.069 550.961 257.447 540.885 232.915 527.853C197.804 501.747 199.551 501.95 187.02 491.899C173.765 481.266 171.844 479.51 171.844 479.51C170.763 478.065 170.564 478.338 168.003 475.996C167.385 474.727 165.802 473.399 164.93 472.286C152.813 455.323 143.984 437.856 135.113 419.389C127.929 404.43 122.606 388.779 119.077 372.622C115.36 355.639 113.062 338.469 113.686 320.908C114.072 310.003 115.477 299.352 117.721 288.757C120.728 274.56 126.733 261.708 136.389 250.835C147.923 237.849 168.518 234.449 181.817 241.307C189.828 245.438 196.842 250.609 202.522 257.431C208.155 264.196 214.091 270.787 218.024 278.844C219.131 281.109 221.094 282.943 222.601 285.021C225.595 289.168 228.46 293.384 231.197 297.723C235.579 304.663 240.561 311.288 246.978 316.708C250.885 320.008 254.553 323.521 258.898 326.329C269.615 333.246 281.346 335.72 293.917 335.331C305.16 334.983 315.916 332.328 326.486 328.763C339.445 324.396 352.399 320.018 365.306 315.505C388.856 307.272 413.002 302.046 437.936 300.59C462.041 299.186 485.863 301.038 508.977 308.137C533.483 315.662 555.462 327.982 575.013 344.707C585.119 353.352 593.054 363.82 600.397 374.592C609.28 387.625 612.821 402.512 611.367 418.456C609.463 439.31 602.575 458.427 591.726 476.225C585.036 487.196 577.356 497.46 568.814 507.018C565.236 511.024 560.687 514.157 556.609 517.725C554.943 519.184 552.644 520.19 552.601 522.916C545.906 528.257 539.209 533.6 532.512 538.942Z" fill="#2F804A" fill-opacity="0.55"/>
</svg>
