<svg width="314" height="297" viewBox="0 0 314 297" fill="none" xmlns="http://www.w3.org/2000/svg">
<g opacity="0.65">
<path fill-rule="evenodd" clip-rule="evenodd" d="M267.802 180.868C267.457 181.07 267.002 181.192 266.788 181.49C266.313 182.151 265.904 182.875 265.563 183.616C262.795 189.658 258.546 194.644 254.186 199.545C248.083 206.405 241.272 212.527 233.976 218.063C226.782 223.52 219.117 228.272 210.895 232.078C205.932 234.377 205.777 223.051 200.5 224.525C189.545 227.584 168.443 225.524 157 225.638C145.16 225.757 142.899 225.548 131.5 222.5C111 218.063 115.07 215.106 111 225.638C97.9997 215.106 100.929 219.612 96.2494 218.063C92.9271 216.96 99.0295 227.935 96.2494 225.638C95.7281 225.207 95.138 224.838 94.5366 224.525C85.7497 219.976 78.1722 213.738 70.6406 207.435C64.5401 202.329 59.1151 196.552 54.3728 190.199C49.3845 183.522 44.9787 176.483 41.7709 168.693C39.7783 163.857 38.2811 158.929 37.1609 153.859C35.6599 147.067 35.7344 140.266 37.7947 133.606C40.2558 125.652 48.5719 120.087 55.7365 120.445C60.052 120.66 64.1385 121.528 67.9696 123.38C71.7691 125.217 75.6664 126.917 78.98 129.655C79.9118 130.424 81.1323 130.836 82.2018 131.444C84.3306 132.661 86.4165 133.934 88.4714 135.285C91.7595 137.446 95.2472 139.351 99.1222 140.445C101.481 141.111 103.779 141.918 106.232 142.282C112.281 143.178 117.892 141.933 123.302 139.272C128.141 136.892 132.31 133.602 136.217 129.951C141.009 125.477 145.796 120.998 150.535 116.471C159.184 108.21 168.688 101.143 179.284 95.5669C189.527 90.1767 200.293 86.2644 211.789 84.7828C223.978 83.211 236.013 84.233 247.862 87.6594C253.986 89.4305 259.525 92.4272 264.865 95.6742C271.325 99.6027 275.821 105.399 278.346 112.647C281.647 122.128 282.429 131.838 281.22 141.756C280.475 147.871 279.156 153.873 277.322 159.738C276.554 162.196 275.189 164.465 274.116 166.831C273.678 167.798 272.874 168.692 273.395 169.891C271.531 173.549 269.666 177.208 267.802 180.868Z" fill="#2B8049" fill-opacity="0.75"/>
<path fill-rule="evenodd" clip-rule="evenodd" d="M145.809 57.7433C153.765 61.2717 160.316 66.7107 166.245 72.9683C169.06 75.9392 170.964 79.5149 172.805 83.1182C177.867 93.0297 177.847 103.405 175.335 113.917C174.131 118.951 171.88 123.666 169.07 127.96C165.522 133.384 161.341 138.402 156.051 142.265C148.517 147.769 140.185 151.436 130.846 152.633C124.731 153.417 118.63 153.619 112.542 152.504C106.633 151.421 100.848 149.948 95.5415 146.984C93.9351 146.087 92.2663 145.3 90.6258 144.464C85.2141 141.711 80.6961 137.844 76.6449 133.36C74.4155 130.893 72.3227 128.318 70.8312 125.362C69.191 122.112 67.4823 118.919 66.8825 115.166C66.3778 112.016 65.7364 108.921 65.778 105.711C65.8522 99.9894 66.9733 94.5354 69.7375 89.475C70.0316 88.9359 70.3312 88.3954 70.5685 87.8303C72.9317 82.1915 76.8783 77.6752 80.9566 73.2708C85.8133 68.026 91.3064 63.476 97.3131 59.656C101.734 56.843 106.265 54.1722 111.29 52.3781C117.191 50.2712 123.068 50.357 129.031 51.6101C132.134 52.2619 135.275 52.8997 138.244 53.9712C140.877 54.9218 143.297 56.4634 145.809 57.7433Z" fill="#EAD3B5" fill-opacity="0.9"/>
</g>
</svg>
