<svg width="666" height="868" viewBox="0 0 666 868" fill="none" xmlns="http://www.w3.org/2000/svg">
<path fill-rule="evenodd" clip-rule="evenodd" d="M221.051 412.984C241.325 409.227 259.411 400.295 276.515 389.135C284.635 383.836 290.988 376.643 297.211 369.352C314.325 349.294 319.982 325.374 319.974 299.771C319.966 287.508 317.37 275.405 313.256 263.964C308.061 249.515 301.186 235.654 291.119 223.844C276.783 207.019 259.599 193.987 238.736 186.094C225.077 180.926 211.129 177.107 196.485 176.329C182.274 175.575 168.134 175.79 154.276 179.703C150.081 180.887 145.802 181.783 141.563 182.808C127.578 186.177 115.041 192.603 103.241 200.709C96.7466 205.169 90.5085 209.952 85.4461 215.944C79.8798 222.532 74.1868 228.951 70.7413 237.27C67.8469 244.25 64.6672 251.03 62.9982 258.45C60.0238 271.676 59.609 284.86 63.1968 298.041C63.5782 299.445 63.9714 300.855 64.2075 302.288C66.5532 316.581 73.165 329.158 80.1417 341.55C88.4501 356.306 98.6071 369.811 110.349 381.916C118.989 390.828 127.962 399.474 138.555 406.371C150.996 414.47 164.587 417.504 179.016 417.894C186.524 418.098 194.113 418.355 201.544 417.518C208.134 416.775 214.558 414.553 221.051 412.984Z" fill="#EAD3B5" fill-opacity="0.6"/>
<path fill-rule="evenodd" clip-rule="evenodd" d="M430.52 612.081C429.579 612.179 428.476 611.998 427.724 612.431C426.05 613.39 424.46 614.552 422.999 615.818C411.11 626.14 397.061 632.735 382.857 639.038C362.972 647.859 342.285 654.394 321.125 659.19C300.26 663.918 279.073 666.663 257.609 666.821C244.652 666.92 236.693 664.92 223.866 662.932C197.24 658.802 179.508 648.029 154.711 637.069C129.054 625.731 118.125 614.287 90.2646 599.487C50.3881 569.839 52.3725 570.069 38.1411 558.653C23.0871 546.578 20.9058 544.583 20.9058 544.583C19.6773 542.943 19.4516 543.253 16.5432 540.593C15.841 539.152 14.0432 537.643 13.0526 536.379C-0.708857 517.114 -10.736 497.277 -20.8099 476.304C-28.9692 459.314 -35.0143 441.54 -39.0223 423.19C-43.2444 403.903 -45.8542 384.402 -45.1457 364.458C-44.7074 352.073 -43.1112 339.977 -40.5626 327.943C-37.148 311.82 -30.3273 297.223 -19.3608 284.875C-6.26183 270.127 17.1276 266.266 32.2323 274.054C41.3304 278.746 49.2961 284.619 55.7466 292.367C62.1441 300.05 68.8859 307.535 73.353 316.685C74.6097 319.257 76.8394 321.341 78.5503 323.701C81.9508 328.411 85.2043 333.198 88.3136 338.126C93.29 346.008 98.9483 353.532 106.236 359.688C110.673 363.436 114.838 367.425 119.773 370.614C131.945 378.47 145.268 381.28 159.545 380.838C172.314 380.443 184.529 377.428 196.534 373.379C211.252 368.42 225.963 363.447 240.622 358.322C267.368 348.972 294.791 343.036 323.109 341.383C350.485 339.788 377.539 341.891 403.79 349.954C431.623 358.5 456.584 372.491 478.788 391.487C490.265 401.305 499.277 413.193 507.617 425.428C517.705 440.229 521.727 457.136 520.076 475.244C517.913 498.928 510.09 520.64 497.769 540.853C490.172 553.313 481.449 564.969 471.748 575.825C467.685 580.374 462.518 583.932 457.887 587.985C455.995 589.642 453.384 590.784 453.335 593.88C445.731 599.946 438.125 606.014 430.52 612.081Z" fill="#2F804A" fill-opacity="0.55"/>
</svg>
