<svg width="398" height="381" viewBox="0 0 398 381" fill="none" xmlns="http://www.w3.org/2000/svg">
<path fill-rule="evenodd" clip-rule="evenodd" d="M426.564 161.305C426.886 190.106 420.259 217.321 407.657 243.177C400.079 258.728 390.569 272.972 379.636 286.331C367.227 301.486 352.979 314.635 337.272 326.295C319.102 339.785 299.456 350.746 278.831 359.827C260.538 367.882 241.495 373.768 221.601 376.703C212.617 378.029 203.653 379.209 194.584 379.917C189.052 380.348 183.541 380.913 177.988 380.895C168.64 380.863 159.422 379.384 150.15 378.443C136.959 377.103 124.464 373.286 111.995 369.113C94.045 363.104 78.0185 353.806 63.2282 342.04C52.8199 333.76 44.0031 324.119 36.4737 313.278C28.8945 302.365 23.7288 290.343 21.2591 277.225C17.4717 257.114 20.8574 238.107 29.6795 219.801C35.0802 208.598 42.431 199.126 52.8956 192.38C61.0584 187.117 69.9401 184.038 79.8591 183.276C94.6699 182.141 109.45 180.412 124.061 177.487C140.154 174.265 156.129 170.649 171.738 165.487C197.286 157.036 218.129 142.211 233.629 120.104C239.432 111.825 245.065 103.427 250.72 95.0451C255.966 87.2632 261.823 80.0263 268.511 73.4037C281.561 60.478 297.32 52.4675 315.252 50.2336C340.696 47.0647 364.45 52.2378 385.381 68.171C406.038 83.8961 418.744 104.386 423.875 129.725C424.776 134.174 426.118 138.592 426.452 143.085C426.897 149.128 426.564 155.229 426.564 161.305Z" fill="#D8B192" fill-opacity="0.75"/>
<path fill-rule="evenodd" clip-rule="evenodd" d="M112.664 227.96C112.41 227.96 112.157 227.95 111.906 227.962C98.4332 228.608 85.319 226.33 72.3489 223.014C58.5461 219.483 45.4688 214.207 34.0871 205.492C24.2179 197.936 15.6145 189.262 9.71254 177.968C3.00173 165.122 -0.432722 151.596 0.0415224 137.258C0.519002 122.809 3.75097 108.862 9.83163 95.6294C16.2371 81.6896 25.3029 69.7454 35.97 58.799C46.4011 48.0931 57.8196 38.5746 69.8965 29.9033C78.2758 23.8873 87.3524 18.9222 96.9855 14.9181C105.139 11.5282 113.156 7.8686 121.606 5.22517C132 1.97397 142.536 -0.197104 153.488 0.0141546C158.293 0.106242 163.098 0.0325568 167.903 0.0282237C185.242 0.0141414 201.941 3.58603 218.013 9.78184C235.544 16.5388 250.234 27.5795 262.444 41.7966C271.982 52.8958 278.042 65.8757 281.849 79.94C282.176 81.1426 282.312 82.4285 282.319 83.6787C282.358 90.7629 282.588 97.859 282.24 104.926C282.043 108.905 281.164 112.917 280.08 116.771C275.946 131.509 269.419 145.08 259.813 157.085C256.034 161.802 252.371 166.606 248.518 171.254C243.813 176.929 237.792 181.238 232.152 185.832C220.997 194.916 208.84 202.619 195.837 208.861C181.237 215.871 166.034 221.451 150.162 224.451C137.851 226.775 125.379 229.171 112.664 227.96Z" fill="#E7E5D9" fill-opacity="0.9"/>
</svg>
