<svg width="252" height="237" viewBox="0 0 252 237" fill="none" xmlns="http://www.w3.org/2000/svg">
<path fill-rule="evenodd" clip-rule="evenodd" d="M214.375 144.198C214.099 144.36 213.735 144.458 213.564 144.697C213.182 145.226 212.855 145.806 212.582 146.4C210.365 151.24 206.961 155.234 203.469 159.16C198.579 164.655 193.124 169.559 187.279 173.994C181.516 178.366 175.376 182.172 168.79 185.221C164.814 187.063 164.69 177.99 160.462 179.171C151.687 181.621 134.783 179.97 125.616 180.062C116.132 180.158 114.321 179.99 105.189 177.548C88.7676 173.994 92.0282 171.625 88.7676 180.062C78.3537 171.625 80.7004 175.235 76.9517 173.994C74.2903 173.11 79.1787 181.902 76.9517 180.062C76.5341 179.716 76.0613 179.421 75.5796 179.171C68.5408 175.527 62.4708 170.53 56.4375 165.48C51.5506 161.39 47.2049 156.762 43.406 151.673C39.41 146.325 35.8807 140.686 33.3111 134.446C31.7149 130.571 30.5156 126.624 29.6182 122.563C28.4159 117.121 28.4755 111.674 30.126 106.339C32.0975 99.9672 38.7592 95.5092 44.4984 95.7958C47.9553 95.9686 51.2289 96.6634 54.2978 98.1471C57.3415 99.6185 60.4634 100.981 63.1179 103.174C63.8643 103.79 64.842 104.12 65.6987 104.607C67.404 105.582 69.0749 106.601 70.721 107.684C73.355 109.415 76.1488 110.941 79.253 111.817C81.1429 112.351 82.9831 112.997 84.9483 113.289C89.7938 114.007 94.2885 113.009 98.6228 110.878C102.499 108.971 105.838 106.335 108.968 103.411C112.807 99.8267 116.641 96.2393 120.438 92.6122C127.366 85.9949 134.979 80.3342 143.467 75.8671C151.673 71.5493 160.297 68.4153 169.506 67.2285C179.27 65.9693 188.911 66.7881 198.402 69.5328C203.308 70.9515 207.745 73.3521 212.023 75.9531C217.198 79.1001 220.799 83.7435 222.822 89.5497C225.466 97.144 226.093 104.922 225.125 112.868C224.527 117.766 223.471 122.574 222.001 127.272C221.386 129.241 220.293 131.059 219.433 132.954C219.082 133.729 218.438 134.445 218.856 135.405C217.363 138.336 215.869 141.267 214.375 144.198Z" fill="#2B8049" fill-opacity="0.9"/>
<path fill-rule="evenodd" clip-rule="evenodd" d="M116.652 45.5692C123.025 48.3957 128.273 52.7527 133.023 57.7653C135.277 60.1452 136.803 63.0096 138.277 65.896C142.332 73.8358 142.316 82.1472 140.304 90.5674C139.34 94.6 137.536 98.3771 135.285 101.817C132.443 106.162 129.094 110.181 124.856 113.276C118.821 117.685 112.146 120.623 104.665 121.582C99.7673 122.21 94.88 122.371 90.0027 121.478C85.2694 120.611 80.6356 119.431 76.3846 117.056C75.0978 116.338 73.761 115.707 72.4468 115.038C68.1117 112.832 64.4926 109.735 61.2473 106.143C59.4614 104.166 57.785 102.104 56.5901 99.7359C55.2763 97.1323 53.9075 94.5744 53.427 91.568C53.0227 89.0451 52.5089 86.5657 52.5422 83.9941C52.6017 79.4109 53.4998 75.0419 55.714 70.9882C55.9497 70.5564 56.1897 70.1234 56.3797 69.6707C58.2728 65.1537 61.4343 61.5359 64.7012 58.0077C68.5917 53.8063 72.992 50.1615 77.8037 47.1014C81.3449 44.848 84.9744 42.7086 88.9998 41.2713C93.7272 39.5836 98.4352 39.6524 103.212 40.6562C105.697 41.1783 108.213 41.6892 110.592 42.5476C112.701 43.309 114.639 44.5439 116.652 45.5692Z" fill="#EAD3B5" fill-opacity="0.9"/>
</svg>
