<svg width="12" height="12" viewBox="0 0 12 12" fill="none" xmlns="http://www.w3.org/2000/svg">
<path d="M6.00003 0C9.30851 0 12.0001 2.69156 12.0001 6.00005C12.0001 9.2474 9.40489 11.8962 6.18058 11.9931C6.12056 11.9991 6.06169 12 6.00003 12C5.93836 12 5.87949 12 5.81947 11.9931C2.59517 11.8962 0 9.2474 0 6.00005C0 2.69156 2.69155 0 6.00003 0ZM6.44447 1.01389V2.8889H7.73615C7.65923 2.66775 7.57701 2.45321 7.48615 2.2639C7.17239 1.61023 6.8055 1.20202 6.44447 1.01389ZM5.55558 1.01389C5.19456 1.20202 4.82767 1.61023 4.51391 2.2639C4.42304 2.45321 4.34082 2.66775 4.26391 2.8889H5.55558V1.01389ZM7.93755 1.27084C8.06175 1.46017 8.18068 1.65817 8.28475 1.87501C8.4327 2.18319 8.56251 2.52709 8.67364 2.8889H10.0556C9.50938 2.17816 8.78004 1.6151 7.93755 1.27084ZM4.06251 1.27084C3.22001 1.6151 2.49068 2.17816 1.94445 2.8889H3.32641C3.43755 2.52709 3.56735 2.18319 3.71531 1.87501C3.81937 1.65817 3.93831 1.46017 4.06251 1.27084ZM10.6042 3.77779H8.90282C9.01444 4.33547 9.0746 4.93157 9.09726 5.55561H11.0903C11.0358 4.92177 10.868 4.32369 10.6042 3.77779ZM7.98615 3.77779H6.44447V5.55561H8.20837C8.18277 4.92222 8.10673 4.32347 7.98615 3.77779ZM5.55558 3.77779H4.01391C3.89333 4.32347 3.81728 4.92222 3.79168 5.55561H5.55558V3.77779ZM3.09724 3.77779H1.39583C1.13203 4.32369 0.964271 4.92177 0.909737 5.55561H2.90279C2.92546 4.93157 2.98561 4.33547 3.09724 3.77779ZM11.0903 6.4445H9.09726C9.07462 7.0679 9.01442 7.66608 8.90282 8.22229H10.6112C10.8733 7.67724 11.0365 7.07684 11.0903 6.4445ZM8.20837 6.4445H6.44447V8.22229H7.98615C8.10626 7.67675 8.1831 7.07737 8.20837 6.4445ZM5.55558 6.4445H3.79168C3.81695 7.07737 3.8938 7.67675 4.01391 8.22229H5.55558V6.4445ZM2.90279 6.4445H0.909737C0.96356 7.07684 1.12672 7.67724 1.3889 8.22229H3.09724C2.98564 7.66608 2.92544 7.0679 2.90279 6.4445ZM10.0556 9.11118H8.67364C8.56239 9.47283 8.43293 9.80945 8.28475 10.1181C8.17979 10.3368 8.06299 10.5451 7.93755 10.7362C8.78173 10.3912 9.50902 9.82394 10.0556 9.11118ZM7.7431 9.11118H6.44447V10.9931C6.8055 10.805 7.17239 10.3899 7.48615 9.73618C7.57817 9.54447 7.66539 9.33551 7.7431 9.11118ZM5.55558 9.11118H4.25695C4.33466 9.33551 4.42189 9.54447 4.51391 9.73618C4.82767 10.3899 5.19456 10.805 5.55558 10.9931V9.11118ZM3.32641 9.11118H1.94445C2.49103 9.82394 3.21833 10.3912 4.06251 10.7362C3.93706 10.5451 3.82026 10.3368 3.71531 10.1181C3.56713 9.80945 3.43766 9.47283 3.32641 9.11118Z" fill="#2B8049"/>
</svg>
