<svg width="22" height="12" viewBox="0 0 22 12" fill="none" xmlns="http://www.w3.org/2000/svg">
<path d="M16.4993 11.2129L16.4996 11.2126L20.7399 7.58719C20.7399 7.58718 20.7399 7.58716 20.74 7.58714C21.2145 7.18156 21.5 6.61326 21.5 6.00051C21.5 5.38775 21.2145 4.81945 20.74 4.41387C20.7399 4.41385 20.7399 4.41383 20.7399 4.41382L16.5008 0.789433C16.5006 0.789214 16.5003 0.788995 16.5001 0.788776C16.389 0.693362 16.2611 0.621028 16.1252 0.572719C15.9891 0.524296 15.8452 0.500039 15.7013 0.500039C15.5574 0.500039 15.4135 0.524296 15.2773 0.572719C15.1418 0.620915 15.0142 0.693027 14.9033 0.788113C14.7919 0.88278 14.6984 0.999566 14.6326 1.13431C14.5664 1.27005 14.5307 1.41926 14.5307 1.57249C14.5307 1.72573 14.5664 1.87493 14.6326 2.01067C14.6985 2.14563 14.7922 2.26257 14.9038 2.35732C14.9042 2.35761 14.9045 2.3579 14.9048 2.35819L17.9191 4.93135L1.66673 4.93135C1.38061 4.93135 1.09333 5.02768 0.870649 5.21777L1.19528 5.59805L0.870646 5.21777C0.645544 5.40993 0.5 5.68912 0.5 6.00051C0.5 6.3119 0.645544 6.59108 0.870647 6.78324L1.19528 6.40296L0.870649 6.78324C1.09332 6.97333 1.38061 7.06966 1.66673 7.06966L17.9191 7.06966L14.9033 9.64414C14.6777 9.83673 14.5318 10.1165 14.5318 10.4285C14.5318 10.7405 14.6777 11.0203 14.9033 11.2129C15.1265 11.4034 15.4145 11.5 15.7013 11.5C15.9881 11.5 16.2761 11.4034 16.4993 11.2129Z" fill="#2B8049" stroke="#2B8049"/>
</svg>
