<svg width="67" height="67" viewBox="0 0 67 67" fill="none" xmlns="http://www.w3.org/2000/svg">
<rect width="67" height="67" rx="5" fill="#C5B7B7" fill-opacity="0.65"/>
<path d="M48.7879 27.8069H45.5556V19.5209C45.5556 13.4146 40.5355 8.45117 34.3704 8.45117C28.2053 8.45117 23.1852 13.4146 23.1852 19.5209V27.8069H19.9529C17.4519 27.8069 15.4124 29.8202 15.4124 32.3011V53.1842C15.4124 55.665 17.4514 57.6784 19.9529 57.6784H48.7874C51.2884 57.6784 53.3279 55.6651 53.3279 53.1842V32.3006C53.3279 29.8203 51.2889 27.8069 48.7879 27.8069ZM25.8361 19.5209C25.8361 14.8687 29.6621 11.0792 34.3704 11.0792C39.0787 11.0792 42.9047 14.8687 42.9047 19.5209V27.8069H25.8361V19.5209ZM50.677 53.1836C50.677 54.2097 49.8317 55.0499 48.7874 55.0499H19.9529C18.9091 55.0499 18.0633 54.2101 18.0633 53.1836V32.3006C18.0633 31.2746 18.9086 30.4343 19.9529 30.4343H48.7874C49.8312 30.4343 50.677 31.2741 50.677 32.3006V53.1836ZM34.236 35.5634C31.8027 35.5634 29.8186 37.5225 29.8186 39.9364C29.8186 41.9415 31.1885 43.6283 33.045 44.1437V48.6696C33.045 49.3976 33.6412 49.9836 34.3704 49.9836C35.0996 49.9836 35.6959 49.3976 35.6959 48.6696V44.0623C37.4144 43.4646 38.6534 41.8431 38.6534 39.9358C38.6534 37.5225 36.6692 35.5634 34.236 35.5634ZM34.236 41.6814C33.26 41.6814 32.4695 40.8959 32.4695 39.9364C32.4695 38.9768 33.26 38.1914 34.236 38.1914C35.212 38.1914 36.0025 38.9768 36.0025 39.9364C36.0025 40.8959 35.212 41.6814 34.236 41.6814Z" fill="white" stroke="white" stroke-width="0.5"/>
</svg>
