<svg width="195" height="130" viewBox="0 0 195 130" fill="none" xmlns="http://www.w3.org/2000/svg">
<mask id="mask0_6526_7868" style="mask-type:luminance" maskUnits="userSpaceOnUse" x="0" y="0" width="195" height="130">
<path d="M195 0H0V130H195V0Z" fill="white"/>
</mask>
<g mask="url(#mask0_6526_7868)">
<path d="M76.2241 39.8233C76.2241 39.8233 91.5574 43.2725 94.4844 45.4947C97.4115 47.7169 105.117 61.1298 105.117 61.1298L116.418 50.8281L120.372 60.5219C120.372 60.5219 113.69 69.7301 108.856 73.5474C105.862 75.9121 101.814 77.3119 96.1921 70.5896C90.5704 63.8673 85.932 58.9112 85.932 58.9112" fill="#FFED9F"/>
<path d="M106.943 45.1148C106.943 45.1148 101.21 44.7503 97.1504 47.3773C92.4577 50.4141 84.9492 63.638 81.4142 68.2613C79.3412 70.9726 69.1003 81.0343 69.1003 81.0343L78.7099 86.785L91.2206 70.8478L105.117 55.8572" fill="#B4C7EB"/>
<path d="M86.6445 125.325C86.6445 125.325 89.0287 170.588 89.0644 172.586C89.1 174.583 95.6624 174.539 95.6704 176.568C92.7116 176.568 74.0951 176.568 74.0951 176.568L73.7202 171.863L70.7367 123.229" fill="#FB7E48"/>
<path d="M68.7093 88.6474C68.7093 88.6474 66.8376 99.3932 69.0821 104.716L71.5636 169.144H91.2211L89.6266 85.2947" fill="#C37B55"/>
<path d="M70.0261 125.639C70.0261 125.639 67.6531 170.901 67.4789 172.899C67.3044 174.897 73.8715 174.852 73.6664 176.882C70.7076 176.882 52.0911 176.882 52.0911 176.882L52.2107 172.177L54.3388 123.542" fill="#FB7E48"/>
<path d="M55.9455 88.9609C55.9455 88.9609 52.4056 96.9384 54.5347 106.184L50.3391 169.458H69.9967L77.2148 85.6082" fill="#C37B55"/>
<path d="M58.7488 88.9609C58.7488 88.9609 55.7744 95.6642 56.9187 103.903C57.1894 105.852 57.2294 107.825 57.0991 109.788L53.1425 169.458" stroke="#4F4949" stroke-miterlimit="10"/>
<path d="M70.0552 168.777C70.0814 168.473 76.1977 99.8466 76.1977 99.8466" stroke="#4F4949" stroke-miterlimit="10"/>
<path d="M56.5537 100.074C56.6803 99.9788 66.0032 99.7305 68.8431 94.6904" stroke="#4F4949" stroke-miterlimit="10"/>
<path d="M83.6034 94.8251C83.6034 94.8251 84.9736 98.689 89.8879 99.0592" stroke="#4F4949" stroke-miterlimit="10"/>
<path d="M89.8047 94.6904H54.3456" stroke="#4F4949" stroke-miterlimit="10"/>
<path d="M25.7816 64.3475C25.7816 64.3475 16.2129 74.598 16.0974 75.5298C16.0056 76.2698 18.2931 74.8707 18.2931 74.8707C18.2931 74.8707 13.5572 80.3697 14.0153 80.8936C14.6869 81.6617 18.615 77.0428 18.615 77.0428C18.615 77.0428 14.5871 82.242 15.0777 82.8563C15.5683 83.4705 20.3697 78.1056 20.3697 78.1056C20.3697 78.1056 16.5857 82.9125 17.34 83.4395C17.8584 83.8017 21.9391 78.9787 21.9391 78.9787C21.9391 78.9787 18.928 82.964 19.5401 83.2945C20.1521 83.6249 28.1877 73.7181 33.9982 67.2491" fill="#FB7E48"/>
<path d="M18.2931 74.8703C18.2931 74.8703 20.0036 74.3721 21.2298 73.1007" stroke="#4F4949" stroke-miterlimit="10"/>
<path d="M21.9586 78.3395C22.0917 77.3827 22.6957 75.3698 23.1013 74.5318" stroke="#4F4949" stroke-miterlimit="10"/>
<path d="M68.4013 39.71C68.4013 39.71 57.3836 40.3176 50.8768 43.0749C46.9027 44.7589 41.2797 47.895 33.3926 54.3014C24.8534 61.2374 17.2627 73.1873 17.2627 73.1873L27.4581 77.2358C27.4581 77.2358 34.7846 68.0952 39.2969 64.8062C45.8227 60.0498 57.2468 56.664 57.2468 56.664" fill="#FFED9F"/>
<path d="M47.7968 70.7493C51.3242 73.4507 52.3978 74.8843 55.9728 76.4776C59.5478 78.0709 67.4941 79.8857 74.5269 80.5208L76.4285 71.3631C69.863 69.6253 61.4138 67.5039 61.4138 67.5039C60.7955 67.2679 60.1673 66.692 59.6211 66.3178C58.9789 65.8776 58.3447 65.4258 57.7207 64.9604C56.5617 64.0961 55.4834 63.163 54.3844 62.2275C53.0751 61.1129 51.6947 60.0817 50.2548 59.1418C48.8092 58.1983 47.2999 57.2235 45.6266 56.7441C44.493 56.4194 43.3355 56.1698 42.1785 55.9443" fill="#FF83A8"/>
<path d="M50.587 52.2223L55.3027 92.2188H89.6445L90.1908 50.2192L76.3315 40.5597L56.8702 42.5412" fill="#FFED9F"/>
<path d="M53.756 57.8548L57.162 92.2375" stroke="#D8BC6C" stroke-miterlimit="10"/>
<path d="M53.1711 42.2858C54.4337 43.0942 55.3343 44.2727 55.8863 45.5408C56.4383 46.8085 56.6596 48.167 56.7391 49.519C56.8928 52.1349 56.5254 54.7726 55.6573 57.2831" stroke="#D8BC6C" stroke-miterlimit="10"/>
<path d="M62.718 40.3353C63.2674 41.9707 64.3628 43.4077 65.7587 44.4212C67.1547 45.4346 68.8421 46.028 70.5612 46.173" stroke="#D8BC6C" stroke-miterlimit="10"/>
<path d="M74.3666 46.1732C75.5327 45.8841 76.6002 45.1241 77.3264 44.0659C78.0526 43.0077 78.4317 41.6599 78.3776 40.3287" stroke="#D8BC6C" stroke-miterlimit="10"/>
<path d="M75.4458 49.4363C75.4458 49.8687 75.0953 50.2192 74.6626 50.2192C74.2303 50.2192 73.8795 49.8687 73.8795 49.4363C73.8795 49.0039 74.23 48.6532 74.6626 48.6532C75.0953 48.6532 75.4458 49.0037 75.4458 49.4363Z" fill="#D8BC6C"/>
<path d="M75.7651 59.0019C75.7651 59.4343 75.4146 59.785 74.982 59.785C74.5496 59.785 74.1989 59.4346 74.1989 59.0019C74.1989 58.5695 74.5493 58.2188 74.982 58.2188C75.4144 58.2191 75.7651 58.5695 75.7651 59.0019Z" fill="#D8BC6C"/>
<path d="M76.0845 68.5678C76.0845 69.0002 75.7341 69.351 75.3014 69.351C74.869 69.351 74.5183 69.0005 74.5183 68.5678C74.5183 68.1355 74.8688 67.7847 75.3014 67.7847C75.7341 67.7847 76.0845 68.1355 76.0845 68.5678Z" fill="#D8BC6C"/>
<path d="M76.4037 78.1336C76.4037 78.566 76.0533 78.9168 75.6209 78.9168C75.1885 78.9168 74.8378 78.5663 74.8378 78.1336C74.8378 77.7013 75.1882 77.3508 75.6209 77.3508C76.0533 77.3505 76.4037 77.701 76.4037 78.1336Z" fill="#D8BC6C"/>
<path d="M76.7231 87.6994C76.7231 88.1318 76.3726 88.4825 75.94 88.4825C75.5073 88.4825 75.1569 88.132 75.1569 87.6994C75.1569 87.267 75.5073 86.9163 75.94 86.9163C76.3726 86.9163 76.7231 87.267 76.7231 87.6994Z" fill="#D8BC6C"/>
<path d="M90.0553 43.6882C90.4021 45.9632 90.3691 51.2236 90.1325 54.7125" stroke="#D8BC6C" stroke-miterlimit="10"/>
<path d="M72.2262 43.6022L73.9341 92.3509" stroke="#4F4949" stroke-width="2" stroke-miterlimit="10"/>
<path d="M77.5829 32.4609C77.6845 31.833 78.3125 31.1937 78.9755 31.5426C79.6671 31.9066 79.9629 32.8933 79.7882 33.6774C79.6538 34.2806 79.1034 34.9179 78.5108 34.9423C78.2565 34.9527 78.1538 34.7567 77.9653 34.5685" fill="#EA6D42"/>
<path d="M79.0594 32.3208C78.6881 32.801 78.3166 33.2812 77.9453 33.7614" stroke="#4F4949" stroke-miterlimit="10"/>
<path d="M77.6172 32.3132C77.6172 32.3132 77.7534 31.8153 78.1515 31.5782" stroke="#4F4949" stroke-miterlimit="10"/>
<path d="M76.1484 38.374L76.3881 41.2348C76.3881 41.2348 76.269 42.6718 74.9383 43.8637C73.566 45.093 70.4551 45.1769 68.1235 44.0478C65.8274 42.936 65.265 41.195 65.265 41.195L66.5546 34.5765" fill="#FB7E48"/>
<path d="M68.221 32.9949C68.2712 33.0781 67.8599 33.9559 67.3716 34.9433C67.8034 36.0528 68.565 36.9994 69.1042 37.944C70.0407 39.1798 71.4733 40.5443 72.5841 40.8196C73.8586 41.0406 75.4565 40.8596 76.3312 40.5599L76.0805 37.3197L68.221 32.9949Z" fill="#4F4949"/>
<path d="M77.8737 38.2128C77.9908 37.5578 78.3555 36.0576 78.3742 34.8356C78.393 33.6136 78.4343 30.5131 77.8093 28.6588C77.5662 27.9376 77.2588 26.2863 76.794 25.7757C75.0091 23.8145 71.7325 24.4528 68.6456 25.7047C66.2588 26.6724 65.0838 29.0636 65.5526 31.5633C65.8893 33.3575 66.7382 35.4687 67.9508 36.8553C69.1055 38.1756 71.5121 39.4116 72.4301 39.7346C73.3479 40.0575 77.646 39.486 77.8737 38.2128Z" fill="#FB7E48"/>
<path d="M74.6456 30.4469C75.1586 31.6946 75.8132 33.5107 75.5787 33.6992C75.3439 33.8877 74.2707 33.9395 73.8799 33.8779" stroke="#4F4949" stroke-miterlimit="10"/>
<path d="M72.2248 31.5431C72.2032 31.8119 71.9679 32.0119 71.699 31.9903C71.4305 31.9687 71.2303 31.7334 71.2518 31.4646C71.2734 31.196 71.5087 30.9955 71.7776 31.0174C72.0461 31.039 72.2463 31.2745 72.2248 31.5431Z" fill="#4F4949"/>
<path d="M77.6154 30.8747C77.5938 31.1432 77.3585 31.3437 77.0897 31.3219C76.8211 31.3003 76.6209 31.065 76.6425 30.7961C76.664 30.5276 76.8993 30.3274 77.1682 30.3489C77.4368 30.3708 77.6372 30.6061 77.6154 30.8747Z" fill="#4F4949"/>
<path d="M76.0692 35.5955L73.9354 35.5921C73.9354 35.5921 73.8613 37.2462 75.017 37.3471C75.9712 37.43 76.0692 35.5955 76.0692 35.5955Z" fill="white"/>
<path d="M78.1732 32.9996C78.1706 33.4926 77.7689 33.8901 77.276 33.8875C76.783 33.8849 76.3855 33.4832 76.3881 32.9903C76.3907 32.4973 76.7924 32.0998 77.2853 32.1024C77.7783 32.1047 78.1758 32.5064 78.1732 32.9996Z" fill="#EA6744"/>
<path d="M72.7559 33.66C72.753 34.2219 72.2951 34.675 71.733 34.6722C71.1712 34.6693 70.718 34.2112 70.7208 33.6493C70.7237 33.0875 71.1816 32.6343 71.7437 32.6372C72.3055 32.64 72.7587 33.0979 72.7559 33.66Z" fill="#EA6744"/>
<path d="M77.9454 29.3127C77.8083 29.2324 77.657 29.1955 77.5049 29.1529C77.3601 29.1123 77.2166 29.0782 77.0684 29.0525C76.9046 29.0241 76.7382 28.9922 76.5726 28.9771C76.4849 28.969 76.3838 28.9719 76.2983 28.9911C76.2044 29.0122 76.1386 29.0704 76.0661 29.1289C75.9722 29.2043 75.9873 29.3671 76.0661 29.4448C76.1352 29.5132 76.2013 29.5738 76.2983 29.5995C76.3835 29.6222 76.486 29.6357 76.5726 29.6393C76.7161 29.6453 76.8596 29.6458 77.0031 29.6526C77.1474 29.6596 77.2909 29.6622 77.4355 29.6645C77.5938 29.6669 77.7446 29.6773 77.9012 29.6492C78.0626 29.6206 78.0733 29.3879 77.9454 29.3127Z" fill="#4F4949"/>
<path d="M72.326 29.502C72.1882 29.2865 71.7945 29.3333 71.5707 29.3406C71.2826 29.3497 70.9862 29.4123 70.7075 29.4836C70.4269 29.5553 70.1578 29.6528 69.8963 29.7774C69.6269 29.9056 69.3355 30.0467 69.1818 30.314C69.0921 30.47 69.2026 30.7381 69.4098 30.7113C69.6963 30.6744 69.9202 30.5244 70.175 30.3985C70.4025 30.2862 70.6381 30.1843 70.8778 30.1008C71.1224 30.0155 71.3715 29.9609 71.6229 29.9011C71.7467 29.8718 71.8697 29.8416 71.995 29.8192C72.1245 29.7961 72.2529 29.7758 72.3263 29.6539C72.3528 29.6094 72.3543 29.5465 72.326 29.502Z" fill="#4F4949"/>
<path d="M74.9068 34.2964C74.0595 34.3838 73.2038 34.689 72.6978 35.3739C72.6284 35.4677 72.5629 35.5891 72.611 35.6952C72.6679 35.821 72.8388 35.8351 72.9766 35.8242C73.7607 35.762 74.5277 35.4935 75.1793 35.053C75.8022 35.437 77.0206 35.8585 77.3776 35.4799C77.6046 35.2397 76.5981 34.122 74.9068 34.2964Z" fill="#4F4949"/>
<path d="M68.1309 30.074C68.46 33.0564 68.6241 33.6399 69.7005 36.4247C69.7923 36.6621 69.8895 36.9034 70.051 37.0961C70.2059 37.2809 70.4111 37.4107 70.6136 37.5363C71.6107 38.1538 72.5608 38.4886 72.9794 38.6631C73.2648 38.7822 74.251 38.9059 74.3995 38.7486C74.5479 38.5913 74.5885 37.9161 74.5885 37.9161L76.0429 37.8958C76.0429 37.8958 76.1722 38.5783 76.4064 38.6028C76.6407 38.6272 77.4787 37.7437 77.6841 37.5287C77.8895 37.3137 78.4443 35.0769 78.3822 33.8856C78.8018 35.5538 78.936 37.3537 78.936 37.7437C78.936 38.1337 78.3821 38.876 78.1731 39.3656C78.1731 39.9459 77.3398 41.6926 77.0005 41.9217C76.6682 42.1461 76.2691 42.2342 75.8765 42.2875C75.1171 42.391 74.0342 42.5363 73.484 42.3452C72.9339 42.1541 71.3996 40.8926 70.8146 40.241C70.2488 39.9587 69.407 39.8568 68.954 39.4046C68.4379 38.8893 67.0324 35.9014 67.0324 35.9014L65.9731 37.5576C65.9731 37.5576 64.1906 36.055 64.0354 35.2261C63.7847 33.8869 63.4423 32.5981 63.4423 32.5981C63.4423 32.5981 63.3867 31.016 63.1142 30.4016C62.8417 29.7872 62.6789 30.1057 62.6277 28.3816C62.5765 26.6576 65.1229 25.6964 66.7105 24.6551C68.2981 23.6138 73.9622 21.4516 75.2424 22.5101C76.5226 23.5685 77.5866 26.3209 77.5866 26.3209C77.5866 26.3209 78.235 27.8531 78.2553 28.7558C78.2696 29.3842 78.1479 30.1328 78.1479 30.1328L77.5013 27.558L75.9023 26.9511C75.9023 26.9511 74.9897 27.6432 73.608 27.9201C72.3964 28.1627 70.0416 27.916 70.0416 27.916L68.1309 30.074Z" fill="#4F4949"/>
<path d="M67.7583 33.7494C67.334 33.1886 66.3359 32.906 65.7951 33.614C65.2309 34.3524 65.4061 35.4847 65.9875 36.1589C66.4347 36.6776 67.3483 37.0007 68.0001 36.6983C68.2799 36.5686 68.2926 36.3193 68.4016 36.0307" fill="#FB7E48"/>
<path d="M66.0942 34.4246C66.7357 34.6918 67.3773 34.9594 68.0188 35.2267" stroke="#4F4949" stroke-miterlimit="10"/>
<path d="M66.2555 36.4061C66.9965 36.9493 67.6488 36.9732 67.9218 36.8528C68.1948 36.7324 68.4028 36.3193 68.4733 36.0291" stroke="#4F4949" stroke-miterlimit="10"/>
<path d="M63.6479 33.6546C64.0931 32.7415 64.7262 31.9352 65.3598 31.1412C65.8644 30.5086 66.465 30.0557 67.0568 29.5037C68.5432 28.1179 70.4056 27.1158 72.4073 26.7661C74.4093 26.4164 77.0143 26.8025 77.9903 27.3158C77.7412 26.2573 77.4836 24.9238 76.9378 23.9316C76.4524 23.0494 75.1241 21.9348 74.0851 21.7819C73.0462 21.6291 66.8478 21.3412 65.7152 22.4741C64.5826 23.6066 62.3097 26.4463 62.1875 27.6686C62.0653 28.8909 63.6479 33.6546 63.6479 33.6546Z" fill="#EF9F4A"/>
<path d="M63.1749 31.6388C64.3766 30.1196 65.3896 28.4525 66.8139 27.1195C67.5403 26.4396 68.3603 25.8621 69.2685 25.4518C70.3241 24.9747 71.471 24.7462 72.6223 24.6682C73.9371 24.579 75.2532 24.6627 76.5652 24.7535C76.6598 24.76 76.6832 24.6021 76.5878 24.5857C75.9854 24.4833 75.3744 24.4617 74.7644 24.4428C74.1765 24.4243 73.5876 24.4188 73 24.4448C71.8555 24.4958 70.71 24.6726 69.6367 25.0863C67.7364 25.8187 66.2814 27.2292 65.0563 28.8167C64.3675 29.7093 63.7308 30.6482 63.1109 31.5896C63.0862 31.6276 63.146 31.6754 63.1749 31.6388Z" fill="#5F3122"/>
<path d="M62.5552 29.853C62.9886 29.1513 64.1082 27.28 64.5486 26.8001C65.4297 25.8399 66.5043 24.8129 67.6631 24.2162C70.3656 22.8249 73.8444 22.8595 76.6916 23.7669C76.7694 23.7916 76.8469 23.8174 76.9243 23.8436" stroke="#5F3122" stroke-miterlimit="10"/>
<path d="M69.5445 26.3177C71.5702 25.7899 73.6887 25.6466 75.7681 25.8816C76.3752 25.9503 76.9732 26.0707 77.5772 26.1598C77.6667 26.1731 77.7067 26.0486 77.6154 26.0207C76.61 25.7145 75.5102 25.6255 74.4635 25.6008C73.404 25.5759 72.339 25.6484 71.2946 25.8294C70.6968 25.9331 70.1056 26.0707 69.5229 26.2394C69.4728 26.254 69.4938 26.3309 69.5445 26.3177Z" fill="#5F3122"/>
<path d="M51.3517 58.7058L56.1609 57.0041" stroke="#4F4949" stroke-miterlimit="10"/>
<path d="M89.8966 72.827L90.1738 51.5249" stroke="#4F4949" stroke-miterlimit="10"/>
</g>
<mask id="mask1_6526_7868" style="mask-type:luminance" maskUnits="userSpaceOnUse" x="0" y="0" width="195" height="130">
<path d="M195 0H0V130H195V0Z" fill="white"/>
</mask>
<g mask="url(#mask1_6526_7868)">
<path d="M124.782 41.848C117.117 40.56 101.197 40.4323 94.9464 45.604C91.5188 50.1137 99.2658 48.4432 99.2658 48.4432L119.596 53.1214" fill="#4F4949"/>
<path d="M127.145 128.191C127.145 128.191 125.27 163.969 125.132 165.548C124.994 167.127 113.063 164.977 113.063 164.977L114.745 126.534" fill="#914539"/>
<path d="M96.3391 128.191C96.3391 128.191 98.215 163.969 98.3525 165.548C98.4903 167.127 110.421 164.977 110.421 164.977L108.739 126.534" fill="#914539"/>
<path d="M96.1194 53.5579C95.3022 56.3178 93.7201 57.7353 93.7201 61.2468C93.7201 63.5991 95.1888 66.0849 96.0505 68.5149L96.7803 79.2128C96.7803 79.2128 101.025 80.2456 106.347 80.2456C111.67 80.2456 120.019 79.2417 120.019 79.2417C120.019 79.2417 120.778 72.5384 121.073 68.6912C123.085 62.6108 122.641 58.4115 122.641 58.4115L116.418 47.6013L111.332 44.3372L99.2506 47.9811" fill="#B4C7EB"/>
<path d="M113.867 45.0356C113.867 45.0356 117.866 45.3669 123.587 49.2328C131.311 54.4521 151.236 75.7775 150.376 75.2994L146.369 84.6989L120.372 62.1761" fill="#B4C7EB"/>
<path d="M112.54 44.718L108.682 53.7852L110.604 55.5875C112.372 57.2463 115.275 56.1785 115.548 53.7693L116.419 45.6469L112.54 44.718Z" fill="white"/>
<path d="M91.3522 157.483C91.3522 157.483 90.1629 110.416 90.6195 103.288C91.5955 88.0505 96.612 79.0361 96.612 79.0361L119.851 79.0649C119.851 79.0649 125.229 92.5186 126.583 112.211C127.938 131.903 128.811 157.483 128.811 157.483H91.3522Z" fill="#3A4F93"/>
<path d="M108.682 53.7851L106.404 55.9837C104.645 57.6807 101.704 56.6225 101.43 54.1938L100.482 45.7963L105.117 45.1149" fill="white"/>
<path d="M102.664 38.1527C102.434 37.4541 101.524 36.8114 100.723 37.2947C99.8873 37.7986 99.6598 38.9566 100.007 39.8229C100.275 40.4893 101.085 41.1396 101.853 41.0891C102.183 41.0676 102.285 40.8315 102.499 40.5933" fill="#77352C"/>
<path d="M101.309 40.1981C101.269 40.3936 101.395 40.5847 101.59 40.6245C101.786 40.6645 101.977 40.5384 102.017 40.3429C102.057 40.1474 101.931 39.9563 101.735 39.9163C101.54 39.8765 101.349 40.0026 101.309 40.1981Z" fill="#4F4949"/>
<path d="M100.737 38.1878C101.291 38.6836 101.845 39.1792 102.399 39.675" stroke="#4F4949" stroke-miterlimit="10"/>
<path d="M102.605 38.0061C102.605 38.0061 102.474 37.497 102.051 37.3423" stroke="#4F4949" stroke-miterlimit="10"/>
<path d="M101.281 35.186C101.128 34.8157 101.114 34.4237 100.991 34.0568C100.77 33.3936 100.612 32.7477 100.49 32.0561C100.441 31.7805 100.398 31.4989 100.438 31.2218C100.477 30.9451 100.597 30.687 100.724 30.4381C100.931 30.0318 101.162 29.6342 101.458 29.2874C101.807 28.8784 102.239 28.549 102.667 28.2232C103.561 27.5423 104.467 26.8546 105.499 26.4105C107.101 25.7217 108.967 25.6723 110.603 26.2753C111.234 26.5077 111.862 26.8234 112.42 27.1991C112.807 27.4593 112.987 27.8283 113.283 28.1725C114.157 29.1883 114.835 30.2338 115.152 31.5567C115.611 33.4778 115.235 36.4917 113.934 38.1877C113.605 38.6162 112.565 39.9749 112.565 39.9749" fill="#4F4949"/>
<path d="M112.094 27.7252C112.688 25.7854 114.519 24.2875 116.538 24.0889C117.025 24.041 117.528 24.0647 117.984 24.2425C118.439 24.4206 118.843 24.7683 119.012 25.2272C119.056 25.3473 119.078 25.4983 118.989 25.5899C118.926 25.6538 118.83 25.6668 118.741 25.6738C118.25 25.7128 117.755 25.6819 117.265 25.7355C115.506 25.9273 114.06 27.1566 112.735 28.3303" fill="#4F4949"/>
<path d="M112.007 28.2639C112.492 28.1056 112.939 27.851 113.391 27.6121C114.797 26.8669 116.326 26.2492 117.918 26.2533C119.51 26.2575 121.177 26.9961 121.925 28.4014C122.089 28.7106 122.137 29.2051 121.802 29.3088C121.633 29.3614 121.456 29.2714 121.299 29.189C118.768 27.8578 115.6 27.8144 113.034 29.0756" fill="#4F4949"/>
<path d="M111.731 28.7375C112.193 28.9538 112.694 29.0737 113.187 29.2078C114.723 29.6256 116.261 30.22 117.42 31.3115C118.579 32.403 119.29 34.0815 118.875 35.6184C118.784 35.9566 118.481 36.35 118.165 36.1969C118.006 36.1194 117.938 35.933 117.88 35.7655C116.943 33.0636 114.661 30.8664 111.926 30.032" fill="#4F4949"/>
<path d="M112.935 28.8256C114.438 28.4086 116.025 28.1252 117.553 28.4361C119.081 28.7471 120.544 29.759 121.02 31.2439C121.083 31.4407 121.117 31.6859 120.967 31.8281C120.876 31.9139 120.743 31.9349 120.618 31.9396C119.71 31.9734 118.92 31.3775 118.142 30.9085C116.243 29.765 113.966 29.264 111.763 29.5058" fill="#4F4949"/>
<path d="M104.406 42.6256L104.106 47.016C104.106 47.016 103.498 53.7848 108.682 53.7848C113.867 53.7848 112.533 46.2298 112.533 46.2298L112.566 39.0579" fill="#96501E"/>
<path d="M110.916 37.8117C110.877 37.8881 111.323 38.6206 111.848 39.4427C111.542 40.4442 110.853 41.3001 110.504 42.1964C109.958 43.6014 108.103 45.8847 104.214 45.4261L104.377 42.4072L110.916 37.8117Z" fill="#4F4949"/>
<path d="M102.429 41.9411C101.046 39.6993 101.126 35.738 101.376 34.0371C101.664 32.0769 105.58 29.5934 108.346 30.3586C109.899 30.7884 112.399 34.029 112.401 36.2575C112.403 37.857 112.97 38.8543 112.286 40.348C111.592 41.8641 109.877 44.0538 107.514 44.292C104.927 44.5522 103.511 43.6948 102.429 41.9411Z" fill="#96501E"/>
<path d="M101.021 33.9918C101.767 33.4128 102.422 32.7748 102.991 32.0187C103.087 31.891 103.183 31.7574 103.318 31.6719C103.451 31.5871 103.611 31.5567 103.768 31.5416C104.644 31.4581 105.514 31.8032 106.392 31.7535C106.797 31.7306 107.215 31.6256 107.6 31.7551C107.902 31.857 108.139 32.0905 108.355 32.3245C109.195 33.2345 109.901 34.2615 110.77 35.1457C111.167 35.5495 111.696 35.8636 112.013 36.3321C112.325 36.7931 112.757 37.1641 113.347 37.181L111.731 28.7297L102.654 29.575L101.021 33.9918Z" fill="#4F4949"/>
<path d="M105.653 37.1632C105.46 37.5592 105.14 39.1413 105.51 39.6589C105.748 39.9915 106.086 39.8555 106.348 39.757" stroke="#4F4949" stroke-miterlimit="10"/>
<path d="M109.169 36.0123C108.933 35.7963 108.626 35.6598 108.304 35.6036C108.178 35.5818 108.049 35.5716 107.921 35.5914C107.643 35.6348 107.404 35.8134 107.179 35.9861" stroke="#4F4949" stroke-miterlimit="10"/>
<path d="M103.9 35.6758C103.784 35.4509 103.564 35.2783 103.31 35.2128C103.056 35.1472 102.772 35.1901 102.549 35.3277" stroke="#4F4949" stroke-miterlimit="10"/>
<path d="M108.352 37.485C108.417 37.7119 108.663 37.843 108.901 37.7777C109.139 37.7125 109.28 37.4756 109.215 37.2486C109.15 37.0216 108.904 36.8906 108.665 36.9559C108.427 37.0211 108.287 37.258 108.352 37.485Z" fill="#4F4949"/>
<path d="M102.374 37.485C102.439 37.7119 102.685 37.843 102.924 37.7777C103.162 37.7125 103.302 37.4756 103.237 37.2486C103.172 37.0216 102.926 36.8906 102.688 36.9559C102.449 37.0211 102.309 37.258 102.374 37.485Z" fill="#4F4949"/>
<path d="M105.117 40.9763L107.179 40.9022C107.179 40.9022 107.372 42.4655 106.093 42.3415C105.068 42.2425 105.117 40.9763 105.117 40.9763Z" fill="white"/>
<path d="M102.089 39.5673C102.191 40.0675 102.698 40.3889 103.223 40.2849C103.748 40.1809 104.091 39.6908 103.989 39.1905C103.887 38.6903 103.379 38.3689 102.855 38.4729C102.33 38.5769 101.987 39.0668 102.089 39.5673Z" fill="#B23333"/>
<path d="M107.702 39.714C107.826 40.3219 108.443 40.7121 109.08 40.5858C109.718 40.4594 110.134 39.8643 110.011 39.2564C109.887 38.6485 109.27 38.2582 108.633 38.3846C107.995 38.511 107.579 39.1061 107.702 39.714Z" fill="#B33333"/>
<path d="M111.78 37.426C112.091 36.7726 113.012 36.283 113.67 36.8875C114.356 37.518 114.394 38.6974 113.95 39.4974C113.61 40.1128 112.778 40.6258 112.086 40.4537C111.789 40.3798 111.731 40.1307 111.572 39.8616" fill="#914539"/>
<path d="M112.713 39.6612C112.72 39.8606 112.578 40.0291 112.394 40.0374C112.21 40.0457 112.055 39.891 112.047 39.6914C112.039 39.4919 112.182 39.3235 112.366 39.3151C112.55 39.3068 112.705 39.4618 112.713 39.6612Z" fill="#4F4949"/>
<path d="M113.527 37.7676C112.951 38.1688 112.374 38.5702 111.798 38.9714" stroke="#4F4949" stroke-miterlimit="10"/>
<path d="M112.955 40.3189C112.742 40.4356 112.551 40.5266 112.208 40.4767C111.865 40.4268 111.649 40.1855 111.573 39.86" stroke="#4F4949" stroke-miterlimit="10"/>
<path d="M111.855 37.2906C111.855 37.2906 112.048 36.8089 112.456 36.7236" stroke="#4F4949" stroke-miterlimit="10"/>
<path d="M103.664 31.0358C103.199 30.851 102.649 30.8934 102.217 31.1471C101.793 31.3967 101.503 31.8197 101.237 32.2342C100.275 33.7318 99.4066 35.3755 99.3315 37.1539C99.3164 37.5085 99.4321 37.9739 99.7865 37.9947C100.074 38.0116 100.264 37.708 100.381 37.4443C100.871 36.3344 101.25 35.1766 101.768 34.0789C102.285 32.9812 102.959 31.9263 103.92 31.1853" fill="#4F4949"/>
<path d="M107.251 31.1217C108.084 31.3573 109.68 35.0789 110.067 36.1543C110.479 37.297 110.991 38.3991 111.351 39.5605C111.425 39.7984 111.564 40.0857 111.813 40.0761C112.081 40.066 112.188 39.7272 112.206 39.4599C112.319 37.7777 111.801 36.1064 111.051 34.5963C110.165 32.8127 108.862 31.1261 107.025 30.3557" fill="#4F4949"/>
<path d="M111.333 35.1995C111.333 35.1995 109.416 29.681 107.295 30.3443" stroke="#4C3C3A" stroke-miterlimit="10"/>
<path d="M100.728 33.0626C100.728 33.0626 102.654 29.575 104.764 30.076" stroke="#4C3C3A" stroke-miterlimit="10"/>
<path d="M112.221 27.0728C114.015 27.9427 114.594 30.1314 115.16 31.9758" stroke="#4C3C3A" stroke-miterlimit="10"/>
<path d="M103.413 31.6224C103.71 31.2493 104.031 30.916 104.371 30.6279" stroke="#4C3C3A" stroke-miterlimit="10"/>
<path d="M107.048 30.8965C107.408 31.1947 107.724 31.5502 107.98 31.9461" stroke="#4C3C3A" stroke-miterlimit="10"/>
<path d="M108.856 64.1406L108.682 53.7851" stroke="#4F4949" stroke-miterlimit="10"/>
<path d="M110.213 58.5528C110.501 58.5528 110.734 58.3194 110.734 58.0315C110.734 57.7436 110.501 57.5102 110.213 57.5102C109.925 57.5102 109.691 57.7436 109.691 58.0315C109.691 58.3194 109.925 58.5528 110.213 58.5528Z" fill="#6D81E2"/>
<path d="M110.706 62.4034C110.706 62.6913 110.472 62.9247 110.184 62.9247C109.897 62.9247 109.663 62.6913 109.663 62.4034C109.663 62.1156 109.897 61.8821 110.184 61.8821C110.472 61.8821 110.706 62.1156 110.706 62.4034Z" fill="#6D81E2"/>
<path d="M93.5245 61.353L94.5024 57.0042" stroke="#4F4949" stroke-miterlimit="10"/>
<path d="M122.331 63.5991C122.641 58.4118 121.331 56.3885 121.331 56.3885" stroke="#4F4949" stroke-miterlimit="10"/>
<path d="M101.197 45.7366C99.7284 44.0242 96.3705 44.7769 94.9467 45.604C93.6958 46.3307 93.1587 47.1736 92.4369 48.5773C91.6429 50.1212 91.6385 53.2875 92.2471 53.7768C92.3529 54.0259 92.2419 54.218 92.4939 54.6543C92.6231 54.8782 93.0581 55.3521 93.1896 55.1306C93.3823 55.186 93.5614 55.0906 93.7866 54.9047C93.9772 54.7474 94.3864 54.0909 94.3864 54.0909C94.9139 53.768 94.9111 53.5171 95.2332 53.0402C95.5717 52.5389 95.7363 51.7215 95.9916 51.1781C96.5033 50.0887 97.3278 49.5458 97.3278 49.5458C97.3278 49.5458 96.9334 50.5884 97.3426 51.1313C97.5181 51.3643 98.3829 50.4181 98.5521 50.1826C99.8277 48.4042 100.366 47.6452 101.197 45.7366Z" fill="#C1774D"/>
<path d="M97.3275 49.5453L99.2754 47.9013" stroke="#4F4949" stroke-miterlimit="10"/>
<path d="M95.6349 48.6233C95.6349 48.6233 94.793 49.7421 94.4992 51.1154C94.2759 52.1593 94.208 53.1582 94.3864 54.0908" stroke="#4F4949" stroke-miterlimit="10"/>
<path d="M93.7539 49.1613C93.7539 49.1613 93.2643 50.6594 93.1458 51.695C92.9698 53.2321 93.1897 55.1304 93.1897 55.1304" stroke="#4F4949" stroke-miterlimit="10"/>
<path d="M92.6808 49.4764C92.6808 49.4764 92.0228 51.4989 92.4497 54.5682" stroke="#4F4949" stroke-miterlimit="10"/>
</g>
<mask id="mask2_6526_7868" style="mask-type:luminance" maskUnits="userSpaceOnUse" x="0" y="0" width="195" height="130">
<path d="M195 0H0V130H195V0Z" fill="white"/>
</mask>
<g mask="url(#mask2_6526_7868)">
<path d="M46.927 121.982C46.927 121.982 49.0658 162.583 49.0978 164.375C49.1298 166.168 55.0164 166.128 55.0234 167.948C52.3694 167.948 35.6698 167.948 35.6698 167.948L35.3337 163.728L32.6575 120.102" fill="#FB7E48"/>
<path d="M30.8383 89.0811C30.8383 89.0811 29.1594 98.7201 31.1726 103.495L33.3985 161.289H51.0317L49.6012 86.0737" fill="#EBDFD1"/>
<path d="M34.6389 122.263C34.6389 122.263 32.5103 162.865 32.3541 164.657C32.1978 166.449 38.0884 166.409 37.9043 168.229C35.2502 168.229 18.5507 168.229 18.5507 168.229L18.658 164.009L20.567 120.383" fill="#FB7E48"/>
<path d="M22.0088 89.3625C22.0088 89.3625 18.8334 96.5184 20.7434 104.812L16.9799 161.57H34.6131L41.0881 86.355" fill="#EBDFD1"/>
<path d="M24.5231 89.3624C24.5231 89.3624 21.8549 95.3754 22.8814 102.766C23.1243 104.514 23.1601 106.284 23.0434 108.045L19.4941 161.57" stroke="#9E837A" stroke-miterlimit="10"/>
<path d="M34.6653 160.959C34.6887 160.686 40.1752 99.1268 40.1752 99.1268" stroke="#9E837A" stroke-miterlimit="10"/>
<path d="M22.6469 99.3282C22.7639 99.2169 31.3748 98.9254 33.9979 93.0135" stroke="#9E837A" stroke-miterlimit="10"/>
<path d="M44.1605 92.7575C44.1605 92.7575 45.3981 97.9255 49.8366 98.4208" stroke="#9E837A" stroke-miterlimit="10"/>
<path d="M49.0863 84.9906L47.2073 93.8912C44.0657 96.4816 23.9911 92.7495 23.9911 92.7495C23.9911 92.7495 27.2637 60.2961 27.4579 60.1473C27.6521 59.9986 32.0407 55.5168 36.5387 55.1694C41.0367 54.822 47.6142 63.2967 47.6142 63.2967L49.0863 84.9906Z" fill="#FFFDEE"/>
<path d="M36.484 78.9083C38.746 77.2316 41.1016 75.6812 43.536 74.2665" stroke="#4F4949" stroke-miterlimit="10"/>
<path d="M41.51 76.9425C43.0323 76.389 44.5156 75.728 45.9451 74.9662" stroke="#4F4949" stroke-miterlimit="10"/>
<path d="M31.5488 58.2883C32.8995 59.3964 34.0888 60.6935 35.5273 61.6909C37.1752 62.8331 40.1075 63.9498 41.889 62.408C43.7114 60.8308 42.467 57.8081 41.6834 56.0458" stroke="#4F4949" stroke-miterlimit="10"/>
<path d="M37.6662 94.4993L37.4915 96.9576C37.4915 96.9576 32.0196 97.1261 26.2938 96.3461C23.7097 95.9938 20.0536 94.7465 20.0536 94.7465L21.0184 90.1815" fill="#4F4949"/>
<path d="M37.4912 96.1763C37.4912 96.1763 30.8066 96.0851 26.4414 95.5276C23.8542 95.1974 20.2209 94.0438 20.2209 94.0438" stroke="#843F24" stroke-miterlimit="10"/>
<path d="M37.4913 95.4093C37.4913 95.4093 30.8743 95.3181 26.5533 94.7606C23.9923 94.4304 20.3958 93.2768 20.3958 93.2768" stroke="#843F24" stroke-miterlimit="10"/>
<path d="M47.2908 91.3262L45.5236 93.8911V96.554L50.3024 95.1887L49.6989 90.6005" fill="#4F4949"/>
<path d="M40.175 55.9785C40.175 55.9785 44.9362 61.5768 45.232 70.0341C45.7773 85.6261 45.5235 93.8912 45.5235 93.8912L50.1398 92.6726C50.1398 92.6726 49.7521 74.6954 49.6468 72.176C49.5129 68.972 50.8766 63.297 45.5726 58.402C44.2916 57.2198 42.1783 56.4938 42.1783 56.4938" fill="#FF83A8"/>
<path d="M43.6497 62.2588C43.7802 60.9775 44.1712 60.7573 43.8863 59.4674C43.5376 57.8889 43.171 57.2447 42.1786 55.9444C41.0876 55.79 40.175 55.9785 40.175 55.9785C40.175 55.9785 41.7753 58.0696 43.6497 62.2588Z" fill="#4F4949"/>
<path d="M36.8483 66.488C35.0855 60.2334 30.8748 56.7408 30.8748 56.7408C30.8748 56.7408 23.6835 57.8152 22.2041 63.6958L20.491 92.3858C20.491 92.3858 28.8442 94.3155 37.6658 94.4993C37.6658 94.4993 38.6111 72.7428 36.8483 66.488Z" fill="#FF83A8"/>
<path d="M36.3605 66.4215C36.3605 66.7117 36.1252 66.947 35.835 66.947C35.5449 66.947 35.3096 66.7117 35.3096 66.4215C35.3096 66.1314 35.5449 65.8961 35.835 65.8961C36.1252 65.8961 36.3605 66.1314 36.3605 66.4215Z" fill="#4F4949"/>
<path d="M37.0642 73.8377C37.0642 74.1279 36.8289 74.3632 36.5388 74.3632C36.2486 74.3632 36.0133 74.1279 36.0133 73.8377C36.0133 73.5476 36.2486 73.3123 36.5388 73.3123C36.8289 73.3125 37.0642 73.5476 37.0642 73.8377Z" fill="#4F4949"/>
<path d="M37.3738 80.6899C37.3738 80.98 37.1385 81.2153 36.8483 81.2153C36.5582 81.2153 36.3229 80.98 36.3229 80.6899C36.3229 80.3997 36.5582 80.1644 36.8483 80.1644C37.1385 80.1644 37.3738 80.3997 37.3738 80.6899Z" fill="#4F4949"/>
<path d="M36.8483 88.5324C37.1385 88.5324 37.3738 88.2972 37.3738 88.007C37.3738 87.7168 37.1385 87.4815 36.8483 87.4815C36.5581 87.4815 36.3229 87.7168 36.3229 88.007C36.3229 88.2972 36.5581 88.5324 36.8483 88.5324Z" fill="#4F4949"/>
<path d="M33.9168 63.303C34.4836 63.704 35.5012 64.0484 36.1473 64.303C34.4797 59.5666 30.8751 56.7411 30.8751 56.7411C30.8751 56.7411 30.0948 57.076 29.015 57.7416C30.074 58.8068 30.8254 59.4093 31.6457 60.6913C32.0508 61.3252 33.3027 62.8686 33.9168 63.303Z" fill="#4F4949"/>
<path d="M49.6473 72.176C49.6473 72.176 49.515 67.5061 48.691 64.5268" stroke="#4F4949" stroke-miterlimit="10"/>
<path d="M45.4866 94.6903L50.0345 93.5455" stroke="#843F24" stroke-miterlimit="10"/>
<path d="M45.4866 95.5277L50.1876 94.3177" stroke="#843F24" stroke-miterlimit="10"/>
<path d="M45.16 65.2792L46.2336 64.806" stroke="#4F4949" stroke-miterlimit="10"/>
<path d="M45.6493 73.8893L46.8175 73.7814" stroke="#4F4949" stroke-miterlimit="10"/>
<path d="M45.8926 80.5751L47.0608 80.4669" stroke="#4F4949" stroke-miterlimit="10"/>
<path d="M46.0392 87.9777L47.2074 87.8696" stroke="#4F4949" stroke-miterlimit="10"/>
<path d="M41.9887 53.7815L41.3528 58.3947C41.3528 58.3947 41.7872 61.0719 39.5627 61.2466C35.3462 61.5779 32.1696 56.9117 32.1696 56.9117C32.1696 56.9117 33.662 52.7376 33.5676 52.6365" fill="#F29066"/>
<path d="M34.7564 51.0621C34.8123 51.1222 34.5942 51.9108 34.3271 52.8023C34.8695 53.6419 35.6701 54.2932 36.2792 54.9793C37.0985 55.902 38.8722 56.8861 41.5575 56.9116L42.1786 53.4866L34.7564 51.0621Z" fill="#4F4949"/>
<path d="M43.2597 52.4994C43.7253 50.5104 42.9601 47.633 42.2883 46.1364C41.0234 43.3183 37.6879 42.9442 34.4033 44.5515C32.3883 45.5374 31.5272 47.6169 32.1067 49.6628C32.523 51.1313 33.4075 52.8252 34.5595 53.8883C35.6565 54.9005 37.6034 56.1454 39.5323 56.0133C42.0072 55.8438 42.8114 54.4141 43.2597 52.4994Z" fill="#F29066"/>
<path d="M39.8945 49.4247C40.1046 49.6875 40.2715 50.0305 40.3794 50.3474C40.532 50.7949 40.5682 51.4038 40.0047 51.5424C39.7713 51.5998 39.5269 51.551 39.2968 51.5013" fill="#FB7E48"/>
<path d="M39.8945 49.4247C40.1046 49.6875 40.2715 50.0305 40.3794 50.3474C40.532 50.7949 40.5682 51.4038 40.0047 51.5424C39.7713 51.5998 39.5269 51.551 39.2968 51.5013" stroke="#4F4949" stroke-miterlimit="10"/>
<path d="M34.6128 49.5474C34.6596 49.2458 34.8073 48.9611 35.014 48.7271C35.0946 48.6359 35.1848 48.5514 35.2919 48.49C35.5251 48.3564 35.8096 48.3473 36.08 48.3418" stroke="#4F4949" stroke-miterlimit="10"/>
<path d="M40.3199 47.016C40.4575 46.8171 40.6868 46.6801 40.9351 46.6489C41.1834 46.6177 41.447 46.6923 41.6418 46.8493" stroke="#4F4949" stroke-miterlimit="10"/>
<path d="M36.8481 50.2152C36.8476 50.4406 36.6559 50.6249 36.4204 50.6273C36.1846 50.6296 35.994 50.4486 35.9945 50.2232C35.995 49.9978 36.1866 49.8135 36.4222 49.8111C36.6578 49.809 36.8486 49.99 36.8481 50.2152Z" fill="#4F4949"/>
<path d="M41.6406 48.7459C41.64 48.9713 41.4484 49.1556 41.2129 49.158C40.977 49.1603 40.7865 48.9793 40.787 48.7539C40.7875 48.5285 40.9791 48.3442 41.2147 48.3418C41.4502 48.3397 41.6411 48.5204 41.6406 48.7459Z" fill="#4F4949"/>
<path d="M40.5287 52.4995L38.6692 52.6302C38.6692 52.6302 38.7579 54.2703 39.9895 54.0074C40.9504 53.8023 40.5287 52.4995 40.5287 52.4995Z" fill="white"/>
<path d="M42.871 50.3857C42.9152 50.9637 42.4607 51.472 41.8554 51.5211C41.2504 51.5705 40.7239 51.142 40.6797 50.5643C40.6355 49.9866 41.09 49.478 41.6953 49.4286C42.3003 49.3795 42.8268 49.8077 42.871 50.3857Z" fill="#EA6744"/>
<path d="M37.9673 51.8094C38.0126 52.3996 37.5482 52.9188 36.9302 52.9693C36.3122 53.0197 35.7745 52.5821 35.7292 51.9919C35.684 51.4017 36.1484 50.8825 36.7664 50.8321C37.3844 50.7816 37.9221 51.2192 37.9673 51.8094Z" fill="#EA6744"/>
<path d="M33.3994 48.9359C34.0244 47.8215 35.3736 47.4318 35.9669 46.2873C36.1213 45.9896 36.2295 45.6659 36.2651 45.3323C36.2882 45.1152 36.2828 44.8879 36.3761 44.6903C36.5768 44.266 37.128 44.1623 37.5973 44.1566C38.9408 44.1404 40.2348 44.5018 41.325 45.3286C42.3743 46.1245 42.9432 47.6205 43.1356 48.8537C43.3134 49.9928 43.4681 51.0785 43.3137 52.2306C43.9291 51.0616 44.317 49.6376 44.4538 47.4666C44.5937 45.248 44.1218 43.9935 42.9692 42.0287C41.5746 39.6513 38.8157 38.202 36.0594 38.1916C33.3032 38.1812 30.6169 39.5301 28.8065 41.6086C26.6487 44.0861 24.9798 47.0777 22.6728 49.4473C21.2371 50.922 19.4704 52.0223 17.823 53.2563C16.4131 54.3124 14.969 55.7019 14.9529 57.4634C14.9425 58.5785 15.5298 59.6234 16.2792 60.4492C17.0404 61.2882 18.1163 61.9946 19.2356 61.8199C20.2585 61.6603 21.021 60.8239 21.9251 60.3195C24.5321 58.865 27.8463 60.3265 30.7492 59.6315C31.1231 59.5421 31.4959 59.4126 31.8009 59.1788C32.1256 58.9298 32.3555 58.5762 32.5333 58.2075C33.4197 56.3685 33.0692 54.3171 32.9439 52.3624C32.8734 51.2647 32.8474 49.92 33.3994 48.9359Z" fill="#774A4A"/>
<path d="M33.9424 51.0924C33.4622 50.5807 32.416 50.3927 31.9181 51.134C31.3988 51.9072 31.6695 53.0002 32.32 53.6089C32.8203 54.0772 33.7833 54.3125 34.4273 53.9586C34.704 53.8068 34.6967 53.5616 34.7853 53.2693" fill="#FB7E48"/>
<path d="M32.2903 51.9005C32.9697 52.1054 33.649 52.3103 34.3284 52.5152" stroke="#4F4949" stroke-miterlimit="10"/>
<path d="M33.0491 54.0902C33.4487 54.2535 33.9838 54.1568 34.3124 54.0138C34.6411 53.8708 34.7937 53.5879 34.7843 53.2676" stroke="#4F4949" stroke-miterlimit="10"/>
<path d="M33.3932 54.3014C33.3097 54.8775 33.7952 55.3481 34.3183 55.1032C34.8674 54.8463 34.6802 53.9106 34.1794 53.719C34.0866 53.6833 33.9842 53.6654 33.8877 53.6885" stroke="#FADFC5" stroke-miterlimit="10"/>
<path d="M33.8329 50.989C33.8329 50.989 33.5142 50.6016 33.0857 50.639" stroke="#4F4949" stroke-miterlimit="10"/>
<path d="M27.2302 59.595C27.3194 58.5834 27.7921 57.6435 28.355 56.798C28.9176 55.9524 29.578 55.1737 30.1118 54.3095C31.6128 51.8788 31.6502 48.9176 32.9996 46.4224C33.6522 45.2157 34.6033 44.1347 35.8357 43.532" stroke="#663A3A" stroke-miterlimit="10"/>
<path d="M19.1237 61.7003C19.2799 60.725 19.9044 59.894 20.5635 59.1585C21.5604 58.0462 22.6841 57.0478 23.9061 56.1888C25.0972 55.3516 26.3909 54.6384 27.4286 53.6171C29.8094 51.274 30.2012 47.8399 32.2287 45.295C33.1364 44.1557 34.311 43.0726 35.7605 42.9285" stroke="#663A3A" stroke-miterlimit="10"/>
<path d="M15.3361 58.6487C16.0313 56.1026 18.7977 55.12 20.8286 53.8892C22.4315 52.9173 23.8911 51.7021 25.1149 50.2809C26.4232 48.7615 27.3387 46.9669 28.5506 45.3765C30.057 43.3995 31.9261 41.5452 34.3109 40.8439" stroke="#663A3A" stroke-miterlimit="10"/>
<path d="M37.7896 40.6786C39.243 40.5465 40.7278 41.0769 41.9184 42.153C43.1086 43.2292 43.996 44.8438 44.3857 46.6419" stroke="#663A3A" stroke-miterlimit="10"/>
</g>
<mask id="mask3_6526_7868" style="mask-type:luminance" maskUnits="userSpaceOnUse" x="0" y="0" width="195" height="130">
<path d="M195 0H0V130H195V0Z" fill="white"/>
</mask>
<g mask="url(#mask3_6526_7868)">
<path d="M133.291 129.825C133.291 129.825 133.902 169.77 133.871 171.52C133.84 173.27 128.092 173.232 128.085 175.009C130.677 175.009 146.982 175.009 146.982 175.009L147.311 170.888L148.318 129.137" fill="#FB7E48"/>
<path d="M152.829 130.401C152.829 130.401 154.908 170.045 155.06 171.795C155.213 173.545 149.461 173.506 149.641 175.284C152.232 175.284 168.538 175.284 168.538 175.284L168.433 171.163L166.569 128.565" fill="#FB7E48"/>
<path d="M173.646 61.9889C173.646 61.9889 177.551 46.3501 178.338 45.6931C178.964 45.1713 178.883 48.8888 178.883 48.8888C178.883 48.8888 181.134 41.2874 181.885 41.3985C182.988 41.5612 181.068 47.9003 181.068 47.9003C181.068 47.9003 183.462 41.1265 184.316 41.2139C185.17 41.3012 183.082 48.8833 183.082 48.8833C183.082 48.8833 185.259 42.5656 186.189 42.9467C186.829 43.2088 184.812 49.8084 184.812 49.8084C184.812 49.8084 186.692 44.6864 187.357 45.0533C188.022 45.4201 183.675 58.6583 181.169 67.8202" fill="#C1774D"/>
<path d="M178.883 48.8885C178.883 48.8885 179.437 50.754 178.994 52.632" stroke="#4F4949" stroke-miterlimit="10"/>
<path d="M184.236 50.204C183.436 50.892 181.945 52.6369 181.415 53.505" stroke="#4F4949" stroke-miterlimit="10"/>
<path d="M134.327 88.5151L132.573 91.62C132.573 91.62 132.301 167.737 132.756 167.737C133.211 167.737 149.166 167.737 149.166 167.737L150.863 87.7286" fill="#FADFC5"/>
<path d="M159.942 85.532L162.394 91.7252C162.394 91.7252 165.8 98.3206 166.838 105.132C167.396 108.798 167.233 112.764 167.233 112.764L169.171 167.737C169.171 167.737 153.489 168.211 153.489 167.737C153.489 167.264 146.525 86.0507 146.525 86.0507" fill="#FADFC5"/>
<path d="M160.363 89.408C160.363 89.408 162.15 93.6808 163.188 100.493C163.746 104.158 164.074 112.764 164.074 112.764L166.012 167.738" stroke="#A88376" stroke-miterlimit="10"/>
<path d="M150.143 127.816L147.668 97.8687" stroke="#A88376" stroke-miterlimit="10"/>
<path d="M150.518 45.4298C150.518 45.4298 165.528 50.1998 167.179 51.7008C168.83 53.2017 172.058 63.1496 172.058 63.1496L176.644 50.3698L185.558 55.9076C185.558 55.9076 181.391 70.2465 180.115 73.9375C178.839 77.6287 176.111 81.932 172.734 81.7638C169.356 81.5953 166.804 77.8024 165.228 75.1829C163.962 73.0785 159.898 64.2876 159.898 64.2876" fill="#4F4949"/>
<path d="M144.219 45.71C144.219 45.71 133.939 42.6329 122.784 41.6488C119.428 41.3527 112.399 41.0391 112.399 41.0391L112.54 44.7179C112.54 44.7179 119.033 46.2568 122.784 49.4361C126.535 52.6156 132.075 60.1473 132.075 60.1473" fill="#4F4949"/>
<path d="M166.14 57.3736L162.395 91.7251L132.573 91.62C132.573 91.62 130.079 56.8918 129.879 56.1464C129.778 55.7723 134.532 45.0356 134.532 45.0356L149.063 45.9633" fill="#4F4949"/>
<path d="M146.525 49.0718L147.669 91.6673" stroke="#773C2C" stroke-miterlimit="10"/>
<path d="M163.091 59.4272H153.489V60.9375H163.091V59.4272Z" stroke="#773C2C" stroke-miterlimit="10"/>
<path d="M153.489 60.9375L153.826 66.2176L158.052 68.9757L162.744 66.5018L163.091 60.9375" stroke="#773C2C" stroke-miterlimit="10"/>
<path d="M157.436 60.1823H159.016" stroke="#773C2C" stroke-miterlimit="10"/>
<path d="M172.058 63.1497L168.785 71.8095" stroke="#773C2C" stroke-miterlimit="10"/>
<path d="M164.343 73.5475L166.14 57.3737" stroke="#773C2C" stroke-miterlimit="10"/>
<path d="M153.015 30.9178L154.695 32.872C154.695 32.872 159.394 35.7952 159.024 37.0081C158.654 38.221 156.451 38.6575 154.695 38.9183C152.938 39.1791 148.361 39.1065 147.479 38.4467C146.596 37.7868 141.242 30.9178 141.242 30.9178" fill="#B25029"/>
<path d="M140.978 32.177C140.347 32.7368 139.736 33.3163 139.147 33.9146C138.877 34.1886 138.607 34.4728 138.447 34.8134C138.042 35.6784 138.45 36.4823 138.578 37.3422C138.673 37.9771 138.183 38.5571 137.657 38.9711C137.4 39.1733 137.115 39.3715 136.987 39.6611C136.794 40.0974 137.014 40.5877 137.231 41.0139C137.555 41.6488 137.94 42.4291 137.541 43.1207C137.364 43.4277 137.064 43.6742 136.99 44.0208C136.891 44.4828 137.228 44.9136 137.542 45.2664C137.837 45.5979 138.135 45.932 138.493 46.1933C139.471 46.9052 140.76 46.9871 141.969 46.9827C144.78 46.9723 147.629 46.6262 150.419 46.288C151.135 46.2011 151.86 46.1016 152.526 45.8249C153.192 45.5483 153.804 45.0717 154.095 44.4121C154.522 43.4472 154.196 42.3396 154.031 41.2975C153.922 40.6114 153.887 39.9141 153.754 39.2321C153.578 38.3289 153.234 37.4685 152.916 36.6051C152.392 35.1774 151.931 33.7146 151.75 32.2043" fill="#512D0C"/>
<path d="M143.4 43.3745L142.912 46.7571L146.525 49.0719L152.16 43.7531L151.726 41.3712L152.251 35.9929L145.065 36.6109" fill="#C1774D"/>
<path d="M150.224 37.525C150.186 37.6147 150.716 38.429 151.338 39.3418C151.064 40.5038 150.439 41.5498 150.035 42.5627C149.277 43.9202 148.377 45.1492 147.313 45.5772C146.078 45.9739 143.95 46.0501 143.04 45.8741L143.333 43.148L150.224 37.525Z" fill="#4F4949"/>
<path d="M141.243 44.385C140.44 43.3666 140.204 41.9228 140.016 40.712C139.827 39.5009 139.736 36.4813 140.099 34.5529C140.24 33.8028 140.263 32.035 140.263 32.035C140.263 32.035 145.548 29.5304 148.789 30.3442C151.293 30.9732 152.793 33.1845 152.675 35.7322C152.59 37.5608 152.041 39.7757 151.03 41.3214C150.067 42.793 147.848 44.3554 146.981 44.8039C146.115 45.2524 142.046 45.4034 141.243 44.385Z" fill="#C1774D"/>
<path d="M142.947 36.447C142.747 38.3258 142.291 39.4222 142.777 40.0779C143.089 40.4989 143.625 40.3254 144.039 40.1991" stroke="#4F4949" stroke-miterlimit="10"/>
<path d="M145.637 37.8058C145.696 38.0697 145.958 38.2358 146.222 38.1768C146.485 38.118 146.652 37.8565 146.593 37.5926C146.534 37.3287 146.272 37.1625 146.008 37.2216C145.745 37.2803 145.579 37.5419 145.637 37.8058Z" fill="#4F4949"/>
<path d="M140.275 37.1147C140.334 37.3786 140.596 37.5447 140.86 37.4857C141.123 37.4267 141.29 37.1651 141.231 36.9015C141.172 36.6376 140.91 36.4714 140.646 36.5305C140.382 36.5895 140.216 36.851 140.275 37.1147Z" fill="#4F4949"/>
<path d="M142.334 41.4889L145.195 41.0391C145.195 41.0391 145.511 42.8243 143.975 43.1755C142.706 43.4657 142.334 41.4889 142.334 41.4889Z" fill="white"/>
<path d="M140.025 39.4708C140.096 39.9601 140.55 40.2989 141.039 40.2279C141.529 40.157 141.867 39.7025 141.796 39.2134C141.725 38.7241 141.271 38.3853 140.782 38.4563C140.293 38.5275 139.954 38.9818 140.025 39.4708Z" fill="#EA6744"/>
<path d="M145.819 40.4775C145.9 41.0352 146.418 41.4216 146.976 41.3405C147.533 41.2594 147.92 40.7417 147.839 40.184C147.758 39.6263 147.24 39.2399 146.682 39.3211C146.124 39.4022 145.738 39.9198 145.819 40.4775Z" fill="#EA6744"/>
<path d="M139.904 34.4575C139.98 34.6418 140.217 34.6548 140.39 34.6953C140.57 34.7375 140.747 34.7887 140.926 34.8324C141.106 34.8763 141.285 34.926 141.462 34.9814C141.546 35.0076 141.628 35.0255 141.715 35.0406C141.796 35.0549 141.869 35.0684 141.952 35.0495C141.992 35.0404 142.032 35.025 142.072 35.0133C142.245 34.9621 142.274 34.7687 142.17 34.64C142.086 34.5357 142.011 34.4767 141.884 34.4262C141.789 34.3888 141.699 34.3615 141.599 34.3417C141.39 34.3004 141.18 34.2679 140.969 34.2403C140.775 34.2151 140.577 34.2128 140.382 34.2115C140.277 34.2107 140.174 34.2094 140.072 34.2362C139.985 34.2585 139.859 34.3457 139.904 34.4575Z" fill="#4F4949"/>
<path d="M145.632 35.2957C145.739 35.4013 145.875 35.4021 146.017 35.4117C146.141 35.4203 146.265 35.4328 146.388 35.4486C146.674 35.4858 146.957 35.5134 147.24 35.5763C147.512 35.6366 147.782 35.7146 148.047 35.8014C148.326 35.8932 148.59 36.0318 148.888 36.0404C149.133 36.0474 149.215 35.7544 149.075 35.5895C148.87 35.3493 148.546 35.2489 148.255 35.152C147.956 35.0524 147.652 34.9892 147.34 34.9468C147.043 34.9065 146.736 34.8706 146.436 34.8881C146.284 34.8969 146.132 34.9167 145.981 34.938C145.828 34.9596 145.704 34.9845 145.609 35.1135C145.569 35.166 145.588 35.2528 145.632 35.2957Z" fill="#4F4949"/>
<path d="M153.624 30.9408C154.392 31.7608 153.797 31.6181 154.431 32.572C154.994 33.4206 154.869 34.4983 154.885 35.4978C154.886 35.6078 154.89 35.7193 154.924 35.8246C154.979 35.9939 155.105 36.133 155.226 36.2689C155.897 37.0211 156.509 37.9051 156.509 38.8853C156.509 39.3494 156.37 39.8021 156.247 40.2516C156.232 40.3088 156.216 40.3684 156.228 40.4266C156.249 40.5322 156.351 40.6034 156.444 40.6668C157.168 41.1595 157.77 41.8072 158.193 42.5459C158.326 42.7786 158.444 43.0313 158.435 43.2952C158.427 43.5445 158.306 43.7772 158.186 44C157.832 44.6565 157.451 45.3154 156.89 45.8302C156.33 46.345 155.557 46.7038 154.777 46.6307C154.425 46.598 154.09 46.4812 153.76 46.3653C153.649 46.3265 153.532 46.2839 153.457 46.1976C153.382 46.1099 153.362 45.9922 153.343 45.8809C152.992 43.8206 151.928 41.9393 151.121 39.9953C150.889 39.437 150.677 38.8684 150.557 38.28C150.466 37.8357 150.428 37.3833 150.353 36.9366C150.221 36.1548 149.907 35.4052 149.796 34.6283C149.688 33.8756 149.405 32.5736 149.235 31.8261L141.031 31.0791C141.031 31.0791 140.752 28.9531 142.224 28.2352C143.697 27.5173 145.603 26.2748 147.935 26.6336C150.266 26.9927 152.682 27.7381 152.888 28.5664C153.094 29.3945 153.624 30.9408 153.624 30.9408Z" fill="#512D0C"/>
<path d="M149.604 38.7318C149.998 38.0241 151.092 37.5418 151.823 38.2633C152.585 39.016 152.566 40.336 152.01 41.1982C151.583 41.8615 150.592 42.3763 149.799 42.1355C149.459 42.032 149.405 41.7497 149.235 41.4379" fill="#C1774D"/>
<path d="M150.577 41.2125C150.577 41.4153 150.412 41.5799 150.209 41.5799C150.007 41.5799 149.842 41.4156 149.842 41.2125C149.842 41.0097 150.006 40.8452 150.209 40.8452C150.412 40.8452 150.577 41.0095 150.577 41.2125Z" fill="#BC5937" stroke="#4F4949" stroke-miterlimit="10"/>
<path d="M151.611 39.236C150.921 39.6437 150.232 40.0514 149.543 40.4591" stroke="#4F4949" stroke-miterlimit="10"/>
<path d="M152.386 40.5836C151.243 42.1959 150.319 42.1813 149.989 42.0875C149.658 41.9936 149.362 41.7557 149.236 41.4362" stroke="#4F4949" stroke-miterlimit="10"/>
<path d="M149.71 38.5699C149.71 38.5699 150.097 38.034 150.72 37.9305" stroke="#4F4949" stroke-miterlimit="10"/>
<path d="M153.071 27.9616C152.084 27.0389 149.533 25.7976 147.849 25.9568C146.165 26.1159 142.666 26.9432 141.806 27.516C140.946 28.0888 140.263 32.0348 140.263 32.0348L154.694 32.872C154.694 32.872 154.057 28.8846 153.071 27.9616ZM147.849 31.3918L143.04 31.0905C143.04 31.0905 143.255 28.796 145.381 28.9483C148.643 29.1823 147.849 31.3918 147.849 31.3918Z" fill="#DB5717"/>
<path d="M140.489 30.9178L154.506 31.8655" stroke="#4F4949" stroke-miterlimit="10"/>
<path d="M146.525 49.0717L152.16 43.7529L154.224 46.6397L151.081 53.4561L146.525 49.0717Z" fill="#441A0C"/>
<path d="M143.058 45.9482L146.525 49.0719L143.549 53.944L141.579 47.7662L143.058 45.9482Z" fill="#441A0C"/>
<path d="M130.06 58.0315C130.06 58.0315 129.677 53.1443 129.23 51.5385" stroke="#773C2C" stroke-miterlimit="10"/>
<path d="M175.656 53.1215L184.653 59.0027" stroke="#773C2C" stroke-miterlimit="10"/>
<path d="M145.609 53.6437C145.898 53.6437 146.132 53.41 146.132 53.1216C146.132 52.8333 145.898 52.5995 145.609 52.5995C145.321 52.5995 145.087 52.8333 145.087 53.1216C145.087 53.41 145.321 53.6437 145.609 53.6437Z" fill="#773C2C"/>
<path d="M145.738 61.7689C146.026 61.7689 146.26 61.5351 146.26 61.2468C146.26 60.9585 146.026 60.7247 145.738 60.7247C145.45 60.7247 145.216 60.9585 145.216 61.2468C145.216 61.5351 145.45 61.7689 145.738 61.7689Z" fill="#773C2C"/>
<path d="M145.867 69.8941C146.155 69.8941 146.389 69.6604 146.389 69.3721C146.389 69.0837 146.155 68.85 145.867 68.85C145.578 68.85 145.345 69.0837 145.345 69.3721C145.345 69.6604 145.578 69.8941 145.867 69.8941Z" fill="#773C2C"/>
<path d="M145.995 78.0197C146.284 78.0197 146.518 77.786 146.518 77.4977C146.518 77.2093 146.284 76.9756 145.995 76.9756C145.707 76.9756 145.473 77.2093 145.473 77.4977C145.473 77.786 145.707 78.0197 145.995 78.0197Z" fill="#773C2C"/>
<path d="M146.124 86.1449C146.413 86.1449 146.646 85.9111 146.646 85.6228C146.646 85.3345 146.413 85.1007 146.124 85.1007C145.836 85.1007 145.602 85.3345 145.602 85.6228C145.602 85.9111 145.836 86.1449 146.124 86.1449Z" fill="#773C2C"/>
</g>
<mask id="mask4_6526_7868" style="mask-type:luminance" maskUnits="userSpaceOnUse" x="0" y="0" width="195" height="130">
<path d="M195 0H0V130H195V0Z" fill="white"/>
</mask>
<g mask="url(#mask4_6526_7868)">
<path d="M111.944 72.5657C116.155 72.6346 123.031 72.3853 125.581 72.6367C136.227 73.6871 140.108 73.5477 146.654 77.9604C150.882 80.81 145.222 86.3548 145.222 86.3548L126.593 84.0702L107.978 85.0504" fill="#FFB573"/>
<path d="M109.364 86.355L117.117 85.7955C117.117 85.7955 117.086 76.8169 115.09 72.4465C111.044 72.3802 107.165 72.4705 105.011 72.9434C99.7892 74.0897 96.3691 75.9706 96.3691 75.9706" fill="#EF6145"/>
<path d="M112.573 72.6367C112.573 72.6367 115.065 76.9384 115.16 86.0772" stroke="#4F4949" stroke-miterlimit="10"/>
<path d="M100.544 99.7086C100.544 99.7086 86.5406 104.769 85.9805 105.594C85.5357 106.249 88.3749 106.033 88.3749 106.033C88.3749 106.033 81.2379 108.94 81.4175 109.656C81.6806 110.707 87.6284 108.242 87.6284 108.242C87.6284 108.242 81.3057 111.208 81.4724 112.026C81.639 112.843 88.7729 110.095 88.7729 110.095C88.7729 110.095 82.8704 112.808 83.3288 113.671C83.6436 114.264 89.834 111.679 89.834 111.679C89.834 111.679 85.0596 113.99 85.4785 114.598C85.8973 115.207 98.2858 109.73 106.908 106.425" fill="#FF7664"/>
<path d="M88.3749 106.033C88.3749 106.033 90.2328 106.389 92.0068 105.781" stroke="#4F4949" stroke-miterlimit="10"/>
<path d="M90.1615 111.086C90.7501 110.245 92.2948 108.635 93.0839 108.039" stroke="#4F4949" stroke-miterlimit="10"/>
<path d="M130.574 79.5394C130.574 79.5394 119.736 80.3131 116.149 82.8531C111.011 86.4905 101.81 96.7007 101.81 96.7007L89.2389 103.776L93.7996 113.921C93.7996 113.921 102.63 111.091 105.961 108.754C109.293 106.418 119.451 97.1879 119.451 97.1879" fill="#EF9F4A"/>
<path d="M114.539 86.0969L113.48 86.6772L114.422 87.4739L114.539 86.0969Z" fill="#F9C973"/>
<path d="M106.742 106.391L105.683 106.971L106.625 107.768L106.742 106.391Z" fill="#F9C973"/>
<path d="M125.842 82.3355L124.783 82.9158L125.725 83.7125L125.842 82.3355Z" fill="#F9C973"/>
<path d="M107.122 96.36L107.983 97.2068L108.474 96.075L107.122 96.36Z" fill="#F9C973"/>
<path d="M94.0467 102.291L93.5449 103.39L94.7765 103.465L94.0467 102.291Z" fill="#F9C973"/>
<path d="M95.7986 109.281L96.6594 110.128L97.1506 108.996L95.7986 109.281Z" fill="#F9C973"/>
<path d="M113.472 97.7484L113.554 98.9534L114.672 98.4319L113.472 97.7484Z" fill="#F9C973"/>
<path d="M93.7883 115.444C93.7883 115.444 92.2689 124.168 94.0909 128.489L96.1054 180.794H112.064L110.769 112.722" fill="#5F3122"/>
<path d="M81.7257 115.699C81.7257 115.699 78.852 122.175 80.5804 129.681L77.1744 181.048H93.133L98.9929 112.977" fill="#5F3122"/>
<path d="M84.001 115.699C84.001 115.699 81.5864 121.141 82.5151 127.829C82.7348 129.411 82.7673 131.013 82.6617 132.607L79.4497 181.048" stroke="#4F4949" stroke-miterlimit="10"/>
<path d="M93.1801 180.496C93.2014 180.248 98.1666 124.536 98.1666 124.536" stroke="#4F4949" stroke-miterlimit="10"/>
<path d="M82.219 124.721C82.3217 124.644 89.8903 124.442 92.196 120.35" stroke="#4F4949" stroke-miterlimit="10"/>
<path d="M105.88 120.46C105.88 120.46 106.992 123.596 110.982 123.897" stroke="#4F4949" stroke-miterlimit="10"/>
<path d="M90.5201 77.2188C85.5468 76.0561 79.559 76.1252 76.9062 77.8527C72.6261 80.6394 63.561 89.1822 63.561 89.1822L51.8529 84.308L46.1576 92.071C46.1576 92.071 56.1065 98.4358 61.5363 101.148C65.3222 103.04 68.9866 100.516 73.1264 96.9988C78.6984 92.264 77.9078 92.6753 77.9078 92.6753" fill="#FFB573"/>
<path d="M63.5609 89.1819L67.5992 91.5279" stroke="#4F4949" stroke-miterlimit="10"/>
<path d="M82.5941 90.6174L74.5006 96.4071C74.5006 96.4071 70.371 92.0674 66.2843 86.3001C66.2843 86.3001 74.623 78.5503 77.5561 77.2386C80.7577 75.807 85.7843 75.5049 90.4534 76.4952" fill="#EF6145"/>
<path d="M68.598 84.4321L76.7378 94.8067" stroke="#4F4949" stroke-miterlimit="10"/>
<path d="M90.3502 96.958C90.3502 96.958 102.392 98.0711 103.001 98.6048C103.485 99.0286 101.209 99.4397 101.209 99.4397C101.209 99.4397 107.413 100.265 107.419 100.865C107.427 101.745 102.248 101.023 102.248 101.023C102.248 101.023 107.824 102.062 107.86 102.738C107.897 103.415 101.727 102.714 101.727 102.714C101.727 102.714 106.922 103.639 106.738 104.411C106.612 104.942 101.217 104.177 101.217 104.177C101.217 104.177 105.443 105.016 105.238 105.58C105.033 106.144 94.1755 104.373 86.7229 103.539" fill="#F99C8B"/>
<path d="M101.209 99.4396C101.209 99.4396 99.8217 100.1 98.3027 99.9846" stroke="#4F4949" stroke-miterlimit="10"/>
<path d="M100.838 103.776C100.203 103.237 98.6601 102.286 97.9181 101.979" stroke="#4F4949" stroke-miterlimit="10"/>
<path d="M65.2581 85.2496C65.2581 85.2496 67.7008 86.1994 71.6665 88.0662C75.6323 89.933 80.7023 94.2235 85.8802 95.6117C88.6209 96.3464 98.8417 97.7221 98.8417 97.7221L100.676 107.443C100.676 107.443 88.6032 107.455 82.9456 106.465C75.6089 105.181 67.6358 99.7397 67.6358 99.7397" fill="#323C66"/>
<path d="M96.369 97.3777L97.7241 107.343" stroke="#4F4949" stroke-miterlimit="10"/>
<path d="M111.186 80.2308V120.127C111.186 120.127 104.752 120.824 95.2465 121.172C85.0467 121.546 79.9689 121.246 79.9689 121.246L79.7123 88.4827L85.2511 80.2305L90.4227 75.3412L107.861 76.0978L111.186 80.2308Z" fill="#EF6145"/>
<path d="M107.56 89.2343C106.849 87.4288 105.034 85.8904 103.178 86.1041C102.246 86.2115 101.366 86.5766 100.478 86.8787C97.9485 87.739 95.2517 88.1051 92.5844 87.9504C90.9251 87.8542 89.078 87.6103 87.7637 88.6277C86.3106 89.7527 86.2063 91.9331 86.6762 93.7096C86.8176 94.2447 87.0019 94.7754 87.3072 95.2371C88.3178 96.767 90.4194 97.1908 92.2334 96.9238C94.0474 96.6567 95.739 95.8526 97.5296 95.4592C100.074 94.9002 102.859 95.3021 105.293 94.2447C106.45 93.7424 107.488 92.8036 107.784 91.5777C107.966 90.8255 107.864 90.0054 107.56 89.2343Z" fill="#E25442"/>
<path d="M79.7449 92.6553L82.5945 90.6172" stroke="#4F4949" stroke-miterlimit="10"/>
<path d="M111.186 86.0771V81.0347" stroke="#4F4949" stroke-miterlimit="10"/>
<path d="M101.113 78.1759C101.517 76.0432 100.94 73.9429 100.94 73.9429" stroke="#4F4949" stroke-miterlimit="10"/>
<path d="M86.7643 75.9767C87.5952 79.2314 89.6188 81.7758 92.9986 82.6195C95.8076 83.3207 99.0155 82.6314 100.676 80.0957" stroke="#4F4949" stroke-miterlimit="10"/>
<path d="M100.434 67.9545C100.576 67.1568 101.452 66.3441 102.378 66.7876C103.344 67.2504 103.757 68.5042 103.513 69.5007C103.326 70.2672 102.557 71.0771 101.73 71.1081C101.374 71.1213 101.231 70.872 100.968 70.633" fill="#F7A166"/>
<path d="M102.496 67.7762C101.977 68.3864 101.459 68.9969 100.94 69.6071" stroke="#4F4949" stroke-miterlimit="10"/>
<path d="M100.482 67.7669C100.482 67.7669 100.672 67.1343 101.228 66.8329" stroke="#4F4949" stroke-miterlimit="10"/>
<path d="M99.4978 74.6563L99.7383 77.5251C99.7383 77.5251 99.6187 78.9661 98.2843 80.1615C96.9082 81.3945 93.7884 81.4784 91.4502 80.3461C89.1477 79.2313 88.5837 77.4854 88.5837 77.4854L89.877 70.8481" fill="#FFB573"/>
<path d="M91.5484 69.2619C91.5989 69.3454 91.1862 70.2255 90.6967 71.2158C91.1296 72.3283 91.8934 73.2779 92.4342 74.2248C93.3734 75.4639 94.8101 76.8326 95.924 77.1084C97.2021 77.33 98.8045 77.1487 99.6815 76.8479L99.4301 73.5987L91.5484 69.2619Z" fill="#4F4949"/>
<path d="M101.228 74.4946C101.882 73.3747 102.081 72.2274 102.1 71.002C102.119 69.7766 101.79 66.7733 101.163 64.9138C100.919 64.1908 100.476 63.0436 100.01 62.5317C98.2199 60.5651 95.0694 60.6961 91.9736 61.9514C89.58 62.922 88.4017 65.3197 88.8721 67.8263C89.2096 69.6255 90.0611 71.7427 91.2771 73.1332C92.4349 74.4571 94.8484 75.6965 95.7691 76.0205C96.6898 76.3445 100.574 75.6146 101.228 74.4946Z" fill="#FFB573"/>
<path d="M98.3361 67.5858C98.3361 67.5858 99.2118 69.1755 98.8543 69.832C98.6247 70.2537 98.1164 70.1642 97.7244 70.1024" stroke="#4F4949" stroke-miterlimit="10"/>
<path d="M96.1295 68.904C96.1079 69.1734 95.8718 69.3744 95.6025 69.3525C95.3331 69.3309 95.1321 69.0949 95.154 68.8255C95.1755 68.5561 95.4116 68.3552 95.681 68.377C95.9503 68.3986 96.1511 68.6347 96.1295 68.904Z" fill="#4F4949"/>
<path d="M100.831 67.5566C100.809 67.826 100.573 68.0269 100.303 68.0051C100.034 67.9835 99.8329 67.7474 99.8548 67.4781C99.8766 67.2087 100.112 67.0077 100.382 67.0296C100.651 67.0512 100.852 67.287 100.831 67.5566Z" fill="#4F4949"/>
<path d="M99.4279 71.2148L97.2458 71.2202C97.2458 71.2202 97.1628 72.9994 98.3445 73.1029C99.32 73.1884 99.4279 71.2148 99.4279 71.2148Z" fill="white"/>
<path d="M101.946 69.9449C101.942 70.5728 101.431 71.0793 100.803 71.0759C100.175 71.0725 99.6685 70.5609 99.6719 69.933C99.6753 69.3051 100.187 68.7986 100.815 68.802C101.443 68.8051 101.949 69.3168 101.946 69.9449Z" fill="#F99564"/>
<path d="M96.505 71.5784C96.5011 72.3257 95.8922 72.9281 95.1452 72.9242C94.398 72.9203 93.7956 72.3114 93.7995 71.5644C93.8034 70.8174 94.412 70.2147 95.1593 70.2186C95.9065 70.2225 96.5089 70.8312 96.505 71.5784Z" fill="#F99564"/>
<path d="M101.374 64.9406C101.286 64.7688 100.987 64.7802 100.821 64.7649C100.635 64.7477 100.449 64.7339 100.263 64.7389C100.077 64.7438 99.8921 64.7547 99.7075 64.7716C99.6004 64.7815 99.4977 64.7989 99.3942 64.8286C99.3162 64.8512 99.247 64.8761 99.1844 64.931C99.1527 64.9588 99.1235 64.9906 99.0936 65.0205C98.9636 65.1507 99.0424 65.3319 99.1922 65.3938C99.233 65.4107 99.2639 65.4323 99.3209 65.4479C99.3861 65.4658 99.4511 65.4575 99.5169 65.4526C99.6238 65.4448 99.7273 65.4302 99.8323 65.4099C100.015 65.3746 100.203 65.3455 100.378 65.3236C100.571 65.2997 100.762 65.2649 100.956 65.2441C101.103 65.2287 101.502 65.191 101.374 64.9406Z" fill="#4F4949"/>
<path d="M95.671 65.9789C95.5504 65.8691 95.3993 65.8946 95.2506 65.9183C95.1037 65.9417 94.9558 65.9677 94.8117 66.0046C94.5159 66.0803 94.2257 66.2077 93.9496 66.3369C93.6857 66.4601 93.4343 66.6013 93.1969 66.7703C92.939 66.9539 92.634 67.1522 92.5058 67.4528C92.4632 67.5529 92.4538 67.6548 92.5263 67.7461C92.5887 67.8243 92.7031 67.8756 92.804 67.8407C93.0825 67.7443 93.2863 67.5425 93.5221 67.3732C93.7569 67.2048 94.0008 67.0438 94.2517 66.9006C94.4971 66.7604 94.7527 66.6502 95.0093 66.534C95.131 66.4788 95.2517 66.4237 95.3765 66.3756C95.5197 66.3205 95.6469 66.275 95.7093 66.1252C95.7288 66.079 95.7064 66.0111 95.671 65.9789Z" fill="#4F4949"/>
<path d="M89.2944 73.838C89.2944 73.838 88.7692 72.5993 88.5651 72.1056C88.2544 71.3537 87.71 71.1995 87.2495 70.5373C86.6638 69.6949 87.0085 69.1005 85.9987 67.8606C85.6362 67.4154 85.8232 66.4053 85.5855 65.8718C85.3458 65.3339 84.876 64.9337 84.6295 64.3974C84.2842 63.6462 84.1308 62.763 84.6129 62.0332C86.5371 59.1194 89.8688 57.289 93.2015 56.4863C93.7652 56.3506 94.3239 56.2045 94.8922 56.0919C95.9044 55.8912 96.2505 55.7245 97.2697 56.0103C97.727 56.1385 98.3568 56.9291 98.8375 57.9878C99.0247 58.4005 100.155 58.8638 100.416 59.2223C100.728 59.6511 100.674 60.0213 100.88 60.4849C100.956 60.658 101.1 60.7901 101.221 60.9357C101.564 61.3478 101.731 61.9003 101.675 62.4331C101.647 62.6998 101.681 62.8366 101.729 63.1002C101.765 63.2963 101.979 63.3899 102.054 63.5745C102.219 63.9764 101.961 64.4468 101.963 65.0786C101.964 65.2551 102.082 65.8125 102.072 65.9888C102.046 66.4891 101.726 67.2787 101.736 67.3127C101.169 64.7692 100.2 63.0571 99.084 61.9107C97.069 63.2833 94.7037 64.1376 92.2766 64.369C92.2262 64.6732 92.1711 64.9764 92.1113 65.2788C91.8125 66.7909 91.3989 68.2802 90.875 69.73C90.6259 70.419 90.3711 71.1059 90.1002 71.7863C89.959 72.1412 89.2944 73.838 89.2944 73.838Z" fill="#4F4949"/>
<path d="M92.3296 70.3711C91.8408 69.7247 90.6905 69.3992 90.0673 70.2151C89.4173 71.066 89.6191 72.3707 90.2891 73.1476C90.8044 73.7453 91.8572 74.1177 92.6083 73.7693C92.9307 73.6198 92.9453 73.3325 93.0708 72.9999" fill="#FFB573"/>
<path d="M90.412 71.1489C91.1512 71.457 91.8903 71.7651 92.6298 72.0732" stroke="#4F4949" stroke-miterlimit="10"/>
<path d="M89.8312 72.5909C91.1873 74.0289 92.0994 73.8865 92.4143 73.7476C92.7289 73.6088 92.9886 73.3321 93.0697 72.998" stroke="#4F4949" stroke-miterlimit="10"/>
<path d="M92.2017 70.2258C92.2017 70.2258 91.7446 69.7487 91.1128 69.7325" stroke="#4F4949" stroke-miterlimit="10"/>
<path d="M105.559 91.0057C102.511 96.4654 98.9494 101.638 94.9365 106.433" stroke="#4F4949" stroke-miterlimit="10"/>
<path d="M89.641 104.61C91.9795 102.862 94.3286 101.128 96.6696 99.3825C97.3352 98.8864 97.9974 98.3859 98.6602 97.8862C98.7415 97.8248 98.6622 97.6857 98.5793 97.7476C96.2364 99.4937 93.9076 101.258 91.5793 103.024C90.9179 103.526 90.2544 104.025 89.5908 104.524C89.5401 104.562 89.5895 104.648 89.641 104.61Z" fill="#4F4949"/>
</g>
<mask id="mask5_6526_7868" style="mask-type:luminance" maskUnits="userSpaceOnUse" x="0" y="0" width="195" height="130">
<path d="M195 0H0V130H195V0Z" fill="white"/>
</mask>
<g mask="url(#mask5_6526_7868)">
<path d="M117.88 89.6407C117.884 89.579 117.888 89.5177 117.892 89.4561C118.096 91.3613 118.307 93.2926 119.003 95.078" stroke="#9E612B" stroke-miterlimit="10"/>
<path d="M137.76 80.4881L138.039 74.4998L128.787 78.0904L128.593 79.8441L126.337 79.9247L131.904 95.8401L140.13 81.3201L137.76 80.4881Z" fill="#FF7664"/>
<path d="M159.943 97.3316C159.943 97.3316 169.062 82.4513 170.089 82.0286C170.904 81.6929 169.612 85.5058 169.612 85.5058C169.612 85.5058 174.408 78.3878 175.148 78.7468C176.234 79.2733 172.19 85.1956 172.19 85.1956C172.19 85.1956 176.865 78.9788 177.719 79.3467C178.572 79.7146 173.95 86.8656 173.95 86.8656C173.95 86.8656 178.253 81.0491 179.09 81.7454C179.665 82.2241 175.435 88.3835 175.435 88.3835C175.435 88.3835 179.043 83.7053 179.61 84.3004C180.178 84.8958 171.383 97.1533 165.815 105.8" fill="#FF7664"/>
<path d="M169.612 85.5057C169.612 85.5057 169.577 87.6125 168.509 89.4081" stroke="#4F4949" stroke-miterlimit="10"/>
<path d="M174.713 88.6058C173.663 89.0562 171.555 90.3731 170.725 91.0972" stroke="#4F4949" stroke-miterlimit="10"/>
<path d="M120.466 110.751C120.466 110.751 128.978 96.5183 139.545 80.9297C139.545 80.9297 141.741 81.3925 146.193 83.0474C152.397 85.3534 158.218 96.5183 158.218 96.5183L164.856 86.5021L176.509 93.3393C176.509 93.3393 169.199 106.58 165.096 111.119C162.765 113.698 157.943 115.326 152.971 110.524C151.009 108.629 145.33 102.922 145.33 102.922" fill="#EF9F4A"/>
<path d="M152.98 100.95C154.043 99.9318 155.287 99.1484 156.618 98.658" stroke="#9E612B" stroke-miterlimit="10"/>
<path d="M154.317 101.735L158.218 96.5182" stroke="#4F4949" stroke-miterlimit="10"/>
<path d="M133.948 99.8962L126.337 79.9248L122.642 80.69L119.355 89.4559C117.3 94.412 117.426 100.035 119.892 103.449L120.465 110.751C120.465 110.751 112.93 119.497 114.221 131.892C115.512 144.286 118.869 183.792 118.869 183.792H149.596C149.596 183.792 153.211 136.41 151.92 126.856C150.629 117.302 144.74 110.657 144.74 110.657L145.427 104.048C148.723 99.4186 148.982 95.9988 147.3 90.1243" fill="#EF9F4A"/>
<path d="M120.63 92.5562L119.568 91.98L119.409 93.2036L120.63 92.5562Z" fill="#F9C973"/>
<path d="M124.557 99.1161L123.498 99.6964L124.44 100.493L124.557 99.1161Z" fill="#F9C973"/>
<path d="M139.306 85.5057L138.246 86.0861L139.189 86.8827L139.306 85.5057Z" fill="#F9C973"/>
<path d="M121.861 83.3887L120.802 83.969L121.744 84.7656L121.861 83.3887Z" fill="#F9C973"/>
<path d="M131.509 105.8L130.45 106.38L131.392 107.177L131.509 105.8Z" fill="#F9C973"/>
<path d="M123.171 129.866L122.112 130.446L123.054 131.243L123.171 129.866Z" fill="#F9C973"/>
<path d="M137.151 129.177L136.091 129.758L137.034 130.554L137.151 129.177Z" fill="#F9C973"/>
<path d="M147.016 127.128L145.957 127.708L146.899 128.505L147.016 127.128Z" fill="#F9C973"/>
<path d="M146.486 83.322L145.427 83.9023L146.369 84.699L146.486 83.322Z" fill="#F9C973"/>
<path d="M128.488 89.9194L128.387 91.1232L129.572 90.7766L128.488 89.9194Z" fill="#F9C973"/>
<path d="M131.888 95.7688L132.749 96.6156L133.24 95.4838L131.888 95.7688Z" fill="#F9C973"/>
<path d="M152.588 92.3065L152.086 93.4053L153.317 93.4799L152.588 92.3065Z" fill="#F9C973"/>
<path d="M171.013 95.4629L170.511 96.5616L171.743 96.6363L171.013 95.4629Z" fill="#F9C973"/>
<path d="M148.452 100.757L149.312 101.604L149.804 100.472L148.452 100.757Z" fill="#F9C973"/>
<path d="M158.476 110.18L159.337 111.027L159.828 109.895L158.476 110.18Z" fill="#F9C973"/>
<path d="M164.864 89.175L165.725 90.0218L166.216 88.89L164.864 89.175Z" fill="#F9C973"/>
<path d="M157.882 102.018L158.971 102.541L159.069 101.311L157.882 102.018Z" fill="#F9C973"/>
<path d="M136.989 113L137.072 114.205L138.19 113.684L136.989 113Z" fill="#F9C973"/>
<path d="M120.731 116.175L120.814 117.379L121.932 116.858L120.731 116.175Z" fill="#F9C973"/>
<path d="M143.658 114.82L143.74 116.025L144.859 115.503L143.658 114.82Z" fill="#F9C973"/>
<path d="M138.294 100.721L138.377 101.926L139.495 101.405L138.294 100.721Z" fill="#F9C973"/>
<path d="M129.973 118.522L130.056 119.727L131.174 119.206L129.973 118.522Z" fill="#F9C973"/>
<path d="M164.94 96.6639L165.022 97.8687L166.14 97.3474L164.94 96.6639Z" fill="#F9C973"/>
<path d="M142.708 92.6124L143.569 93.4592L144.06 92.3275L142.708 92.6124Z" fill="#F9C973"/>
<path d="M164.864 104.286L165.725 105.133L166.216 104.001L164.864 104.286Z" fill="#F9C973"/>
<path d="M142.311 83.4004C141.065 86.5378 139.503 89.5491 137.655 92.374C135.814 95.1885 133.697 97.8104 131.583 100.426C128.603 104.115 124.682 108.272 120.466 110.751" stroke="#9E612B" stroke-miterlimit="10"/>
<path d="M140.286 94.7908C138.589 96.7572 136.764 98.6097 134.812 100.323C132.861 102.035 130.791 103.61 128.639 105.059C127.372 105.912 126.079 106.727 124.777 107.524C124.707 107.566 124.77 107.673 124.84 107.633C127.176 106.294 129.424 104.8 131.567 103.17C133.605 101.621 135.538 99.9365 137.344 98.1233C138.389 97.0744 139.393 95.9848 140.355 94.8597C140.396 94.8124 140.327 94.7433 140.286 94.7908Z" fill="#9E612B"/>
<path d="M145.427 104.048C139.792 107.385 129.181 110.436 120.466 110.751" stroke="#9E612B" stroke-miterlimit="10"/>
<path d="M142.634 109.133C141.605 109.433 140.541 109.614 139.481 109.759C138.197 109.934 136.906 110.047 135.613 110.131C133.087 110.296 130.551 110.352 128.019 110.331C127.054 110.323 126.088 110.313 125.124 110.266C125.024 110.261 125.024 110.416 125.124 110.422C127.142 110.546 129.169 110.537 131.188 110.498C133.815 110.447 136.452 110.319 139.06 109.988C140.277 109.834 141.5 109.642 142.679 109.295C142.783 109.265 142.738 109.103 142.634 109.133Z" fill="#9E612B"/>
<path d="M121.794 113.657C123.47 115.336 125.212 116.949 127.013 118.494C128.816 120.04 130.677 121.518 132.591 122.924C134.524 124.344 136.511 125.692 138.545 126.964C140.589 128.243 142.682 129.442 144.817 130.563C146.962 131.69 149.149 132.734 151.376 133.69C151.642 133.805 151.909 133.918 152.176 134.03C152.264 134.067 152.329 133.914 152.241 133.876C150.024 132.924 147.838 131.894 145.692 130.791C143.555 129.692 141.459 128.513 139.407 127.262C137.374 126.022 135.386 124.707 133.45 123.319C131.501 121.922 129.604 120.452 127.766 118.911C125.961 117.397 124.214 115.814 122.53 114.167C122.32 113.961 122.111 113.755 121.903 113.548C121.833 113.478 121.724 113.587 121.794 113.657Z" fill="#9E612B"/>
<path d="M115.816 119.134C117.266 123.932 119.056 128.617 121.257 133.122C123.187 137.073 125.426 140.875 127.963 144.468C130.189 147.622 132.649 150.612 135.318 153.402C137.664 155.854 140.172 158.149 142.819 160.273C145.072 162.08 147.424 163.759 149.858 165.314C150.132 165.489 150.408 165.662 150.684 165.835C150.787 165.9 150.882 165.737 150.779 165.672C148.377 164.164 146.053 162.522 143.819 160.775C141.204 158.73 138.715 156.521 136.379 154.163C133.715 151.474 131.252 148.59 129.006 145.544C126.45 142.077 124.182 138.401 122.202 134.577C119.936 130.203 118.052 125.641 116.484 120.973C116.277 120.356 116.08 119.736 115.887 119.115C115.873 119.07 115.803 119.089 115.816 119.134Z" fill="#9E612B"/>
<path d="M120.466 110.751C125.101 122.178 140.993 138.26 151.941 143.936" stroke="#9E612B" stroke-miterlimit="10"/>
<path d="M136.351 104.975C138.149 105.176 139.973 105.177 141.761 104.886C141.846 104.872 141.827 104.725 141.74 104.735C139.95 104.935 138.146 105 136.351 104.829C136.257 104.82 136.259 104.965 136.351 104.975Z" fill="#9E612B"/>
<path d="M123.634 110.461C129.917 115.316 137.302 118.734 145.069 120.383" stroke="#9E612B" stroke-miterlimit="10"/>
<path d="M118.37 113.609C122.638 125.34 128.827 136.369 136.617 146.123" stroke="#9E612B" stroke-miterlimit="10"/>
<path d="M126.469 84.4464C127.326 89.5184 127.83 92.7635 128.55 97.8569" stroke="#9E612B" stroke-miterlimit="10"/>
<path d="M132.614 85.532C132.374 85.532 132.125 85.5193 131.867 85.4925C129.907 85.2884 128.429 84.244 127.593 82.4718C126.977 81.1648 126.932 79.927 126.931 79.875L127.903 79.8451L127.417 79.8601L127.903 79.8445C127.903 79.8555 127.947 80.9584 128.486 82.085C129.181 83.5365 130.352 84.3576 131.968 84.5258C136.389 84.9868 137.526 80.6173 137.572 80.4311L138.516 80.6628C138.504 80.7137 137.269 85.532 132.614 85.532Z" fill="#FADFC5"/>
<path d="M128.549 82.2116C128.449 82.6284 128.022 82.8119 127.652 82.5922C127.751 82.1739 128.18 81.9942 128.549 82.2116Z" fill="#8E6E54"/>
<path d="M128.402 81.5706C128.197 81.9952 127.698 82.1481 127.292 81.906C127.496 81.4794 127.996 81.3306 128.402 81.5706Z" fill="#8E6E54"/>
<path d="M130.369 84.077C130.564 84.4577 130.359 84.8737 129.936 84.9459C129.739 84.565 129.948 84.1506 130.369 84.077Z" fill="#8E6E54"/>
<path d="M129.772 83.7063C129.871 84.1228 129.572 84.4785 129.144 84.4478C129.044 84.0303 129.345 83.6774 129.772 83.7063Z" fill="#8E6E54"/>
<path d="M132.372 84.555C132.736 84.7835 132.774 85.2482 132.448 85.53C132.083 85.302 132.049 84.8371 132.372 84.555Z" fill="#8E6E54"/>
<path d="M133.328 84.5115C133.713 84.7008 133.798 85.1579 133.502 85.4699C133.116 85.2817 133.035 84.8241 133.328 84.5115Z" fill="#8E6E54"/>
<path d="M134.204 84.3076C134.614 84.4305 134.773 84.8668 134.532 85.2228C134.12 85.1011 133.965 84.6632 134.204 84.3076Z" fill="#8E6E54"/>
<path d="M135.816 83.3555C136.233 83.2743 136.571 83.5869 136.517 84.0104C136.099 84.0933 135.764 83.7777 135.816 83.3555Z" fill="#8E6E54"/>
<path d="M136.352 82.7917C136.739 82.6107 137.146 82.8309 137.201 83.2558C136.813 83.4391 136.408 83.2149 136.352 82.7917Z" fill="#8E6E54"/>
<path d="M137.372 81.0346C137.733 80.8084 138.162 80.9779 138.265 81.3924C137.904 81.6209 137.476 81.4475 137.372 81.0346Z" fill="#8E6E54"/>
<path d="M139.545 80.9297C136.829 84.5115 120.466 110.751 120.466 110.751" stroke="#4F4949" stroke-miterlimit="10"/>
<path d="M145.427 104.048C148.723 99.4188 148.982 95.999 147.3 90.1246" stroke="#4F4949" stroke-miterlimit="10"/>
<path d="M126.337 79.9248L131.388 93.2763" stroke="#4F4949" stroke-miterlimit="10"/>
<path d="M123.271 79.0588C123.853 78.0305 124.658 77.1096 125.627 76.361L126.332 76.4554C126.332 76.4554 127.485 77.8214 127.806 79.6664C127.806 79.6664 127.011 80.8796 125.443 80.5592C123.876 80.2389 123.271 79.0588 123.271 79.0588Z" fill="#441A0C"/>
<path d="M126.695 76.2328C126.637 76.6636 126.241 76.966 125.81 76.9085C125.379 76.8508 125.077 76.4548 125.135 76.024C125.192 75.5932 125.588 75.2905 126.019 75.3482C126.45 75.406 126.753 75.8019 126.695 76.2328Z" fill="#7F683B"/>
<path d="M125.145 77.2355C124.807 78.1632 124.513 79.0605 124.028 79.9245C124.168 78.9547 124.495 77.9856 125.145 77.2355Z" fill="#8E6E54"/>
<path d="M126.31 77.7272C126.84 78.4617 127.07 79.418 126.926 80.3129C126.705 79.4294 126.512 78.6148 126.31 77.7272Z" fill="#8E6E54"/>
<path d="M126.107 78.7415C126.297 79.3515 126.264 80.001 126.009 80.587C125.907 79.9542 125.94 79.3601 126.107 78.7415Z" fill="#8E6E54"/>
<path d="M125.313 78.6466C125.361 79.2815 125.238 79.8707 124.937 80.432C124.885 79.8075 125.015 79.1973 125.313 78.6466Z" fill="#8E6E54"/>
<path d="M136.261 73.0349C136.214 73.1183 136.676 73.9547 137.222 74.8944C136.835 75.9952 136.027 76.9161 135.597 77.8979C134.924 79.4368 132.751 81.8923 128.443 81.1999L128.765 77.8461L136.261 73.0349Z" fill="#4F4949"/>
<path d="M126.338 77.2699C124.903 74.7092 125.713 71.6636 126.068 69.7812C126.738 66.2366 130.724 64.6129 134.892 65.5445C137.448 66.1159 138.992 68.2435 138.89 70.7247C138.817 72.5057 138.499 74.2916 137.668 75.9229C136.824 77.5786 134.308 79.5 132.206 79.767C129.332 80.132 127.46 79.2732 126.338 77.2699Z" fill="#FF7664"/>
<path d="M137.838 73.1844C136.202 71.3735 134.432 68.7829 134.098 66.0973C134.098 66.0973 127.625 66.9592 125.76 71.3738C125.76 71.3738 124.092 66.4018 127.619 63.7077C131.146 61.0135 133.733 61.0528 134.908 61.1703C136.084 61.2878 137.927 62.0325 137.927 62.0325C137.927 62.0325 141.374 63.365 142.276 66.5001C143.177 69.6351 142.08 74.4116 138.479 75.0606" fill="#7F683B"/>
<path d="M137.61 64.8453C138.483 65.3981 139.477 65.7592 140.501 65.896" stroke="#4F4949" stroke-miterlimit="10"/>
<path d="M134.931 65.5984C135.685 66.8173 136.459 68.0427 137.489 69.0392C138.733 70.243 140.333 71.075 142.033 71.4026" stroke="#4F4949" stroke-miterlimit="10"/>
<path d="M135.938 65.6613C137.735 66.9933 140.162 67.5715 142.431 67.2094" stroke="#4F4949" stroke-miterlimit="10"/>
<path d="M125.447 67.9042C125.522 67.5041 125.869 67.2186 126.203 66.9854C128.206 65.5874 130.612 64.7725 133.052 64.6652" stroke="#4F4949" stroke-miterlimit="10"/>
<path d="M126.012 65.2793C127.752 64.4832 129.718 64.1857 131.616 64.4317" stroke="#4F4949" stroke-miterlimit="10"/>
<path d="M139.757 63.0516C139.718 63.6132 139.394 64.1241 138.98 64.5048C138.565 64.8854 138.062 65.154 137.565 65.4184C136.869 65.7892 136.157 66.1654 135.38 66.2985C133.879 66.5554 132.106 66.6698 130.902 65.739C130.381 65.3368 129.837 64.0412 129.701 63.2971C129.583 62.6499 129.446 62.1798 129.734 61.5881C129.894 61.2579 130.159 60.989 130.448 60.7631C131.675 59.8042 133.43 59.5728 134.864 60.1807C135.315 60.3721 135.731 60.6375 136.173 60.8507C138.38 60.3019 139.757 61.9932 139.757 63.0516Z" fill="#7F683B"/>
<path d="M133.781 61.4932C135.299 61.9641 136.638 63.4284 137.435 65.4876" stroke="#4F4949" stroke-miterlimit="10"/>
<path d="M134.997 61.2064C135.597 61.3185 136.554 61.6279 137.23 62.236C137.905 62.8442 138.344 63.7604 138.604 64.8061" stroke="#4F4949" stroke-miterlimit="10"/>
<path d="M137.986 61.5782C138.382 61.8054 138.7 62.1845 138.907 62.6223C139.114 63.0602 139.214 63.5547 139.231 64.0484" stroke="#4F4949" stroke-miterlimit="10"/>
<path d="M132.187 61.6317C131.551 62.6046 131.192 63.7437 131.139 64.9623" stroke="#4F4949" stroke-miterlimit="10"/>
<path d="M132.076 60.1476C132.362 60.3491 132.685 60.4981 132.953 60.7241C133.22 60.95 133.432 61.2849 133.387 61.632" stroke="#4F4949" stroke-miterlimit="10"/>
<path d="M133.711 60.1362C134.069 60.4633 134.247 60.9778 134.166 61.4568" stroke="#4F4949" stroke-miterlimit="10"/>
<path d="M136.173 60.8505C136.173 60.8505 133.482 61.8786 131.439 61.5933" stroke="#4F4949" stroke-miterlimit="10"/>
<path d="M129.56 62.4304C129.576 62.6267 129.927 66.3215 132.499 66.4429C135.071 66.5646 138.044 66.1684 139.859 63.1625" stroke="#4F4949" stroke-miterlimit="10"/>
<path d="M129.662 72.0345C129.428 72.4663 128.998 74.213 129.386 74.8069C129.635 75.188 130.018 75.0528 130.314 74.9553" stroke="#4F4949" stroke-miterlimit="10"/>
<path d="M134.745 71.3736C134.609 71.0436 134.364 70.7605 134.066 70.5509C133.95 70.4693 133.824 70.3978 133.686 70.3572C133.385 70.2691 133.059 70.3359 132.751 70.4033" stroke="#4F4949" stroke-miterlimit="10"/>
<path d="M128.549 70.3288C128.43 70.0727 128.193 69.8704 127.913 69.7854C127.633 69.7007 127.315 69.735 127.06 69.8777" stroke="#4F4949" stroke-miterlimit="10"/>
<path d="M133.085 72.558C133.147 72.8139 133.415 72.9712 133.683 72.9098C133.952 72.8482 134.119 72.591 134.057 72.3352C133.995 72.0794 133.728 71.9221 133.459 71.9834C133.191 72.045 133.024 72.3022 133.085 72.558Z" fill="#4F4949"/>
<path d="M126.765 72.2715C126.827 72.5274 127.094 72.6847 127.363 72.6233C127.631 72.5617 127.799 72.3045 127.737 72.0487C127.675 71.7929 127.407 71.6356 127.139 71.6969C126.871 71.7585 126.703 72.0159 126.765 72.2715Z" fill="#4F4949"/>
<path d="M129.485 76.2801L131.632 75.9229C131.632 75.9229 131.978 77.8094 130.507 77.8461C129.36 77.8744 129.485 76.2801 129.485 76.2801Z" fill="white"/>
<path d="M126.35 74.5766C126.44 75.1385 126.99 75.5201 127.579 75.4286C128.168 75.3374 128.573 74.8077 128.483 74.2459C128.393 73.684 127.843 73.3026 127.254 73.3939C126.665 73.4854 126.26 74.0147 126.35 74.5766Z" fill="#EA6153"/>
<path d="M132.441 74.9601C132.55 75.6426 133.219 76.1062 133.935 75.9951C134.65 75.8844 135.142 75.2411 135.033 74.5584C134.923 73.8759 134.255 73.4123 133.539 73.5233C132.824 73.6343 132.332 74.2776 132.441 74.9601Z" fill="#EA6153"/>
<path d="M137.194 72.8472C137.6 72.1356 138.737 71.6372 139.504 72.3439C140.304 73.0807 140.294 74.3958 139.72 75.2639C139.279 75.9316 138.25 76.461 137.422 76.2343C137.067 76.137 137.008 75.8565 136.828 75.5486" fill="#FF7664"/>
<path d="M139.29 73.3162C138.574 73.7338 137.858 74.1513 137.143 74.5686" stroke="#4F4949" stroke-miterlimit="10"/>
<path d="M138.479 76.128C138.216 76.2471 137.98 76.3386 137.568 76.2658C137.156 76.1928 136.906 75.913 136.829 75.5467" stroke="#4F4949" stroke-miterlimit="10"/>
<path d="M137.291 72.7005C137.291 72.7005 137.547 72.1738 138.044 72.0997" stroke="#4F4949" stroke-miterlimit="10"/>
<path d="M135.756 79.4847C136.197 78.3883 136.872 77.3686 137.733 76.4979H138.444C138.444 76.4979 139.769 77.6985 140.331 79.4847C140.331 79.4847 139.704 80.7928 138.108 80.6833C136.512 80.5739 135.756 79.4847 135.756 79.4847Z" fill="#441A0C"/>
<path d="M138.775 76.2293C138.775 76.664 138.422 77.0163 137.988 77.0163C137.553 77.0163 137.201 76.664 137.201 76.2293C137.201 75.7946 137.553 75.4423 137.988 75.4423C138.422 75.4423 138.775 75.7946 138.775 76.2293Z" fill="#7F683B"/>
<path d="M137.372 77.429C137.159 78.3933 136.987 79.3218 136.621 80.2424C136.632 79.2625 136.827 78.2589 137.372 77.429Z" fill="#8E6E54"/>
<path d="M138.591 77.7615C139.215 78.419 139.569 79.3366 139.545 80.2424C139.209 79.3964 138.91 78.6145 138.591 77.7615Z" fill="#8E6E54"/>
<path d="M138.673 80.6358C138.489 80.0219 138.44 79.4289 138.525 78.7937C138.795 79.3727 138.846 80.0212 138.673 80.6358Z" fill="#8E6E54"/>
<path d="M137.725 78.8052C137.857 79.4282 137.814 80.0283 137.59 80.6247C137.455 80.0127 137.503 79.3908 137.725 78.8052Z" fill="#8E6E54"/>
<path d="M119.355 89.4561C118.095 92.4936 117.655 95.7819 118.071 98.6585" stroke="#4F4949" stroke-miterlimit="10"/>
<path d="M152.787 82.6006C150.299 80.1402 146.794 77.8605 143.689 76.3445L140.332 80.9296C140.332 80.9296 146.266 88.994 149.658 90.4414C150.266 90.7009 149.063 88.2273 149.063 88.2273C149.063 88.2273 153.726 91.4414 154.283 91.0319C154.638 90.7708 154.082 90.1341 153.342 89.4979C154.488 90.5517 155.141 91.0592 155.931 90.7404C156.036 90.698 155.461 89.2756 154.427 88.2387C155.244 89.2524 155.741 89.8055 156.5 89.6443C156.731 89.5951 156.201 88.4199 155.668 87.6976C155.912 88.1136 156.154 88.3604 156.542 88.2169C156.925 88.0754 154.745 84.5376 152.787 82.6006Z" fill="#FFB573"/>
<path d="M149.063 88.2273L147.105 87.467" stroke="#4F4949" stroke-miterlimit="10"/>
<path d="M153.819 89.8153L149.971 86.1163" stroke="#4F4949" stroke-miterlimit="10"/>
<path d="M151.721 84.7883L155.148 88.9941" stroke="#4F4949" stroke-miterlimit="10"/>
<path d="M152.652 83.658L155.824 87.8126" stroke="#4F4949" stroke-miterlimit="10"/>
<path d="M140.164 80.6825C140.455 81.1586 140.804 81.605 141.137 82.053C141.466 82.4958 141.802 82.9331 142.144 83.366C142.804 84.2006 143.473 85.0323 144.194 85.8154C144.275 85.9036 144.395 85.7757 144.323 85.6862C143.658 84.8667 142.971 84.0654 142.308 83.2441C141.961 82.814 141.617 82.3808 141.277 81.9451C140.933 81.5041 140.61 81.0437 140.255 80.6126C140.212 80.5614 140.129 80.6271 140.164 80.6825Z" fill="#4F4949"/>
</g>
<mask id="mask6_6526_7868" style="mask-type:luminance" maskUnits="userSpaceOnUse" x="0" y="0" width="195" height="130">
<path d="M195 0H0V130H195V0Z" fill="white"/>
</mask>
<g mask="url(#mask6_6526_7868)">
<path d="M73.7923 97.0754L71.4166 102.595" stroke="#4F4949" stroke-miterlimit="10"/>
<path d="M32.5499 105.234C34.7974 109.068 39.2686 109.573 43.6077 104.114C47.9469 98.6555 49.8131 95.5079 49.8131 95.5079L57.1623 83.9322C57.1623 83.9322 52.4537 82.5443 49.0706 82.9744C48.0269 83.107 46.149 83.8724 45.2 84.9158C41.5438 88.9354 38.2712 94.0436 38.2712 94.0436" fill="#323C66"/>
<path d="M47.0133 119.083L45.8927 95.0526L51.639 83.2137L62.053 84.4305L69.8189 87.4208L72.883 117.515L47.0133 119.083Z" fill="#323C66"/>
<path d="M58.0515 78.2017C58.17 79.3839 58.0166 80.5924 57.6058 81.7075C57.5161 81.9509 57.4061 82.2013 57.2005 82.3593C56.9831 82.5263 56.6953 82.5632 56.422 82.5845C55.7679 82.6357 54.9658 82.7088 54.3446 82.4813C53.6621 82.2314 53.0818 82.0229 52.345 81.9407C51.6193 81.8599 50.8716 81.7944 50.2203 81.4644C49.569 81.1347 49.0289 80.4655 49.0913 79.738C49.1834 78.666 50.4309 78.073 50.8172 77.0689C51.0959 76.3445 50.883 75.525 51.0151 74.7601C51.0837 74.3617 51.246 73.984 51.449 73.6343C51.7275 73.1548 52.0855 72.7216 52.5038 72.3579C52.9487 71.971 53.4788 71.6403 53.7357 71.1097C53.8946 70.7815 53.9307 70.41 54.0061 70.0533C54.3394 68.4811 55.485 67.1551 56.8859 66.3673C58.1344 65.6655 59.834 65.1718 61.2794 65.2846C62.7601 65.4003 64.1986 65.0197 65.6851 65.4323C67.0319 65.8062 68.3662 66.8371 69.3079 67.8583C70.2028 68.8289 70.8533 70.0707 70.9191 71.3894C70.9532 72.074 70.8463 72.8218 71.2257 73.3927C71.6658 74.0555 72.5797 74.2042 73.1741 74.733C73.9583 75.4306 74.0295 76.6287 73.8826 77.6676C73.8116 78.1686 73.7066 78.6972 73.8956 79.1665C73.9947 79.4122 74.1668 79.6197 74.3178 79.8376C74.8118 80.5497 75.1051 81.4951 74.932 82.3601C74.7656 83.1916 73.9603 83.911 73.1549 84.1302C72.138 84.4068 71.1097 83.9966 70.0845 84.0379C69.3347 84.0683 68.6194 84.3257 67.8758 84.4037C67.1262 84.4825 66.3468 84.3759 65.626 84.1666C65.1612 84.0314 64.7319 83.7979 64.3068 83.566C63.669 83.2184 62.9894 82.8266 62.6922 82.1638" fill="#6C1B33"/>
<path d="M56.2089 74.8599C55.6733 75.713 55.4 76.7093 55.4083 77.7165C55.4107 77.9973 55.4304 78.2784 55.407 78.5589C55.3828 78.8506 55.2895 79.1252 55.1735 79.3925C54.9671 79.868 54.7557 80.3251 54.6543 80.8378C54.5979 81.1228 54.5667 81.4137 54.5628 81.7042C54.5592 81.9787 54.5519 82.3094 54.6504 82.5694C54.6842 82.6584 54.8197 82.6498 54.822 82.5463C54.8275 82.2964 54.7692 82.0435 54.7648 81.7918C54.7601 81.5284 54.7773 81.264 54.8184 81.0037C54.9005 80.4829 55.0922 80.0139 55.2986 79.5329C55.393 79.3132 55.4814 79.0893 55.5284 78.854C55.5786 78.6024 55.5768 78.347 55.5643 78.092C55.5375 77.5551 55.5329 77.032 55.6384 76.5018C55.7513 75.935 55.9606 75.3838 56.2424 74.8797C56.2544 74.8576 56.2221 74.8389 56.2089 74.8599Z" fill="#8E3C57"/>
<path d="M56.3006 71.2963C56.0645 71.5713 55.7759 71.8261 55.6092 72.153C55.4452 72.4748 55.4215 72.842 55.3576 73.1917C55.2182 73.9545 54.6925 74.4732 54.2201 75.0512C54.0084 75.3101 53.8108 75.5826 53.6774 75.891C53.5238 76.2461 53.459 76.6307 53.4369 77.0152C53.4141 77.4156 53.4351 77.8165 53.444 78.2172C53.4533 78.6402 53.4848 79.1074 53.2919 79.4972C53.0919 79.9012 52.7706 80.2348 52.5594 80.6349C52.3579 81.0174 52.2331 81.4277 52.2409 81.8627C52.2422 81.9386 52.3561 81.9383 52.3587 81.8627C52.373 81.448 52.5168 81.0546 52.7139 80.6929C52.9039 80.344 53.1642 80.0445 53.3662 79.7044C53.5664 79.3669 53.6031 79.0037 53.6052 78.6184C53.6075 78.2164 53.5792 77.8152 53.5763 77.4133C53.5734 77.0176 53.5942 76.6179 53.7029 76.2352C53.8025 75.8847 53.9832 75.5748 54.2019 75.286C54.6059 74.753 55.1295 74.2785 55.3555 73.6316C55.4915 73.2426 55.4787 72.8217 55.5923 72.4273C55.719 71.9881 56.0637 71.6839 56.3521 71.3483C56.3827 71.3124 56.3313 71.2604 56.3006 71.2963Z" fill="#8E3C57"/>
<path d="M58.1902 68.6734C59.4397 67.4033 61.2153 66.7377 62.9905 66.8414C63.9302 66.8963 64.8573 67.156 65.694 67.5855C66.4753 67.9865 67.2129 68.5366 67.7233 69.2602C68.2706 70.0358 68.4414 70.9653 68.69 71.862C68.938 72.7572 69.3444 73.5668 69.906 74.3068C70.179 74.6664 70.4752 75.0075 70.7866 75.3343C71.0867 75.6492 71.4156 75.9495 71.6405 76.326C72.1488 77.1775 71.6496 78.1137 71.7775 79.0229C71.8459 79.5086 72.0437 79.9709 72.1761 80.4407C72.318 80.9449 72.3778 81.4558 72.2317 81.9667C71.9811 82.8434 71.3337 83.548 70.4949 83.8969C70.3805 83.9445 70.4208 84.1252 70.5477 84.0888C71.3214 83.8683 71.94 83.2438 72.2788 82.5275C72.4673 82.1292 72.5793 81.6973 72.5648 81.2548C72.5499 80.8039 72.4176 80.3708 72.2814 79.9444C72.1306 79.4717 71.9777 79.0107 72.0071 78.5081C72.0352 78.0284 72.1602 77.5534 72.1254 77.0706C72.0562 76.1115 71.2713 75.5153 70.6746 74.8507C70.0202 74.1222 69.432 73.3019 69.0974 72.374C68.7633 71.4476 68.6458 70.4455 68.1742 69.5696C67.754 68.7893 67.0759 68.1786 66.3269 67.7207C65.5138 67.2239 64.5973 66.8906 63.6541 66.7551C61.8783 66.5 60.0013 66.9753 58.6329 68.1575C58.4619 68.3055 58.3004 68.4636 58.1473 68.63C58.1207 68.6591 58.1626 68.7015 58.1902 68.6734Z" fill="#8E3C57"/>
<path d="M69.3809 74.436C69.7075 75.0985 70.2774 75.5771 70.696 76.1743C70.9199 76.4936 71.1084 76.8561 71.1448 77.25C71.1773 77.6025 71.0709 77.9382 70.9389 78.2603C70.8112 78.5718 70.6583 78.876 70.5756 79.2039C70.4883 79.5497 70.5135 79.8835 70.6068 80.2257C70.7114 80.6089 70.8247 80.9773 70.8471 81.3769C70.8687 81.7649 70.8268 82.1551 70.7067 82.5256C70.585 82.9013 70.3814 83.2461 70.0952 83.5196C69.8825 83.7227 69.6285 83.8818 69.3841 84.0438C69.2951 84.1025 69.3718 84.2317 69.467 84.186C70.0237 83.9171 70.4823 83.5339 70.7548 82.9663C71.0813 82.2862 71.1274 81.5028 70.9654 80.7719C70.8752 80.3653 70.6859 79.9716 70.7145 79.5465C70.7405 79.1612 70.9155 78.8016 71.0629 78.4517C71.1926 78.1441 71.3146 77.8269 71.3338 77.4899C71.3541 77.1301 71.2449 76.7786 71.0769 76.4637C70.6588 75.6809 69.8918 75.1632 69.4701 74.3842C69.4384 74.3247 69.3516 74.3767 69.3809 74.436Z" fill="#8E3C57"/>
<path d="M68.1444 84.4462C68.9478 83.6569 68.7068 82.4973 68.3428 81.5618C68.1351 81.0278 67.9203 80.5031 67.8015 79.9402C67.6829 79.3783 67.6405 78.8014 67.6699 78.2281C67.7032 77.5789 67.8368 76.9411 68.0498 76.3275C68.0935 76.2016 67.8977 76.1509 67.8519 76.2729C67.4723 77.2874 67.3678 78.402 67.5111 79.4738C67.5839 80.0185 67.7258 80.5455 67.9239 81.0577C68.1182 81.5595 68.3467 82.0553 68.4525 82.5857C68.5758 83.205 68.4736 83.868 68.0599 84.3615C68.0108 84.4197 68.0885 84.5014 68.1444 84.4462Z" fill="#8E3C57"/>
<path d="M66.0344 82.1145L65.4226 86.6718C65.4226 86.6718 64.731 87.9487 61.3515 87.4945C57.9721 87.0405 56.3868 83.732 56.3868 83.732C56.3868 83.732 57.718 78.9862 57.6458 78.8588" fill="#F99C8B"/>
<path d="M59.2579 77.531C59.3008 77.6067 58.8816 78.3648 58.3866 79.2171C58.7381 80.2152 59.4016 81.0834 59.8598 81.9401C60.4757 83.0921 62.5258 84.9535 65.6188 85.2104L66.3023 81.8582L59.2579 77.531Z" fill="#4F4949"/>
<path d="M67.718 81.2434C69.0185 78.9219 68.8217 76.2878 68.499 74.5809C67.8914 71.3671 64.2782 69.8952 60.4996 70.7399C58.1817 71.2581 56.7821 73.1871 56.8744 75.4366C56.9407 77.0512 57.4339 79.0134 58.358 80.3922C59.2378 81.7049 61.0188 82.7231 62.5383 83.1919C65.0483 83.9661 66.7003 83.0598 67.718 81.2434Z" fill="#F99C8B"/>
<path d="M56.8933 77.0561C57.4697 76.8967 57.9458 76.4677 58.2606 75.9592C58.5755 75.4506 58.7445 74.8654 58.8633 74.2791C58.9322 73.9398 58.9876 73.5903 59.1509 73.2851C59.3142 72.9798 59.6132 72.7201 59.9592 72.712C60.2577 72.705 60.5302 72.8823 60.7449 73.0896C60.9597 73.297 61.1391 73.5414 61.3747 73.7247C61.839 74.0867 62.8985 74.2572 63.0431 73.9161C63.1879 73.5752 62.5577 73.2432 62.4628 72.4427C62.9206 73.3241 64.4845 74.1296 64.901 73.8696C65.3176 73.6093 63.9549 72.645 64.0966 71.9362C64.6382 72.834 65.8266 73.9673 66.5403 73.7968C67.254 73.6265 66.2497 72.4721 66.3022 71.8616C66.7348 72.1829 68.2306 72.8244 68.7379 76.0247C68.8556 75.284 69.2956 75.1329 69.0002 73.5048C68.6734 71.7032 68.1484 70.9282 66.7977 69.6924C66.1152 69.0679 65.3147 68.5481 64.4185 68.3186C63.3517 68.0453 62.2171 68.199 61.1609 68.5107C60.6051 68.6748 60.058 68.8838 59.5695 69.1955C59.2122 69.4233 58.8906 69.7033 58.5921 70.0039C58.2175 70.3814 57.8777 70.7927 57.568 71.2251C57.1926 71.7493 56.8585 72.3103 56.6557 72.9224C56.2828 74.0487 56.3759 75.2689 56.4731 76.4514" fill="#6C1B33"/>
<path d="M57.7669 70.2129C58.4198 70.9364 58.7523 71.9637 58.8345 72.9215C58.9232 73.9571 58.6723 74.9823 58.1224 75.8627C57.8348 76.3229 57.4926 76.7467 57.1741 77.1853C57.118 77.2625 57.2436 77.359 57.3065 77.2875C57.9903 76.5132 58.6307 75.6905 58.9042 74.6758C59.1871 73.6261 59.102 72.5375 58.7183 71.5253C58.5217 71.0072 58.244 70.5246 57.8288 70.1512C57.7867 70.1135 57.7292 70.171 57.7669 70.2129Z" fill="#8E3C57"/>
<path d="M65.2406 75.983C65.5383 76.3949 66.1425 78.0287 65.7275 78.5521C65.461 78.8883 65.0084 78.7406 64.6587 78.6329" stroke="#4F4949" stroke-miterlimit="10"/>
<path d="M60.6326 76.0248C60.7553 75.7258 60.9776 75.469 61.248 75.2792C61.3533 75.2051 61.4674 75.1403 61.5925 75.1034C61.8655 75.0233 62.1608 75.0842 62.4403 75.1453" stroke="#4F4949" stroke-miterlimit="10"/>
<path d="M66.2499 75.0774C66.358 74.8452 66.5731 74.6616 66.8268 74.5849C67.0806 74.508 67.3687 74.5392 67.6001 74.6686" stroke="#4F4949" stroke-miterlimit="10"/>
<path d="M63.4301 77.157C63.3739 77.3889 63.1313 77.5317 62.888 77.4758C62.6446 77.4199 62.493 77.1866 62.5489 76.9547C62.6051 76.7228 62.8477 76.5801 63.091 76.636C63.3344 76.6921 63.486 76.9253 63.4301 77.157Z" fill="#4F4949"/>
<path d="M67.8675 76.8389C67.8113 77.0708 67.5687 77.2135 67.3254 77.1576C67.082 77.1017 66.9304 76.8685 66.9863 76.6366C67.0425 76.4047 67.2851 76.2619 67.5284 76.3178C67.7718 76.3737 67.9236 76.607 67.8675 76.8389Z" fill="#4F4949"/>
<path d="M65.7561 79.9869L63.8093 79.663C63.8093 79.663 63.496 81.3735 64.829 81.4065C65.869 81.4325 65.7561 79.9869 65.7561 79.9869Z" fill="white"/>
<path d="M68.2438 78.929C68.1624 79.4386 67.6632 79.7844 67.1292 79.7015C66.5951 79.6188 66.2283 79.1386 66.3096 78.6292C66.391 78.1199 66.8902 77.7738 67.4243 77.8568C67.9586 77.9394 68.3254 78.4197 68.2438 78.929Z" fill="#EF897B"/>
<path d="M63.409 79.0189C63.31 79.6377 62.7039 80.0578 62.055 79.9575C61.4063 79.8569 60.9604 79.2737 61.0594 78.6549C61.1585 78.0361 61.7645 77.6159 62.4135 77.7165C63.0622 77.8169 63.5081 78.4001 63.409 79.0189Z" fill="#EF897B"/>
<path d="M64.4886 77.3714C64.4886 78.3016 63.7343 79.0559 62.804 79.0559C61.8738 79.0559 61.1195 78.3016 61.1195 77.3714C61.1195 76.4411 61.8738 75.6868 62.804 75.6868C63.7343 75.6868 64.4886 76.4411 64.4886 77.3714Z" stroke="#323C66" stroke-miterlimit="10"/>
<path d="M68.9351 76.6064C69.0074 77.4618 68.4562 78.207 67.7038 78.2707C66.9513 78.3344 66.2826 77.6925 66.2103 76.8368C66.1381 75.9814 66.6893 75.2362 67.4417 75.1725C68.1942 75.1091 68.8629 75.751 68.9351 76.6064Z" stroke="#323C66" stroke-miterlimit="10"/>
<path d="M61.1499 77.056L57.485 76.9307" stroke="#323C66" stroke-miterlimit="10"/>
<path d="M64.4351 76.9555L66.2103 76.8369" stroke="#323C66" stroke-miterlimit="10"/>
<path d="M58.4123 77.3612C58.0442 76.7162 57.0133 76.2643 56.3178 76.9049C55.5924 77.5731 55.6017 78.7653 56.1212 79.5525C56.5211 80.1581 57.4542 80.6378 58.2048 80.4321C58.527 80.344 58.58 80.0897 58.7433 79.8107" fill="#F99C8B"/>
<path d="M56.5117 77.7864C57.1607 78.1649 57.8096 78.5435 58.4586 78.9221" stroke="#4F4949" stroke-miterlimit="10"/>
<path d="M56.7529 80.228C57.1239 80.4947 57.6988 80.527 58.0727 80.4607C58.4463 80.3946 58.673 80.1409 58.7425 79.8088" stroke="#4F4949" stroke-miterlimit="10"/>
<path d="M58.3246 77.228C58.3246 77.228 58.0919 76.7504 57.6416 76.6833" stroke="#4F4949" stroke-miterlimit="10"/>
<path d="M59.1886 68.9968C61.5255 67.6003 64.5742 68.0723 66.5866 69.8348C67.1573 70.3348 67.6368 70.9312 68.0156 71.5877C68.072 71.6855 68.2179 71.5991 68.1664 71.4996C66.9062 69.0579 63.9814 67.6492 61.2852 68.0764C60.5177 68.1978 59.7811 68.4724 59.1187 68.8777C59.0433 68.924 59.1122 69.0426 59.1886 68.9968Z" fill="#8E3C57"/>
<path d="M70.7644 87.5223L66.7958 85.7257L67.472 96.5498L55.9499 94.1183L54.633 83.2139L50.2379 82.7654C51.0153 91.8815 51.728 102.383 45.9895 103.771L44.6765 179.634L62.1446 180.386L62.0341 141.037L64.1113 180.386L78.4097 179.092L70.7644 87.5223Z" fill="#5C9570"/>
<path d="M46.1578 100.738L49.0704 96.7005" stroke="#4F4949" stroke-miterlimit="10"/>
<path d="M52.998 83.0468L54.6451 95.8401L68.7528 98.4206L67.9317 86.2399" stroke="#AABBF7" stroke-miterlimit="10"/>
<path d="M46.9575 81.5711C48.1865 81.7921 49.4039 82.2052 50.6186 82.4902C51.2387 82.6358 52.1976 82.9268 52.7958 83.1475C53.3494 83.3519 54.0542 83.5981 54.3673 84.129C54.5394 84.4204 54.5053 84.6352 54.1395 84.6425C53.6764 84.6519 53.2134 84.6183 52.7553 84.5419" fill="#FB7E48"/>
<path d="M37.4823 87.5601L45.9274 88.2291C48.3628 89.1523 50.6773 88.5156 50.8931 88.6482C50.8931 88.6482 52.2958 88.9391 53.3511 89.5426C54.0071 89.9178 54.5565 90.5082 55.3082 90.5894C55.7351 90.6354 55.8958 90.5254 55.8791 90.3247C56.0622 90.4266 56.2494 90.4893 56.4379 90.489C56.9027 90.488 55.9751 88.865 55.9751 88.865C55.9751 88.865 56.2962 90.1533 56.7894 89.9791C57.0132 89.9001 56.9516 89.4508 56.7538 88.8835C56.5156 88.2002 56.3612 87.9465 56.3612 87.9465C56.3612 87.9465 56.6446 87.2754 55.7036 85.8405C55.317 85.2505 54.0674 84.2396 52.0173 83.4617C48.8921 82.2759 45.3392 80.5011 37.9077 79.4845" fill="#FB7E48"/>
<path d="M55.8791 90.3247C55.8791 90.3247 54.1517 87.9771 51.8533 87.4506" stroke="#4F4949" stroke-miterlimit="10"/>
<path d="M56.4648 89.8882C56.4648 89.8882 55.9568 88.8744 55.35 88.1337C54.4725 87.0625 53.2814 86.0943 52.2263 85.6707" stroke="#4F4949" stroke-miterlimit="10"/>
<path d="M56.389 88.0071C56.389 88.0071 55.4985 85.8634 52.6526 84.4319" stroke="#4F4949" stroke-miterlimit="10"/>
<path d="M54.3396 84.6491L53.0282 83.7521" stroke="#4F4949" stroke-miterlimit="10"/>
<path d="M43.9437 88.7967C43.9437 88.9126 45.5731 89.8159 45.5731 89.8159L48.5546 90.1814C48.5546 90.1814 50.6405 82.2041 50.4601 82.214C50.2797 82.2241 47.9766 81.7379 47.9766 81.7379" fill="#4F4949"/>
<path d="M22.6847 62.3276C20.5425 66.6785 20.3304 71.925 21.3277 76.6713C21.7996 78.9175 23.5429 82.6219 25.0197 84.7526C26.5176 86.9138 27.9611 87.7676 31.6256 88.5988C36.5201 89.7088 39.9391 89.8161 45.573 89.8161L47.9762 81.7385L33.9981 78.4872L30.2715 66.2744" fill="#FF83A8"/>
<path d="M47.9761 81.7382L33.9979 78.4869L30.2714 66.2742" stroke="#4F4949" stroke-miterlimit="10"/>
<path d="M21.3279 76.6712C21.7998 78.9173 23.5431 82.6218 25.0199 84.7525C26.5177 86.9136 27.9613 87.7675 31.6257 88.5987C36.5202 89.7086 39.9392 89.816 45.5731 89.816" stroke="#4F4949" stroke-miterlimit="10"/>
<path d="M48.8136 81.9114L46.7081 89.9548" stroke="#843F24" stroke-miterlimit="10"/>
<path d="M49.8129 82.1097L47.7612 90.0841" stroke="#843F24" stroke-miterlimit="10"/>
<path d="M31.2738 66.0849C31.2738 66.0849 31.5481 68.0521 31.3383 69.7696" stroke="#4F4949" stroke-miterlimit="10"/>
<path d="M54.8992 101.979L68.8432 104.1" stroke="#AABBF7" stroke-miterlimit="10"/>
<path d="M54.8112 99.7862L68.7529 101.735L69.0576 109.704C69.0576 109.704 63.8004 112.615 62.5321 112.374C61.2638 112.132 55.1611 108.511 55.1611 108.511L54.8112 99.7862Z" stroke="#4F4949" stroke-miterlimit="10"/>
<path d="M62.1415 143.07L62.4405 121.986" stroke="#4F4949" stroke-miterlimit="10"/>
<path d="M37.4914 93.6334C37.4914 93.6334 32.6036 81.8832 31.9115 81.4625C31.3619 81.1287 31.8624 84.0215 31.8624 84.0215C31.8624 84.0215 29.2114 78.3516 28.6376 78.5266C27.796 78.7832 30.04 83.5067 30.04 83.5067C30.04 83.5067 27.3748 78.4998 26.718 78.6683C26.0615 78.8371 28.5835 84.5108 28.5835 84.5108C28.5835 84.5108 26.1405 79.8344 25.4593 80.2413C24.9911 80.5211 27.3418 85.4364 27.3418 85.4364C27.3418 85.4364 25.2719 81.6586 24.7953 82.0231C24.319 82.3879 29.2699 92.212 32.3038 99.07" fill="#F99C8B"/>
<path d="M31.862 84.0215C31.862 84.0215 31.649 85.5431 32.2153 86.9572" stroke="#4F4949" stroke-miterlimit="10"/>
<path d="M27.8373 85.6783C28.5429 86.1213 29.9126 87.3082 30.4284 87.9236" stroke="#4F4949" stroke-miterlimit="10"/>
<path d="M38.271 94.0441L34.7506 86.6757L26.9506 92.8923C26.9506 92.8923 30.3334 101.454 32.5494 105.235" fill="#323C66"/>
<path d="M38.271 94.0442L40.8546 99.4566" stroke="#4F4949" stroke-miterlimit="10"/>
<path d="M27.9751 95.4093L36.0341 89.3622" stroke="#4F4949" stroke-miterlimit="10"/>
<path d="M47.9764 102.595L48.8277 179.812" stroke="#AABBF7" stroke-miterlimit="10"/>
</g>
</svg>
