<svg width="139" height="102" viewBox="0 0 139 102" fill="none" xmlns="http://www.w3.org/2000/svg">
<path d="M15.0841 37.0783C13.2141 37.9672 10.3839 39.3337 9.57295 41.2386C8.64997 43.4073 8.49461 43.8605 9.04461 46.1522C11.4166 56.0334 13.4363 65.4005 15.8369 75.2748C16.9259 79.7546 14.8406 96.0749 15.3035 100.662C26.1431 101.24 55.1846 101.266 55.1546 100.81C54.4631 90.3213 55.3224 68.5277 56.6419 61.7188C58.1697 53.8325 53.3372 34.8663 52.6365 34.6187C47.4937 32.8028 48.3402 33.0061 42.895 32.6963C37.5531 32.3925 30.8101 31.7959 25.4585 32.0389C20.9451 32.2445 19.1466 34.7571 15.0841 37.0783Z" fill="#FAFAFA"/>
<path d="M27.1529 100.304C28.7204 100.612 30.2939 100.7 31.8885 100.711C33.2237 100.719 34.6565 100.904 35.9802 100.731C36.9004 100.612 37.8183 100.369 38.7048 100.1C39.3908 99.8914 40.2589 99.6784 40.796 99.1717C41.0123 98.9679 40.6858 98.642 40.4701 98.8458C39.9076 99.3764 38.9132 99.565 38.194 99.7683C37.3757 99.9997 36.5016 100.253 35.6491 100.309C34.4832 100.386 33.2606 100.257 32.0891 100.251C30.4677 100.242 28.8716 100.174 27.276 99.86C26.9855 99.8029 26.8615 100.247 27.1529 100.304Z" fill="#E8E5E2"/>
<path d="M29.4862 73.9696C30.4142 74.4468 31.2183 75.1812 32.0753 75.7745C32.9969 76.4121 33.9415 77.0165 34.9069 77.5854C35.7497 78.0824 36.6302 78.6601 37.5422 79.0206C37.9958 79.1999 38.3531 79.2659 38.6979 78.8952C38.8999 78.678 38.5744 78.3512 38.372 78.5692C37.8022 79.1819 34.3016 76.6873 33.7073 76.3079C32.3676 75.4518 31.1274 74.296 29.7185 73.5717C29.4553 73.4362 29.222 73.8336 29.4862 73.9696Z" fill="#E8E5E2"/>
<path d="M29.4958 81.642C31.8715 84.6014 35.2222 86.5759 38.9616 87.2218C39.2516 87.2721 39.3765 86.8277 39.0842 86.7774C35.4112 86.1426 32.1555 84.2224 29.8218 81.3161C29.636 81.0847 29.3119 81.4129 29.4958 81.642Z" fill="#E8E5E2"/>
<path d="M28.4635 37.567C31.8511 39.5808 36.0238 39.7131 39.5382 37.9354C39.8029 37.8012 39.57 37.4034 39.3054 37.5375C35.9376 39.2415 31.9387 39.0967 28.6958 37.1692C28.4404 37.017 28.2085 37.4154 28.4635 37.567Z" fill="#E8E5E2"/>
<path d="M32.9655 41.9052C34.2443 42.1205 35.5232 42.3358 36.8021 42.5511C37.0921 42.5999 37.217 42.156 36.9248 42.1066C35.6459 41.8913 34.367 41.676 33.0881 41.4607C32.7976 41.4114 32.6732 41.8558 32.9655 41.9052Z" fill="#E8E5E2"/>
<path d="M26.3507 31.0071C26.3374 31.3842 25.5416 31.6714 25.4591 32.0393C27.8694 33.4842 28.3875 36.2849 34.184 36.2877C41.5664 36.2914 43.2898 33.2255 42.896 32.6967C42.6941 32.4257 42.3903 32.2463 42.1791 31.9822C41.8043 31.5137 42.2889 24.0059 41.9602 21.9553C41.9325 21.782 31.109 23.6505 26.5683 22.586C26.8196 24.91 27.0985 31.0956 26.3507 31.0071Z" fill="#F29E91"/>
<path d="M25.7947 21.8562C26.3466 23.5979 26.9574 25.4162 28.2912 26.6647C30.233 28.482 33.2006 31.2178 35.8598 31.2597C37.6394 31.2878 39.5554 28.6618 40.8938 27.489C42.2912 26.265 42.5406 24.2199 42.6964 22.3693C42.8624 20.4012 43.4926 19.1333 43.6581 17.1652C43.9186 14.0731 44.3579 7.33892 39.4047 4.50822C36.5864 2.89739 32.0993 3.79454 29.0297 4.85075C21.1231 7.57081 24.0954 16.4931 25.7947 21.8562Z" fill="#FFAF9D"/>
<path d="M26.7728 8.80128C32.2143 9.84413 36.2045 9.85335 41.5657 8.45552C42.6962 12.7122 42.7792 16.2976 43.1494 18.5976C43.9838 16.807 44.3637 16.9905 44.7049 16.2768C45.046 15.5627 44.7685 9.05901 44.4744 7.74002C45.8053 6.83179 45.4642 4.96371 45.0091 3.41835C44.4545 1.53413 42.5002 0.336393 40.5538 0.0736078C38.6069 -0.189177 36.6461 0.299507 34.7426 0.784506C32.8938 1.25521 31.0451 1.72592 29.1969 2.19663C27.6672 2.5862 26.1145 2.97854 24.5359 2.94673C22.9573 2.91492 21.3226 2.40548 20.2557 1.24185C20.306 3.91811 21.5074 6.37446 23.8089 7.74002C22.8716 11.1622 22.749 16.8485 24.3778 17.5622C27.4717 18.9181 26.3837 8.7266 26.7728 8.80128Z" fill="#312553"/>
<path d="M26.4672 18.7646L26.4524 17.7859C26.2565 16.7181 25.8231 15.667 25.0846 15.0695C24.3455 14.4725 23.2672 14.4577 22.6444 15.2332C22.1746 15.8187 22.0446 16.725 22.1478 17.5415C22.2511 18.3585 22.5563 19.1113 22.8574 19.8485C23.1584 20.5861 23.4724 21.3445 23.9823 21.8761C24.4922 22.4076 25.2533 22.6571 25.8337 22.2523C26.7304 21.6267 26.6594 20.02 26.4672 18.7646Z" fill="#FFAF9D"/>
<path d="M45.4784 15.3829C45.3134 15.0321 45.0985 14.6979 44.8003 14.4978C44.0649 14.0049 43.2766 14.7181 42.6155 15.3562C41.2066 16.7158 41.7704 22.3735 42.6966 22.3689C44.0543 22.4583 44.626 21.2255 45.353 19.8927C46.0796 18.5594 46.1294 16.7674 45.4784 15.3829Z" fill="#FFAF9D"/>
<path d="M35.0037 15.6411C35.06 16.9762 35.2803 18.2869 35.7206 19.552C35.899 20.0646 36.1107 20.569 36.3522 21.0554C36.6136 21.5819 37.0641 22.018 36.4403 22.6427C36.1153 22.9686 35.3523 23.0608 34.9466 23.089C34.6524 23.1093 34.6501 23.5707 34.9466 23.55C35.8557 23.4868 37.556 23.0516 37.3448 21.9083C37.2835 21.5773 36.9027 21.1314 36.7501 20.8226C36.4684 20.2532 36.2319 19.6622 36.041 19.0564C35.6907 17.9444 35.5136 16.8047 35.4648 15.6411C35.4523 15.3451 34.9913 15.3437 35.0037 15.6411Z" fill="#D37A71"/>
<path d="M32.2795 25.1424C33.6718 25.6339 35.0871 25.7662 36.5486 25.5689C36.8413 25.5292 36.7169 25.0853 36.426 25.1245C35.0521 25.3102 33.7082 25.159 32.4017 24.698C32.1218 24.5989 32.001 25.0442 32.2795 25.1424Z" fill="#D37A71"/>
<path d="M33.5809 26.6882C34.0419 26.7643 34.5034 26.8408 34.9644 26.9169C35.2549 26.9648 35.3794 26.5209 35.0871 26.4725C34.626 26.3964 34.165 26.3199 33.7035 26.2438C33.4131 26.1954 33.2881 26.6398 33.5809 26.6882Z" fill="#D37A71"/>
<path d="M24.902 16.3082C21.4582 14.5839 23.7993 22.0613 25.1127 21.5509C25.3861 21.4449 25.2672 20.9986 24.9901 21.1065C24.4622 21.3117 22.3756 15.5581 24.6692 16.7065C24.9339 16.8388 25.1676 16.4414 24.902 16.3082Z" fill="#D37A71"/>
<path d="M43.4357 16.2976C44 16.4216 44.2669 16.6964 44.2369 17.1219C44.2485 17.3123 44.2499 17.5032 44.2402 17.6941C44.224 18.1187 44.1627 18.5405 44.0673 18.9541C43.8907 19.718 43.6256 20.6732 42.9014 21.0799C42.6427 21.2251 42.8746 21.6234 43.1342 21.4777C44.5408 20.6884 44.8552 18.2335 44.6749 16.7955C44.5795 16.0349 43.5413 14.9229 43.0374 16.0644C42.9189 16.3336 43.3158 16.5687 43.4357 16.2976Z" fill="#D37A71"/>
<path d="M31.1047 18.3247C31.4041 18.3247 31.6468 17.9305 31.6468 17.4442C31.6468 16.9578 31.4041 16.5636 31.1047 16.5636C30.8052 16.5636 30.5625 16.9578 30.5625 17.4442C30.5625 17.9305 30.8052 18.3247 31.1047 18.3247Z" fill="#312553"/>
<path d="M39.3552 17.1486C39.3552 17.635 39.1127 18.0292 38.813 18.0292C38.5138 18.0292 38.2709 17.635 38.2709 17.1486C38.2709 16.6622 38.5134 16.2681 38.813 16.2681C39.1122 16.2681 39.3552 16.6622 39.3552 17.1486Z" fill="#312553"/>
<path d="M29.1513 14.4977C30.2237 14.1902 31.1762 14.1256 32.2794 14.3036C32.5699 14.3506 32.6943 13.9062 32.402 13.8592C31.2195 13.6683 30.1808 13.7227 29.0287 14.0532C28.7438 14.1348 28.865 14.5797 29.1513 14.4977Z" fill="#312553"/>
<path d="M37.4069 14.2732C38.3534 14.2036 39.2994 14.1339 40.2459 14.0648C40.54 14.0431 40.5423 13.5821 40.2459 13.6038C39.2994 13.6734 38.3534 13.743 37.4069 13.8121C37.1128 13.8338 37.1105 14.2953 37.4069 14.2732Z" fill="#312553"/>
<path d="M23.5199 4.46907C25.4705 6.00797 27.6529 7.11997 30.0484 7.7797C30.3347 7.85853 30.4569 7.41409 30.1711 7.33526C27.8563 6.69766 25.7309 5.63039 23.8458 4.14312C23.6153 3.96148 23.287 4.28558 23.5199 4.46907Z" fill="#3F3468"/>
<path d="M28.4095 4.19741C29.8792 5.86587 31.6477 7.16966 33.6781 8.07742C33.9469 8.19728 34.1815 7.80033 33.9109 7.67908C31.916 6.787 30.1803 5.51133 28.7354 3.871C28.539 3.64833 28.214 3.97566 28.4095 4.19741Z" fill="#3F3468"/>
<path d="M32.1368 4.24223C33.4687 5.21545 34.8006 6.18867 36.1325 7.16189C36.3723 7.33708 36.6028 6.93738 36.3653 6.76404C35.0334 5.79081 33.7015 4.81758 32.3696 3.84436C32.1294 3.66917 31.8994 4.06888 32.1368 4.24223Z" fill="#3F3468"/>
<path d="M35.7582 2.76325C36.5904 3.98451 37.6438 4.99969 38.8973 5.78251C39.1495 5.94019 39.3814 5.54139 39.1302 5.38465C37.9444 4.64378 36.944 3.68622 36.1565 2.53043C35.9901 2.28655 35.5904 2.51706 35.7582 2.76325Z" fill="#3F3468"/>
<path d="M38.6922 2.05981C39.5336 2.85877 40.2509 3.75592 40.8429 4.75358C40.9941 5.00852 41.3929 4.7771 41.2407 4.52077C40.6294 3.49038 39.8867 2.55817 39.0177 1.7334C38.8033 1.52962 38.4764 1.85511 38.6922 2.05981Z" fill="#3F3468"/>
<path d="M26.7729 54.9583C27.4193 55.0607 28.0952 55.1473 28.7176 54.944C29.3399 54.7407 29.8881 54.1612 29.8369 53.5084C29.8014 53.0575 29.4981 52.6689 29.4174 52.2235C29.2897 51.5186 29.7314 50.8501 29.8955 50.153C30.0047 49.6893 30.2293 48.0217 29.558 47.8991C28.9209 47.782 28.5304 49.0074 28.3308 49.4048C27.9481 50.1669 27.3967 50.6381 27.2266 51.5016C27.0039 52.6334 26.9232 53.8141 26.7729 54.9583Z" fill="#FFAF9D"/>
<path d="M41.5659 102C46.226 101.581 52.318 102.006 56.9388 101.271C57.8111 83.0893 56.5377 63.356 55.2529 44.1778C55.1671 42.9012 57.327 38.9483 56.4856 37.9977C55.8328 37.2601 41.8674 30.9993 42.1782 31.9822C42.8964 34.2537 43.5861 41.9017 43.4432 44.1861C42.8785 53.2033 43.2219 57.4636 42.8471 66.491C42.4207 76.7903 41.9933 91.7003 41.5659 102Z" fill="#CC993E"/>
<path d="M43.8646 33.9683C44.9212 36.7709 46.2407 39.4753 47.1969 42.3152C47.6556 43.678 48.0152 45.0722 48.2305 46.4949C48.3596 47.3482 48.591 48.0389 47.9705 48.6589C47.4965 49.1329 46.8525 49.8018 46.237 50.0402C46.0687 50.1052 46.0171 50.2854 46.1351 50.4256C46.639 51.0245 47.3329 51.4422 47.7782 52.0936C48.6154 53.3176 48.0912 54.7279 47.6334 55.9929C47.5325 56.2723 47.9778 56.3927 48.0779 56.1156C48.5043 54.9377 49.0045 53.5901 48.4734 52.3568C48.059 51.3947 47.1116 50.8728 46.4611 50.0996C46.4269 50.2283 46.3933 50.3564 46.3592 50.4851C47.3112 50.1167 47.9184 49.1864 48.7823 48.6654C48.8482 48.6253 48.9022 48.5465 48.8967 48.4662C48.5324 43.2138 46.1342 38.6856 44.309 33.8462C44.2053 33.5709 43.7594 33.6899 43.8646 33.9683Z" fill="#AD7B34"/>
<path d="M46.5233 81.5638C47.8539 79.3781 49.4034 77.3588 51.1709 75.5082C51.3761 75.2939 51.0502 74.967 50.845 75.1823C49.0502 77.061 47.4763 79.1116 46.125 81.331C45.9706 81.585 46.3694 81.8169 46.5233 81.5638Z" fill="#C4903B"/>
<path d="M46.5145 89.2408C48.0825 86.7545 50.2267 84.7762 52.8255 83.4042C53.0878 83.2654 52.8555 82.8676 52.5927 83.0064C49.927 84.4134 47.7238 86.4594 46.1162 89.0085C45.9576 89.2597 46.3564 89.4916 46.5145 89.2408Z" fill="#C4903B"/>
<path d="M70.7396 77.1213C70.7318 78.6266 69.8439 78.8889 67.4968 80.8077C63.9727 83.6891 61.142 77.3638 59.645 74.2671C58.687 72.2852 49.7768 57.7808 50.9293 46.8444C51.2714 43.6006 52.3936 36.2449 56.4866 37.9973C59.5639 39.3149 61.5348 43.578 62.532 45.9122C67.6028 57.7808 70.7903 67.674 70.7396 77.1213Z" fill="#C4903B"/>
<path d="M41.2066 50.6421C40.0499 50.3692 39.4607 48.6781 38.2823 48.5232C37.8951 48.4721 37.4977 48.4283 37.1182 48.5195C35.9781 48.7939 35.4456 50.1239 34.4461 50.7375C33.886 51.0815 33.2018 51.1834 32.6468 51.5365C32.0921 51.8892 31.7086 52.6946 32.1318 53.1976C32.5121 53.6498 33.2383 53.5277 33.7767 53.2843C34.3152 53.0404 34.8873 52.7061 35.4576 52.8615C35.3871 53.7969 35.3166 54.7323 35.246 55.6682C35.2004 56.2735 35.1787 56.9536 35.5853 57.4044C35.7702 57.6091 36.0224 57.7382 36.2663 57.8673C39.6142 59.6372 41.5561 62.2116 44.3591 64.7583C46.093 63.0414 48.7273 61.3246 50.4608 59.6077C49.9398 60.1236 46.0064 56.0878 45.6269 55.5968C44.4735 54.1044 41.6294 50.7422 41.2066 50.6421Z" fill="#FFAF9D"/>
<path d="M56.9393 79.0232C58.2763 80.735 66.8053 87.0004 70.263 79.0232C72.593 73.6477 66.1428 68.6446 63.3195 66.948C61.214 65.683 52.8763 59.342 47.5482 56.6118C46.8862 56.2725 41.116 63.0275 43.4437 64.937C50.4615 70.6943 53.1207 74.135 56.9393 79.0232Z" fill="#C4903B"/>
<path d="M52.5461 39.9295C50.4631 42.5186 50.4235 46.2686 50.4064 49.4368C50.3954 51.5192 50.5461 53.6339 51.1902 55.6274C51.8628 57.7108 53.1039 59.5176 54.3482 61.2948C54.5169 61.5359 54.9171 61.3059 54.7461 61.062C53.606 59.4337 52.4456 57.7804 51.7674 55.8953C51.0717 53.9617 50.8758 51.8931 50.8661 49.8508C50.8518 46.7121 50.8015 42.8298 52.872 40.2554C53.056 40.0263 52.7319 39.6981 52.5461 39.9295Z" fill="#AD7B34"/>
<path d="M54.3566 61.3261C58.4778 63.4666 63.118 66.0285 64.1332 70.9799C64.1926 71.2704 64.6371 71.1473 64.5776 70.8573C63.538 65.7888 58.8148 63.1227 54.589 60.9277C54.3267 60.7917 54.0929 61.1891 54.3566 61.3261Z" fill="#AD7B34"/>
<path d="M61.8459 65.9458C63.2723 66.2049 64.4387 67.0974 65.0602 68.4077C65.1874 68.6755 65.5848 68.4418 65.458 68.1748C64.7914 66.7692 63.4991 65.7789 61.9681 65.5009C61.6781 65.4483 61.5541 65.8928 61.8459 65.9458Z" fill="#AD7B34"/>
<path d="M27.1966 42.8817C27.8582 60.4334 27.4557 82.6355 25.992 100.139C25.9685 100.422 25.9367 100.724 25.755 100.942C25.4858 101.266 25.0031 101.28 24.5826 101.268C20.7994 101.162 17.0158 101.057 13.2326 100.951C12.8417 100.94 12.4074 100.911 12.1381 100.627C11.8689 100.343 11.8625 99.9074 11.8721 99.5164C12.2769 83.0555 12.6822 61.9843 13.0869 45.5238C13.1095 44.6152 13.127 43.6779 12.7928 42.8324C12.1773 41.2741 9.63938 40.6771 9.58729 39.0022C9.57346 38.5554 26.3502 31.0066 26.3502 31.0066C25.459 34.0544 27.0726 39.5937 27.1966 42.8817Z" fill="#CC993E"/>
<path d="M24.6052 32.7355C22.3757 37.6279 21.9179 43.2164 20.8418 48.4306C20.8206 48.5339 20.8566 48.6344 20.9479 48.6911C21.4559 49.0069 21.964 49.3232 22.4637 49.6519C22.6606 49.7814 23.0907 49.9672 23.218 50.171C23.4135 50.484 23.4125 50.2356 23.2217 50.6247C22.916 51.2484 22.2097 51.8616 21.7335 52.3489C21.5343 52.5527 21.3149 52.6965 21.2517 52.9763C21.1014 53.6425 21.6459 54.72 21.8607 55.3322C22.141 56.1302 22.4338 57.0583 23.0165 57.6922C23.218 57.9112 23.543 57.5843 23.3425 57.3662C22.6606 56.6249 22.3586 55.4299 22.0677 54.4913C21.9566 54.1335 21.7468 53.6799 21.7501 53.2991C21.7542 52.809 22.1341 52.6066 22.4854 52.2253C22.8233 51.8593 23.9704 50.8533 23.8685 50.2365C23.7855 49.7326 22.691 49.2494 22.3383 49.0226C22.1161 48.8792 21.8437 48.757 21.645 48.5832C21.2775 48.261 21.4038 48.4519 21.4103 47.9424C21.4186 47.3191 21.6699 46.6017 21.7837 45.9863C22.0567 44.5092 22.3185 43.0302 22.6057 41.5563C23.1714 38.6546 23.7698 35.6736 25.0026 32.9688C25.1252 32.7 24.7283 32.4653 24.6052 32.7355Z" fill="#AD7B34"/>
<path d="M15.7921 82.3592C17.6505 85.1295 19.9423 87.5273 22.6231 89.5125C22.862 89.6891 23.092 89.2894 22.856 89.1146C20.2401 87.1774 18.0032 84.8299 16.1904 82.1264C16.0259 81.8811 15.6261 82.1116 15.7921 82.3592Z" fill="#C4903B"/>
<path d="M15.4814 88.5846C17.4163 90.4559 19.5915 92.0086 21.9916 93.2281C22.2557 93.3622 22.489 92.9644 22.2244 92.8302C19.8593 91.6288 17.7151 90.1032 15.8074 88.2586C15.5944 88.0521 15.268 88.3776 15.4814 88.5846Z" fill="#C4903B"/>
<path d="M40.8149 45.1541H30.9056C30.2703 45.1541 29.7554 45.669 29.7554 46.3043V65.8034C29.7554 66.4387 30.2703 66.9537 30.9056 66.9537H40.8149C41.4502 66.9537 41.9652 66.4387 41.9652 65.8034V46.3043C41.9652 45.669 41.4502 45.1541 40.8149 45.1541Z" fill="#312553"/>
<path d="M39.3669 47.4491H38.2591C37.8441 47.4491 37.5081 47.7856 37.5081 48.2006C37.5081 48.6155 37.8441 48.9516 38.2591 48.9516H39.3669C39.7818 48.9516 40.1184 48.6155 40.1184 48.2006C40.1184 47.7856 39.7818 47.4491 39.3669 47.4491Z" fill="#FAFAFA"/>
<path d="M28.723 52.5221C29.4145 52.0611 30.4048 54.5792 31.6427 54.5197C32.4841 54.4796 34.573 54.795 35.8601 54.5967C37.9463 54.2754 40.1182 53.1367 40.1182 54.9042C38.813 55.5188 37.6623 56.2103 36.4452 56.4026C34.0409 56.7824 33.4153 56.8534 32.833 56.9374C33.182 57.0508 34.4333 57.3564 36.4069 57.2859C38.0187 57.2283 39.4036 55.8645 39.9416 57.1324C40.1348 57.5879 38.4571 58.4657 36.9449 58.7842C35.164 59.1595 33.7947 59.3398 32.833 59.3605C33.1184 59.3439 34.6398 59.5528 36.7928 59.4135C38.2695 59.3181 39.5188 58.6307 39.5682 60.1599C39.2501 61.1235 32.833 60.822 32.833 61.5886C33.0949 61.6684 33.4808 62.0944 34.5753 62.4028C35.5563 62.6794 37.9435 61.614 37.5079 63.1252C37.3603 63.6379 32.4799 63.5309 31.9516 63.6056C30.7197 63.779 30.6473 63.9694 29.4201 63.7656C29.0323 63.7015 28.6336 63.6186 28.2514 63.7108C27.8706 63.8025 27.5529 64.0579 27.2496 64.3055C25.4797 65.7517 23.7098 67.1975 21.9399 68.6437C21.1737 67.298 20.4075 65.9527 19.6408 64.607C19.5315 64.4147 19.419 64.2137 19.4075 63.9929C19.3877 63.6135 19.6634 63.2898 19.9239 63.0137C21.1898 61.6698 20.1262 61.5158 21.3457 60.1599C22.4553 58.9267 27.2989 53.4714 28.723 52.5221Z" fill="#FFAF9D"/>
<path d="M2.83783 82.2426C5.88429 84.9695 11.5189 82.3375 14.8946 80.0296C22.3457 74.9358 26.6351 65.3446 26.3543 64.7568C25.6508 63.2842 25.6217 59.1346 23.158 57.7441C22.5762 57.4158 14.5645 63.4106 12.595 65.5442C12.8725 65.4585 15.4077 59.7851 16.2371 57.4297C17.7433 53.1541 18.3394 46.525 16.8134 41.995C15.1694 37.115 11.7827 37.4926 9.58817 39.002C3.10015 43.4647 -4.11537 76.0187 2.83783 82.2426Z" fill="#C4903B"/>
<path d="M15.652 40.5479C17.6501 44.2393 17.5071 48.4642 16.5339 52.4359C15.5293 56.5363 14.0683 60.5145 12.9107 64.5724C12.8291 64.8582 13.274 64.9804 13.3551 64.695C14.6008 60.3273 16.2513 56.0411 17.201 51.5941C18.0124 47.7938 17.9336 43.7949 16.0498 40.3155C15.9088 40.0541 15.5104 40.2865 15.652 40.5479Z" fill="#AD7B34"/>
<path d="M15.1325 63.3958C11.3668 65.6253 8.62325 69.2213 7.4693 73.4429C7.39093 73.7297 7.83582 73.8518 7.91373 73.5655C9.03679 69.4564 11.6992 65.9641 15.3648 63.7936C15.6202 63.6429 15.3883 63.2441 15.1325 63.3958Z" fill="#AD7B34"/>
<path d="M10.7353 65.671C8.62981 66.6719 6.936 68.2836 5.82585 70.3324C5.68431 70.5934 6.08264 70.8262 6.22417 70.5653C7.30021 68.5787 8.92855 67.0389 10.9686 66.0689C11.236 65.9416 11.0022 65.5442 10.7353 65.671Z" fill="#AD7B34"/>
<path d="M71.0567 59.5498C67.5897 58.1815 63.6459 59.593 61.8337 62.85L50.8141 88.8655C48.9784 92.1658 49.9 96.3172 52.9593 98.531C56.5823 101.153 61.682 100.017 63.8507 96.1058L77.3439 71.5765C79.5206 67.6506 75.2316 61.1971 71.0567 59.5498Z" fill="#FD404E"/>
<path d="M50.8139 88.8651L43.5426 101.12H61.0153L63.4729 96.716L50.8139 88.8651Z" fill="#FD404E"/>
<path d="M87.7585 58.3484L100.802 57.3878C104.465 57.1182 107.521 60.1456 107.287 63.8103L107.28 71.7838L106.043 100.977H74.1234L65.0184 70.5846L67.0001 59.0121L75.2555 58.6096L87.7585 58.3484Z" fill="#FD404E"/>
<path d="M69.5569 85.7327C69.5569 85.7327 65.0189 79.4882 69.261 69.1896" stroke="#B7152C" stroke-width="1.0712" stroke-miterlimit="10" stroke-linecap="round" stroke-linejoin="round"/>
<path d="M94.064 66.1668C92.3453 69.4741 90.7754 69.9076 93.8282 72.0458L122.273 93.8954C125.366 96.0617 129.59 95.5737 132.108 92.7586C135.089 89.4255 134.485 84.2355 130.819 81.6751L105.012 58.7057C101.332 56.1364 96.1336 62.1845 94.064 66.1668Z" fill="#FD404E"/>
<path d="M106.511 81.7884L98.7374 75.7003" stroke="#B7152C" stroke-width="1.0712" stroke-miterlimit="10" stroke-linecap="round" stroke-linejoin="round"/>
<path d="M124.207 54.1063C124.207 54.1063 119.396 54.693 118.469 48.6604L117.283 40.8593C117.157 40.0349 117.782 39.2862 118.615 39.2618C119.181 39.2453 119.701 39.5737 119.928 40.0918L121.751 44.2197L123.854 30.865C123.998 29.9495 124.928 29.3802 125.808 29.6682C126.491 29.8913 126.921 30.5649 126.836 31.2774L125.839 39.638L126.58 40.0288L129.597 32.0891C129.922 31.2347 130.946 30.8899 131.721 31.3742C132.307 31.7401 132.553 32.4687 132.31 33.115L129.366 40.941L130.123 41.4464L133.516 35.1869C133.836 34.597 134.582 34.3903 135.16 34.7313C135.7 35.0498 135.898 35.7327 135.613 36.2908L132.192 42.9824L132.804 43.4254L136.416 38.7286C136.822 38.2007 137.612 38.1819 138.043 38.6906C138.351 39.0541 138.373 39.5802 138.099 39.9696L134.068 45.6702C134.068 45.6702 132.415 54.073 128.218 54.3821L124.207 54.1063Z" fill="#FE9575"/>
<path d="M121.751 44.2197C121.751 44.2197 125.2 42.9655 126.484 48.7694" stroke="#E56B53" stroke-width="1.085" stroke-miterlimit="10" stroke-linecap="round" stroke-linejoin="round"/>
<path d="M129.31 53.2222L130.802 65.8789L121.718 66.6736L121.048 51.3856L129.31 53.2222Z" fill="#FE9575"/>
<path d="M131.921 56.72L134.006 87.6323L119.22 80.7462L119.504 57.1103L131.921 56.72Z" fill="#FD404E"/>
<path d="M119.331 71.4507L119.219 78.744" stroke="#B7152C" stroke-width="1.0712" stroke-miterlimit="10" stroke-linecap="round" stroke-linejoin="round"/>
<path d="M69.8027 30.4253C69.8027 30.4253 68.7547 38.7403 68.9755 47.2281C69.1962 55.716 65.0185 59.8087 65.0185 59.8087C65.0185 59.8087 66.7842 58.6804 70.2113 60.4865C73.6379 62.2926 79.5644 72.176 94.106 60.8308C94.106 60.8308 100.111 57.2905 105.012 58.7062C105.012 58.7062 100.041 51.9526 98.9563 46.0102C97.8718 40.0677 101.188 31.9425 92.3239 24.0394L69.8027 30.4253Z" fill="#208CED"/>
<path d="M84.9609 19.4818C84.9609 19.4818 73.829 17.5146 70.2689 28.2726C67.1819 37.6012 73.3578 46.3061 73.3578 46.3061L93.0809 42.6893L84.9609 19.4818Z" fill="#208CED"/>
<path d="M73.9713 25.6149C73.0562 26.4543 72.4982 27.6028 72.3051 28.8255C71.7321 32.4489 70.6245 39.9818 72.0515 43.7452C73.9074 48.6392 78.0639 51.613 84.5245 50.1104C84.5245 50.1104 92.056 49.4603 93.467 38.2965C95.4689 22.4579 81.8081 18.4273 73.9713 25.6149Z" fill="#FE9575"/>
<path d="M77.6952 23.9072C77.6952 23.9072 77.032 26.641 84.0886 29.1404C90.5623 31.4331 90.4566 37.6602 90.4566 37.6602L93.6108 34.2843C93.6108 34.2843 94.6047 23.5874 84.8557 22.0753C84.8557 22.0753 79.4059 21.0227 77.6952 23.9072Z" fill="#171717"/>
<path d="M78.475 23.821C78.475 23.821 77.3195 25.8277 74.9089 27.1124C72.7933 28.2397 72.0098 29.3915 72.0098 29.3915C72.0098 29.3915 73.0953 21.9417 82.6128 21.859L78.475 23.821Z" fill="#171717"/>
<path d="M74.0036 36.7812C73.9017 37.2452 73.4427 37.5388 72.9787 37.4364C72.5146 37.3345 72.221 36.8756 72.3234 36.4115C72.4253 35.9474 72.8842 35.6538 73.3483 35.7562C73.8119 35.8581 74.1055 36.3171 74.0036 36.7812Z" fill="#171717"/>
<path d="M81.2745 36.6317C81.1725 37.0958 80.7136 37.3893 80.2495 37.2869C79.7854 37.185 79.4919 36.7261 79.5943 36.262C79.6962 35.7979 80.1551 35.5043 80.6192 35.6063C81.0828 35.7087 81.3764 36.1676 81.2745 36.6317Z" fill="#171717"/>
<path d="M75.5232 38.2668L74.7567 40.3482L76.1489 40.6634" stroke="#E56B53" stroke-width="1.085" stroke-miterlimit="10" stroke-linecap="round" stroke-linejoin="round"/>
<path d="M78.7982 30.9528C78.6709 31.531 79.0683 32.0904 79.6559 32.1599C80.5427 32.2652 81.8265 32.501 82.9792 33.0303C83.408 33.2271 83.9144 33.0656 84.1276 32.6447C84.332 32.2412 84.1638 31.7917 83.8073 31.5141C83.0769 30.9452 81.9162 30.1026 79.794 30.166C79.3172 30.1801 78.9006 30.4873 78.7982 30.9528Z" fill="#171717"/>
<path d="M74.5815 31.0631C74.643 31.6376 74.3588 32.1886 73.9675 32.2515C73.3771 32.3469 72.5194 32.5677 71.7364 33.0811C71.4451 33.2718 71.1168 33.1064 70.9919 32.687C70.8721 32.2849 71.0008 31.841 71.2479 31.5695C71.7533 31.0129 72.5532 30.1895 73.9539 30.2735C74.2682 30.2923 74.5317 30.6009 74.5815 31.0631Z" fill="#171717"/>
<path d="M75.5593 43.1293C75.5593 43.1293 78.2771 44.0429 79.8009 42.0546" stroke="#E56B53" stroke-width="1.085" stroke-miterlimit="10" stroke-linecap="round" stroke-linejoin="round"/>
<path d="M78.4147 22.3371C78.4147 22.3371 93.0395 21.9102 90.457 37.6604C87.8749 53.4101 78.7374 50.1911 78.7374 50.1911L86.1712 55.6281C86.1712 55.6281 98.1557 52.8695 98.7193 38.6449C98.9969 31.6367 97.6935 24.0056 92.3964 21.1112C86.5202 17.9006 79.7539 19.7048 78.4147 22.3371Z" fill="#208CED"/>
<path d="M87.4193 46.8302C87.4193 46.8302 85.4061 51.9675 76.7928 52.3175" stroke="#0F7AD3" stroke-width="0.8137" stroke-miterlimit="10" stroke-linecap="round" stroke-linejoin="round"/>
<path d="M71.3526 42.1293C71.3526 42.1293 70.8885 54.7117 86.1714 55.6281" stroke="#0F7AD3" stroke-width="0.8137" stroke-miterlimit="10" stroke-linecap="round" stroke-linejoin="round"/>
<path d="M66.9861 57.3713C66.9861 57.3713 69.5893 55.0086 74.9418 55.6056C80.2942 56.2026 87.2273 57.8819 91.9809 51.2005C97.7885 43.0387 98.2348 34.0919 97.2483 27.7831" stroke="#0F7AD3" stroke-width="0.8137" stroke-miterlimit="10" stroke-linecap="round" stroke-linejoin="round"/>
</svg>
