<svg width="27" height="40" viewBox="0 0 27 40" fill="none" xmlns="http://www.w3.org/2000/svg">
<path fill-rule="evenodd" clip-rule="evenodd" d="M16.3353 27.0348C16.3335 28.7208 14.9718 30.0899 13.2951 30.0899C11.6183 30.0899 10.2548 28.7208 10.2548 27.0348C10.2388 26.1543 10.2299 25.6245 10.2299 25.4294C10.2299 23.4553 10.5557 21.8338 11.2107 20.5542C11.8586 19.2834 13.1562 17.8481 15.1089 16.2498C17.0633 14.6605 18.2309 13.6171 18.6119 13.1196C19.2028 12.3374 19.4965 11.473 19.4965 10.5352C19.4965 9.23939 18.9768 8.12259 17.9301 7.20087C16.8924 6.2702 15.4898 5.80665 13.724 5.80665C12.0206 5.80665 10.6019 6.29526 9.45207 7.2653C8.30932 8.24429 7.52256 9.72799 7.09359 11.7253C6.90135 13.2556 5.60196 14.4386 4.02846 14.4386C2.32323 14.4386 0.940186 13.0498 0.940186 11.3352C0.940186 11.2009 0.947306 11.0721 0.963325 10.9432C1.14132 8.08142 2.34993 5.66169 4.59627 3.66433C6.84261 1.66518 9.79382 0.671875 13.441 0.671875C17.284 0.671875 20.3402 1.68308 22.6097 3.69655C24.8792 5.71001 26.0148 8.04921 26.0148 10.732C26.0148 12.2068 25.6019 13.6171 24.767 14.9379C23.9322 16.257 22.1558 18.061 19.4235 20.343C18.0138 21.517 17.138 22.471 16.7963 23.1869C16.4563 23.9046 16.3032 25.1842 16.3353 27.0348ZM13.2951 32.3772C15.205 32.3772 16.7518 33.9343 16.7518 35.8529C16.7518 37.7733 15.205 39.3286 13.2951 39.3286C11.3851 39.3286 9.83832 37.7733 9.83832 35.8529C9.83832 33.9343 11.3851 32.3772 13.2951 32.3772Z" fill="#2F804A"/>
</svg>
