<svg width="61" height="32" viewBox="0 0 61 32" fill="none" xmlns="http://www.w3.org/2000/svg">
<rect x="0.5" y="0.5" width="60" height="31" rx="9.5" fill="#E6F0E9" fill-opacity="0.75" stroke="#E0FEDF"/>
<path d="M14 10C17.3085 10 20.0001 12.6916 20.0001 16.0001C20.0001 19.2474 17.4049 21.8962 14.1806 21.9931C14.1206 21.9991 14.0617 22 14 22C13.9384 22 13.8795 22 13.8195 21.9931C10.5952 21.8962 8 19.2474 8 16.0001C8 12.6916 10.6915 10 14 10ZM14.4445 11.0139V12.8889H15.7361C15.6592 12.6678 15.577 12.4532 15.4861 12.2639C15.1724 11.6102 14.8055 11.202 14.4445 11.0139ZM13.5556 11.0139C13.1946 11.202 12.8277 11.6102 12.5139 12.2639C12.423 12.4532 12.3408 12.6678 12.2639 12.8889H13.5556V11.0139ZM15.9375 11.2708C16.0617 11.4602 16.1807 11.6582 16.2847 11.875C16.4327 12.1832 16.5625 12.5271 16.6736 12.8889H18.0556C17.5094 12.1782 16.78 11.6151 15.9375 11.2708ZM12.0625 11.2708C11.22 11.6151 10.4907 12.1782 9.94445 12.8889H11.3264C11.4375 12.5271 11.5673 12.1832 11.7153 11.875C11.8194 11.6582 11.9383 11.4602 12.0625 11.2708ZM18.6042 13.7778H16.9028C17.0144 14.3355 17.0746 14.9316 17.0973 15.5556H19.0903C19.0358 14.9218 18.868 14.3237 18.6042 13.7778ZM15.9861 13.7778H14.4445V15.5556H16.2084C16.1828 14.9222 16.1067 14.3235 15.9861 13.7778ZM13.5556 13.7778H12.0139C11.8933 14.3235 11.8173 14.9222 11.7917 15.5556H13.5556V13.7778ZM11.0972 13.7778H9.39583C9.13203 14.3237 8.96427 14.9218 8.90974 15.5556H10.9028C10.9255 14.9316 10.9856 14.3355 11.0972 13.7778ZM19.0903 16.4445H17.0973C17.0746 17.0679 17.0144 17.6661 16.9028 18.2223H18.6112C18.8733 17.6772 19.0365 17.0768 19.0903 16.4445ZM16.2084 16.4445H14.4445V18.2223H15.9861C16.1063 17.6768 16.1831 17.0774 16.2084 16.4445ZM13.5556 16.4445H11.7917C11.817 17.0774 11.8938 17.6768 12.0139 18.2223H13.5556V16.4445ZM10.9028 16.4445H8.90974C8.96356 17.0768 9.12672 17.6772 9.3889 18.2223H11.0972C10.9856 17.6661 10.9254 17.0679 10.9028 16.4445ZM18.0556 19.1112H16.6736C16.5624 19.4728 16.4329 19.8094 16.2847 20.1181C16.1798 20.3368 16.063 20.5451 15.9375 20.7362C16.7817 20.3912 17.509 19.8239 18.0556 19.1112ZM15.7431 19.1112H14.4445V20.9931C14.8055 20.805 15.1724 20.3899 15.4861 19.7362C15.5782 19.5445 15.6654 19.3355 15.7431 19.1112ZM13.5556 19.1112H12.257C12.3347 19.3355 12.4219 19.5445 12.5139 19.7362C12.8277 20.3899 13.1946 20.805 13.5556 20.9931V19.1112ZM11.3264 19.1112H9.94445C10.491 19.8239 11.2183 20.3912 12.0625 20.7362C11.9371 20.5451 11.8203 20.3368 11.7153 20.1181C11.5671 19.8094 11.4377 19.4728 11.3264 19.1112Z" fill="#2B8049"/>
<path d="M51.7454 23.2158V26.7479C51.7454 27.0105 51.5272 27.2253 51.2527 27.2253H43.5285C43.2576 27.2253 43.0359 27.0139 43.0359 26.7479V22.8237L39.5697 23.2771C38.9961 23.3521 38.419 23.1851 37.9861 22.8169C37.5533 22.4486 37.3034 21.9168 37.3034 21.3576V17.0958H34.9352C34.7557 17.0958 34.5938 17.0038 34.5058 16.8504C34.4179 16.7003 34.4249 16.5162 34.5164 16.3696L37.3034 12.0226C37.3421 9.74849 38.3627 7.58691 40.1151 6.06971C41.9028 4.52182 44.3062 3.7922 46.7062 4.05132C50.6052 4.4775 53.7934 7.66533 54.1207 11.46C54.2474 12.9056 53.9799 14.3546 53.3465 15.6468C52.2873 17.8186 51.7454 20.3689 51.7454 23.2158ZM53.1495 11.535C52.8609 8.18356 50.0457 5.37077 46.6041 4.99233C44.4505 4.75707 42.3813 5.38782 40.7767 6.77546C39.1967 8.14265 38.2888 10.1031 38.2888 12.1556C38.2888 12.2442 38.2641 12.3294 38.2149 12.4079L35.8219 16.1412H37.7996C38.0706 16.1412 38.2923 16.3526 38.2923 16.6185V21.3576C38.2923 21.644 38.419 21.9134 38.6407 22.1009C38.8624 22.2884 39.1544 22.3771 39.4465 22.3361L43.4687 21.8111C43.606 21.7906 43.7502 21.8349 43.8558 21.9236C43.9614 22.0122 44.0247 22.1452 44.0247 22.2816V26.274H50.7636V23.2192C50.7636 20.2291 51.3372 17.5459 52.4633 15.2411C53.0228 14.0955 53.2586 12.8136 53.1495 11.535Z" fill="#EAD3B5"/>
<path d="M34.3891 16.2902L34.3901 16.2887L37.1543 11.9773C37.2057 9.67536 38.2439 7.49132 40.0169 5.9563C41.8371 4.38024 44.2824 3.63875 46.7223 3.90219L46.7225 3.90221C50.6896 4.33583 53.9364 7.57794 54.2701 11.4469C54.3992 12.9195 54.1268 14.3959 53.4812 15.7128C52.4337 17.8609 51.8954 20.3879 51.8954 23.2158V26.7479C51.8954 27.0971 51.6063 27.3753 51.2527 27.3753H43.5285C43.1799 27.3753 42.8859 27.1019 42.8859 26.7479V22.9946L39.5891 23.4259C38.9746 23.5062 38.3548 23.3275 37.8889 22.9311C37.4234 22.5351 37.1534 21.9619 37.1534 21.3576V17.2458H34.9352C34.7039 17.2458 34.492 17.1268 34.3764 16.9262C34.2588 16.7255 34.2697 16.4816 34.3891 16.2902ZM36.0963 15.9912H37.7996C38.1482 15.9912 38.4423 16.2646 38.4423 16.6185V21.3576C38.4423 21.5989 38.5488 21.8267 38.7375 21.9864C38.9275 22.1471 39.1771 22.2224 39.4257 22.1876L39.4271 22.1874L43.4466 21.6627C43.4471 21.6626 43.4476 21.6626 43.4481 21.6625C43.6299 21.6359 43.8162 21.6944 43.9523 21.8087C44.0908 21.9251 44.1747 22.0996 44.1747 22.2816V26.124H50.6136V23.2192C50.6136 20.2099 51.1909 17.5036 52.3285 15.1752C52.8759 14.0544 53.1068 12.7997 53 11.5478C52.7178 8.27084 49.9613 5.51244 46.5879 5.14144C44.4745 4.91058 42.447 5.52931 40.8748 6.88892C39.327 8.22827 38.4388 10.1476 38.4388 12.1556C38.4388 12.2732 38.4058 12.386 38.3419 12.4877L38.3411 12.4888L36.0963 15.9912Z" stroke="#2B8049" stroke-opacity="0.5" stroke-width="0.3"/>
<path d="M29.3016 12.8272C29.4916 13.0113 29.4916 13.3147 29.3016 13.4988C26.2119 16.4923 26.2119 21.3644 29.3016 24.3579C29.4916 24.542 29.4916 24.8454 29.3016 25.0295C29.2066 25.1216 29.0799 25.1693 28.9532 25.1693C28.8265 25.1693 28.7033 25.1216 28.6048 25.0295C25.1316 21.6644 25.1316 16.1889 28.6048 12.8272C28.8019 12.6431 29.1115 12.6431 29.3016 12.8272Z" fill="#EAD3B5"/>
<path d="M28.5024 25.1392L28.5024 25.1392L28.5004 25.1373C24.9664 21.7133 24.9663 16.1401 28.5005 12.7194L28.5005 12.7194L28.5024 12.7176C28.756 12.4806 29.1567 12.478 29.4059 12.7194C29.6568 12.9625 29.6568 13.3635 29.4059 13.6066C26.3771 16.5411 26.3771 21.3156 29.4059 24.2502C29.6568 24.4932 29.6568 24.8942 29.4059 25.1373C29.2816 25.2578 29.1169 25.3193 28.9532 25.3193C28.7879 25.3193 28.6283 25.2568 28.5024 25.1392Z" stroke="#2B8049" stroke-opacity="0.5" stroke-width="0.3"/>
<path d="M31.3846 23.0146C31.2896 23.1067 31.1629 23.1544 31.0362 23.1544C30.9095 23.1544 30.7863 23.1067 30.6878 23.0146C29.5617 21.927 28.9459 20.4746 28.9459 18.9301C28.9459 17.3856 29.5653 15.9366 30.6878 14.8456C30.8778 14.6615 31.191 14.6615 31.3811 14.8456C31.5711 15.0297 31.5711 15.3332 31.3811 15.5173C30.4415 16.4276 29.9242 17.6379 29.9242 18.9301C29.9242 20.2223 30.4415 21.4326 31.3811 22.343C31.5781 22.5271 31.5781 22.8271 31.3846 23.0146Z" fill="#EAD3B5"/>
<path d="M30.5854 23.1242L30.5854 23.1242L30.5836 23.1225C29.4284 22.0068 28.7959 20.5155 28.7959 18.9301C28.7959 17.3444 29.4322 15.8568 30.5833 14.738L30.5834 14.7379C30.8316 14.4974 31.2372 14.4974 31.4854 14.7379C31.7363 14.9809 31.7363 15.3819 31.4854 15.625C30.5746 16.5075 30.0742 17.6792 30.0742 18.9301C30.0742 20.1806 30.5742 21.3519 31.4845 22.2344C31.7443 22.4782 31.7426 22.8766 31.489 23.1223C31.3646 23.2428 31.1999 23.3044 31.0362 23.3044C30.8709 23.3044 30.7113 23.2418 30.5854 23.1242Z" stroke="#2B8049" stroke-opacity="0.5" stroke-width="0.3"/>
<path d="M33.4678 20.9962C33.3728 21.0882 33.2461 21.1359 33.1194 21.1359C32.9928 21.1359 32.8696 21.0882 32.7711 20.9962C31.5957 19.8574 31.5957 18.0027 32.7711 16.8639C32.9611 16.6798 33.2743 16.6798 33.4643 16.8639C33.6543 17.048 33.6543 17.3515 33.4643 17.5356C32.6725 18.3027 32.6725 19.554 33.4643 20.3211C33.6614 20.5086 33.6614 20.8086 33.4678 20.9962Z" fill="#EAD3B5"/>
<path d="M32.6687 21.1058L32.6686 21.1058L32.6667 21.1039C31.4305 19.9062 31.4305 17.9539 32.6667 16.7562C32.9149 16.5157 33.3205 16.5157 33.5687 16.7562C33.8195 16.9992 33.8195 17.4003 33.5687 17.6433C32.8379 18.3513 32.8377 19.5047 33.5682 20.2129C33.8267 20.4594 33.8266 20.8574 33.5722 21.1039L33.4685 20.9968L33.5722 21.1039C33.4479 21.2244 33.2832 21.2859 33.1194 21.2859C32.9541 21.2859 32.7945 21.2234 32.6687 21.1058Z" stroke="#2B8049" stroke-opacity="0.5" stroke-width="0.3"/>
</svg>
