<svg width="17" height="18" viewBox="0 0 17 18" fill="none" xmlns="http://www.w3.org/2000/svg">
<path d="M16.2822 15.3797L16.2824 15.3796L16.2747 15.3713L13.7047 12.6236C15.7367 9.67878 15.4709 5.47977 13.0065 2.86464C11.6807 1.44739 9.90001 0.65 7.99825 0.65C6.09482 0.65 4.33391 1.4486 2.9913 2.86328L2.99129 2.86328L2.98955 2.86514C1.66441 4.28195 0.9271 6.17467 0.9271 8.1861C0.9271 10.199 1.66532 12.0704 2.98782 13.5052L2.98781 13.5052L2.98955 13.5071C4.3154 14.9246 6.09626 15.7222 7.99825 15.7222C9.49679 15.7222 10.9581 15.2124 12.1616 14.2813L14.7051 17.0009C14.9151 17.2253 15.1913 17.35 15.4806 17.35C15.7776 17.35 16.0648 17.2327 16.2673 16.9884C16.6723 16.5238 16.6796 15.8328 16.2822 15.3797ZM12.8841 8.16625C12.8841 9.57083 12.3763 10.8935 11.456 11.8775C10.5365 12.8607 9.31004 13.3944 8.01681 13.3944C6.72358 13.3944 5.49716 12.8607 4.57766 11.8775C3.65728 10.8935 3.14957 9.57083 3.14957 8.16625C3.14957 6.76168 3.65728 5.439 4.57766 4.45496C5.49716 3.47185 6.72358 2.93809 8.01681 2.93809C9.31004 2.93809 10.5365 3.47185 11.456 4.45496C12.3763 5.439 12.8841 6.76168 12.8841 8.16625Z" fill="white" stroke="white" stroke-width="0.7"/>
</svg>
