<svg width="568" height="429" viewBox="0 0 568 429" fill="none" xmlns="http://www.w3.org/2000/svg">
<path fill-rule="evenodd" clip-rule="evenodd" d="M6.08273 198.877C6.72031 199.594 7.67015 200.214 7.93649 201.053C8.53284 202.918 8.92755 204.877 9.1553 206.825C10.9881 222.698 16.9907 237.26 23.3104 251.708C32.1589 271.934 43.1733 290.996 55.7332 309.082C68.119 326.913 82.105 343.48 98.0689 358.3C107.704 367.249 115.033 371.203 126 378.5C148.767 393.644 169.424 397.723 195.5 406.5C222.478 415.584 238.5 414.5 269.5 422.5C319.668 427.612 318.024 426.425 336.5 427.624C356.043 428.893 359.043 428.893 359.043 428.893C361.087 428.506 361.043 428.893 365.043 428.893C366.556 428.295 368.936 428.397 370.543 428.129C394.043 423.129 415.139 415.142 437.049 406.337C454.795 399.203 471.496 390.034 487.066 379.039C503.438 367.488 518.749 354.673 531.88 339.252C540.034 329.678 547.124 319.527 553.458 308.771C561.944 294.358 566.835 278.756 567.081 261.998C567.374 241.982 552.503 223.071 535.858 218.557C525.832 215.838 515.844 214.78 505.707 216.164C495.654 217.535 485.479 218.522 475.866 222.315C473.163 223.38 470.067 223.413 467.169 224.008C461.397 225.206 455.681 226.563 449.978 228.123C440.852 230.617 431.462 232.375 421.789 231.993C415.899 231.761 410.047 231.895 404.167 230.903C389.672 228.449 377.772 221.427 367.382 211.317C358.092 202.276 351.009 191.651 344.794 180.396C337.17 166.602 329.559 152.802 322.092 138.924C308.469 113.603 292 90.3746 271.927 69.7411C252.519 49.7952 230.82 32.8399 205.64 20.8974C178.945 8.23324 150.67 1.61337 121.032 0.62877C105.713 0.119961 90.8217 2.84947 76.1967 6.29826C58.5046 10.4721 43.9128 20.3779 32.7463 35.069C18.1437 54.2856 9.13014 75.9016 4.51204 99.477C1.66689 114.011 0.214809 128.714 0.0432511 143.488C-0.0297971 149.678 1.40237 155.881 2.09411 162.087C2.37631 164.624 3.54865 167.268 1.46499 169.62C3.00394 179.37 4.54333 189.123 6.08273 198.877Z" fill="#EAD3B5" fill-opacity="0.35"/>
</svg>
