<svg width="46" height="46" viewBox="0 0 46 46" fill="none" xmlns="http://www.w3.org/2000/svg">
<circle cx="23" cy="23" r="23" fill="#EAD3B5" fill-opacity="0.6"/>
<path d="M17.8494 14.3547C18.379 12.2983 19.4321 10.5785 21.0465 9.25609C24.5236 6.40778 29.147 6.23922 32.8065 8.8485C34.6745 10.1804 35.9056 12.0204 36.5677 14.2629C36.6674 14.6007 36.7694 14.9371 36.7961 15.1189C37.3299 18.0505 36.7934 20.611 35.4467 23.0298C34.7754 24.2357 34.0392 25.3973 33.2986 26.5566C32.2656 28.1736 31.7478 29.9906 31.3423 31.8511C31.095 32.9859 30.8325 34.1099 30.2229 35.1138C28.5937 37.7968 25.4259 38.7606 22.711 37.3597C21.0915 36.5239 20.1045 35.1582 19.7264 33.3316C19.6231 32.8327 19.8748 32.4053 20.3089 32.2983C20.753 32.1888 21.1689 32.4747 21.2769 32.9948C21.6928 34.997 23.229 36.1611 24.8456 36.3268C26.6698 36.5137 28.2918 35.5454 29.1133 33.7957C29.5177 32.9343 29.6762 32.0032 29.8807 31.0852C30.3667 28.9037 31.1193 26.8502 32.3815 24.9996C33.3205 23.6229 34.207 22.2011 34.8134 20.6244C36.3145 16.7212 34.9914 12.2886 31.6578 10.0133C27.1448 6.93304 20.9394 9.26687 19.4243 14.6142C19.2231 15.3245 18.7068 15.6127 18.2031 15.2961C17.8762 15.0906 17.7452 14.7595 17.8494 14.3547ZM22.2887 27.2543C21.878 27.078 21.4727 27.2578 21.2521 27.7141C20.5221 29.2244 21.2668 31.1074 22.8123 31.6588C24.5949 32.2948 26.3581 31.072 26.478 29.0531C26.5532 27.7888 27.0226 26.9099 28.2093 26.4252C29.2446 26.0025 30.1071 25.3012 30.6456 24.2644C31.6391 22.3518 31.6461 20.4035 30.7188 18.4712C29.6304 16.2032 27.0985 14.9342 24.6845 15.3913C24.23 15.4774 23.7937 15.6209 23.3648 15.7994C23.3257 15.6649 23.381 15.5734 23.4177 15.481C24.007 13.9944 25.0681 13.1079 26.6165 12.9206C28.1119 12.7397 29.3061 13.3364 30.2148 14.564C30.5564 15.0255 30.7157 15.5694 30.9008 16.1049C31.0441 16.5193 31.4331 16.7158 31.8309 16.6072C32.2373 16.4963 32.4728 16.1047 32.3901 15.6604C32.334 15.3588 32.2454 15.0668 32.134 14.7805C31.2619 12.5395 28.9718 11.0296 26.6764 11.2587C24.2791 11.498 22.6532 12.8244 21.8502 15.1644C21.1297 17.2636 21.7859 19.677 23.4338 21.1925C23.9784 21.6934 24.1582 21.7146 24.7777 21.3513C25.0666 21.1819 25.4056 21.2839 25.5307 21.5779C25.6608 21.8836 25.5287 22.2019 25.2195 22.3278C25.1274 22.3653 25.0312 22.3949 24.9441 22.4422C24.5971 22.6307 24.4212 23.0743 24.5484 23.4263C24.6855 23.8054 25.0594 24.0324 25.4447 23.9581C26.199 23.8127 26.7286 23.3618 27.0124 22.6374C27.3337 21.8175 27.2063 21.0396 26.6467 20.3743C26.0946 19.7179 25.3749 19.5084 24.5514 19.6814C24.4042 19.7123 24.2739 19.7839 24.1378 19.6145C23.752 19.1341 23.4722 18.6024 23.3001 18.0047C23.2461 17.8171 23.2985 17.7147 23.4514 17.6143C24.1912 17.1285 24.9993 16.8942 25.8713 16.9442C28.1804 17.0765 29.8941 19.0607 29.7879 21.4816C29.7263 22.8876 29.2181 24.0431 27.955 24.735C27.6828 24.8841 27.4053 25.025 27.1222 25.1504C25.7971 25.7378 25.1109 26.7926 24.9689 28.2516C24.9404 28.5454 24.9231 28.841 24.8793 29.1324C24.7937 29.703 24.4105 30.0989 23.8907 30.176C23.3764 30.2524 22.891 29.9701 22.6617 29.4511C22.4994 29.0839 22.5563 28.7262 22.7007 28.3623C22.8892 27.8871 22.7107 27.4354 22.2887 27.2543ZM16.0453 20.9238C14.8362 22.4068 14.8362 24.5244 16.0452 26.006C16.5756 26.656 17.0621 26.6324 17.5103 25.9349C17.5103 25.7661 17.5103 25.5973 17.5103 25.4285C17.3606 25.2459 17.1999 25.0717 17.0634 24.8793C16.698 24.3643 16.5632 23.7878 16.6342 23.1512C16.7096 22.4749 17.0814 21.9751 17.5103 21.5033C17.5103 21.3345 17.5103 21.1657 17.5103 20.9968C17.0648 20.3008 16.5732 20.2763 16.0453 20.9238ZM11.8596 30.6582C12.1336 30.9495 12.4444 31.0181 12.7478 30.868C13.0441 30.7215 13.204 30.4032 13.1589 30.0584C13.1296 29.8344 12.9923 29.6804 12.8496 29.5273C11.5226 28.1033 10.7309 26.4057 10.5324 24.4477C10.2614 21.7749 11.0251 19.4341 12.8019 17.4562C12.9551 17.2857 13.1211 17.128 13.1555 16.8806C13.2042 16.5316 13.0489 16.2146 12.7537 16.0671C12.459 15.9199 12.1363 15.9808 11.8846 16.2433C10.9388 17.2295 10.2123 18.365 9.71234 19.6536C9.23616 20.8809 9.01066 22.1579 9 23.6027C9.04676 26.2546 9.97791 28.6582 11.8596 30.6582ZM14.0011 18.5405C12.7292 19.9153 12.1006 21.5589 12.0692 23.4908C12.094 25.3346 12.7113 26.9729 13.9621 28.3501C14.3453 28.7719 14.7759 28.8218 15.1159 28.4908C15.442 28.1732 15.4161 27.7314 15.0459 27.3183C13.9559 26.1021 13.4421 24.6739 13.5703 23.0155C13.6728 21.6895 14.1767 20.5471 15.0699 19.5856C15.4231 19.2054 15.4341 18.7522 15.1105 18.4374C14.7847 18.1206 14.3528 18.1604 14.0011 18.5405Z" fill="white"/>
</svg>
