<svg width="320" height="349" viewBox="0 0 320 349" fill="none" xmlns="http://www.w3.org/2000/svg">
<path fill-rule="evenodd" clip-rule="evenodd" d="M99.1165 341.604C71.2253 336.195 46.3451 323.336 22.8148 307.27C11.6448 299.642 2.90449 289.286 -5.6571 278.79C-29.1997 249.915 -36.9827 215.478 -36.9713 178.62C-36.9606 160.966 -33.3888 143.542 -27.7299 127.071C-20.5834 106.27 -11.1243 86.316 2.72392 69.3136C22.4465 45.0919 46.0864 26.3308 74.7868 14.9682C93.5778 7.52898 112.766 2.03081 132.911 0.910874C152.461 -0.174922 171.913 0.134373 190.978 5.76766C196.749 7.47194 202.635 8.76268 208.468 10.2373C227.706 15.0883 244.953 24.3393 261.187 36.0085C270.12 42.4295 278.702 49.3146 285.666 57.9412C293.324 67.4254 301.156 76.6662 305.896 88.6419C309.877 98.6906 314.252 108.451 316.548 119.134C320.64 138.173 321.21 157.154 316.275 176.129C315.75 178.151 315.209 180.181 314.884 182.243C311.657 202.82 302.561 220.926 292.964 238.765C281.534 260.008 267.561 279.45 251.408 296.877C239.521 309.708 227.178 322.154 212.604 332.083C195.49 343.743 176.793 348.11 156.943 348.672C146.614 348.965 136.174 349.335 125.952 348.13C116.885 347.061 108.048 343.862 99.1165 341.604Z" fill="#EAD3B5" fill-opacity="0.6"/>
</svg>
