<svg width="622" height="670" viewBox="0 0 622 670" fill="none" xmlns="http://www.w3.org/2000/svg">
<g filter="url(#filter0_b_1_6)">
<path fill-rule="evenodd" clip-rule="evenodd" d="M494.437 372.835C463.018 388.296 429.659 395.383 395.518 398.827C379.31 400.461 363.717 398.079 348.208 395.452C305.554 388.217 274.934 365.055 250.483 334.29C238.778 319.552 230.778 302.454 225.493 284.657C218.819 262.182 215.014 238.757 217.547 214.652C221.15 180.316 232.287 147.732 253.382 117.697C267.194 98.032 282.691 79.7026 302.048 64.3417C320.834 49.4348 340.448 35.7626 363.21 26.8103C370.099 24.0997 376.828 20.9617 383.626 18.0152C406.042 8.28584 429.39 3.65434 453.332 1.76585C466.507 0.726103 479.639 0.325846 492.314 2.53691C506.248 4.96718 520.196 7.0695 532.873 13.6683C543.515 19.2019 554.357 24.214 563.738 31.4841C580.457 44.441 593.623 59.8708 601.292 79.2394C602.11 81.3019 602.917 83.3834 603.962 85.3371C614.398 104.818 617.339 126.441 619.602 148.2C622.296 174.112 621.258 200.342 616.706 226.451C613.361 245.67 609.305 264.895 601.354 283.617C592.015 305.604 576.259 322.637 556.825 337.321C546.714 344.963 536.543 352.748 525.544 359.063C515.787 364.663 504.847 368.323 494.437 372.835Z" fill="#CEB698" fill-opacity="0.35"/>
<path fill-rule="evenodd" clip-rule="evenodd" d="M263.134 666.736C222.953 672.126 183.725 667.54 144.98 658.638C126.588 654.41 110.348 645.973 94.2917 637.296C50.1353 613.423 25.0536 576.428 9.54404 533.328C2.12276 512.683 -0.36247 490.81 0.390297 469.176C1.34072 441.854 5.79047 414.551 17.4483 388.855C34.0485 352.252 58.2723 320.388 92.4894 295.049C114.893 278.46 138.653 263.972 165.558 254.202C191.669 244.722 218.234 236.914 246.516 235.494C255.076 235.063 263.619 234.1 272.166 233.375C300.354 230.967 327.688 234.54 354.665 241.365C369.511 245.121 384.073 249.567 397.171 256.728C411.572 264.601 426.108 272.117 437.593 284.128C447.237 294.205 457.293 303.78 464.913 315.306C478.493 335.848 487.263 357.801 488.549 382.06C488.687 384.644 488.807 387.244 489.234 389.792C493.516 415.206 488.781 440.196 483.252 465.084C476.667 494.722 465.867 523.322 451.256 550.482C440.507 570.475 428.975 590.211 413.352 607.941C395.005 628.762 371.436 641.72 344.696 650.714C330.783 655.394 316.752 660.212 302.352 663.096C289.58 665.653 276.223 665.625 263.134 666.736Z" fill="#2B8049" fill-opacity="0.15"/>
</g>
<defs>
<filter id="filter0_b_1_6" x="-9.7384" y="-9.07169" width="640.809" height="688.119" filterUnits="userSpaceOnUse" color-interpolation-filters="sRGB">
<feFlood flood-opacity="0" result="BackgroundImageFix"/>
<feGaussianBlur in="BackgroundImageFix" stdDeviation="5"/>
<feComposite in2="SourceAlpha" operator="in" result="effect1_backgroundBlur_1_6"/>
<feBlend mode="normal" in="SourceGraphic" in2="effect1_backgroundBlur_1_6" result="shape"/>
</filter>
</defs>
</svg>
