<svg width="156" height="121" viewBox="0 0 156 121" fill="none" xmlns="http://www.w3.org/2000/svg">
<path fill-rule="evenodd" clip-rule="evenodd" d="M152.193 56.7255C148.761 68.1119 143.167 78.1383 135.714 86.9968C131.232 92.3248 126.256 96.9334 120.906 101.043C114.834 105.704 108.386 109.379 101.625 112.314C93.8049 115.709 85.7946 117.951 77.6837 119.349C70.4898 120.589 63.3081 120.894 56.2011 119.947C52.9912 119.519 49.8063 119.036 46.6437 118.355C44.7147 117.94 42.7764 117.58 40.8953 116.985C37.7294 115.984 34.7851 114.426 31.7567 113.074C27.448 111.151 23.6798 108.324 19.9645 105.36C14.6162 101.093 10.3246 95.732 6.75565 89.5298C4.2441 85.165 2.43957 80.4321 1.21925 75.3623C-0.00916886 70.259 -0.282727 64.9737 0.492641 59.5419C1.68104 51.2142 5.16638 44.0801 10.409 37.7978C13.618 33.9531 17.2755 30.9972 21.6537 29.4451C25.069 28.2341 28.4596 27.96 31.917 28.7091C37.0792 29.8283 42.3042 30.7104 47.6185 31.103C53.4721 31.5354 59.3343 31.8004 65.2623 31.4167C74.9654 30.7881 83.8564 27.1495 91.8312 20.0752C94.8168 17.426 97.7599 14.7116 100.708 12.0059C103.444 9.49343 106.32 7.2604 109.402 5.35745C115.417 1.64306 121.747 0.152677 128.102 1.16902C137.12 2.61161 144.54 7.16357 149.679 15.6581C154.751 24.0418 156.54 33.4624 155.164 43.9931C154.923 45.8422 154.834 47.7256 154.395 49.5319C153.803 51.9609 152.94 54.3303 152.193 56.7255Z" fill="#EAD3B5" fill-opacity="0.85"/>
</svg>
