<svg width="519" height="669" viewBox="0 0 519 669" fill="none" xmlns="http://www.w3.org/2000/svg">
<g filter="url(#filter0_b_1_6)">
<path fill-rule="evenodd" clip-rule="evenodd" d="M392.175 371.906C360.756 387.367 327.397 394.455 293.256 397.899C277.049 399.533 261.455 397.151 245.946 394.524C203.292 387.288 172.672 364.127 148.222 333.362C136.516 318.623 128.516 301.526 123.231 283.729C116.557 261.254 112.752 237.829 115.285 213.724C118.889 179.388 130.025 146.803 151.121 116.768C164.933 97.1037 180.43 78.7743 199.786 63.4133C218.573 48.5065 238.187 34.8342 260.948 25.882C267.837 23.1714 274.566 20.0334 281.365 17.0869C303.78 7.35752 327.128 2.72603 351.071 0.837539C364.246 -0.202211 377.378 -0.602469 390.052 1.6086C403.987 4.03887 417.934 6.14119 430.611 12.7399C441.253 18.2735 452.096 23.2857 461.477 30.5557C478.195 43.5127 491.361 58.9425 499.03 78.3111C499.848 80.3736 500.656 82.455 501.701 84.4088C512.137 103.89 515.078 125.513 517.341 147.272C520.035 173.183 518.996 199.413 514.444 225.523C511.1 244.742 507.044 263.967 499.092 282.689C489.754 304.675 473.997 321.708 454.563 336.393C444.452 344.034 434.281 351.82 423.282 358.135C413.526 363.735 402.585 367.395 392.175 371.906Z" fill="#CEB698" fill-opacity="0.35"/>
<path fill-rule="evenodd" clip-rule="evenodd" d="M160.873 665.807C120.691 671.198 81.4632 666.612 42.7188 657.709C24.326 653.482 8.0863 645.045 -7.96994 636.368C-52.1263 612.494 -77.208 575.5 -92.7176 532.4C-100.139 511.755 -102.624 489.882 -101.871 468.248C-100.921 440.926 -96.4711 413.622 -84.8133 387.927C-68.2131 351.324 -43.9893 319.46 -9.77215 294.121C12.631 277.531 36.3916 263.044 63.2963 253.274C89.4076 243.794 115.973 235.986 144.254 234.566C152.815 234.135 161.357 233.172 169.905 232.446C198.092 230.038 225.427 233.612 252.404 240.437C267.249 244.193 281.811 248.639 294.909 255.8C309.311 263.673 323.846 271.188 335.332 283.2C344.976 293.276 355.031 302.851 362.651 314.378C376.232 334.92 385.002 356.872 386.287 381.131C386.425 383.715 386.545 386.316 386.973 388.864C391.254 414.278 386.52 439.268 380.991 464.156C374.406 493.794 363.606 522.394 348.995 549.553C338.245 569.547 326.713 589.283 311.09 607.013C292.743 627.834 269.174 640.792 242.435 649.785C228.522 654.466 214.49 659.284 200.09 662.168C187.319 664.725 173.961 664.697 160.873 665.807Z" fill="#2B8049" fill-opacity="0.15"/>
</g>
<defs>
<filter id="filter0_b_1_6" x="-112" y="-10" width="640.809" height="688.119" filterUnits="userSpaceOnUse" color-interpolation-filters="sRGB">
<feFlood flood-opacity="0" result="BackgroundImageFix"/>
<feGaussianBlur in="BackgroundImageFix" stdDeviation="5"/>
<feComposite in2="SourceAlpha" operator="in" result="effect1_backgroundBlur_1_6"/>
<feBlend mode="normal" in="SourceGraphic" in2="effect1_backgroundBlur_1_6" result="shape"/>
</filter>
</defs>
</svg>
