<svg width="162" height="114" viewBox="0 0 162 114" fill="none" xmlns="http://www.w3.org/2000/svg">
<path fill-rule="evenodd" clip-rule="evenodd" d="M136.26 98.0697C135.992 98.0976 135.678 98.046 135.464 98.1693C134.987 98.4425 134.534 98.7734 134.118 99.1338C130.732 102.074 126.731 103.952 122.685 105.747C117.021 108.26 111.13 110.121 105.103 111.487C99.1605 112.833 93.1259 113.615 87.0128 113.66C83.3225 113.688 81.0558 113.119 77.4024 112.553C69.819 111.376 64.7688 108.308 57.7061 105.186C50.3986 101.957 47.286 98.698 39.351 94.4827C27.9936 86.0384 28.5588 86.1039 24.5055 82.8527C20.218 79.4136 19.5967 78.8453 19.5967 78.8453C19.2468 78.3781 19.1825 78.4665 18.3542 77.7088C18.1542 77.2984 17.6422 76.8687 17.36 76.5087C13.4406 71.0219 10.5847 65.3719 7.71553 59.3984C5.39168 54.5597 3.66996 49.4972 2.52841 44.2711C1.32591 38.7777 0.582605 33.2237 0.7844 27.5433C0.909239 24.016 1.36385 20.5708 2.08972 17.1435C3.06223 12.5515 5.00487 8.39409 8.12828 4.87714C11.859 0.676602 18.5207 -0.423013 22.8227 1.79525C25.4139 3.13145 27.6826 4.80423 29.5198 7.0108C31.3419 9.19908 33.262 11.3309 34.5343 13.9371C34.8923 14.6696 35.5273 15.263 36.0146 15.9352C36.9831 17.2766 37.9098 18.6402 38.7953 20.0437C40.2127 22.2886 41.8242 24.4316 43.8998 26.1848C45.1634 27.2523 46.3499 28.3884 47.7555 29.2967C51.222 31.5343 55.0165 32.3344 59.083 32.2087C62.7196 32.0961 66.1988 31.2374 69.618 30.0841C73.8096 28.6717 77.9997 27.2555 82.1748 25.7957C89.7924 23.1326 97.6027 21.442 105.668 20.9713C113.465 20.5169 121.171 21.116 128.647 23.4124C136.574 25.8465 143.683 29.8314 150.008 35.2415C153.276 38.0379 155.843 41.4238 158.218 44.9083C161.092 49.1239 162.237 53.9392 161.767 59.0967C161.151 65.8422 158.923 72.026 155.413 77.7829C153.25 81.3316 150.765 84.6515 148.002 87.7434C146.845 89.0391 145.373 90.0524 144.055 91.2066C143.516 91.6786 142.772 92.004 142.758 92.8857C140.592 94.6134 138.426 96.3415 136.26 98.0697Z" fill="#2F804A" fill-opacity="0.9"/>
</svg>
