<svg width="380" height="439" viewBox="0 0 380 439" fill="none" xmlns="http://www.w3.org/2000/svg">
<path fill-rule="evenodd" clip-rule="evenodd" d="M619.611 234.473C618.812 235.157 617.688 235.689 617.274 236.561C616.348 238.498 615.628 240.567 615.091 242.65C610.737 259.618 602.05 274.542 593.035 289.296C580.413 309.949 565.612 329.015 549.277 346.791C533.169 364.316 515.511 380.231 495.965 393.952C484.168 402.239 475.618 405.443 462.619 411.737C435.634 424.799 412.59 426.154 382.958 431.807C352.302 437.659 335.06 434.097 300.196 438.173C244.941 436.259 246.903 435.214 226.656 433.767C205.238 432.237 201.98 431.79 201.98 431.79C199.818 431.066 199.807 431.492 195.462 430.897C193.908 430.022 191.308 429.778 189.602 429.248C164.82 420.319 143.093 408.504 120.605 395.678C102.39 385.289 85.6138 372.843 70.3381 358.582C54.2731 343.598 39.5492 327.399 27.5819 308.695C20.1493 297.082 13.9586 285 8.67982 272.373C1.60663 255.455 -1.38337 237.78 0.84384 219.54C3.50467 197.754 22.4718 179.425 41.2244 177C52.5198 175.539 63.5263 175.877 74.3313 178.888C85.0472 181.874 95.9528 184.461 105.83 190.011C108.607 191.57 111.966 192.067 115.025 193.145C121.117 195.305 127.123 197.629 133.086 200.173C142.627 204.24 152.566 207.548 163.13 208.573C169.562 209.197 175.898 210.213 182.433 210.011C198.543 209.503 212.515 203.647 225.305 194.212C236.742 185.773 246.017 175.286 254.444 163.986C264.778 150.138 275.099 136.28 285.275 122.316C303.842 96.8394 325.189 74.0596 350.064 54.6346C374.113 35.8573 400.207 20.6696 429.336 11.4449C460.218 1.66206 491.916 -1.32031 524.256 2.02141C540.973 3.74884 556.741 8.93006 572.114 14.853C590.711 22.0199 605.086 34.9517 615.029 52.5717C628.031 75.6187 634.604 100.44 636.112 126.736C637.039 142.947 636.428 159.134 634.415 175.207C633.574 181.941 631.095 188.466 629.419 195.105C628.735 197.819 627.068 200.516 628.982 203.38C625.859 213.742 622.735 224.108 619.611 234.473Z" fill="#EAD3B5" fill-opacity="0.65"/>
</svg>
