<svg width="406" height="400" viewBox="0 0 406 400" fill="none" xmlns="http://www.w3.org/2000/svg">
<path fill-rule="evenodd" clip-rule="evenodd" d="M278.437 372.835C247.018 388.296 213.659 395.383 179.518 398.828C163.31 400.461 147.717 398.08 132.208 395.452C89.554 388.217 58.9339 365.055 34.4834 334.29C22.778 319.552 14.7778 302.454 9.49306 284.657C2.81872 262.182 -0.98637 238.757 1.54708 214.652C5.15056 180.316 16.2868 147.732 37.3824 117.697C51.1945 98.0322 66.6912 79.7028 86.048 64.3418C104.834 49.435 124.449 35.7627 147.21 26.8105C154.099 24.0999 160.828 20.9619 167.627 18.0154C190.042 8.28601 213.39 3.65454 237.332 1.76603C250.508 0.726296 263.64 0.326045 276.314 2.5371C290.249 4.96737 304.196 7.06969 316.873 13.6684C327.515 19.2021 338.357 24.2142 347.738 31.4843C364.457 44.4412 377.623 59.871 385.292 79.2396C386.11 81.3021 386.917 83.3835 387.962 85.3373C398.398 104.818 401.339 126.441 403.602 148.2C406.296 174.112 405.258 200.342 400.706 226.451C397.361 245.67 393.305 264.895 385.354 283.618C376.015 305.604 360.259 322.637 340.825 337.321C330.714 344.963 320.543 352.748 309.544 359.063C299.787 364.664 288.847 368.323 278.437 372.835Z" fill="#CEB698" fill-opacity="0.35"/>
</svg>
