<svg width="25" height="24" viewBox="0 0 25 24" fill="none" xmlns="http://www.w3.org/2000/svg">
<path d="M21.0742 5.25H3.07422C2.66422 5.25 2.32422 4.91 2.32422 4.5C2.32422 4.09 2.66422 3.75 3.07422 3.75H21.0742C21.4842 3.75 21.8242 4.09 21.8242 4.5C21.8242 4.91 21.4842 5.25 21.0742 5.25Z" fill="#47586E"/>
<path opacity="0.4" d="M21.0742 10.25H3.07422C2.66422 10.25 2.32422 9.91 2.32422 9.5C2.32422 9.09 2.66422 8.75 3.07422 8.75H21.0742C21.4842 8.75 21.8242 9.09 21.8242 9.5C21.8242 9.91 21.4842 10.25 21.0742 10.25Z" fill="#47586E"/>
<path d="M21.0742 15.25H3.07422C2.66422 15.25 2.32422 14.91 2.32422 14.5C2.32422 14.09 2.66422 13.75 3.07422 13.75H21.0742C21.4842 13.75 21.8242 14.09 21.8242 14.5C21.8242 14.91 21.4842 15.25 21.0742 15.25Z" fill="#47586E"/>
<path opacity="0.4" d="M21.0742 20.25H3.07422C2.66422 20.25 2.32422 19.91 2.32422 19.5C2.32422 19.09 2.66422 18.75 3.07422 18.75H21.0742C21.4842 18.75 21.8242 19.09 21.8242 19.5C21.8242 19.91 21.4842 20.25 21.0742 20.25Z" fill="#47586E"/>
</svg>
